<svg width="21" height="27" viewBox="0 0 21 27" fill="none" xmlns="http://www.w3.org/2000/svg">
<path fill-rule="evenodd" clip-rule="evenodd" d="M10.0614 0.5C4.56293 0.646124 0.138226 5.32366 0 11.1364C0.0932871 12.855 0.54166 14.5311 1.31358 16.0468L1.39183 16.1945C7.4734 26.5 9.29005 26.5 10.0614 26.5C11.2688 26.5 12.5712 25.6018 15.6511 21.0223C17.2665 18.6586 18.6528 16.295 18.7087 16.1886L18.7869 16.0468C19.5666 14.533 20.0227 12.8568 20.1229 11.1364C19.9846 5.32366 15.5599 0.646124 10.0614 0.5ZM17.328 15.2727C17.328 15.2727 11.7383 24.7273 10.0614 24.7273C8.38452 24.7273 2.79484 15.2727 2.79484 15.2727C2.14501 13.995 1.76368 12.5841 1.6769 11.1364C1.6769 6.24111 5.43078 2.27273 10.0614 2.27273C14.6921 2.27273 18.4459 6.24111 18.4459 11.1364C18.354 12.5855 17.9669 13.9964 17.3112 15.2727H17.328Z" fill="#0C090A"/>
<path fill-rule="evenodd" clip-rule="evenodd" d="M10.0605 5.81787C7.59081 5.81787 5.58875 7.93434 5.58875 10.5451C5.58875 13.1559 7.59081 15.2724 10.0605 15.2724C12.5302 15.2724 14.5322 13.1559 14.5322 10.5451C14.5322 7.93434 12.5302 5.81787 10.0605 5.81787ZM10.0605 13.4997C8.51694 13.4997 7.26565 12.1769 7.26565 10.5451C7.26565 8.91339 8.51694 7.5906 10.0605 7.5906C11.604 7.5906 12.8553 8.91339 12.8553 10.5451C12.8553 12.1769 11.604 13.4997 10.0605 13.4997Z" fill="#0C090A"/>
</svg>
