<?xml version="1.0" encoding="utf-8"?>
<!-- Generator: Adobe Illustrator 22.1.0, SVG Export Plug-In . SVG Version: 6.00 Build 0)  -->
<svg version="1.1" id="Layer_1" xmlns="http://www.w3.org/2000/svg" xmlns:xlink="http://www.w3.org/1999/xlink" x="0px" y="0px"
	 viewBox="0 0 50 50" style="enable-background:new 0 0 50 50;" xml:space="preserve">
<style type="text/css">
	.st0{fill:none;stroke:#000000;stroke-width:0.75;stroke-linecap:round;stroke-linejoin:round;stroke-miterlimit:10;}
</style>
<path class="st0" d="M37,27.6c0.5,0,0.8-0.3,0.8-0.8c0-0.5-0.3-0.8-0.8-0.8h-4.2c-0.5,0-0.8-0.3-0.8-0.8l0,0c0-0.5,0.3-0.8,0.8-0.8
	H37c0.5,0,0.8-0.3,0.8-0.8c0-0.5-0.3-0.8-0.8-0.8h-8.4c-0.5,0-0.8,0.3-0.8,0.8v16.9c0,0.5,0.3,0.8,0.8,0.8H37c0.5,0,0.8-0.3,0.8-0.8
	c0-0.5-0.3-0.8-0.8-0.8h-4.2c-0.5,0-0.8-0.3-0.8-0.8l0,0c0-0.5,0.3-0.8,0.8-0.8H37c0.5,0,0.8-0.3,0.8-0.8S37.5,36,37,36h-4.2
	c-0.5,0-0.8-0.3-0.8-0.8l0,0c0-0.5,0.3-0.8,0.8-0.8H37c0.5,0,0.8-0.3,0.8-0.8c0-0.5-0.3-0.8-0.8-0.8h-4.2c-0.5,0-0.8-0.3-0.8-0.8
	l0,0c0-0.5,0.3-0.8,0.8-0.8H37c0.5,0,0.8-0.3,0.8-0.8c0-0.5-0.3-0.8-0.8-0.8h-4.2c-0.5,0-0.8-0.3-0.8-0.8l0,0c0-0.5,0.3-0.8,0.8-0.8
	H37z"/>
<g>
	<g>
		<path class="st0" d="M24.1,40.9L13.4,41l-0.2-17.3c0-2.9,2.3-5.4,5.3-5.4l0,0c2.9,0,5.4,2.3,5.4,5.3L24.1,40.9z"/>
		<polyline class="st0" points="21.3,31 21.3,32.8 21.4,34.6 21.4,36.5 21.4,38.3 		"/>
		<line class="st0" x1="21.3" y1="27.3" x2="21.3" y2="28.7"/>
		<path class="st0" d="M15.9,19.1l0-3.4c0-0.7,0.6-1.3,1.3-1.3l2.7,0c0.7,0,1.3,0.6,1.3,1.3l0,3.4"/>
	</g>
	<line class="st0" x1="23.8" y1="14.4" x2="25.8" y2="13.4"/>
	<line class="st0" x1="25.8" y1="19.4" x2="23.8" y2="18.4"/>
	<line class="st0" x1="23.8" y1="16.4" x2="25.8" y2="16.4"/>
</g>
</svg>
