<svg width="595" height="1029" viewBox="0 0 595 1029" fill="none" xmlns="http://www.w3.org/2000/svg">
<rect width="595" height="1029" fill="#6A25FF"/>
<mask id="mask0" mask-type="alpha" maskUnits="userSpaceOnUse" x="0" y="0" width="595" height="1029">
<rect width="595" height="1029" fill="#6A25FF"/>
</mask>
<g mask="url(#mask0)">
<mask id="mask1" mask-type="alpha" maskUnits="userSpaceOnUse" x="124" y="306" width="583" height="808">
<path d="M546.461 939.565C542.717 949.814 539.13 960.005 531.544 968.452C526.957 973.547 523.311 979.701 520.272 985.874C519.175 988.128 517.156 988.794 516.019 990.813C513.333 995.497 512.353 1000.79 508.943 1005.35C501.219 1015.62 493.594 1025.91 485.538 1035.95C480.226 1042.55 475.247 1049.51 469.719 1055.96C459.428 1067.99 446.275 1076.04 431.672 1081.81C414.814 1088.45 398.094 1095.64 380.864 1101.15C348.736 1111.4 315.962 1115.53 282.011 1111.5C261.567 1109.07 241.651 1105.21 224.147 1094.76C196.135 1078.06 173.025 1055.84 156.716 1027.15C156.108 1026.07 155.324 1025.09 154.579 1024.09C147.915 1015.02 141.897 1005.65 138.82 994.615C137.31 989.147 135.056 983.914 132.586 978.76C125.255 963.474 126.666 948.09 132.586 932.744C138.545 917.321 148.503 904.21 159.656 892.589C174.534 877.067 181.512 859.076 183.747 838.263C185.825 818.92 182.414 800.165 178.964 781.351C176.847 769.808 174.965 758.226 172.692 746.702C169.026 728.143 160.48 711.602 151.718 695.023C140.309 673.426 131.586 650.692 126.294 626.724C121.883 606.676 124.059 586.98 130.881 568.068C134.821 557.171 139.937 546.471 148.228 537.652C156.304 529.068 164.439 520.641 174.064 513.782C197.214 497.28 222.716 485.718 249.766 477.291C280.639 467.668 310.709 456.282 337.093 436.919C356.636 422.554 375.238 407.072 393.095 390.668C417.421 368.346 442.904 347.572 472.346 332.208C500.867 317.313 530.681 305.711 563.318 306.005C612.421 306.456 654.467 323.8 684.242 364.172C706.275 394.039 709.842 428.257 702.649 463.984C701.355 470.431 700.042 476.879 698.532 483.288C694.651 499.75 687.967 514.86 678.127 528.735C672.403 536.829 666.209 544.57 660.485 552.566C653.761 561.953 646.254 570.557 638.511 578.945C629.533 588.665 621.595 599.091 614.028 609.87C611.402 613.633 607.227 615.906 604.678 619.963C595.054 635.269 585.037 650.32 578.176 667.155C574.472 676.228 570.689 685.087 569.963 695.317C569.512 701.588 569.904 707.84 569.356 714.072C568.532 723.42 570.14 732.611 571.629 741.744C572.198 745.252 567.944 748.094 568.866 748.329C573.825 749.642 570.336 752.425 570.434 754.443C570.493 755.639 569.728 756.952 570.002 758.049C574.609 776.706 572.61 795.756 573.002 814.589C573.374 832.07 574.903 849.904 570.159 867.053C568.434 873.304 567.18 879.732 565.357 885.984C563.181 893.49 559.143 900.506 558.457 908.326C557.516 919.34 551.949 928.57 547.931 938.428C547.715 938.977 546.892 939.271 546.363 939.702C546.872 933.842 551.675 929.472 551.851 923.435C547.735 932.176 542.599 940.466 540.462 950.108C542.442 946.62 544.461 943.092 546.461 939.565ZM403.994 426.042C410.443 422.025 415.598 416.537 420.714 411.05C415.187 416.106 408.522 419.889 404.092 426.16C399.368 427.826 396.369 431.667 392.997 435.038C397.271 432.784 400.956 429.805 403.994 426.042ZM467.053 344.809C468.053 344.515 469.131 344.358 470.033 343.868C492.595 331.875 516.136 322.37 541.07 316.53C541.972 316.314 543.207 316.353 543.736 314.962C542.05 315.197 540.462 315.393 538.894 315.667C518.175 319.273 498.985 327.171 480.324 336.539C475.678 338.871 470.601 340.674 467.132 344.927C461.565 345.319 458.174 350.003 453.371 351.943C452.528 352.276 451.627 353.805 452.901 355.118C453.332 355.549 453.92 355.823 454.175 355.314C456.978 349.944 463.78 349.532 467.053 344.809ZM317.412 1089.78C320.941 1089.78 324.508 1090.1 327.997 1089.72C342.326 1088.25 356.459 1085.53 370.573 1082.86C391.547 1078.91 410.874 1069.99 430.711 1062.68C439.865 1059.31 448.628 1054.7 454.822 1046.59C475.325 1019.76 491.811 990.872 503.532 958.986C512.883 933.548 525.055 909.149 535.033 883.926C542.168 865.916 546.715 847.043 548.754 827.7C550.459 811.571 549.499 795.403 549.617 779.235C549.715 765.947 549.479 752.66 550.303 739.333C550.891 729.946 548.793 720.167 547.97 710.544C546.559 693.612 546.813 676.875 551.949 660.432C556.693 645.264 563.142 630.84 571.139 617.2C587.331 589.586 607.619 564.991 628.906 541.238C640.334 528.48 651.546 515.604 661.014 501.318C678.401 475.017 686.751 445.954 686.046 414.499C685.477 389.904 674.716 370.816 653.487 357.842C616.596 335.285 577.647 328.073 535.856 341.811C503.474 352.452 474.659 369.346 448.275 390.805C431.829 404.191 416.814 419.183 400.407 432.608C378.061 450.892 355.362 468.648 329.056 481.073C308.69 490.696 287.284 497.476 265.761 503.826C247.375 509.255 229.87 516.604 213.307 526.226C194.195 537.338 178.063 551.547 166.889 570.929C165.556 573.242 165.517 573.202 162.499 573.261C161.577 573.281 161.519 574.045 161.224 574.653C158.421 580.219 156.598 586.039 156.52 592.35C156.461 596.602 158.108 602.697 156.657 604.755C151.972 611.34 155.501 617.709 156.363 623.255C157.441 630.134 159.245 637.268 161.342 644.147C166.635 661.432 172.711 678.423 181.316 694.317C189.216 708.898 196.88 723.596 199.154 740.098C199.821 744.88 205.584 750.347 199.429 755.443C199.429 755.443 199.86 755.913 200.036 756.207C203.31 761.244 204.956 766.927 205.211 772.767C205.446 778.353 207.446 783.566 207.681 789.073C208.073 797.97 211.366 806.613 209.465 815.765C208.602 819.92 208.798 824.329 208.798 828.641C208.779 838.204 205.544 847.318 205.035 856.901C204.839 860.487 201.702 865.054 199.977 869.169C193.783 883.907 182.787 895.136 173.142 907.444C164.067 919.026 153.874 930.354 152.913 946.228C152.521 952.636 150.62 959.378 153.933 965.394C162.812 981.543 167.497 999.828 179.689 1014.31C189.177 1025.58 195.547 1039.22 207.113 1049.02C218.423 1058.58 229.204 1068.89 242.259 1075.97C248.669 1079.43 255.176 1082.98 262.704 1084.65C280.796 1088.61 298.987 1090.04 317.412 1089.78ZM529.877 910.991C524.604 928.982 514.157 944.229 508.903 961.691C515.509 957.007 532.602 916.851 529.877 910.991ZM322.705 455.851C340.817 447.659 355.891 435.39 370.259 422.162C355.264 433.431 340.268 444.719 324.253 454.538C323.685 454.89 323.215 455.4 322.705 455.851ZM149.797 549.45C158.578 539.984 167.732 530.91 177.024 521.974C165.713 528.951 156.99 538.455 149.797 549.45ZM134.193 948.874C136.291 942.955 137.663 936.86 139.427 930.863C135.958 936.37 134.095 942.328 134.193 948.874ZM145.092 561.718C144.739 560.405 144.073 559.7 142.838 559.935C140.701 560.346 139.525 561.659 139.388 563.854C139.329 565.05 140.035 565.285 141.035 565.109C143.093 564.756 144.053 563.129 145.092 561.718Z" fill="black"/>
<path d="M465.249 851.355C465.034 850.061 465.249 848.905 463.956 848.258C463.72 850.257 462.113 852.158 464.759 853.922C466.308 854.941 464.857 856.588 464.465 857.822C460.917 868.895 457.467 880.007 454.057 891.099C450.803 901.663 446.902 912.069 444.471 922.867C443.236 928.296 440.61 933.176 438.61 938.291C437.689 940.643 436.925 942.877 436.925 945.444C436.925 950.638 436.552 950.775 431.75 948.051C431.358 947.815 430.75 947.953 430.084 947.914C430.084 948.482 429.907 949.07 430.103 949.403C433.161 954.498 432.514 960.593 428.927 965.493C426.555 968.726 424.379 971.999 423.36 976.252C421.812 982.641 417.44 987.678 412.344 991.891C411.873 992.283 410.835 992.087 410.776 992.989C410.482 998.26 406.248 1000.79 403.053 1003.92C399.995 1006.92 396.231 1009.12 393.35 1012.41C388.43 1018.05 382.902 1022.72 376.178 1026.46C373.062 1028.19 369.906 1031.48 366.456 1032.83C353.656 1037.85 341.13 1043.45 328.173 1048.12C306.278 1056.02 284.736 1053.7 263.017 1048.43C250.236 1045.33 238.691 1039.61 228.125 1031.75C224.087 1028.75 220.814 1025.09 217.501 1021.39C204.819 1007.22 195.939 991.009 191.47 972.568C188.608 960.77 190.411 949.207 196.331 938.585C197.88 935.782 199.095 932.118 204.329 932.745C206.622 933.019 208.876 928.766 210.66 926.062C223.205 906.974 233.398 886.69 241.611 865.387C250.256 842.967 257.803 820.312 260.723 796.226C262.84 778.745 260.468 761.989 256.215 745.135C252.804 731.632 245.747 720.343 237.711 709.349C231.673 701.118 226.283 692.416 220.324 684.126C218.207 681.187 220.873 679.305 221.5 675.523C218.246 679.952 217.697 679.07 216.325 675.425C214.933 671.78 212.385 668.37 210.386 664.842C206.093 657.277 203.623 649.046 203.544 640.541C203.505 637.327 201.82 634.622 202.27 631.585C202.819 627.744 203.094 623.804 204.172 620.1C206.093 613.555 207.288 606.676 213.698 602.227C215.462 600.992 214.424 597.19 216.423 595.035C225.009 585.824 233.104 575.986 243.846 569.146C269.407 552.88 296.163 539.024 324.214 527.344C343.737 519.211 362.379 508.941 377.766 493.831C400.406 471.607 424.223 450.677 448.725 430.55C471.953 411.462 496.848 395.078 525.388 384.848C537.365 380.556 549.655 377.989 562.357 377.126C580.489 375.872 594.053 384.123 604.599 397.822C624.828 424.142 629.572 453.754 621.79 485.6C616.556 507.021 608.853 527.559 597.974 546.785C592.877 555.8 588.016 564.932 579.587 571.811C575.569 575.084 573.432 580.611 570.335 585.059C559.789 600.248 546.499 613.28 536.012 628.567C531.327 635.367 527.387 642.559 522.977 649.477C513.352 664.607 506.786 681.285 499.553 697.571C493.202 711.857 490.908 727.457 488.615 742.92C486.145 759.578 483.538 776.236 480.715 792.836C479.069 802.419 477.932 812.336 474.521 821.311C472.149 827.563 472.071 834.207 469.229 840.262C467.582 843.731 469.327 848.494 465.249 851.355ZM239.2 883.437C240.71 882.868 241.102 881.34 241.611 880.125C246.59 868.581 251.981 857.195 255.313 845.025C257.254 837.911 260.684 831.13 260.566 823.487C257.116 836.99 251.118 849.571 246.865 862.78C244.61 869.777 240.376 876.087 239.298 883.535C233.202 891.57 230.223 901.212 225.303 909.854C230.517 901.349 236.632 893.314 239.2 883.437ZM244.669 692.534C244.767 691.848 244.61 690.868 245.002 690.555C245.708 689.986 246.061 690.849 246.531 691.378C247.845 692.828 247.237 695.023 249.04 696.473C252.392 699.158 254.686 702.509 256.352 706.762C257.763 710.388 261.644 713.014 264.291 716.208C264.879 716.914 265.624 718.129 264.859 719.128C263.448 721.01 264.585 721.617 266.133 722.068C268.054 722.617 269.074 724.067 269.72 725.733C272.073 731.769 275.209 737.491 275.915 744.155C276.366 748.447 277.052 753.581 278.659 756.697C283.089 765.418 283.246 774.61 282.834 783.35C282.462 791.268 280.933 799.362 281.305 807.279C281.619 814.119 278.169 819.704 277.208 826.074C276.052 833.795 270.701 840.537 269.642 848.552C268.995 853.471 263.781 857.215 263.84 861.115C263.938 870.13 255.96 874.99 254.549 883.123C254.098 885.71 253.039 889.59 250.785 892.04C246.159 897.096 244.806 904.093 240.024 909.11C233.986 915.44 230.87 923.945 224.44 930.217C220.579 933.999 217.56 938.879 214.188 943.23C211.13 947.169 211.405 953.264 210.386 958.477C208.915 966.002 213.247 971.882 215.188 978.486C219.853 994.302 229.556 1007.35 240.945 1017.9C263.154 1038.49 289.754 1045.26 319.333 1034.48C322.332 1033.38 325.331 1032.28 328.369 1031.26C346.129 1025.31 361.477 1015.45 375.728 1003.36C394.369 987.521 403.209 965.454 413.54 944.562C417.146 937.252 418.558 928.296 421.282 920.183C423.145 914.636 425.164 909.09 426.438 903.387C427.731 897.645 429.496 892.06 431.221 886.455C432.945 880.869 435.357 875.46 436.709 869.796C437.924 864.76 440.394 860.252 441.453 855.02C442.844 848.043 445.138 841.086 447.02 834.109C453.841 809.043 458.938 783.644 462.015 757.834C463.72 743.528 464.955 729.084 467.915 715.032C477.481 669.585 498.416 629.429 527.25 593.33C540.129 577.201 553.811 561.679 567.297 546.04C586.624 523.64 597.092 496.987 604.991 469.021C609.911 451.637 609.049 434.45 602.659 417.674C599.013 408.11 593.603 400.134 582.155 398.233C571.511 396.469 561.103 398.997 551.047 400.859C545.068 401.976 538.541 404.818 532.523 407.719C518.116 414.695 503.493 421.28 490.947 431.432C487.968 433.842 484.244 434.176 481.264 436.586C477.442 439.663 474.776 443.837 470.62 446.62C468.229 448.208 465.367 448.364 463.152 450.403C449.176 463.318 433.357 474.175 420.734 488.658C416.343 493.694 410.933 497.81 406.169 502.513C388.253 520.171 367.397 533.38 343.894 542.003C315.099 552.586 288.205 566.755 263.056 584.099C253.451 590.723 243.14 596.975 236.24 607.048C232.242 612.888 227.106 618.846 226.479 625.549C225.557 635.445 224.558 645.793 227.929 655.651C228.733 658.022 227.282 661.354 227.792 662.157C229.733 665.273 230.909 668.821 233.026 671.799C237.613 678.306 243.905 683.833 244.669 692.534ZM442.884 869.992C437.356 881.046 433.926 892.883 430.652 904.7C427.32 916.772 422.811 928.433 418.911 940.29C415.225 951.5 409.894 962.181 405.268 973.077C425.007 941.27 432.357 905.073 442.884 869.992ZM451.018 437.233C474.188 419.085 498.475 402.976 525.662 391.55C507.864 393.922 458.467 426.552 451.018 437.233ZM245.159 575.496C231.301 584.883 218.932 595.662 212.953 612.046C222.46 598.798 232.928 586.392 245.159 575.496ZM200.447 941.701C194.547 947.561 191.862 965.747 195.723 969.491C196.821 960.28 196.86 950.716 200.447 941.701ZM432.103 453.93C431.711 453.519 431.338 453.107 430.946 452.715C420.871 461.926 409.952 470.177 401.21 480.877C411.521 471.901 421.812 462.926 432.103 453.93ZM365.633 511.685C377.139 504.943 386.45 495.693 395.192 485.777C385.372 494.459 375.728 503.317 365.633 511.685Z" fill="black"/>
<path d="M494.477 598.699C496.378 601.913 495.731 603.932 494.457 607.048C491.34 614.652 484.989 620.61 483.774 629.096C483.343 632.114 480.991 634.407 479.56 636.954C475.894 643.441 475.188 650.967 471.895 657.277C468.779 663.274 467.426 669.82 464.231 675.68C462.545 678.796 463.133 682.656 460.938 685.674C459.448 687.713 455.763 700.334 455.351 702.783C454.273 708.918 453.038 715.012 451.803 721.107C451.588 722.146 451.117 723.224 449.706 723.008C448.236 722.773 447.53 723.44 448.099 724.753C450.216 729.652 447.687 734.022 445.805 737.864C440.336 749.034 435.593 760.499 430.79 771.925C429.83 774.198 425.419 773.571 426.987 778.078C427.791 780.352 425.223 784.31 423.439 787.25C421.714 790.131 420.538 793.345 418.99 796.324C407.444 818.313 396.859 840.733 386.803 863.447C381.236 876.048 374.591 888.159 368.711 900.624C367.221 903.779 366.261 907.306 365.261 910.677C364.34 913.774 363.007 918.222 359.224 920.163C358.518 920.515 358.087 920.849 357.851 921.554C353.225 936.115 340.798 943.739 329.723 952.264C321.784 958.378 312.12 961.984 303.103 966.198C297.536 968.805 292.401 972.959 285.912 973.88C279.405 974.801 272.936 975.977 266.35 976.114C259.96 976.252 254.04 974.743 248.747 971.078C245.964 969.157 245.552 966.708 246.767 963.611C249.767 955.948 254.295 949.52 261.273 944.974C263.939 943.229 266.801 941.72 268.565 938.859C269.839 936.821 271.975 939.388 274.347 937.076C282.678 928.884 287.873 918.908 293.224 908.894C304.299 888.14 312.551 866.19 320.49 844.123C323.92 834.579 325.704 824.623 327.272 814.609C328.253 808.298 328.919 801.968 329.35 795.599C329.546 792.64 330.742 790.209 334.368 792.012C336.525 793.09 337.191 791.503 338.21 790.405C338.936 789.621 338.779 788.7 338.093 788.034C336.819 786.819 335.721 788.093 334.741 788.563C330.683 790.543 329.35 789.367 329.566 784.918C330.134 772.689 330.448 760.44 327.272 748.407C325.685 742.41 323.47 736.668 320.569 731.22C312.101 715.326 301.182 701.02 291.519 685.89C284.442 674.817 277.17 663.744 275.68 650.242C275.327 647.086 272.838 643.265 277.19 640.717C277.425 640.58 277.64 640.129 277.621 639.835C276.778 627.469 277.15 627.155 285.56 618.493C291.009 612.868 297.654 608.969 304.436 605.852C329.37 594.388 350.383 577.71 370.945 559.856C395.977 538.122 418.794 513.88 444.805 493.38C473.307 470.921 505.905 455.537 540.502 444.915C558.771 439.31 572.296 452.931 568.317 471.882C564.338 490.794 557.163 508.51 547.637 525.364C536.699 544.707 524.154 563.031 512.02 581.59C508.688 586.686 505.865 592.212 501.808 596.916C499.652 599.366 498.083 601.502 494.477 598.699ZM304.279 897.214C305.789 897.116 306.22 895.881 306.788 894.803C313.806 881.026 319 866.465 325.391 852.413C328.449 845.671 327.41 837.577 332.545 831.58C333.427 830.561 333.153 829.542 331.918 829.013C330.311 828.327 329.448 829.385 329.272 830.699C328.566 835.814 326.116 840.301 324.43 845.083C320.059 857.371 316.295 869.816 310.434 881.594C308.004 886.494 305.299 891.648 304.436 897.312C300.104 903.054 297.007 909.443 294.596 916.165C297.595 909.756 303.417 904.759 304.279 897.214ZM442.492 527.598C436.22 530.401 433.123 536.476 428.614 541.101C422.694 544.531 419.421 550.724 414.168 554.878C405.092 562.032 395.761 568.969 387.274 576.789C369.691 592.957 350.305 606.186 328.782 616.572C320.784 620.433 311.473 621.256 304.652 627.939C300.477 632.016 295.4 635.328 295.027 641.717C294.478 651.202 295.949 660.354 300.516 668.879C308.964 684.636 320.333 698.393 330.272 713.131C340.602 728.437 349.834 744.017 352.186 763.106C354.441 781.351 353.088 799.42 352.01 817.548C351.794 821.213 349.305 824.721 349.168 828.954C348.972 834.892 348.913 841.477 345.149 846.357C338.347 855.137 336.093 865.837 331.644 875.578C330.193 878.772 331.075 883.476 328.272 885.925C324.528 889.198 323.528 893.49 321.725 897.586C321.019 899.193 320.059 900.8 318.824 902.015C314.766 906.052 312.218 911.363 309.395 915.969C303.848 925.003 297.674 932.999 289.892 940.074C287.637 942.112 284.109 941.877 282.757 945.052C281.404 948.227 278.934 950.578 276.327 952.773C273.681 955.008 272.309 957.947 271.27 961.377C273.21 961.945 274.465 961.142 275.759 960.671C283.815 957.712 290.715 952.519 298.497 948.971C312.159 942.759 323.685 933.744 332.8 921.691C339.622 912.676 344.267 902.466 349.148 892.412C358.831 872.462 368.672 852.589 377.747 832.384C382.844 821.056 388.117 809.846 393.762 798.813C403.112 780.469 411.443 761.655 419.578 742.763C426.086 727.633 431.476 712.053 434.985 695.865C438.062 681.755 443.414 668.37 448.667 654.965C458.644 629.448 468.798 604.03 485.244 581.708C500.024 561.659 514.98 541.748 528.349 520.68C538.306 504.963 546.971 488.677 551.205 470.392C551.655 468.432 553.106 465.865 551.44 464.415C550.028 463.2 547.715 464.807 545.932 465.512C527.212 472.92 509.178 481.739 491.752 491.832C488.596 493.655 485.813 497.77 480.991 495.752C480.304 495.458 478.893 496.418 479.305 497.241C480.755 500.122 477.933 500.103 476.835 500.808C469.974 505.335 463.212 509.98 456.508 514.762C451.274 518.524 447.628 523.855 442.492 527.598ZM341.033 919.732C344.777 913.637 349.325 908.247 352.382 901.564C359.302 886.454 367.319 871.854 373.905 856.568C383.706 833.795 394.037 811.257 406.15 789.563C406.915 788.21 407.621 786.839 405.602 784.859C381.531 828.993 364.418 875.872 341.033 919.732ZM441.081 504.061C454.998 493.772 469.308 484.091 484.695 476.036C500.24 467.903 515.96 460.143 531.916 452.931C499.514 466.179 467.504 480.113 441.081 504.061ZM398.329 544.903C397.996 544.472 397.682 544.041 397.349 543.61C382.53 556.446 367.731 569.283 352.912 582.119C353.225 582.492 353.539 582.845 353.853 583.217C368.672 570.439 383.491 557.681 398.329 544.903ZM304.123 612.085C293.008 614.162 281.6 624.647 282.757 631.722C288.147 622.922 295.949 617.298 304.123 612.085ZM406.209 782.997C406.739 783.272 407.287 783.566 407.817 783.84C409.522 779.293 414.403 776.06 412.149 769.847C410.169 774.237 408.189 778.607 406.209 782.997Z" fill="black"/>
<path d="M442.491 527.599C439.336 533.615 434.396 537.789 428.613 541.102C433.102 536.476 436.199 530.401 442.491 527.599Z" fill="black"/>
</mask>
<g mask="url(#mask1)">
<rect width="595" height="1029" fill="#793DFA"/>
</g>
</g>
</svg>
