<svg width="595" height="1031" viewBox="0 0 595 1031" fill="none" xmlns="http://www.w3.org/2000/svg">
<rect y="1" width="595" height="1029" fill="#6A25FF"/>
<mask id="mask0" mask-type="alpha" maskUnits="userSpaceOnUse" x="0" y="1" width="595" height="1029">
<rect y="1" width="595" height="1029" fill="#6A25FF"/>
</mask>
<g mask="url(#mask0)">
<path d="M291.32 888.018C288.574 888.86 286.297 889.576 283.364 890.48C284.081 888.953 284.549 887.956 285.142 886.647C283.176 883.717 280.992 881.068 276.936 881.66C276.624 880.475 276.437 879.696 276.156 878.636C273.785 878.636 271.32 878.636 269.135 878.636C268.449 877.951 267.825 877.608 267.669 877.109C266.577 873.868 266.358 870.003 264.424 867.478C261.897 864.206 263.176 860.995 263.051 857.847C262.957 855.26 263.987 852.642 264.642 850.055C266.92 840.83 270.415 832.071 274.908 823.718C277.654 818.575 280.743 813.589 284.144 808.851C287.451 804.207 291.32 799.999 295.064 795.449C294.035 794.794 292.943 794.046 291.788 793.36C280.618 786.753 270.852 778.462 261.803 769.268C257.528 764.935 257.497 759.107 256.249 753.715C255.75 751.564 256.155 749.195 256.155 746.92C258.433 742.556 263.051 742.182 267.513 740.406C269.011 743.055 270.571 745.767 272.318 748.852C272.63 748.634 273.161 748.229 274.097 747.543C274.689 748.136 275.719 748.697 276 749.507C277.778 754.556 281.897 757.143 286.297 759.325C295.22 763.782 304.238 768.083 313.848 772.727C316.094 770.358 318.341 766.712 321.586 764.904C324.581 763.221 324.737 758.421 329.418 758.889C328.762 758.078 328.294 757.486 327.608 756.644C329.043 755.647 330.51 754.618 332.538 753.216C333.193 751.813 334.16 749.663 335.096 747.543C336.532 747.45 337.905 747.387 339.839 747.263C339.028 746.203 338.591 745.642 337.905 744.801C341.524 744.271 341.742 740.531 344.02 738.536C346.423 736.416 348.108 733.486 350.385 730.588C350.885 730.962 351.415 731.336 352.414 732.084C352.85 731.055 353.256 730.058 353.786 728.842C354.41 729.341 354.972 729.809 356.002 730.619C357.125 724.666 360.495 719.866 364.114 715.565C367.827 711.139 371.166 706.027 377.219 703.066C377.968 703.69 378.998 704.531 380.152 705.466C377.75 710.079 375.441 714.63 370.511 717.03C370.511 719.336 370.511 721.456 370.511 723.824C371.665 723.544 372.851 723.606 373.1 723.139C374.099 721.3 374.785 719.305 375.16 718.37C379.216 715.035 382.492 712.323 386.673 708.895C386.923 712.074 387.048 714.131 387.204 716.126C385.924 716.656 384.957 717.03 383.959 717.466C384.208 717.84 384.552 718.526 384.708 718.495C386.767 718.058 388.826 717.528 391.322 716.905C392.04 718.152 392.914 719.679 393.787 721.206C393.319 721.736 392.758 722.328 392.165 723.014C392.508 725.476 395.472 727.658 393.195 730.463C392.539 729.871 391.946 729.31 391.322 728.78C391.042 729.31 390.511 729.871 390.605 730.214C390.917 731.211 391.51 732.115 392.165 733.424C391.697 737.725 388.233 740.624 385.051 743.523C382.024 746.265 378.686 748.697 374.785 751.813C376.377 752.748 377.781 753.528 379.341 754.431C378.374 756.302 377.781 757.455 377.157 758.639C377.531 759.044 378.062 759.637 378.904 760.572C377.063 760.883 375.503 761.133 373.256 761.475C373.88 763.034 374.38 764.343 375.004 765.87C373.069 765.87 371.166 765.87 369.325 765.87C368.264 768.021 367.359 769.891 366.486 771.699C367.297 772.571 367.859 773.195 368.67 774.067C366.922 774.379 365.362 774.691 363.116 775.096C363.677 776.53 364.177 777.839 364.77 779.397C363.303 779.615 361.743 779.833 359.715 780.145C360.308 781.766 360.807 783.075 361.618 785.226C359.403 784.353 357.78 783.729 355.846 782.981C354.941 784.727 354.005 786.503 353.069 788.249C353.381 788.872 353.506 789.558 353.911 789.745C354.598 790.119 355.503 790.057 356.189 790.431C358.779 791.896 359.403 795.262 361.961 796.695C364.738 798.254 365.924 800.934 367.671 803.303C369.263 805.454 370.417 807.261 370.261 809.973C370.199 810.908 371.041 811.874 371.54 813.059C371.104 813.838 370.448 814.898 369.575 816.394C367.266 816.643 365.612 819.729 361.4 818.108C354.067 815.272 346.454 812.716 338.497 811.781C338.061 811.718 337.686 811.033 336.969 810.285C334.628 812.903 332.319 815.521 329.418 818.794C329.386 819.105 329.23 820.446 329.043 821.879C327.421 822.129 325.861 822.378 323.427 822.752C325.018 824.996 326.235 826.679 328.014 829.173C325.985 828.58 324.644 828.206 322.959 827.708C322.616 828.113 321.898 828.954 321.118 829.89C322.116 832.601 321.305 834.284 318.123 836.092C317.155 839.52 316.25 842.824 315.47 845.567C314.035 846.097 313.224 846.409 312.194 846.783C313.037 847.624 313.411 847.998 314.066 848.653C311.539 850.585 308.606 852.175 306.64 854.544C304.862 856.663 304.113 859.655 302.74 862.678C302.865 862.896 303.426 863.707 304.331 865.047C302.459 866.98 300.618 868.881 298.84 870.689C299.526 871.561 300.025 872.185 300.93 873.276C299.682 874.709 298.434 876.112 297.092 877.67C297.092 879.166 297.092 880.849 297.092 882.626C294.939 884.558 292.88 886.522 291.32 888.018Z" fill="#793DFA"/>
<path d="M503.638 925.963C507.569 930.7 507.569 930.731 512.343 928.082C512.468 929.609 512.437 930.918 512.749 932.165C512.967 933.038 513.716 933.755 514.184 934.503C513.591 935.095 513.186 935.5 512.655 936.03C513.841 936.591 514.964 937.121 516.836 937.993C514.902 940.736 513.092 943.354 511.251 945.941C513.591 950.149 508.63 950.897 507.913 953.172C506.821 956.663 502.577 957.411 502.452 961.151C502.296 965.515 497.834 966.045 495.9 968.569C494.215 970.782 491.22 972.216 490.845 975.021C491.5 976.174 492.031 977.078 492.904 978.574C490.377 980.008 488.193 981.255 486.009 982.47L480.705 984.964C479.082 986.865 477.491 988.766 475.338 991.291C475.338 991.353 475.338 992.475 475.338 992.943C469.909 996.932 464.823 1000.67 458.926 1004.97C460.61 1005.85 461.64 1006.35 463.325 1007.22C460.985 1010.49 458.614 1013.79 456.086 1017.35C462.607 1019.56 468.785 1021.68 475.119 1023.83C474.495 1025.08 473.965 1026.17 473.247 1027.6C476.087 1028.6 478.708 1029.53 481.734 1030.63C481.734 1031.78 481.734 1033.12 481.734 1034.33C483.637 1036.08 485.291 1037.61 487.007 1039.2C487.101 1041.19 487.226 1043.09 487.319 1044.93C488.411 1046.02 489.41 1047.02 490.408 1048.02L482.577 1054.53C480.736 1056.59 478.801 1056.21 476.742 1054.84C476.118 1054.44 475.244 1054.19 474.464 1054.22C465.665 1054.41 457.74 1051.07 449.752 1048.14C443.855 1045.99 438.176 1043.25 432.061 1040.6C430.407 1042.25 427.786 1043.53 427.443 1046.96C423.917 1047.8 420.297 1048.64 416.896 1049.45C415.149 1047.67 413.745 1046.27 412.341 1044.87C412.871 1044.28 413.433 1043.68 414.244 1042.78C413.402 1041.04 412.497 1039.13 411.967 1038.01C409.346 1038.42 407.005 1038.79 404.728 1039.13C403.48 1036.64 402.325 1034.4 401.171 1032.12C400.609 1032.68 400.203 1033.09 400.047 1033.24C398.175 1031.34 396.272 1029.41 393.651 1026.76C394.462 1020.87 390.687 1014.11 391.716 1006.78C391.935 1005.25 390.749 1003.04 389.501 1001.86C384.478 997.151 384.259 990.356 381.919 984.559C381.014 982.346 380.047 979.541 379.985 976.86C379.86 972.621 379.36 968.258 380.078 964.144C381.233 957.629 382.449 950.679 390.063 948.123C392.559 947.282 395.336 947.188 398.643 946.627C398.643 951.115 398.643 954.949 398.643 959.874C401.514 958.035 403.448 956.788 406.319 954.918C406.725 956.102 407.193 957.474 407.661 958.876C408.098 958.564 408.503 958.222 408.94 957.91C408.94 960.372 408.94 962.835 408.94 965.733C410.406 964.985 411.467 964.455 412.466 963.957C416.085 967.105 415.992 971.156 415.492 975.302C416.709 975.738 417.677 976.081 419.268 976.642C418.581 978.45 417.926 980.257 417.115 982.47C418.082 982.283 418.581 982.346 418.862 982.128C419.517 981.598 419.985 980.663 420.703 980.382C427.973 977.639 431.624 969.91 438.925 967.229C440.392 961.962 445.946 960.84 449.222 957.287C452.592 953.578 457.397 951.178 461.453 948.092C465.416 945.1 467.631 940.082 472.779 938.492C476.18 932.321 481.048 927.646 487.101 924.186C486.882 920.01 492.624 919.511 492.499 915.085C494.964 915.085 497.429 915.085 500.175 915.085C500.736 915.646 501.516 916.425 502.327 917.236C498.646 919.074 497.304 922.596 494.964 926.337C500.05 927.396 502.983 921.225 507.757 924.061C506.415 924.654 505.292 925.183 503.638 925.963Z" fill="#793DFA"/>
<path d="M483.888 837.136C483.482 833.147 489.099 832.742 486.446 829.033C485.76 829.625 485.167 830.155 484.574 830.716C484.387 830.529 484.013 830.342 483.981 830.124C483.357 825.947 483.607 822.02 486.571 818.623C489.816 814.882 493.061 811.142 496.181 807.308C497.18 806.093 497.773 804.566 498.74 802.883C497.211 798.862 495.089 794.717 493.248 790.571C491.283 786.145 491.314 781.314 489.192 776.92C488.069 774.582 491.033 770.499 490.315 767.632C489.535 764.421 487.632 761.71 490.409 758.717C490.471 750.302 496.213 745.035 501.205 739.206C505.948 739.206 510.69 739.206 515.371 739.206C516.213 739.985 517.024 740.765 518.366 742.043C516.213 744.785 514.06 747.528 511.658 750.583C511.938 751.144 512.563 752.515 513.405 754.323C514.216 754.323 515.745 754.79 516.276 754.229C518.647 751.892 521.393 752.858 523.889 752.577C524.794 754.572 525.574 756.224 526.416 758.094C525.137 759.684 523.826 761.336 521.83 763.829C524.856 764.203 526.884 764.484 529.568 764.826C529.568 767.289 529.568 769.938 529.568 772.961C535.309 773.148 535.933 766.198 540.769 766.229C542.953 762.894 546.167 760.556 549.069 757.907C552.407 754.821 555.559 751.58 558.71 748.307C561.612 745.284 564.545 742.292 567.135 739.05C569.818 735.684 572.096 732.038 573.656 729.825C577.182 728.578 579.148 727.861 581.613 726.988C582.424 728.142 583.734 729.295 584.077 730.697C584.327 731.757 583.485 733.191 582.892 734.375C582.237 735.684 581.332 736.9 581.332 739.206C583.797 738.146 586.293 737.118 589.039 735.965C590.505 738.801 592.065 741.824 594.437 746.437C594.437 746.344 594.312 748.027 594.468 749.647C594.624 750.925 595.154 752.141 595.622 753.762C595.279 754.354 594.655 755.445 594.093 756.442C594.967 757.377 595.529 757.969 596.028 758.53C591.098 766.416 586.667 774.582 581.238 782.218C576.714 788.639 577.338 789.075 573.999 790.883C574.53 791.475 575.06 792.067 575.497 792.535C568.757 800.078 562.08 807.558 555.309 815.132C555.309 815.973 555.309 817.095 555.309 817.937C560.645 821.334 565.793 824.607 571.16 828.035C570.38 829.563 569.912 830.498 569.163 831.962C571.191 833.708 572.564 837.074 576.527 835.827C577.4 837.542 578.087 838.944 578.804 840.316C578.305 841.001 577.681 841.874 576.839 843.027C578.96 845.147 580.895 847.079 582.954 849.136C582.174 851.162 581.488 852.907 580.739 854.809C581.269 855.744 581.925 856.866 582.549 857.926C582.237 858.58 582.143 859.235 581.769 859.484C580.926 860.045 579.709 860.138 579.085 860.824C575.435 864.938 574.779 865.188 570.161 863.598C564.202 861.572 557.805 860.357 552.345 857.396C545.044 853.406 538.491 848.076 530.972 842.871C527.82 845.209 524.263 848.419 520.831 852.066C517.524 855.588 513.155 858.393 507.102 860.201C508.163 858.455 508.6 857.707 509.567 856.149C505.76 856.866 502.578 857.458 499.395 858.05C499.208 857.676 499.021 857.333 498.865 856.959C500.768 855.463 502.703 853.967 504.606 852.471C503.264 851.131 502.484 850.352 501.642 849.51C499.988 849.51 498.272 849.51 495.838 849.51C495.058 847.578 494.216 845.396 493.186 842.84C491.096 842.84 488.631 842.84 486.134 842.84C485.167 840.347 484.293 838.165 483.888 837.136Z" fill="#793DFA"/>
<path d="M520.802 670.324C517.869 671.01 515.311 671.633 511.66 672.506C507.916 669.763 503.485 666.334 498.867 663.093C493.376 659.259 488.602 654.366 482.362 651.654C480.926 651.031 479.397 650.563 477.369 649.846C474.935 646.2 474.655 639.405 467.478 640.153C464.233 637.192 463.828 632.049 459.116 631.551C457.556 628.902 456.589 625.878 454.561 624.008C445.262 615.406 438.523 605.027 432.75 592.559C432.251 588.695 432.251 583.552 431.409 578.409C430.098 570.305 434.435 563.324 441.456 558.804C443.39 557.558 444.389 554.846 447.634 555.127C449.88 555.314 452.252 554.129 455.247 553.412C456.121 554.192 457.306 555.22 458.773 556.56C456.37 560.581 451.846 563.137 451.503 568.529C456.838 570.305 459.241 564.384 464.608 563.698C465.263 564.29 466.417 565.319 467.509 566.285C465.606 569.152 464.327 571.053 461.955 574.607C465.637 573.453 468.227 573.422 469.194 572.176C471.628 568.965 475.56 567.687 477.868 564.103C479.99 560.768 483.485 558.306 487.073 555.968C492.128 552.695 496.215 547.989 500.958 544.187C507.916 538.576 514.437 532.467 522.206 527.792C525.264 525.953 527.542 522.743 530.101 520.094C532.409 517.663 536.091 516.603 536.809 512.987C540.834 512.987 544.422 512.987 548.26 512.987C548.26 515.076 548.26 516.977 548.26 520.374C547.948 520.686 546.856 521.777 545.514 523.117C547.043 522.836 548.541 522.618 550.039 522.307C551.536 521.964 553.034 521.496 555.312 520.873C554.969 526.358 555.218 531.221 559.212 534.774C558.37 535.896 557.902 536.55 556.934 537.828C558.151 538.483 559.555 539.262 562.176 540.696C559.493 541.444 558.557 541.693 557.309 542.036C557.777 543.127 558.432 544.124 558.65 545.246C558.869 546.337 558.713 547.49 558.713 548.612C555.561 552.945 552.41 557.277 548.947 562.015C548.323 562.077 546.981 562.233 544.984 562.451C545.577 563.261 545.951 563.791 546.419 564.446C545.92 565.661 545.358 567.002 544.703 568.529C537.215 568.155 537.152 575.885 532.534 578.877C533.502 580.155 534.001 580.809 534.219 581.09C531.13 584.175 528.041 587.261 524.89 590.409C525.139 590.627 524.734 590.284 524.921 590.44C523.517 591.843 522.082 593.276 520.646 594.71C520.178 594.336 519.71 593.993 519.242 593.619C519.242 594.959 519.242 596.3 519.242 598.107C518.244 597.297 517.682 596.83 516.403 595.77C516.684 597.671 516.871 598.949 517.152 600.726C515.03 603.468 512.471 606.772 509.694 610.356C508.446 609.453 507.604 608.829 506.855 608.268C503.797 611.853 500.646 615.53 497.494 619.208C498.711 619.8 499.835 620.361 501.488 621.172C499.959 623.104 498.649 624.756 497.401 626.346C497.588 627.031 497.588 627.686 497.931 628.029C503.111 633.826 509.258 639.031 513.314 645.514C517.776 652.807 523.455 660.381 520.802 670.324Z" fill="#793DFA"/>
<path d="M141.23 451.4C139.108 451.65 137.829 451.805 136.238 452.024C137.205 453.114 137.766 453.738 138.671 454.704C136.55 458.631 132.556 460.969 129.841 464.428C130.247 464.834 130.652 465.239 131.183 465.769C129.03 467.452 126.846 469.166 125.005 470.6C123.975 473.28 126.159 476.304 122.571 477.955C125.754 480.075 128.655 481.976 131.495 483.94C140.419 490.111 149.998 495.41 157.361 503.7C161.574 508.469 165.567 513.051 165.63 519.877C165.63 521.03 166.815 522.152 167.752 523.835C165.193 525.456 162.79 526.983 159.764 528.884C142.79 518.942 125.223 510.09 109.123 497.093C107.969 497.747 105.441 498.308 104.973 499.586C103.132 504.698 99.5128 508.313 95.8309 511.96C95.3941 512.396 95.5501 513.487 95.4253 514.266C93.834 514.453 92.5235 514.578 90.4642 514.796C90.8698 516.136 91.1818 517.29 91.7747 519.284C88.4985 522.027 86.0647 526.11 84.7542 531.159C84.0054 534.089 81.1972 536.52 78.6699 540.042C78.6699 545.341 78.6699 551.762 78.6699 558.525C77.0473 558.619 75.7057 558.712 74.208 558.806C73.8959 559.741 73.5215 560.707 73.1159 561.891C71.275 561.891 69.4029 561.891 67.2499 561.891C66.3451 559.242 65.3778 556.499 64.3169 553.382C62.6944 554.099 61.0719 554.816 59.1062 555.658C58.7006 554.411 58.3886 553.445 58.0765 552.478C57.5773 552.291 57.0781 551.824 56.6412 551.917C53.053 552.603 50.5881 549.549 50.12 547.616C48.3103 539.731 43.2244 531.939 48.1231 523.492C48.2167 515.108 53.4274 508.718 56.3604 501.425C57.3277 499.056 61.4776 499.461 60.3543 495.347C59.8863 493.664 62.9753 490.984 64.4729 488.771C65.8458 486.776 67.1251 484.719 68.7164 482.88C70.5573 480.761 72.8039 478.953 74.6448 476.802C76.1737 475.026 77.3594 472.937 78.8571 470.724C68.5292 462.964 62.1952 451.93 54.9563 441.676C52.6474 431.733 48.6223 422.071 50.1824 410.445C52.585 407.703 55.6428 404.181 58.919 400.409C62.5696 401.157 66.6571 398.913 69.9957 402.684C67.8116 405.614 65.6586 408.544 63.4745 411.474C64.0673 412.097 64.629 412.721 65.1906 413.282C69.8085 414.248 71.4934 407.516 76.3297 409.074C77.0473 410.476 77.765 411.848 78.5138 413.313C77.0161 414.248 75.3312 415.339 73.5527 416.492C74.6448 417.583 75.456 418.393 76.2361 419.172C78.6386 416.679 80.9788 416.648 83.8182 420.045C83.5686 421.946 85.0351 424.689 82.1957 426.902C83.3814 427.463 84.5358 428.024 86.1895 428.803C84.8166 430.611 83.631 432.232 82.3829 433.884C83.5374 434.289 84.5046 434.632 86.5952 435.38C84.6918 435.878 83.787 436.128 82.2269 436.564C82.3829 437.936 82.0709 439.837 82.8509 440.897C86.0959 445.26 89.7154 449.405 93.5532 454.081C95.6749 452.179 97.2974 450.777 98.8887 449.312C108.187 440.647 115.987 430.237 127.532 424.097C127.47 420.887 130.808 421.136 132.275 419.422C133.897 417.489 135.707 415.713 136.893 414.466C139.046 414.466 140.356 414.466 142.603 414.466C140.013 418.269 135.582 420.419 137.018 425.936C140.699 423.723 144.319 421.572 148.718 418.954C148.313 421.479 148.032 423.411 147.689 425.624C149.218 426.403 151.526 427.557 153.991 428.803C153.367 430.112 152.837 431.203 152.213 432.481C153.087 432.668 153.867 432.824 154.678 432.98C154.772 433.323 155.084 433.884 154.928 434.071C152.868 436.876 150.091 439.338 148.75 442.424C147.002 446.444 143.352 448.19 141.23 451.4Z" fill="#793DFA"/>
<path d="M296.55 538.171C303.321 529.85 309.062 522.961 314.648 515.949C319.952 509.31 324.507 502.141 328.626 494.817C328.096 494.162 327.596 493.539 326.723 492.448C328.158 490.827 329.593 489.206 331.091 487.461C332.994 487.461 334.898 487.461 336.707 487.461C338.798 489.549 340.483 492.541 342.885 493.321C345.818 494.256 346.224 496.593 347.41 498.339C351.497 504.385 354.368 510.557 351.216 518.442C349.282 523.304 347.316 528.135 345.288 532.966C344.695 534.431 344.227 535.959 343.478 538.171C342.48 539.169 340.888 540.758 339.172 542.473C339.172 544.623 339.172 546.867 339.172 547.834C335.803 553.911 333.026 558.992 329.937 564.54C334.18 567.407 338.08 570.181 342.105 572.768C350.062 577.88 356.645 584.269 360.577 592.996C361.419 594.866 361.825 596.986 362.699 599.915C362.387 600.57 361.669 602.222 360.827 604.03C359.079 604.84 357.176 605.713 355.709 606.398C351.716 605.027 348.159 603.999 344.789 602.596C341.419 601.193 338.174 599.417 334.866 597.796C334.305 592.871 328.688 594.866 326.38 591.5C324.476 588.757 320.264 587.604 316.551 585.453C305.474 596.768 295.708 609.11 286.722 622.107C286.035 623.105 286.254 624.725 286.067 626.066C282.166 629.058 278.297 628.621 274.428 625.879C274.428 624.788 274.428 623.666 274.428 623.167C269.405 620.144 264.662 617.338 259.514 614.253C257.049 611.354 258.297 606.804 256.674 603.313C254.896 599.386 256.393 595.614 255.707 592.716C261.323 580.186 268.001 569.215 277.548 559.74C277.548 558.119 277.548 556.218 277.548 553.943C272.026 550.109 268.625 544.125 265.13 538.265C263.976 536.301 263.788 533.746 263.258 531.408C262.166 526.702 260.543 522.151 260.699 517.164C260.98 507.596 266.409 500.77 275.551 497.341C281.324 495.191 286.909 496.282 293.118 495.658C289.78 502.546 281.792 501.954 277.112 507.751C285.162 507.409 290.06 499.804 298.298 501.268C297.986 503.201 297.674 505.133 297.33 507.159C298.828 507.689 301.044 508.468 303.165 509.216C303.165 513.268 303.165 516.634 303.165 520C300.981 523.803 298.579 527.637 296.613 531.657C296.02 532.998 296.55 534.868 296.55 538.171Z" fill="#793DFA"/>
<path d="M440.362 432.356C437.179 436.346 434.278 439.992 431.064 444.013C431.064 447.223 431.064 450.808 431.064 454.922C428.068 456.137 425.167 457.291 421.859 458.6C417.959 454.828 416.399 449.81 415.151 445.104C413.497 445.727 411.999 446.257 409.815 447.068C408.099 444.605 406.009 442.423 404.885 439.837C401.516 432.076 401.796 423.785 402.14 415.962C403.544 412.751 404.823 409.884 406.383 406.268C404.043 405.926 401.952 406.237 401.079 405.365C395.587 399.817 390.158 394.175 385.103 388.191C382.389 384.981 379.518 381.334 378.457 377.407C376.866 371.672 376.835 365.501 376.086 359.111C378.676 355.464 380.766 351.226 384.074 348.265C387.1 345.553 391.406 344.306 396.055 341.938C397.147 343.122 398.208 344.244 399.269 345.397C398.645 345.989 390.345 354 390.345 354C390.938 354.592 391.562 355.215 392.436 356.088C396.242 353.314 400.018 349.698 406.227 352.067C404.698 354.155 403.481 355.807 401.391 358.675C404.23 357.584 405.821 356.961 408.006 356.088C409.035 357.646 410.158 359.329 411.5 361.355C409.16 363.693 407.319 365.532 405.073 367.776C406.508 368.056 407.288 368.243 408.567 368.493C406.633 371.734 407.725 376.222 402.764 377.906C407.694 383.983 413.185 387.318 418.77 390.996C437.523 375.443 455.869 360.264 474.466 344.836C476.712 344.836 479.364 344.836 482.672 344.836C481.237 347.704 480.082 350.01 478.928 352.348C481.393 354.218 483.358 352.129 485.542 351.163C491.845 357.054 493.343 364.379 492.032 372.576C489.411 375.942 486.728 379.402 483.982 382.892C484.17 383.048 484.575 383.422 485.698 384.482C484.17 384.669 482.734 384.856 481.268 385.043C481.829 385.666 482.422 386.259 482.984 386.882C481.861 386.882 480.737 386.882 479.832 386.882C473.998 397.853 464.138 405.302 456.93 415.276C466.821 420.793 477.898 424.876 488.351 431.109C488.663 432.668 489.037 434.476 489.443 436.564C490.722 435.192 491.689 434.195 492.625 433.198C496.838 433.759 496.744 438.59 500.301 440.366C503.39 441.925 505.2 446.039 507.602 449.062C507.602 452.397 507.602 455.763 507.602 459.161C506.791 459.971 505.98 460.782 504.856 461.904C496.089 460.969 488.85 455.982 480.862 451.961C480.706 452.117 480.113 452.647 479.864 452.865C474.279 451.493 470.94 445.509 464.512 446.382C461.517 442.517 456.587 442.236 452.718 439.961C448.818 437.811 445.042 435.317 440.362 432.356Z" fill="#793DFA"/>
<path d="M176.393 655.457C177.361 656.424 178.172 657.234 179.295 658.356C174.084 662.813 168.905 667.239 163.725 671.665C163.85 671.976 163.975 672.257 164.069 672.569C165.161 672.257 166.502 672.226 167.314 671.54C168.811 670.293 169.997 668.673 172.056 668.267C175.676 666.21 179.326 664.153 182.852 662.158C185.941 664.652 183.695 666.616 182.353 669.639C184.381 668.86 185.692 668.392 187.096 667.831C187.72 668.454 188.5 669.234 189.311 670.044C189.311 673.441 189.311 676.839 189.311 680.267C188.312 681.233 187.314 682.231 186.253 683.259C186.409 683.664 186.44 684.194 186.752 684.412C188.687 685.846 190.621 687.342 192.65 688.62C194.834 689.992 197.923 690.397 197.985 693.95C197.985 694.355 198.672 694.823 199.14 695.134C200.887 696.35 202.946 697.285 204.35 698.812C205.786 700.339 206.566 702.428 208.032 704.89C208.032 706.324 208.032 708.599 208.032 710.843C206.628 712.246 205.224 713.648 204.038 714.833C193.305 710.999 182.696 707.228 172.087 703.425C169.716 704.672 167.189 706.043 164.661 707.383C164.568 707.196 164.443 707.041 164.349 706.854C162.134 709.066 159.95 711.248 157.11 714.085C157.079 714.739 156.986 716.079 156.892 717.731C152.43 722.032 147.75 726.521 143.974 730.136C142.071 735.996 143.038 742.042 135.207 743.258C133.584 740.671 127.781 740.266 129.091 734.219C127.469 733.752 125.503 733.191 123.35 732.567C122.851 732.879 121.977 733.471 121.291 733.939C119.106 731.632 117.203 729.606 114.395 726.645C113.771 721.347 112.991 714.552 112.148 707.415C119.231 699.778 126.189 692.267 133.553 684.288C130.651 682.48 127.687 680.953 125.128 678.927C122.476 676.807 120.261 674.189 117.796 671.727C118.482 669.514 119.169 667.27 119.918 664.839C118.545 664.371 117.546 664.029 116.298 663.592C116.298 661.784 116.298 659.883 116.298 657.857C116.766 657.39 117.39 656.766 118.077 656.081C120.511 655.582 123.069 655.083 126.221 654.46C134.614 659.166 143.818 664.309 152.773 669.327C161.822 666.023 167.626 658.138 176.393 655.457Z" fill="#793DFA"/>
</g>
</svg>
