<svg width="653" height="683" viewBox="0 0 653 683" fill="none" xmlns="http://www.w3.org/2000/svg">
<g clip-path="url(#clip0)">
<path d="M645.962 388.253C645.669 389.066 644.92 391.148 643.975 393.75C644.789 394.14 645.702 394.563 646.939 395.181C647.558 397.49 651.076 399.896 648.926 403.019C647.004 405.816 652.086 408.775 648.21 411.019C648.861 416.873 644.724 421.101 642.021 425.199C639.545 428.907 638.959 433.557 635.213 436.777C631.956 439.574 630.132 444.029 627.689 447.77C625.539 447.867 623.552 447.965 620.783 448.062C621.272 449.656 621.663 450.827 622.249 452.713C621.5 453.559 620.295 454.924 618.959 456.421C619.774 458.925 620.555 461.266 621.435 464.031C620.164 465.494 618.894 466.925 617.493 468.519C618.601 468.909 619.611 469.267 621.37 469.885C619.383 471.316 617.721 472.454 615.995 473.69C616.321 474.08 616.842 474.698 617.656 475.641C611.761 477.82 606.549 472.552 600.067 475.121C596.06 478.015 593.096 483.902 587.135 486.081C584.823 486.927 586.81 491.122 582.868 490.634C581.468 490.472 582.51 494.96 579.22 494.082C577.982 498.147 574.367 499.806 571.468 502.375C569.09 504.489 566.908 507.286 564.986 510.05C563.39 512.359 561.664 514.603 559.97 516.847C558.439 518.864 556.647 520.75 555.377 522.929C554.302 524.783 554.4 527.97 552.934 528.816C550.98 529.954 549.644 531.157 549.221 533.792C547.299 532.653 546.126 531.938 544.954 531.255C541.273 533.043 537.592 534.767 533.944 530.279C533.944 527.482 533.944 524.327 533.944 520.978C526.908 517.042 519.579 513.562 516.289 504.651C516.55 501.692 515.117 497.529 517.951 494.082C513.814 485.853 517.397 478.894 521.371 472.031C526.159 463.771 532.413 456.746 539.775 450.241C535.442 443.769 530.947 437.72 527.234 431.248C524.693 426.793 521.892 421.882 521.762 416.776C521.631 411.474 519.938 405.946 523.097 400.579C524.498 398.173 523.162 394.693 524.726 391.506C525.67 389.587 526.257 387.473 527.723 385.652C528.504 384.676 528.472 383.017 529.123 380.416C530.589 379.05 534.27 377.228 535.019 374.594C536.126 370.724 541.077 372.22 541.012 367.699C542.283 368.675 542.869 369.098 543.748 369.748C545.8 369.13 548.113 368.447 550.524 367.764C551.403 369.423 552.152 370.821 553.032 372.513C551.273 375.7 549.318 379.212 547.103 383.212C551.501 382.79 554.888 382.432 557.787 382.139C558.96 383.31 559.611 383.96 560.295 384.643C559.123 386.953 557.918 389.327 556.322 392.416C559.123 392.709 561.273 392.937 563.944 393.197C563.292 396.319 562.641 399.474 561.989 402.563C560.849 403.572 559.644 404.677 558.374 405.783C559.188 406.596 559.514 407.019 559.579 406.954C560.751 406.303 561.859 405.62 563.26 404.775C563.716 406.011 564.009 406.791 564.4 407.767C561.892 409.035 559.481 410.239 556.778 411.637C558.048 412.06 559.058 412.385 560.914 413.003C558.797 415.117 556.908 417.003 554.465 419.442C557.592 421.914 560.361 424.093 563.325 426.435C567.689 427.28 571.207 425.427 574.66 422.467C582.608 415.605 591.337 409.621 599.187 402.758C607.2 395.701 615.734 388.806 621.435 379.342C622.77 377.131 625.115 375.537 627.135 373.521C629.936 373.521 632.835 373.521 636.483 373.521C637.005 374.171 637.884 375.277 638.796 376.415C637.786 379.342 636.711 382.334 635.343 386.237C638.177 385.457 640.49 384.839 643.454 383.993C643.975 384.806 644.692 386.074 645.962 388.253Z" fill="black"/>
<path d="M82.2225 575.03C79.3561 575.908 76.9783 576.656 73.9164 577.599C74.6656 576.006 75.1542 574.965 75.7731 573.599C73.721 570.542 71.4408 567.778 67.2064 568.396C66.8806 567.16 66.6852 566.347 66.3921 565.241C63.9165 565.241 61.3433 565.241 59.0632 565.241C58.3466 564.525 57.6951 564.168 57.5322 563.647C56.3922 560.265 56.1642 556.232 54.1447 553.598C51.5063 550.183 52.8418 546.833 52.7115 543.548C52.6137 540.849 53.6887 538.117 54.3727 535.418C56.7505 525.791 60.3986 516.652 65.0891 507.936C67.9555 502.57 71.1803 497.367 74.7307 492.423C78.1834 487.577 82.2225 483.187 86.1312 478.439C85.0563 477.756 83.9163 476.975 82.7111 476.26C71.05 469.365 60.8547 460.714 51.4085 451.12C46.9461 446.599 46.9135 440.517 45.6106 434.891C45.0894 432.647 45.5129 430.175 45.5129 427.801C47.8907 423.248 52.7115 422.858 57.3694 421.004C58.9329 423.768 60.5615 426.598 62.3856 429.817C62.7113 429.59 63.2651 429.167 64.2423 428.452C64.8611 429.069 65.9361 429.655 66.2292 430.5C68.0859 435.769 72.3855 438.468 76.9782 440.745C86.2941 445.396 95.7076 449.884 105.74 454.73C108.085 452.258 110.431 448.453 113.818 446.567C116.945 444.81 117.108 439.802 121.994 440.29C121.31 439.444 120.821 438.826 120.105 437.948C121.603 436.907 123.134 435.834 125.251 434.371C125.935 432.907 126.945 430.663 127.922 428.452C129.421 428.354 130.854 428.289 132.873 428.159C132.026 427.053 131.57 426.468 130.854 425.59C134.632 425.037 134.86 421.134 137.238 419.053C139.746 416.841 141.505 413.784 143.883 410.759C144.404 411.15 144.958 411.54 146 412.32C146.456 411.247 146.88 410.206 147.433 408.938C148.085 409.458 148.671 409.946 149.746 410.792C150.919 404.58 154.437 399.572 158.215 395.084C162.091 390.465 165.576 385.132 171.896 382.042C172.677 382.692 173.752 383.571 174.957 384.546C172.449 389.36 170.039 394.108 164.892 396.612C164.892 399.019 164.892 401.23 164.892 403.702C166.098 403.409 167.335 403.474 167.596 402.986C168.638 401.068 169.355 398.986 169.746 398.011C173.98 394.531 177.4 391.701 181.765 388.124C182.026 391.441 182.156 393.587 182.319 395.669C180.983 396.222 179.974 396.612 178.931 397.067C179.192 397.458 179.55 398.173 179.713 398.141C181.863 397.685 184.013 397.132 186.619 396.482C187.368 397.783 188.28 399.376 189.192 400.97C188.703 401.523 188.117 402.141 187.498 402.856C187.856 405.426 190.951 407.702 188.573 410.629C187.889 410.011 187.27 409.426 186.619 408.873C186.325 409.426 185.772 410.011 185.869 410.369C186.195 411.41 186.814 412.353 187.498 413.719C187.009 418.207 183.394 421.232 180.071 424.256C176.912 427.118 173.426 429.655 169.355 432.907C171.016 433.883 172.482 434.696 174.111 435.639C173.101 437.59 172.482 438.794 171.83 440.03C172.221 440.452 172.775 441.07 173.655 442.046C171.733 442.371 170.104 442.631 167.759 442.989C168.41 444.615 168.931 445.981 169.583 447.575C167.563 447.575 165.576 447.575 163.655 447.575C162.547 449.819 161.603 451.77 160.691 453.656C161.537 454.567 162.124 455.217 162.971 456.128C161.147 456.453 159.518 456.779 157.173 457.201C157.759 458.697 158.28 460.063 158.899 461.689C157.368 461.917 155.739 462.145 153.622 462.47C154.241 464.161 154.762 465.527 155.609 467.771C153.296 466.861 151.603 466.21 149.583 465.43C148.639 467.251 147.661 469.105 146.684 470.926C147.01 471.576 147.14 472.292 147.564 472.487C148.28 472.877 149.225 472.812 149.941 473.202C152.645 474.731 153.296 478.243 155.967 479.739C158.866 481.366 160.104 484.162 161.928 486.634C163.589 488.878 164.795 490.765 164.632 493.594C164.567 494.57 165.446 495.578 165.967 496.814C165.511 497.627 164.827 498.733 163.915 500.294C161.505 500.554 159.778 503.774 155.381 502.082C147.727 499.123 139.779 496.456 131.473 495.48C131.017 495.415 130.626 494.7 129.877 493.919C127.434 496.651 125.023 499.383 121.994 502.798C121.961 503.123 121.799 504.522 121.603 506.018C119.909 506.278 118.281 506.538 115.74 506.928C117.401 509.27 118.672 511.026 120.528 513.628C118.411 513.01 117.01 512.62 115.251 512.099C114.893 512.522 114.144 513.4 113.33 514.376C114.372 517.205 113.525 518.961 110.203 520.848C109.193 524.425 108.248 527.873 107.434 530.735C105.936 531.288 105.089 531.613 104.014 532.003C104.893 532.881 105.284 533.271 105.968 533.954C103.33 535.971 100.268 537.629 98.2158 540.101C96.3591 542.313 95.5774 545.435 94.1441 548.589C94.2744 548.817 94.8607 549.663 95.8053 551.061C93.851 553.078 91.9292 555.061 90.0725 556.948C90.7891 557.858 91.3103 558.509 92.2549 559.647C90.952 561.143 89.6491 562.607 88.2484 564.233C88.2484 565.794 88.2484 567.55 88.2484 569.404C86.0009 571.42 83.8511 573.469 82.2225 575.03Z" fill="black"/>
<path d="M300.689 610.382C304.793 615.325 304.793 615.358 309.777 612.593C309.907 614.187 309.874 615.553 310.2 616.854C310.428 617.764 311.21 618.512 311.699 619.293C311.08 619.911 310.656 620.333 310.102 620.886C311.34 621.472 312.513 622.025 314.467 622.935C312.448 625.797 310.559 628.529 308.637 631.228C311.08 635.619 305.901 636.4 305.151 638.774C304.011 642.416 299.581 643.197 299.451 647.099C299.288 651.653 294.63 652.205 292.611 654.84C290.852 657.149 287.725 658.645 287.334 661.572C288.018 662.775 288.572 663.718 289.484 665.279C286.845 666.775 284.565 668.076 282.285 669.345L276.748 671.947C275.054 673.93 273.393 675.914 271.145 678.549C271.145 678.614 271.145 679.784 271.145 680.272C265.478 684.435 260.168 688.338 254.012 692.826C255.771 693.737 256.846 694.257 258.605 695.168C256.162 698.582 253.686 702.03 251.048 705.737C257.856 708.046 264.305 710.258 270.917 712.502C270.266 713.803 269.712 714.941 268.963 716.437C271.927 717.478 274.663 718.454 277.823 719.592C277.823 720.795 277.823 722.194 277.823 723.462C279.81 725.283 281.536 726.877 283.328 728.536C283.425 730.617 283.556 732.601 283.653 734.52C284.793 735.658 285.836 736.699 286.878 737.739L278.702 744.537C276.78 746.683 274.761 746.293 272.611 744.862C271.96 744.439 271.048 744.179 270.233 744.211C261.048 744.406 252.774 740.927 244.436 737.869C238.279 735.625 232.351 732.763 225.967 729.999C224.24 731.723 221.504 733.056 221.146 736.634C217.465 737.512 213.687 738.39 210.136 739.235C208.312 737.382 206.846 735.918 205.381 734.455C205.934 733.837 206.521 733.219 207.368 732.276C206.488 730.454 205.543 728.471 204.99 727.3C202.254 727.723 199.811 728.113 197.433 728.471C196.13 725.869 194.925 723.527 193.72 721.153C193.133 721.738 192.71 722.161 192.547 722.324C190.593 720.34 188.606 718.324 185.869 715.559C186.716 709.412 182.775 702.355 183.85 694.712C184.078 693.119 182.84 690.81 181.537 689.574C176.293 684.663 176.065 677.573 173.622 671.524C172.677 669.215 171.668 666.288 171.603 663.491C171.472 659.068 170.951 654.514 171.7 650.222C172.905 643.424 174.176 636.172 182.124 633.505C184.729 632.627 187.628 632.529 191.081 631.944C191.081 636.627 191.081 640.627 191.081 645.766C194.078 643.847 196.097 642.546 199.094 640.595C199.518 641.831 200.006 643.262 200.495 644.725C200.951 644.4 201.374 644.042 201.83 643.717C201.83 646.286 201.83 648.856 201.83 651.88C203.361 651.1 204.469 650.547 205.511 650.026C209.289 653.311 209.192 657.539 208.67 661.865C209.941 662.32 210.951 662.678 212.612 663.263C211.895 665.149 211.211 667.036 210.364 669.345C211.374 669.15 211.895 669.215 212.188 668.987C212.872 668.434 213.361 667.458 214.11 667.166C221.7 664.304 225.511 656.238 233.133 653.441C234.664 647.945 240.462 646.774 243.882 643.067C247.4 639.196 252.416 636.692 256.65 633.472C260.787 630.35 263.1 625.114 268.474 623.456C272.025 617.016 277.106 612.138 283.425 608.528C283.197 604.17 289.191 603.649 289.06 599.031C291.634 599.031 294.207 599.031 297.073 599.031C297.66 599.617 298.474 600.43 299.321 601.275C295.477 603.194 294.077 606.869 291.634 610.772C296.943 611.878 300.005 605.438 304.989 608.398C303.588 609.016 302.415 609.568 300.689 610.382Z" fill="black"/>
<path d="M280.07 516.652C279.646 512.489 285.51 512.066 282.741 508.196C282.024 508.814 281.405 509.367 280.786 509.952C280.591 509.757 280.2 509.562 280.168 509.334C279.516 504.976 279.777 500.878 282.871 497.333C286.259 493.431 289.646 489.528 292.904 485.528C293.946 484.259 294.565 482.666 295.575 480.91C293.978 476.714 291.763 472.389 289.842 468.063C287.79 463.445 287.822 458.404 285.607 453.818C284.435 451.379 287.529 447.119 286.78 444.127C285.965 440.777 283.979 437.947 286.878 434.825C286.943 426.044 292.936 420.548 298.148 414.466C303.099 414.466 308.05 414.466 312.936 414.466C313.815 415.279 314.662 416.092 316.063 417.426C313.815 420.288 311.568 423.15 309.06 426.337C309.353 426.922 310.004 428.353 310.884 430.24C311.731 430.24 313.327 430.727 313.88 430.142C316.356 427.703 319.222 428.711 321.828 428.418C322.773 430.5 323.587 432.223 324.467 434.175C323.131 435.833 321.763 437.557 319.678 440.159C322.838 440.549 324.955 440.842 327.756 441.2C327.756 443.769 327.756 446.533 327.756 449.688C333.75 449.883 334.401 442.631 339.45 442.663C341.73 439.183 345.085 436.744 348.114 433.98C351.6 430.76 354.89 427.378 358.18 423.963C361.209 420.808 364.271 417.686 366.974 414.303C369.775 410.791 372.153 406.986 373.782 404.677C377.463 403.376 379.515 402.628 382.088 401.717C382.935 402.921 384.303 404.124 384.661 405.587C384.922 406.693 384.042 408.189 383.423 409.425C382.739 410.791 381.795 412.059 381.795 414.466C384.368 413.36 386.974 412.287 389.84 411.084C391.371 414.043 393 417.198 395.475 422.011C395.475 421.914 395.345 423.67 395.508 425.361C395.671 426.695 396.225 427.963 396.713 429.654C396.355 430.272 395.703 431.41 395.117 432.451C396.029 433.427 396.615 434.045 397.137 434.63C391.99 442.858 387.365 451.379 381.697 459.347C376.974 466.047 377.626 466.502 374.14 468.388C374.694 469.006 375.248 469.624 375.704 470.112C368.668 477.983 361.697 485.788 354.629 493.691C354.629 494.569 354.629 495.74 354.629 496.618C360.199 500.163 365.574 503.578 371.176 507.155C370.362 508.749 369.873 509.724 369.091 511.253C371.209 513.074 372.642 516.587 376.779 515.286C377.691 517.075 378.407 518.538 379.156 519.969C378.635 520.685 377.984 521.595 377.104 522.799C379.319 525.01 381.339 527.026 383.489 529.173C382.674 531.287 381.958 533.108 381.176 535.092C381.73 536.068 382.414 537.239 383.065 538.344C382.739 539.027 382.642 539.71 382.251 539.97C381.371 540.556 380.101 540.653 379.45 541.369C375.639 545.662 374.955 545.922 370.134 544.263C363.912 542.149 357.235 540.881 351.535 537.791C343.913 533.629 337.072 528.067 329.222 522.636C325.932 525.075 322.219 528.425 318.636 532.23C315.183 535.905 310.623 538.832 304.304 540.718C305.411 538.897 305.868 538.117 306.877 536.491C302.903 537.239 299.581 537.856 296.259 538.474C296.063 538.084 295.868 537.726 295.705 537.336C297.692 535.775 299.711 534.214 301.698 532.653C300.298 531.254 299.483 530.441 298.604 529.563C296.877 529.563 295.086 529.563 292.545 529.563C291.731 527.547 290.851 525.27 289.777 522.603C287.594 522.603 285.021 522.603 282.415 522.603C281.405 520.002 280.493 517.725 280.07 516.652Z" fill="black"/>
<path d="M318.605 342.591C315.543 343.307 312.872 343.957 309.061 344.868C305.152 342.006 300.527 338.428 295.706 335.046C289.973 331.046 284.989 325.94 278.475 323.11C276.976 322.46 275.38 321.972 273.263 321.224C270.722 317.419 270.429 310.329 262.937 311.11C259.55 308.02 259.126 302.654 254.208 302.133C252.579 299.369 251.57 296.214 249.452 294.263C239.746 285.287 232.71 274.457 226.684 261.448C226.163 257.415 226.163 252.049 225.283 246.683C223.915 238.227 228.443 230.942 235.772 226.226C237.791 224.925 238.834 222.096 242.221 222.388C244.566 222.583 247.042 221.348 250.169 220.6C251.081 221.413 252.319 222.486 253.85 223.884C251.341 228.08 246.618 230.747 246.26 236.373C251.83 238.227 254.338 232.047 259.941 231.332C260.625 231.95 261.83 233.023 262.97 234.031C260.983 237.023 259.648 239.007 257.172 242.715C261.016 241.512 263.719 241.479 264.729 240.178C267.27 236.828 271.374 235.495 273.784 231.755C275.999 228.275 279.647 225.706 283.393 223.266C288.67 219.852 292.937 214.941 297.888 210.973C305.152 205.119 311.96 198.745 320.07 193.866C323.262 191.947 325.64 188.597 328.311 185.833C330.722 183.296 334.565 182.191 335.314 178.418C339.516 178.418 343.262 178.418 347.269 178.418C347.269 180.597 347.269 182.581 347.269 186.126C346.943 186.451 345.803 187.589 344.402 188.988C345.998 188.695 347.562 188.467 349.125 188.142C350.689 187.784 352.252 187.297 354.63 186.646C354.272 192.37 354.532 197.444 358.702 201.151C357.822 202.322 357.334 203.005 356.324 204.338C357.594 205.021 359.06 205.834 361.796 207.33C358.995 208.111 358.018 208.371 356.715 208.729C357.203 209.867 357.887 210.908 358.115 212.079C358.343 213.217 358.181 214.42 358.181 215.591C354.891 220.112 351.601 224.632 347.985 229.576C347.334 229.641 345.933 229.803 343.849 230.031C344.467 230.877 344.858 231.43 345.347 232.113C344.826 233.381 344.239 234.779 343.555 236.373C335.738 235.983 335.673 244.048 330.852 247.17C331.862 248.504 332.383 249.187 332.611 249.48C329.386 252.699 326.161 255.919 322.872 259.204C323.132 259.431 322.709 259.074 322.904 259.236C321.438 260.7 319.94 262.196 318.442 263.692C317.953 263.302 317.464 262.944 316.976 262.554C316.976 263.952 316.976 265.35 316.976 267.237C315.934 266.391 315.347 265.903 314.012 264.798C314.305 266.781 314.5 268.115 314.794 269.969C312.579 272.831 309.908 276.278 307.009 280.018C305.706 279.075 304.826 278.425 304.044 277.839C300.852 281.579 297.562 285.417 294.273 289.254C295.543 289.872 296.716 290.458 298.442 291.303C296.846 293.32 295.478 295.043 294.175 296.702C294.37 297.418 294.37 298.101 294.729 298.458C300.136 304.507 306.553 309.939 310.787 316.703C315.445 324.314 321.373 332.217 318.605 342.591Z" fill="black"/>
<path d="M441.86 214.388C442.414 213.835 442.838 213.412 443.261 212.989C442.935 212.567 442.675 212.111 442.284 211.754C439.971 209.64 437.072 207.851 435.215 205.802C433.391 203.786 431.339 202.257 429.483 200.436C427.007 197.997 424.271 194.484 424.141 191.33C423.913 185.703 423.554 180.044 424.922 174.125C427.235 163.913 432.577 156.205 439.678 149.148C448.668 140.204 457.626 131.228 467.072 121.797C463.489 118.707 463.293 112.918 457.626 111.78C455.248 107.161 452.87 102.511 450.492 97.8925C448.277 93.6321 448.701 89.0139 448.701 84.4608C448.733 81.2085 448.701 77.9563 448.701 74.704C451.697 70.8989 454.694 67.0613 457.626 63.3212C462.512 63.3212 467.104 63.3212 472.414 63.3212C470.036 67.354 468.016 70.8339 466.029 74.2162C471.502 78.1839 473.521 69.598 478.309 72.1998C481.306 76.2976 475.736 78.2165 473.945 82.2167C477.365 81.4037 479.352 80.9158 481.762 80.3304C483.195 84.5583 482.479 88.2334 480.199 92.2011C481.404 92.6564 482.348 93.0467 483.814 93.5996C484.824 94.7053 482.707 94.868 482.348 96.4941C483.782 98.6731 485.508 101.34 487.658 104.592C502.316 89.2416 521.012 78.9319 532.445 61.4023C535.442 61.4023 538.048 61.4023 541.37 61.4023C540.686 64.3294 540.1 66.8986 539.253 70.3785C541.729 69.5004 543.618 68.85 546.256 67.9068C546.256 70.5737 546.256 72.7852 546.256 74.8016C547.69 75.1593 548.471 75.387 549.286 75.5821C549.514 76.07 549.872 76.5578 549.937 77.0782C550.035 77.9563 549.807 78.8669 550.002 79.7125C551.794 88.9163 547.201 96.2339 542.413 103.129C537.201 110.609 531.143 117.471 525.019 125.146C529.384 130.382 536.354 132.919 542.511 137.798C542.608 138.611 542.804 139.977 543.032 141.538C544.66 143.554 547.299 145.538 548.048 148.075C549.677 153.603 553.716 158.775 550.979 165.897C550.295 166.19 548.83 166.938 547.331 167.588C545.833 168.239 544.269 168.791 542.576 169.442C540.23 167.068 534.921 167.816 535.638 163.165C530.231 161.604 525.442 160.206 520.817 158.872C519.775 157.051 518.797 155.36 517.723 153.473C514.433 153.473 511.273 153.473 507.918 153.473C507.657 152.433 507.462 151.62 507.234 150.611C503.618 147.815 500.557 151.099 498.439 151.685C495.54 155.034 493.325 157.604 490.882 160.433C490.166 159.913 489.612 159.458 488.635 158.742C487.593 160.206 486.453 161.799 485.085 163.75C484.889 163.523 485.345 164.076 485.997 164.954C481.86 165.995 481.534 170.125 479.71 173.507C478.277 172.629 477.365 172.044 475.932 171.166C475.671 172.694 475.443 174.19 475.15 175.946C474.531 176.109 473.749 176.337 472.316 176.727C471.925 180.337 471.436 184.695 466.095 183.492C464.303 185.801 461.306 187.98 461.502 189.768C462.121 195.167 457.593 197.736 456.355 201.964C455.769 207.298 455.867 207.298 457.528 210.843C453.652 213.933 449.287 215.982 444.271 217.282C443.554 216.502 442.805 215.591 441.86 214.388Z" fill="black"/>
<path d="M84.5032 204.696C91.5715 196.012 97.5649 188.825 103.395 181.507C108.933 174.58 113.688 167.1 117.988 159.457C117.434 158.774 116.913 158.124 116.001 156.985C117.499 155.294 118.998 153.603 120.561 151.782C122.548 151.782 124.535 151.782 126.424 151.782C128.607 153.961 130.366 157.083 132.874 157.896C135.936 158.872 136.359 161.311 137.597 163.132C141.864 169.441 144.861 175.881 141.571 184.109C139.551 189.183 137.499 194.224 135.382 199.264C134.763 200.793 134.275 202.387 133.493 204.696C132.45 205.736 130.789 207.395 128.998 209.184C128.998 211.428 128.998 213.769 128.998 214.778C125.48 221.12 122.581 226.421 119.356 232.21C123.786 235.202 127.858 238.096 132.06 240.796C140.366 246.129 147.239 252.796 151.343 261.903C152.222 263.854 152.646 266.066 153.558 269.123C153.232 269.806 152.483 271.529 151.603 273.416C149.779 274.261 147.792 275.172 146.261 275.887C142.092 274.456 138.379 273.383 134.861 271.92C131.343 270.456 127.955 268.602 124.503 266.911C123.916 261.773 118.053 263.854 115.643 260.342C113.656 257.48 109.259 256.276 105.382 254.032C93.819 265.838 83.6237 278.717 74.2427 292.279C73.5261 293.319 73.7541 295.011 73.5587 296.409C69.4871 299.531 65.448 299.076 61.409 296.214C61.409 295.076 61.409 293.905 61.409 293.384C56.1647 290.23 51.2137 287.303 45.8391 284.083C43.2659 281.058 44.5688 276.31 42.875 272.668C41.0183 268.57 42.5818 264.635 41.8652 261.61C47.7284 248.536 54.699 237.088 64.6663 227.201C64.6663 225.51 64.6663 223.526 64.6663 221.152C58.9009 217.152 55.3504 210.908 51.7023 204.793C50.4971 202.744 50.3016 200.078 49.7479 197.638C48.6078 192.727 46.914 187.979 47.0769 182.776C47.37 172.791 53.0377 165.669 62.5816 162.091C68.6076 159.847 74.4381 160.986 80.9201 160.335C77.4348 167.523 69.0962 166.905 64.2102 172.954C72.614 172.596 77.728 164.661 86.3272 166.189C86.0015 168.206 85.6758 170.222 85.3175 172.336C86.881 172.889 89.1936 173.702 91.4086 174.482C91.4086 178.71 91.4086 182.223 91.4086 185.735C89.1285 189.703 86.6204 193.703 84.5683 197.899C83.9494 199.297 84.5032 201.248 84.5032 204.696Z" fill="black"/>
<path d="M234.63 94.2827C231.308 98.4456 228.279 102.251 224.924 106.446C224.924 109.796 224.924 113.536 224.924 117.829C221.797 119.097 218.767 120.301 215.315 121.667C211.243 117.731 209.614 112.495 208.312 107.584C206.585 108.235 205.022 108.788 202.742 109.633C200.95 107.064 198.768 104.787 197.595 102.088C194.077 93.99 194.37 85.339 194.729 77.1759C196.194 73.8261 197.53 70.834 199.159 67.0614C196.716 66.7037 194.533 67.0289 193.621 66.1182C187.888 60.3293 182.221 54.4427 176.944 48.1984C174.11 44.8486 171.113 41.0434 170.006 36.9456C168.345 30.9615 168.312 24.522 167.53 17.8549C170.234 14.0498 172.416 9.62675 175.869 6.53712C179.028 3.70766 183.524 2.40676 188.377 -0.0649414C189.517 1.17091 190.624 2.34172 191.732 3.54505C191.08 4.16298 182.416 12.5212 182.416 12.5212C183.035 13.1392 183.686 13.7896 184.598 14.7003C188.572 11.8058 192.514 8.03315 198.996 10.5049C197.4 12.6839 196.129 14.4075 193.947 17.3996C196.911 16.2613 198.572 15.6109 200.852 14.7003C201.927 16.3264 203.1 18.0826 204.501 20.1965C202.058 22.6357 200.136 24.5546 197.79 26.8962C199.289 27.1889 200.103 27.384 201.439 27.6442C199.419 31.0265 200.559 35.7098 195.38 37.466C200.527 43.8078 206.259 47.2877 212.09 51.1254C231.666 34.8967 250.819 19.0583 270.233 2.95965C272.578 2.95965 275.347 2.95965 278.799 2.95965C277.301 5.95171 276.096 8.35837 274.891 10.7976C277.464 12.7489 279.516 10.5699 281.796 9.5617C288.376 15.7084 289.939 23.3512 288.571 31.9046C285.835 35.4171 283.034 39.027 280.167 42.6696C280.363 42.8322 280.786 43.2224 281.959 44.3282C280.363 44.5233 278.864 44.7185 277.334 44.9136C277.92 45.5641 278.539 46.182 279.125 46.8324C277.952 46.8324 276.78 46.8324 275.835 46.8324C269.744 58.2803 259.451 66.0532 251.927 76.4604C262.252 82.2169 273.816 86.4773 284.728 92.9818C285.053 94.6079 285.444 96.4942 285.868 98.6732C287.203 97.2422 288.213 96.2015 289.19 95.1608C293.587 95.7462 293.49 100.787 297.203 102.641C300.428 104.267 302.317 108.56 304.825 111.715C304.825 115.195 304.825 118.707 304.825 122.252C303.978 123.098 303.131 123.943 301.959 125.114C292.806 124.138 285.249 118.935 276.91 114.739C276.747 114.902 276.128 115.455 275.868 115.682C270.037 114.251 266.552 108.007 259.842 108.918C256.715 104.885 251.568 104.592 247.529 102.218C243.458 99.9741 239.516 97.3723 234.63 94.2827Z" fill="black"/>
<path d="M493.325 235.983C495.149 237.024 496.615 237.837 498.732 239.007C498.244 241.902 497.755 244.796 497.169 248.406C498.667 250.976 499.905 254.911 504.432 256.505C506.452 253.675 507.69 250.455 511.598 248.894C514.335 247.789 515.931 243.886 518.048 241.251C520.36 238.324 523.553 236.341 525.377 232.763C526.908 229.771 530.165 227.722 532.25 224.925C534.399 222.031 535.995 218.779 537.852 215.689C541.337 215.689 544.497 215.689 547.852 215.689C548.373 218.486 549.253 221.25 545.93 224.145C548.797 224.275 550.979 224.372 552.999 224.47C553.911 228.6 554.725 232.34 555.507 236.015C554.073 236.568 553.064 236.959 551.858 237.446C551.989 238.259 551.956 239.105 552.249 239.821C554.725 245.935 554.334 248.016 549.546 252.732C547.559 254.683 546.745 257.74 547.526 259.659C548.797 262.651 544.986 261.513 546.777 264.277C544.855 262.716 544.269 262.196 543.227 261.35C543.227 263.237 543.227 264.635 543.227 266.294C541.337 266.652 539.741 266.977 537.787 267.334C537.787 269.253 537.787 271.237 537.787 272.18C535.507 274.554 533.911 276.213 532.575 277.612C535.67 280.636 538.536 283.433 540.914 285.742C540.914 288.604 540.914 290.328 540.914 292.409C542.836 294.328 544.823 296.312 546.875 298.393C546.223 299.532 545.832 300.247 545.116 301.483C546.061 303.369 547.201 305.678 548.666 308.67C546.94 312.248 545.051 316.183 543.259 319.923C540.035 319.923 537.722 319.923 535.865 319.923C527.233 314.98 518.895 310.199 510.556 305.451C509.09 307.727 507.885 309.549 506.908 311.077C505.377 310.329 504.172 309.744 502.152 308.768C502.152 311.825 502.152 314.037 502.152 317.029C499.449 316.021 497.56 315.338 494.009 314.004C495.475 315.988 495.866 316.541 496.647 317.582C495.019 319.11 493.292 320.736 490.556 323.273C490.003 319.956 489.677 317.907 489.286 315.63C490.524 315.207 491.534 314.85 492.836 314.394C492.967 313.744 493.13 312.931 493.292 311.923C492.152 311.532 491.143 311.175 490.1 310.817C490.491 309.256 490.882 307.662 491.534 304.995C489.872 306.491 489.253 307.077 488.863 307.435C485.084 306.719 481.501 306.069 477.723 305.353C477.136 304.247 476.387 302.784 475.508 301.093C476.192 298.491 476.941 295.564 477.723 292.539C479.449 292.832 481.664 293.19 483.879 293.548C483.977 293.222 484.074 292.897 484.14 292.572C481.827 291.401 479.547 290.263 477.495 289.255C478.7 286.815 479.872 284.344 481.11 281.807C475.28 271.888 468.895 262.554 465.312 251.789C463.163 244.374 465.703 237.056 466.778 229.739C467.625 224.047 472.316 220.047 477.462 217.185C478.179 216.762 478.895 216.307 480.068 215.591C482.706 215.591 485.866 215.591 488.895 215.591C490.296 216.99 491.534 218.226 492.413 219.104C490.687 220.827 488.895 222.616 487.853 223.657C487.853 226.291 487.853 227.462 487.853 229.121C489.807 228.6 491.696 228.145 493.846 227.56C494.986 228.6 495.996 229.576 497.429 230.909C495.898 232.828 494.661 234.324 493.325 235.983Z" fill="black"/>
</g>
<defs>
<clipPath id="clip0">
<rect width="826.797" height="746" fill="white" transform="translate(-177.057)"/>
</clipPath>
</defs>
</svg>
