<?xml version="1.0" standalone="no"?>
<!DOCTYPE svg PUBLIC "-//W3C//DTD SVG 20010904//EN"
 "http://www.w3.org/TR/2001/REC-SVG-20010904/DTD/svg10.dtd">
<svg version="1.0" xmlns="http://www.w3.org/2000/svg"
 width="840.000000pt" height="733.000000pt" viewBox="0 0 840.000000 733.000000"
 preserveAspectRatio="xMidYMid meet">

<g transform="translate(0.000000,733.000000) scale(0.100000,-0.100000)"
fill="#ff0000" stroke="#000000"  stroke-width="80px">
<path d="M1238 6809 c-16 -9 -17 -31 -15 -239 1 -125 -1 -232 -6 -236 -4 -4
-103 -6 -220 -5 -116 1 -223 -2 -237 -7 l-24 -9 -2 -221 c-1 -121 -5 -226 -9
-232 -5 -9 -66 -10 -227 -6 -208 5 -220 4 -238 -14 -19 -19 -20 -38 -20 -734
0 -642 2 -714 16 -720 9 -3 114 -6 234 -6 189 0 219 -2 224 -16 3 -9 6 -228 6
-489 0 -368 3 -475 13 -483 8 -7 97 -11 241 -11 125 0 231 -3 235 -6 3 -4 7
-108 8 -232 1 -124 5 -229 10 -234 5 -5 115 -10 244 -12 l234 -2 5 -240 5
-240 241 -3 c241 -2 242 -2 248 -25 3 -12 3 -118 0 -236 -3 -143 -1 -218 6
-226 8 -10 69 -14 247 -14 131 -1 239 -4 241 -6 3 -2 4 -101 3 -219 -2 -141 2
-222 9 -236 10 -19 19 -20 230 -20 120 0 225 -3 234 -6 14 -5 16 -35 16 -229
0 -123 3 -230 6 -239 5 -14 35 -16 224 -16 188 0 221 -2 235 -16 14 -15 15
-40 10 -215 -3 -110 -4 -208 0 -218 3 -11 18 -24 33 -29 41 -14 438 -7 457 8
12 10 15 52 17 229 l3 216 225 3 c164 2 226 6 232 15 9 15 11 431 1 477 -3 20
-13 35 -25 37 -24 7 -23 19 2 26 19 5 20 14 20 196 0 145 -3 191 -12 193 -7 1
-112 2 -233 2 -121 1 -226 5 -232 9 -10 6 -13 62 -13 222 0 118 -4 216 -9 219
-5 3 -7 15 -4 25 5 19 -2 20 -223 21 -142 0 -232 4 -239 11 -6 6 -13 99 -17
222 -9 265 -8 257 -22 258 -6 0 -114 1 -241 2 l-230 2 0 250 0 250 247 3 246
2 1 234 c2 181 -1 235 -11 244 -9 7 -88 10 -232 10 -178 0 -221 2 -233 14 -20
20 -32 396 -14 450 24 71 28 73 264 75 132 2 214 6 221 13 7 7 10 75 8 198 -4
199 5 249 46 271 10 5 122 11 248 13 l229 3 7 315 c5 173 7 385 5 470 l-2 155
-238 3 c-188 2 -239 5 -243 16 -3 7 -6 116 -7 242 l-2 229 -240 5 c-132 3
-242 7 -243 8 -2 1 0 107 3 236 8 230 7 234 -13 245 -28 15 -1939 15 -1964 0z
m504 -505 c22 -12 27 -19 19 -27 -7 -7 -11 -71 -11 -186 0 -200 -6 -247 -29
-257 -9 -3 -110 -8 -224 -9 -169 -2 -212 -6 -224 -17 -12 -12 -15 -55 -16
-225 -3 -230 -5 -238 -61 -248 -17 -3 -120 -6 -228 -8 l-197 -2 -15 27 c-13
22 -16 65 -16 251 0 145 4 228 10 232 6 4 110 8 232 9 201 3 223 5 235 22 10
13 13 69 13 229 0 117 3 215 7 218 3 4 112 7 240 7 194 0 239 -3 265 -16z
m263 -19 c6 -2 -37 -4 -95 -4 -58 0 -99 3 -92 7 12 8 164 5 187 -3z m1165 2
c0 -8 -3 -17 -7 -20 -9 -9 -34 13 -27 24 8 14 34 11 34 -4z m-1123 -3 c-3 -3
-12 -4 -19 -1 -8 3 -5 6 6 6 11 1 17 -2 13 -5z m220 0 c-3 -3 -12 -4 -19 -1
-8 3 -5 6 6 6 11 1 17 -2 13 -5z m50 0 c-3 -3 -12 -4 -19 -1 -8 3 -5 6 6 6 11
1 17 -2 13 -5z m40 0 c-3 -3 -12 -4 -19 -1 -8 3 -5 6 6 6 11 1 17 -2 13 -5z
m190 0 c-3 -3 -12 -4 -19 -1 -8 3 -5 6 6 6 11 1 17 -2 13 -5z m416 -1 c-72 -2
-194 -2 -270 0 -76 1 -16 3 132 3 149 0 211 -2 138 -3z m354 -489 c-3 -3 -12
-4 -19 -1 -8 3 -5 6 6 6 11 1 17 -2 13 -5z m130 0 c-3 -3 -12 -4 -19 -1 -8 3
-5 6 6 6 11 1 17 -2 13 -5z m40 0 c-3 -3 -12 -4 -19 -1 -8 3 -5 6 6 6 11 1 17
-2 13 -5z m50 0 c-3 -3 -12 -4 -19 -1 -8 3 -5 6 6 6 11 1 17 -2 13 -5z m40 0
c-3 -3 -12 -4 -19 -1 -8 3 -5 6 6 6 11 1 17 -2 13 -5z m83 -10 c0 -9 -5 -14
-12 -12 -18 6 -21 28 -4 28 9 0 16 -7 16 -16z m500 -494 c0 -11 -4 -20 -9 -20
-14 0 -23 18 -16 30 10 17 25 11 25 -10z m-3375 -860 c3 -5 1 -10 -4 -10 -6 0
-11 5 -11 10 0 6 2 10 4 10 3 0 8 -4 11 -10z m476 -993 c-1 -12 -15 -9 -19 4
-3 6 1 10 8 8 6 -3 11 -8 11 -12z m2087 -54 c-10 -2 -26 -2 -35 0 -10 3 -2 5
17 5 19 0 27 -2 18 -5z m140 0 c-21 -2 -55 -2 -75 0 -21 2 -4 4 37 4 41 0 58
-2 38 -4z m-1733 -433 c3 -5 1 -10 -4 -10 -6 0 -11 5 -11 10 0 6 2 10 4 10 3
0 8 -4 11 -10z m1588 -127 c-13 -2 -33 -2 -45 0 -13 2 -3 4 22 4 25 0 35 -2
23 -4z m54 1 c-3 -3 -12 -4 -19 -1 -8 3 -5 6 6 6 11 1 17 -2 13 -5z m40 0 c-3
-3 -12 -4 -19 -1 -8 3 -5 6 6 6 11 1 17 -2 13 -5z m50 0 c-3 -3 -12 -4 -19 -1
-8 3 -5 6 6 6 11 1 17 -2 13 -5z m-1004 -381 c-7 -2 -21 -2 -30 0 -10 3 -4 5
12 5 17 0 24 -2 18 -5z m1322 -113 c-3 -5 -10 -10 -16 -10 -5 0 -9 5 -9 10 0
6 7 10 16 10 8 0 12 -4 9 -10z m40 0 c-3 -5 -10 -10 -16 -10 -5 0 -9 5 -9 10
0 6 7 10 16 10 8 0 12 -4 9 -10z m92 4 c-3 -3 -12 -4 -19 -1 -8 3 -5 6 6 6 11
1 17 -2 13 -5z m673 -521 l-1 -38 -15 28 c-15 27 -12 47 7 47 5 0 9 -17 9 -37z
m-167 -360 c-7 -2 -21 -2 -30 0 -10 3 -4 5 12 5 17 0 24 -2 18 -5z m-716 -485
c-3 -8 -6 -5 -6 6 -1 11 2 17 5 13 3 -3 4 -12 1 -19z"/>
<path d="M5278 6718 c-1 -2 -5 -111 -8 -243 l-5 -240 -225 -3 c-123 -1 -228
-6 -233 -11 -10 -10 -10 -489 0 -505 4 -5 5 -101 4 -212 -2 -139 1 -204 8
-209 6 -3 108 -7 227 -8 l216 -2 24 -28 c24 -28 24 -29 24 -255 0 -125 -4
-233 -9 -240 -6 -10 -63 -14 -247 -18 -136 -2 -240 -8 -242 -13 -2 -6 -10 -7
-18 -4 -13 5 -15 -25 -13 -225 0 -127 -2 -235 -6 -241 -4 -7 -80 -11 -225 -11
-141 0 -221 -4 -225 -10 -4 -6 -16 -8 -27 -4 -20 6 -20 4 -15 -207 3 -118 6
-214 6 -215 4 -4 56 -7 238 -12 194 -6 214 -9 232 -27 19 -19 20 -35 22 -257
0 -130 -2 -241 -6 -247 -4 -7 -81 -11 -225 -11 -141 0 -221 -4 -225 -10 -4 -6
-14 -8 -23 -6 -16 5 -17 -15 -18 -227 0 -154 3 -234 10 -239 6 -4 115 -8 243
-8 147 0 234 -4 238 -10 4 -6 6 -105 5 -221 0 -180 2 -211 14 -206 8 3 22 -3
32 -14 10 -11 12 -19 6 -19 -7 0 -12 -4 -12 -10 0 -6 75 -8 207 -6 128 3 214
1 226 -6 18 -9 19 -28 15 -476 l-3 -467 245 0 245 0 5 240 5 240 225 5 225 5
1 237 c1 130 5 241 8 247 5 7 84 11 246 11 194 0 239 3 243 14 3 7 4 112 2
232 -3 127 -1 225 5 234 8 13 46 15 232 17 123 1 229 2 236 2 9 1 12 56 12
240 0 179 3 241 13 249 8 7 88 9 226 6 131 -2 221 0 232 7 18 9 19 32 21 492
l3 482 248 3 247 2 -2 713 -3 712 -230 3 c-130 1 -234 7 -239 12 -6 6 -11 107
-12 237 -1 185 -4 229 -16 237 -10 8 -88 9 -237 6 -176 -4 -225 -2 -234 8 -7
9 -10 86 -8 232 2 145 -1 226 -9 239 l-11 21 -954 0 c-525 0 -956 -1 -957 -2z
m2391 -1055 c0 -25 -1 -26 -9 -8 -12 27 -12 35 0 35 6 0 10 -12 9 -27z m-2859
-1002 c0 -11 -4 -23 -10 -26 -6 -4 -10 5 -10 19 0 14 5 26 10 26 6 0 10 -9 10
-19z m-3 -273 c-3 -8 -6 -5 -6 6 -1 11 2 17 5 13 3 -3 4 -12 1 -19z m-500
-240 c-3 -7 -5 -2 -5 12 0 14 2 19 5 13 2 -7 2 -19 0 -25z m0 -265 c-2 -21 -4
-4 -4 37 0 41 2 58 4 38 2 -21 2 -55 0 -75z m500 -335 c-3 -8 -6 -5 -6 6 -1
11 2 17 5 13 3 -3 4 -12 1 -19z m3 -144 c0 -8 -4 -12 -10 -9 -5 3 -10 10 -10
16 0 5 5 9 10 9 6 0 10 -7 10 -16z m-503 -461 c-1 -49 -3 -9 -3 87 0 96 2 136
3 88 2 -49 2 -127 0 -175z m18 -127 c12 -12 12 -15 -1 -20 -23 -9 -24 -8 -24
14 0 24 6 25 25 6z m198 -13 c-7 -2 -21 -2 -30 0 -10 3 -4 5 12 5 17 0 24 -2
18 -5z m50 0 c-7 -2 -19 -2 -25 0 -7 3 -2 5 12 5 14 0 19 -2 13 -5z m234 -315
c-3 -7 -5 -2 -5 12 0 14 2 19 5 13 2 -7 2 -19 0 -25z m3 -80 c0 -28 -3 -39
-10 -32 -9 9 -3 74 6 74 2 0 4 -19 4 -42z m1370 -48 c0 -5 -5 -10 -11 -10 -5
0 -7 5 -4 10 3 6 8 10 11 10 2 0 4 -4 4 -10z m-152 -7 c-10 -2 -26 -2 -35 0
-10 3 -2 5 17 5 19 0 27 -2 18 -5z m-946 -50 c-40 -2 -103 -2 -140 0 -37 2 -4
3 73 3 77 0 107 -2 67 -3z m229 -436 c-1 -12 -15 -9 -19 4 -3 6 1 10 8 8 6 -3
11 -8 11 -12z"/>
</g>
</svg>
