<svg width="18" height="17" viewBox="0 0 18 17" fill="none" xmlns="http://www.w3.org/2000/svg">
<path fill-rule="evenodd" clip-rule="evenodd" d="M17.2966 0.721298C17.2181 0.529553 17.0659 0.377357 16.8742 0.298874C16.7835 0.248447 16.6837 0.216903 16.5805 0.206146H13.4896C13.0628 0.206146 12.7169 0.552108 12.7169 0.978874C12.7169 1.40564 13.0628 1.7516 13.4896 1.7516H14.7157L11.3981 5.06918C11.1914 5.26181 11.1063 5.55193 11.1762 5.82572C11.2461 6.0995 11.4599 6.31329 11.7337 6.38321C12.0075 6.45313 12.2976 6.36803 12.4902 6.1613L15.8078 2.84372V4.06978C15.8078 4.49655 16.1538 4.84251 16.5805 4.84251C17.0073 4.84251 17.3532 4.49655 17.3532 4.06978V0.978874C17.3494 0.890389 17.3302 0.803244 17.2966 0.721298Z" fill="#ECECEC"/>
<path fill-rule="evenodd" clip-rule="evenodd" d="M5.98822 10.4782L2.41307 14.0533V12.8273C2.41307 12.4005 2.06711 12.0545 1.64034 12.0545C1.21358 12.0545 0.867615 12.4005 0.867615 12.8273V15.9182C0.867615 16.3449 1.21358 16.6909 1.64034 16.6909H4.73125C5.15802 16.6909 5.50398 16.3449 5.50398 15.9182C5.50398 15.4914 5.15802 15.1454 4.73125 15.1454H3.50519L7.08034 11.5703C7.36405 11.2658 7.35567 10.7914 7.06141 10.4971C6.76714 10.2028 6.29269 10.1945 5.98822 10.4782Z" fill="#ECECEC"/>
<path fill-rule="evenodd" clip-rule="evenodd" d="M16.5789 12.0545C16.1522 12.0545 15.8062 12.4005 15.8062 12.8273V13.7958L12.4886 10.4782C12.1842 10.1945 11.7097 10.2028 11.4154 10.4971C11.1212 10.7914 11.1128 11.2658 11.3965 11.5703L14.9717 15.1454H13.488C13.0613 15.1454 12.7153 15.4914 12.7153 15.9182C12.7153 16.3449 13.0613 16.6909 13.488 16.6909H16.5789C17.0057 16.6909 17.3517 16.3449 17.3517 15.9182V12.8273C17.3517 12.4005 17.0057 12.0545 16.5789 12.0545Z" fill="#ECECEC"/>
<path fill-rule="evenodd" clip-rule="evenodd" d="M3.76277 1.7516H4.73125C5.15802 1.7516 5.50398 1.40564 5.50398 0.978874C5.50398 0.552108 5.15802 0.206146 4.73125 0.206146H1.64034C1.21358 0.206146 0.867615 0.552108 0.867615 0.978874V4.06978C0.867615 4.49655 1.21358 4.84251 1.64034 4.84251C2.06711 4.84251 2.41307 4.49655 2.41307 4.06978V2.58615L5.98822 6.1613C6.29269 6.445 6.76714 6.43663 7.06141 6.14236C7.35567 5.8481 7.36405 5.37364 7.08034 5.06918L3.76277 1.7516Z" fill="#ECECEC"/>
</svg>
