<svg xmlns="http://www.w3.org/2000/svg" viewBox="0 0 703.21 730.69"><title>Group</title><path d="M836,554c-.46.67-1.65,2.38-3.15,4.52.65.55,1.38,1.16,2.35,2,0,2.26,2.61,5.3-.1,7.62-2.43,2.08,1.47,6-2.61,7.11-.83,5.48-5.62,8.32-9.08,11.39-3.16,2.77-4.83,6.86-9,8.88-3.65,1.75-6.39,5.36-9.53,8.17-2-.44-3.81-.83-6.35-1.42,0,1.57.12,2.73.2,4.59-.89.59-2.32,1.54-3.9,2.57.13,2.48.27,4.8.4,7.53-1.52,1-3,2-4.68,3.13l3.19,2.19c-2.16.81-3.94,1.45-5.82,2.15.2.43.53,1.12,1,2.18-5.9.55-9.35-5.52-15.88-4.76-4.35,1.65-8.48,6.29-14.44,6.82-2.31.21-1.52,4.51-5,3.1-1.23-.49-1.38,3.85-4.16,2.25-2.12,3.4-5.81,4-9.07,5.66a41.39,41.39,0,0,0-7.77,5.4c-2,1.72-4.14,3.34-6.22,5a58.28,58.28,0,0,0-5.66,4.41c-1.43,1.43-2.12,4.35-3.66,4.76-2.06.56-3.57,1.33-4.59,3.63-1.47-1.51-2.37-2.44-3.27-3.35-3.78.73-7.55,1.4-9.78-3.57.68-2.55,1.46-5.42,2.27-8.47-5.44-5.3-11.26-10.25-12.08-19.16,1-2.63.67-6.77,4.09-9.22-1.76-8.49,3.2-14,8.49-19.23a82.76,82.76,0,0,1,22.06-15.34c-2.37-6.95-5-13.55-6.78-20.34-1.23-4.68-2.58-9.83-1.45-14.51,1.17-4.86,1-10.3,5.16-14.41,1.86-1.85,1.5-5.34,3.7-7.86,1.32-1.52,2.37-3.3,4.15-4.6,1-.7,1.32-2.22,2.55-4.42,1.67-.89,5.46-1.65,6.79-3.87,2-3.25,6.09-.68,7.13-4.81.92,1.2,1.35,1.73,2,2.53,2-.06,4.29-.12,6.65-.15.39,1.72.73,3.18,1.12,4.93l-8,8.29c4.1.69,7.27,1.19,10,1.63.78,1.35,1.22,2.1,1.67,2.89-1.63,1.82-3.3,3.68-5.51,6.11l6.74,2.57c-1.35,2.68-2.71,5.39-4.06,8-1.28.64-2.65,1.35-4.07,2,.54.94.73,1.41.81,1.36,1.23-.31,2.4-.66,3.88-1.08.11,1.23.19,2,.31,3-2.59.54-5.08,1.05-7.88,1.66,1.05.7,1.89,1.24,3.43,2.25l-7.44,4.29,6.36,8.52c3.76,1.84,7.41,1,11.28-.84,8.9-4.31,18.3-7.63,27.12-12,9-4.47,18.45-8.66,26-15.89,1.75-1.69,4.28-2.56,6.61-3.91l8.5,2.28c.32.72.85,1.94,1.4,3.2-1.63,2.42-3.34,4.88-5.54,8.1,2.77,0,5,0,7.93-.07C835,550.4,835.37,551.73,836,554Z" transform="translate(-133.11 -58.8)" fill="#793dfa"/><path d="M277.55,586.57l-8.19.31c1.07-1.27,1.77-2.09,2.67-3.18-1.12-3.29-2.52-6.36-6.52-6.83,0-1.2,0-2,0-3.07L258.86,572c-.47-.83-1-1.31-1-1.83-.21-3.35.56-7.08-.63-10-1.57-3.75.46-6.47,1.15-9.5.57-2.48,2.21-4.7,3.49-7a110.55,110.55,0,0,1,16.45-22.4,130.52,130.52,0,0,1,12.56-11.76c4.32-3.57,9.07-6.58,13.78-9.95-.81-.89-1.66-1.87-2.58-2.82a145.25,145.25,0,0,1-22.35-30.51c-3-5.2-1.5-10.74-1.32-16.18.07-2.17,1.06-4.32,1.64-6.48,3.28-3.56,7.76-2.74,12.45-3.29.74,2.89,1.54,5.87,2.41,9.24l2-.79c.42.71,1.25,1.51,1.31,2.35.41,5.25,3.66,8.75,7.28,11.94,7.34,6.51,14.81,12.89,22.76,19.74,2.74-1.68,5.8-4.57,9.34-5.46,3.27-.83,4.64-5.35,9-3.72-.42-.93-.71-1.62-1.15-2.59l5.56-2c1-1.16,2.44-3,3.87-4.74l4.58.95c-.5-1.22-.78-1.86-1.22-2.84,3.58.42,4.74-3.07,7.41-4.39,2.82-1.4,5.16-3.75,8.07-5.93.37.49.78,1,1.54,1.94.68-.86,1.32-1.71,2.13-2.73.47.64.88,1.22,1.65,2.25,2.58-5.36,7-9.06,11.54-12.23s9.12-7.26,15.62-8.53c.56.78,1.32,1.84,2.18,3-3.46,3.77-6.81,7.51-12.1,8.53-.59,2.19-1.13,4.2-1.73,6.45,1.17,0,2.28.39,2.63,0a41.22,41.22,0,0,0,3.18-4c4.7-2.14,8.5-3.88,13.34-6.07-.57,3.08-1,5.07-1.33,7-1.35.18-2.37.29-3.43.45.14.42.3,1.16.45,1.17,2.07.1,4.16.13,6.69.17.36,1.37.8,3,1.25,4.71-.58.38-1.27.8-2,1.31-.3,2.42,2,5.25-.91,7.33-.48-.73-.89-1.41-1.35-2.07-.41.43-1.05.83-1.05,1.17a23.64,23.64,0,0,0,.67,3.45c-1.54,4-5.57,5.84-9.33,7.78-3.57,1.83-7.36,3.29-11.86,5.26,1.27,1.29,2.41,2.39,3.66,3.64-1.4,1.53-2.25,2.48-3.15,3.44.26.49.61,1.18,1.17,2.28-1.83-.17-3.37-.33-5.59-.57.2,1.63.34,3,.54,4.61l-5.39-1.44c-1.56,1.77-2.89,3.32-4.18,4.81.54,1,.92,1.77,1.47,2.81-1.74-.15-3.3-.25-5.54-.44.17,1.5.31,2.87.48,4.5l-5-.57c.15,1.69.29,3.06.51,5.31-1.88-1.4-3.26-2.4-4.91-3.6-1.3,1.42-2.64,2.87-4,4.29.14.67.08,1.36.42,1.64.56.53,1.43.7,2,1.23,2.09,2.05,1.82,5.4,3.89,7.42,2.24,2.18,2.68,5,3.74,7.72,1,2.45,1.6,4.46.76,7-.29.87.26,2,.43,3.25-.61.63-1.5,1.47-2.71,2.67-2.26-.35-4.61,2.16-8.2-.45-6.25-4.56-12.83-8.93-20.14-11.84-.4-.17-.59-.92-1.08-1.81-2.88,1.89-5.74,3.79-9.33,6.16-.11.29-.6,1.52-1.14,2.83l-5.56-.6c.94,2.54,1.67,4.45,2.72,7.27l-4.43-2.68-2.3,1.6c.26,2.83-.94,4.22-4.42,5.13-1.79,3-3.49,5.92-4.93,8.32-1.5.14-2.35.23-3.42.32.58,1,.84,1.47,1.3,2.26-2.89,1.19-6.08,1.95-8.55,3.7-2.23,1.56-3.7,4.21-5.78,6.73.07.24.39,1.15.91,2.66-2.27,1.36-4.5,2.69-6.65,4,.43,1,.75,1.72,1.33,3-1.55,1-3.1,2.05-4.77,3.19-.38,1.42-.8,3-1.26,4.71C281.87,584.21,279.41,585.55,277.55,586.57Z" transform="translate(-133.11 -58.8)" fill="#793dfa"/><path d="M467.69,672c2.53,5.5,2.52,5.53,7.73,4.23a25.64,25.64,0,0,0-.65,4,8.88,8.88,0,0,0,.76,2.58c-.71.42-1.2.7-1.84,1.06l3.47,2.93c-2.53,2.12-4.92,4.14-7.32,6.13,1.15,4.59-3.75,4-5,6-1.93,3-6.15,2.66-7.22,6.18-1.26,4.11-5.63,3.48-8.11,5.38-2.16,1.67-5.37,2.27-6.44,4.84.33,1.26.6,2.26,1.05,3.9-2.77.72-5.16,1.35-7.54,1.94l-5.68,1c-2,1.39-4,2.79-6.7,4.64,0,.06-.3,1.13-.42,1.57-6.17,2.41-12,4.67-18.65,7.25,1.38,1.26,2.23,2,3.61,3.25l-9.46,7.78,16.43,11-2.74,3.1c2.45,1.67,4.7,3.23,7.3,5-.3,1.1-.64,2.37-.95,3.53,1.36,2.14,2.55,4,3.77,5.95-.42,1.92-.78,3.76-1.16,5.53.76,1.32,1.45,2.52,2.15,3.72l-9.1,4.19c-2.27,1.49-4,.64-5.62-1.19a4.06,4.06,0,0,0-2-1.17c-8.41-2.06-15.09-7.25-21.93-12.06-5.05-3.54-9.75-7.59-14.88-11.67-2,1.15-4.81,1.7-6,4.87l-10.65-.32c-1.21-2.13-2.18-3.82-3.16-5.51l2.34-1.5c-.36-1.87-.73-3.91-.95-5.11L345,754.3c-.55-2.69-1.08-5.11-1.59-7.57l-1.36.78-4.42-7.78c2.27-5.39.4-12.77,3.24-19.47.6-1.39,0-3.79-.85-5.24-3.57-5.74-2.05-12.25-2.8-18.35a22.36,22.36,0,0,1,.13-7.81c1-4.05,1.59-8.32,3.32-12.05,2.75-5.89,5.68-12.18,13.56-12.67,2.58-.16,5.24.45,8.53.76-1.14,4.26-2.12,7.9-3.37,12.58,3.19-1,5.35-1.71,8.55-2.75.08,1.23.18,2.65.27,4.1.49-.18,1-.41,1.46-.59-.63,2.34-1.26,4.67-2,7.43,1.58-.34,2.72-.57,3.8-.79,2.64,3.91,1.52,7.73,0,11.54,1,.72,1.87,1.3,3.24,2.23-1.11,1.55-2.19,3.1-3.53,5,1,.07,1.43.26,1.75.12.76-.34,1.44-1.1,2.19-1.19,7.6-.75,13-7.16,20.66-7.85,2.73-4.63,8.29-4.28,12.31-6.82s9.31-3.72,13.95-5.62,7.91-6,13.2-6.24a36.17,36.17,0,0,1,17.24-9.94c.86-4,6.44-3,7.45-7.26l7.29,1.95,1.5,2.59c-4,.81-6.14,3.81-9.31,6.77,4.56,2.3,8.91-2.81,12.72,1.09C470.66,671.46,469.46,671.68,467.69,672Z" transform="translate(-133.11 -58.8)" fill="#793dfa"/><path d="M471.79,581.67c.63-3.89,6.07-2.84,4.49-7-.8.39-1.5.74-2.2,1.12-.13-.23-.44-.5-.42-.71.47-4.13,1.71-7.79,5.39-10.27,4-2.72,8.07-5.45,12-8.29a32.24,32.24,0,0,0,3.56-3.56c-.43-4.2-1.39-8.68-2.08-13.08-.74-4.71.52-9.29-.38-14-.47-2.51,3.38-5.63,3.43-8.54.07-3.24-1-6.3,2.36-8.44,2.2-8,9-11.51,15.22-15.78l13.45,3.61c.6.95,1.17,1.9,2.12,3.45l-8.54,6.41c.12.6.37,2.06.71,4,.77.21,2.1,1,2.75.64,2.84-1.61,5.2,0,7.65.37.35,2.13.67,3.9,1,5.89-1.62,1.18-3.28,2.41-5.81,4.28,2.78,1.12,4.63,1.9,7.09,2.91-.62,2.34-1.3,4.85-2.07,7.73,5.41,1.63,7.77-4.81,12.36-3.55,2.92-2.61,6.57-4,10-5.79,3.95-2.08,7.77-4.35,11.6-6.66,3.52-2.13,7.07-4.23,10.35-6.65s6.5-5.39,8.54-7.1c3.67-.28,5.72-.46,8.28-.66.48,1.3,1.43,2.72,1.4,4.14,0,1.07-1.2,2.22-2.06,3.2a9,9,0,0,0-2.71,4.18c2.61-.37,5.24-.71,8.14-1.11.67,3.06,1.39,6.33,2.46,11.32a21.32,21.32,0,0,0-.78,3.05,27.22,27.22,0,0,0,0,4.2L597,533.09c.6,1.11,1,1.82,1.31,2.48-6.69,6.23-13,12.86-20.08,18.73-5.93,4.94-5.44,5.52-9.07,6.38.35.7.7,1.4,1,2L545.22,579c-.21.8-.5,1.87-.71,2.67,4.2,4.58,8.26,9,12.48,13.62l-2.89,3.22c1.48,2.17,1.93,5.72,6,5.55.39,1.84.69,3.35,1,4.84l-2.56,2.07,4.26,7.36-3.55,4.82c.27,1,.6,2.26.93,3.42-.47.54-.72,1.14-1.14,1.28-1,.32-2.12.1-2.89.59-4.52,3-5.2,3.05-9.18.37-5.15-3.44-10.91-6.23-15.35-10.43-5.92-5.64-10.78-12.37-16.6-19.23a78.63,78.63,0,0,0-12,6.15A29.41,29.41,0,0,1,488,609.48c1.45-1.39,2.06-2,3.37-3.22l-10.14-.78c-.09-.4-.18-.78-.23-1.17,2.19-.94,4.41-1.87,6.6-2.8l-2.07-3.57L480,596.46c-.25-2-.49-4.32-.82-7l-6.7-1.8C472.19,585.05,471.91,582.75,471.79,581.67Z" transform="translate(-133.11 -58.8)" fill="#793dfa"/><path d="M549.29,432.66c-2.95-.09-5.54-.15-9.23-.25-2.86-3.56-6.2-7.94-9.76-12.2-4.24-5-7.53-10.9-12.77-15.06-1.2-1-2.53-1.79-4.28-3-1.38-4.08.08-10.6-6.92-11.72-2.33-3.64-1.41-8.62-5.76-10.3-.8-2.91-1-6-2.4-8.32-6.65-10.53-10.41-22.1-12.72-35.41.51-3.8,1.82-8.68,2.33-13.78.82-8,6.71-13.55,14.53-16.06,2.15-.69,3.79-3,6.8-1.92,2.09.75,4.64.23,7.67.31.63,1,1.5,2.24,2.55,3.89-3.31,3.2-8.25,4.48-10,9.51,4.61,3.05,8.4-2,13.67-1.25.48.73,1.31,2,2.1,3.19l-7.39,6.49c3.79-.15,6.26.47,7.49-.46,3.13-2.43,7.19-2.65,10.29-5.46,2.87-2.63,6.81-4.08,10.82-5.38,5.63-1.83,10.71-5.26,16.18-7.66,8-3.56,15.79-7.7,24.36-10.16,3.37-1,6.35-3.44,9.45-5.3,2.81-1.72,6.58-1.79,8.18-5l10.88,2.91c-.53,2-1,3.79-1.88,7l-3.31,1.9c1.53.13,3,.3,4.51.39s3,0,5.37,0c-1.72,5.13-2.72,9.81.17,14.2-1.09.85-1.7,1.35-2.94,2.32,1,.93,2.12,2,4.25,4.06l-5,0a16.14,16.14,0,0,1,.46,3.39,16.57,16.57,0,0,1-.8,3.21c-4.09,3.32-8.19,6.63-12.68,10.24l-3.88-.59c.36.92.58,1.52.86,2.26-.79,1-1.66,2.16-2.67,3.44-7-2.26-9,5.06-14.19,6.73.59,1.46.9,2.21,1,2.53l-11.23,6.48,0,0-5.14,3c-.35-.47-.71-.92-1.06-1.39l-1.14,4.26c-.74-1-1.16-1.61-2.1-2.94-.22,1.87-.37,3.13-.55,4.89L554,372.89c-1-1.18-1.59-2-2.16-2.71-3.82,2.63-7.75,5.32-11.68,8,1,.87,1.93,1.69,3.3,2.88-2,1.45-3.61,2.68-5.2,3.88,0,.69-.16,1.32.08,1.73,3.44,6.82,7.95,13.33,10.16,20.52C550.88,415.26,554.34,423.9,549.29,432.66Z" transform="translate(-133.11 -58.8)" fill="#793dfa"/><path d="M692.7,346l1.62-.93a8.84,8.84,0,0,0-.59-1.37c-1.59-2.48-3.79-4.82-5-7.14s-2.66-4.17-3.91-6.28c-1.65-2.82-3.29-6.68-2.64-9.59,1.17-5.17,2.22-10.41,4.91-15.46,4.6-8.73,11.33-14.45,19.52-19.14,10.36-5.95,20.69-11.93,31.59-18.21-2.51-3.69-1.27-9-6.15-11.42-1-4.78-2.07-9.59-3.11-14.38-1-4.41.54-8.51,1.65-12.66.82-3,1.59-5.92,2.38-8.88,3.65-2.73,7.31-5.49,10.89-8.18L757.34,216c-3.15,3.09-5.83,5.76-8.47,8.35,4,4.95,8-2.37,11.67,1.16,1.72,4.46-3.81,4.85-6.42,8,3.31.1,5.24.14,7.58.19.27,4.2-1.28,7.37-4.32,10.43,1,.7,1.75,1.29,3,2.15.65,1.25-1.32.88-2,2.28.77,2.33,1.69,5.18,2.85,8.66,17.08-10.4,36.61-15.22,51.28-28.39l8.12,2.18c-1.33,2.5-2.49,4.69-4.11,7.65,2.47-.19,4.34-.32,7-.54l-1.68,6.28c1.22.67,1.87,1.07,2.57,1.44a5.39,5.39,0,0,1,.23,1.52,21.83,21.83,0,0,0-.59,2.42c-.61,8.81-6.58,14.35-12.61,19.46-6.57,5.53-13.75,10.3-21.2,15.79,2.7,5.83,8.42,9.84,12.83,15.78-.11.77-.26,2.06-.44,3.53,1,2.24,2.91,4.68,3,7.18.14,5.42,2.55,11.11-1.68,16.93-.69.1-2.21.42-3.73.65s-3.08.35-4.78.53c-1.55-2.74-6.56-3.35-4.78-7.41l-12.43-7.52c-.51-1.91-1-3.69-1.5-5.66l-8.92-2.4c0-1,0-1.79.07-2.77-2.61-3.42-6.19-1.18-8.26-1.16l-9,6.12c-.53-.65-.92-1.2-1.63-2.09-1.31,1.08-2.73,2.25-4.45,3.69-.13-.25.15.36.53,1.32-4-.06-5.32,3.62-7.8,6.25L734.24,315c-.61,1.33-1.18,2.63-1.88,4.16l-2.77,0c-1.23,3.19-2.74,7-7.31,4.64-2.19,1.66-5.45,2.91-5.7,4.59-.76,5.06-5.5,6.3-7.66,9.85-1.83,4.71-1.75,4.73-1.1,8.36a32.66,32.66,0,0,1-13.63,2.63C693.73,348.37,693.27,347.36,692.7,346Z" transform="translate(-133.11 -58.8)" fill="#793dfa"/><path d="M244.48,128.17c-2.08-.31-3.33-.48-4.9-.68.65,1.28,1,2,1.63,3.16-3,3.19-7.4,4.4-10.86,7l.94,1.62c-2.48,1-5,2.12-7.1,3-1.66,2.28-.36,5.71-4.18,6.37,2.48,2.82,4.75,5.36,7,8,6.9,8.13,14.65,15.6,19.54,25.35,2.79,5.6,5.41,11,3.74,17.46-.3,1.1.54,2.47,1,4.3-2.84.89-5.51,1.73-8.87,2.76-13.59-13.76-28-26.63-40-43.07-1.26.32-3.8.21-4.57,1.31-3,4.38-7.41,6.9-11.83,9.42-.53.31-.66,1.38-1,2.09-1.56-.23-2.83-.44-4.84-.76,0,1.37,0,2.55.1,4.59a22.26,22.26,0,0,0-9.69,9.5c-1.46,2.59-4.74,4.18-8,6.88-1.35,5-3,11.13-4.7,17.55l-4.31-.87c-.54.81-1.14,1.63-1.82,2.66l-5.58-1.5c-.18-2.74-.4-5.59-.62-8.82-1.72.26-3.44.53-5.52.83-.07-1.29-.12-2.28-.17-3.28-.43-.31-.78-.88-1.22-.9-3.59-.26-5.15-3.79-5.1-5.74.29-7.95-2.56-16.64,4.24-23.42,2.22-7.94,8.8-12.68,13.44-18.86,1.52-2,5.36-.56,5.34-4.75,0-1.72,3.6-3.48,5.58-5.2a64.73,64.73,0,0,1,5.53-4.51c2.29-1.55,4.88-2.69,7.18-4.27a63.48,63.48,0,0,0,5.55-4.7c-7.84-10-11.05-22.08-15.31-33.66.33-10-1-20.23,3.41-30.87l10.85-7.31c3.28,1.64,7.73.55,9.94,5-2.82,2.22-5.61,4.46-8.43,6.68.41.75.78,1.48,1.17,2.16,4.14,2.09,7.45-3.87,11.65-1.16.33,1.51.66,3,1,4.58-1.66.51-3.54,1.11-5.52,1.75L191,81c2.92-1.75,5.15-1.19,7,2.76-.72,1.74,0,4.72-3.28,6.1L198,92.7c-1.77,1.37-3.31,2.61-4.91,3.86l3.62,2.49c-1.94,0-2.86,0-4.45,0-.2,1.34-1,3.07-.51,4.28,2,5,4.35,9.82,6.81,15.24,2.5-1.27,4.4-2.19,6.28-3.17,11-5.86,21.09-13.76,33.62-16.66.76-3.06,3.87-2,5.7-3.23,2-1.42,4.2-2.65,5.64-3.53l5.42,1.45c-3.42,3-8.18,3.87-8.22,9.47,4.06-1.16,8-2.28,12.89-3.65-1,2.3-1.78,4.06-2.67,6.07,1.25,1.13,3.15,2.82,5.17,4.63-.92,1.08-1.7,2-2.62,3,.78.4,1.48.74,2.21,1.1,0,.35.16,1,0,1.1-2.67,2.14-5.93,3.77-8,6.36C251.23,124.93,247.32,125.66,244.48,128.17Z" transform="translate(-133.11 -58.8)" fill="#793dfa"/><path d="M369.94,250.1c8.54-6.18,15.75-11.26,22.84-16.5a152.86,152.86,0,0,0,18.65-16.51l-1.2-2.73c1.77-1.18,3.55-2.35,5.41-3.63l5.34,1.43c1.45,2.52,2.29,5.79,4.38,7.14,2.54,1.63,2.34,4,3,5.91,2.34,6.79,3.5,13.38-1.5,20.06-3.08,4.13-6.17,8.22-9.33,12.29-.94,1.24-1.77,2.57-3,4.48l-5.19,3c-.54,2-1.12,4.17-1.36,5.09-4.75,4.91-8.68,9-13,13.51,3.3,3.8,6.3,7.43,9.46,10.91,6.26,6.88,10.88,14.63,12.4,23.91a60.65,60.65,0,0,1,.25,7.11c-.46.55-1.56,1.93-2.82,3.43l-5.47.95c-3.44-2.32-6.56-4.2-9.4-6.39s-5.47-4.7-8.2-7.08c.72-4.82-5.12-4.36-6.46-8.14-1.11-3.09-4.82-5.26-7.8-8.24a273.65,273.65,0,0,0-37.66,27.21c-.9.77-1.11,2.37-1.63,3.59-4.46,1.85-8,.45-11-3.14.28-1,.56-2.1.69-2.57-4-4.15-7.79-8-11.9-12.26-1.6-3.38.74-7.38.09-11.11-.69-4.19,1.69-7.39,1.78-10.31,8.52-10.47,17.65-19.19,29.13-25.76.41-1.54.9-3.34,1.48-5.5-4.27-5.05-6-11.6-7.81-18.05-.6-2.16-.12-4.63,0-7,.16-4.75-.23-9.48,1.19-14.18,2.7-9,9.6-14.11,19.15-15,6-.57,11.06,1.88,17.11,2.87-4.92,5.69-12.36,3.1-18.28,7.41C367,218,373.54,212,381,215.5c-.79,1.75-1.58,3.51-2.42,5.35l5,3.43c-1,3.85-1.89,7.05-2.75,10.24-3,3.06-6.3,6.09-9.19,9.41C370.75,245.05,370.78,247,369.94,250.1Z" transform="translate(-133.11 -58.8)" fill="#793dfa"/><path d="M533.44,186.21l-11.79,8.7c-.82,3.05-1.73,6.46-2.78,10.36-3.15.4-6.2.75-9.68,1.16-2.74-4.58-2.95-9.74-2.93-14.53-1.73.17-3.29.3-5.57.51-1-2.78-2.44-5.38-2.84-8.12-1.23-8.23,1.15-16,3.46-23.37,2.15-2.69,4.1-5.09,6.5-8.13-2.14-.92-4.2-1.16-4.81-2.21-3.8-6.66-7.52-13.4-10.8-20.37-1.76-3.74-3.56-7.93-3.57-11.93-.05-5.85,1.49-11.72,2.4-18,3.39-2.8,6.45-6.3,10.35-8.27,3.56-1.8,8-1.89,13-3,.73,1.41,1.46,2.74,2.17,4.11l-10.66,5.9,1.45,2.51c4.32-1.66,8.83-4.14,14.12-.31l-6.27,5c3-.32,4.64-.5,6.94-.78.58,1.74,1.22,3.63,2,5.89l-7.74,4.46c1.29.64,2,1,3.14,1.58-2.67,2.58-2.77,7.12-7.91,7.46,3.13,7,7.5,11.59,11.87,16.5,21.77-10,43.06-19.74,64.64-29.66l7.8,2.09c-2.09,2.36-3.78,4.25-5.47,6.18,1.87,2.4,4.27.92,6.59.56,4.48,7.2,4,14.53.71,22-3.34,2.53-6.77,5.14-10.27,7.75.14.2.43.66,1.22,1.95l-4.35-.6c.38.74.79,1.45,1.17,2.19l-3-.81c-8.33,8.94-19.59,13.5-29,21.14,8,7.75,17.47,14.45,25.81,23-.1,1.56-.2,3.37-.35,5.46,1.56-1,2.74-1.68,3.88-2.39,3.86,1.61,2.54,6.17,5.47,8.76,2.53,2.27,3.2,6.64,4.72,10.12q-1.27,4.76-2.57,9.59l-3.31,1.9c-8.09-3.11-13.69-9.69-20.26-15.54-.19.1-.88.46-1.18.6-5-2.72-6.6-9.26-12.93-10.06-1.86-4.44-6.47-6-9.57-9.1S537.14,190.21,533.44,186.21Z" transform="translate(-133.11 -58.8)" fill="#793dfa"/><path d="M734.25,378.23c1.41,1.4,2.54,2.49,4.18,4.08-1.15,2.51-2.3,5-3.71,8.17.74,2.7.9,6.59,4.63,9.14,2.53-2.08,4.44-4.71,8.38-5.18,2.76-.34,5.16-3.5,7.73-5.38,2.82-2.1,6.21-3.13,8.74-5.94,2.12-2.35,5.58-3.42,8.16-5.46a101.73,101.73,0,0,0,7.35-7l9.1,2.44c-.21,2.67-.08,5.4-3.81,7.23l6.35,2c-.18,4-.35,7.59-.53,11.12-1.44.16-2.46.27-3.67.42a9.8,9.8,0,0,0-.22,2.25c.76,6.17-.1,8-5.61,11.09-2.29,1.3-3.77,3.88-3.53,5.82.43,3-2.76,1.06-1.81,4-1.36-1.89-1.77-2.51-2.51-3.53-.46,1.71-.8,3-1.21,4.49-1.8-.13-3.34-.22-5.2-.37-.47,1.74-.95,3.55-1.18,4.41l-6.07,3.67c2.08,3.51,4,6.75,5.61,9.43l-1.63,6.07c1.28,2.21,2.6,4.5,4,6.9-.87.87-1.4,1.43-2.35,2.38.4,1.95.87,4.33,1.48,7.41-2.45,2.83-5.12,5.95-7.67,8.92l-6.72-1.8c-6.65-6.61-13.07-13-19.5-19.34-1.89,1.71-3.43,3.07-4.69,4.23-1.21-1.06-2.17-1.88-3.77-3.26-.74,2.78-1.28,4.79-2,7.51-2.21-1.57-3.77-2.65-6.67-4.73.85,2.16,1.07,2.76,1.53,3.89-1.86,1-3.82,2.06-6.93,3.7.3-3.15.51-5.1.71-7.27l3.53-.25c.27-.56.62-1.27,1-2.14l-2.64-1.79c.74-1.32,1.48-2.68,2.72-4.95-1.87,1-2.58,1.34-3,1.57-3.26-1.57-6.37-3-9.63-4.61-.26-1.15-.59-2.66-1-4.41,1.26-2.2,2.66-4.69,4.11-7.25,1.5.69,3.42,1.55,5.35,2.42.17-.27.34-.54.48-.82-1.82-1.63-3.62-3.23-5.24-4.64,1.69-1.93,3.36-3.89,5.11-5.9-2.89-10.45-6.42-20.5-7.06-31.17-.15-7.27,4-13.31,6.71-19.71,2.16-5,7.4-7.47,12.78-8.82.76-.21,1.52-.45,2.76-.81l8,2.15c.93,1.61,1.75,3,2.34,4l-5.26,3c-.64,2.4-.93,3.47-1.33,5,1.9,0,3.73,0,5.83,0,.78,1.22,1.46,2.36,2.44,3.92C737.36,376,735.87,377.05,734.25,378.23Z" transform="translate(-133.11 -58.8)" fill="#793dfa"/><path d="M226,330.89l2,3.49-18.18,8.68c0,.33.09.62.1.94,1.12,0,2.4.3,3.34-.15,1.74-.8,3.28-2,5.34-1.9l11.81-3.05c2.3,3.15-.33,4.45-2.38,7,2.13-.22,3.49-.33,5-.51l1.54,2.67c-.87,3.23-1.73,6.45-2.6,9.71-1.2.66-2.4,1.35-3.67,2.06.05.43-.06.94.18,1.22,1.47,1.86,2.93,3.77,4.53,5.5s4.56,3,3.71,6.42c-.1.38.43,1,.8,1.42,1.35,1.6,3.07,3,4,4.82s1.19,4,2,6.7c-.36,1.37-.94,3.53-1.51,5.66l-4.81,2.77c-9.22-6.37-18.34-12.65-27.45-19-2.56.58-5.31,1.23-8.06,1.86,0-.2-.11-.38-.16-.58l-8.71,5c-.2.61-.63,1.86-1.14,3.4-5.33,2.95-10.92,6-15.42,8.5-3.3,5.08-3.92,11.06-11.67,10.23-.88-2.87-6.29-4.74-3.51-10.14l-5-3c-.55.17-1.53.5-2.31.77-1.48-2.74-2.77-5.15-4.69-8.68.76-5.19,1.75-11.84,2.76-18.83,8.67-5.45,17.19-10.81,26.21-16.51a89,89,0,0,1-6.63-7.24,92,92,0,0,1-5.13-8.7l3.76-6-3.12-2.11q.69-2.56,1.46-5.44l2.14-1.24,8.15.53L200,338.05C209.43,337.22,217,331.2,226,330.89Z" transform="translate(-133.11 -58.8)" fill="#793dfa"/></svg>