<svg width="799" height="551" viewBox="0 0 799 551" fill="none" xmlns="http://www.w3.org/2000/svg">
<path fill-rule="evenodd" clip-rule="evenodd" d="M614.918 551H10C4.47714 551 0 546.523 0 541V10C0 4.47716 4.47715 0 10 0H779.087C833.828 179.695 772.202 398.567 614.918 551Z" fill="#6A25FF"/>
<mask id="mask0" mask-type="alpha" maskUnits="userSpaceOnUse" x="0" y="0" width="799" height="551">
<path fill-rule="evenodd" clip-rule="evenodd" d="M614.918 551H0V0H779.087C833.828 179.695 772.202 398.567 614.918 551Z" fill="#6A25FF"/>
</mask>
<g mask="url(#mask0)">
<path d="M178.699 261.535C180.247 258.474 182.789 255.939 183.835 252.871C187.503 241.62 197.084 237.636 206.644 235.193C213.188 233.224 219.733 231.255 227.245 231.867C243.771 233.11 255.684 241.483 263.501 255.966C267.416 262.694 270.831 269.416 272.226 277.138C273.156 282.286 274.573 288.468 273.004 293.07C267.23 311.484 256.995 326.245 238.348 333.192C233.307 335.18 227.772 336.649 222.738 338.124C221.728 338.624 220.726 338.611 220.232 338.091C206.793 331.239 193.869 323.366 186.539 309.916C183.11 304.222 180.197 297.507 181.308 289.817C182.434 281.101 179.056 271.812 184.191 263.148C182.186 263.121 180.69 262.588 178.699 261.535ZM205.164 304.51C212.182 304.602 218.182 305.707 223.71 304.752C233.771 302.316 247.601 281.439 247.252 270.648C247.273 269.108 246.808 266.534 245.813 266.007C240.844 262.861 235.367 260.221 230.391 257.588C227.304 263.197 217.868 256.911 216.241 265.621C215.689 269.209 207.197 267.043 209.609 273.752C202.955 283.423 206.813 294.259 205.164 304.51Z" fill="#793DFA"/>
<path d="M483.564 150.98C486.056 152.04 487.553 152.573 489.55 153.113C487.981 157.715 486.921 161.81 485.359 165.898C483.354 165.872 480.841 166.353 477.826 166.827C478.807 168.381 479.301 168.901 480.282 170.454C475.691 176.044 470.112 180.594 462.1 179.975C460.095 179.949 458.083 180.436 456.064 181.437C450.521 183.419 445.008 183.347 439.53 180.708C437.54 179.654 434.046 178.582 433.53 179.602C428.424 186.212 424.036 177.424 419.002 178.899C416.99 179.386 415.064 173.711 410.553 173.652C408.047 173.619 406.093 169.999 403.609 168.425C400.623 166.846 399.686 162.211 395.167 162.666C393.257 155.964 386.29 152.277 383.363 146.59C376.025 133.654 376.286 115.167 382.475 102.922C388.14 92.2097 398.717 88.7527 407.63 96.5732C412.09 100.227 415.563 102.84 421.134 98.804C423.096 101.911 424.621 100.391 426.154 98.356C428.209 94.7877 431.718 94.8335 434.718 95.3863C445.709 98.0979 456.191 101.317 465.119 108.11C472.558 113.857 477.941 123.172 484.355 130.447C482.758 137.102 491.192 143.376 483.564 150.98ZM398.486 140.624C409.361 151.552 427.326 157.436 442.37 157.119C449.394 156.697 454.944 154.202 459.52 149.639C462.07 146.591 465.113 144.062 468.164 141.021C466.689 138.947 465.207 137.387 464.728 135.84C462.824 128.624 458.88 123.95 450.867 123.332C447.366 122.773 443.886 120.673 440.392 119.6C437.893 119.054 433.905 117.461 433.39 118.481C429.809 123.571 428.421 115.335 423.852 119.384C421.31 121.919 417.249 125.461 412.68 129.51C409.208 126.897 406.73 124.81 404.253 122.723C396.176 126.726 400.585 133.974 398.486 140.624Z" fill="#793DFA"/>
<path d="M532.359 463.93C536.397 461.928 540.959 458.393 547.94 461.052C547.424 462.073 546.407 463.086 545.383 464.614C547.882 465.16 552.386 465.733 552.873 466.766C554.754 475.522 564.249 477.701 567.14 485.956C571.964 499.373 575.785 512.776 568.565 527.063C567.541 528.59 567.033 529.097 568.006 531.164C570.927 537.366 567.861 541.435 562.806 544.45C558.767 546.452 561.244 548.539 563.213 551.132C558.615 557.235 553.516 563.332 548.918 569.435C543.905 569.37 539.394 569.311 533.881 569.239C530.917 566.118 527.96 562.485 524.502 558.844C521.546 555.21 517.565 553.104 515.117 548.963C509.232 539.641 507.866 529.865 510.517 519.628C512.13 511.945 516.248 504.294 518.362 496.618C519.437 491.496 520.998 487.407 526.054 484.392C528.073 483.391 529.635 479.303 529.679 476.222C529.737 472.114 532.264 470.606 534.305 468.064C533.811 467.544 532.838 465.477 532.359 463.93Z" fill="#793DFA"/>
<path d="M716.191 35.802C714.143 38.8568 712.102 41.3982 710.555 44.4596C709.567 43.4195 708.092 41.3458 707.591 41.3393C698.046 42.7554 694.675 32.9528 688.21 29.2731C687.716 28.7531 687.251 26.179 687.258 25.6655C694.362 19.595 686.902 15.3887 685.972 10.2405C684.955 11.2545 683.938 12.2684 682.928 12.7688C682.434 12.2487 681.933 12.2422 681.94 11.7287C682.528 5.57313 679.114 -1.14834 685.201 -6.20485C686.719 -7.21222 686.261 -10.2999 687.293 -12.3408C689.864 -16.9296 690.953 -23.0786 695.508 -26.1008C700.564 -29.1163 698.646 -35.3046 703.709 -38.8337C711.815 -44.8911 724.891 -47.8019 734.363 -44.0829C748.325 -38.7644 757.188 -27.3493 762.019 -14.4461C765.877 -3.60996 767.715 8.22696 765.544 20.0115C764.447 26.674 758.367 31.217 753.297 35.2596C751.779 36.2669 747.791 34.674 744.289 34.1147C744.275 35.1417 744.747 37.2023 745.226 38.7494C746.701 40.823 747.166 43.3971 744.152 43.8714C741.13 44.8591 740.156 42.7919 740.701 39.7174C740.708 39.2039 739.713 38.6773 738.224 37.6306C736.19 39.6585 733.662 41.1663 731.12 43.7011C730.64 42.154 730.161 40.6069 729.703 37.5193C726.144 41.068 722.592 44.1033 718.023 48.1524C717.587 43.5243 717.136 39.9232 716.191 35.802ZM742.45 -13.161C741.956 -13.681 740.96 -14.2076 740.474 -15.2412C738.548 -20.916 732.519 -19.9676 728.03 -21.567C726.039 -22.6202 721.972 -18.5646 718.441 -17.0699C716.923 -16.0625 714.352 -11.4737 712.303 -8.41876C710.764 -5.87086 709.202 -1.78242 707.19 -1.29511C702.671 -0.84054 703.638 1.7401 703.1 4.3011C702.57 6.34859 701.546 7.87602 701.023 9.41C710.409 19.2911 719.489 15.3009 729.578 10.8103C740.678 5.81928 742.806 -2.88419 742.45 -13.161Z" fill="#793DFA"/>
<path d="M6.37568 217.171C8.85278 219.258 9.84078 220.298 10.8288 221.338C11.853 219.811 12.4049 216.223 13.4073 216.236C16.422 215.762 20.439 215.301 22.4222 216.867C28.8729 221.574 35.3164 226.794 40.2418 233.022C44.6659 239.243 47.5719 246.471 49.4681 254.2C50.4126 258.321 49.8389 263.45 47.2604 268.552C42.096 279.27 36.9533 288.448 26.3406 294.473C21.7934 296.981 16.2726 297.423 12.2266 299.938C10.7084 300.945 8.19508 301.426 6.17568 302.427C5.69615 300.88 4.71542 299.326 3.7347 297.772C2.20205 299.807 1.19959 299.794 -1.28481 298.221C-5.25116 295.087 -13.6634 287.273 -17.1285 284.146C-28.519 274.239 -21.8365 262.513 -21.1831 251.736C-21.1469 249.169 -16.5997 246.66 -14.0501 243.612C-4.59922 248.871 -0.204082 257.146 3.17412 266.435C12.2107 265.526 13.8375 256.816 18.9222 251.747C19.9392 250.733 19.4814 247.645 19.5466 243.023C14.9704 247.586 11.9196 250.628 9.37718 253.163C2.36725 252.557 3.49284 243.841 -2.51464 243.249C-2.43495 237.6 -3.35773 231.939 -2.28283 226.817C-0.219981 222.735 3.31759 220.726 6.37568 217.171Z" fill="#793DFA"/>
<path d="M467.324 306.911C465.863 303.81 463.909 300.189 462.449 297.089C464.069 288.892 473.563 291.071 476.657 284.948C479.751 278.825 488.737 281.51 493.844 274.9C491.861 273.333 489.87 272.28 488.388 270.72C488.897 270.213 488.911 269.186 489.412 269.193C498.456 267.77 505.408 272.483 511.336 278.724C516.283 283.411 519.196 290.126 523.126 295.827C525.088 298.934 521.536 301.969 524.514 304.063C527.492 306.156 528.459 308.737 527.907 312.325C527.355 315.913 530.806 320.067 530.275 322.114C528.706 326.716 528.634 331.851 527.072 335.94C523.949 344.116 519.831 351.767 513.228 357.844C509.668 361.392 504.14 362.347 497.639 361.235C482.137 358.465 481.636 358.458 474.735 350.15C469.308 343.916 465.901 336.681 464.52 327.932C463.59 322.784 461.142 318.643 464.222 313.547C459.754 310.407 466.772 310.499 467.324 306.911ZM479.985 297.831C481.387 305.04 482.811 310.708 484.235 316.377C484.714 317.924 484.685 319.978 484.177 320.485C478.083 326.055 483.531 330.748 484.962 335.903C495.488 336.041 494.994 335.52 500.616 327.89C507.262 318.732 506.405 308.449 506.048 298.172C506.077 296.118 504.101 294.038 502.62 292.477C499.648 289.871 494.578 293.913 491.636 289.252C490.612 290.78 489.588 292.307 488.563 293.835C483.595 290.688 482.512 296.323 479.985 297.831Z" fill="#793DFA"/>
<path d="M106.295 -77.875C118.724 -70.5222 121.645 -64.3208 114.475 -53.6288C110.887 -48.026 115.311 -41.8049 110.234 -37.2488C109.725 -36.7419 111.171 -32.6142 112.145 -30.547C114.063 -24.3587 116.06 -23.819 123.099 -25.2678C136.182 -28.6921 142.327 -37.8567 145.515 -50.6552C140.525 -52.2612 136.028 -53.3472 131.038 -54.9532C125.052 -57.0858 127.652 -63.7287 125.19 -66.8425C128.24 -69.8842 131.291 -72.926 134.342 -75.9678C142.928 -80.478 147.81 -71.1694 155.299 -69.0171C160.682 -59.7019 168.586 -51.381 167.41 -39.0698C166.19 -23.6776 159.486 -10.4115 142.858 -4.46552C128.752 0.48622 117.754 -1.71189 106.378 -12.6462C99.4548 -19.4135 93.5338 -26.1677 93.1992 -37.985C91.9056 -52.8964 95.1085 -66.7219 106.295 -77.875Z" fill="#793DFA"/>
<path d="M78.6421 495.972C66.562 499.409 60.1619 491.108 52.2147 485.868C44.7615 481.148 44.3834 472.412 41.9787 465.19C40.068 458.488 44.1792 451.351 46.7723 445.222C48.8569 439.6 52.4306 435.024 55.0092 429.921C54.014 429.395 52.0164 428.855 50.5199 428.322C52.5538 426.294 54.5877 424.266 56.6288 421.725C53.6287 421.172 51.1298 420.626 47.1272 420.06C49.6623 418.039 51.7035 415.497 53.2071 415.517C57.7109 416.089 62.7522 414.101 67.721 417.247C80.1502 424.6 86.4996 436.496 91.3308 449.399C97.0996 466.937 93.366 482.81 78.6421 495.972Z" fill="#793DFA"/>
<path d="M627.513 259.685C622.057 255.505 619.159 247.763 610.638 247.651C608.684 244.031 605.226 240.39 604.782 236.276C603.416 226.499 605.544 217.796 615.634 213.305C616.644 212.805 617.668 211.277 618.685 210.263C617.188 209.73 615.692 209.197 615.191 209.191C617.733 206.656 620.784 203.614 623.326 201.079C622.832 200.559 621.844 199.519 621.35 198.999C622.353 199.012 623.864 198.518 624.866 198.531C630.365 199.63 636.939 195.607 641.363 201.828C647.269 209.61 651.672 217.371 653.539 227.154C655.864 240.025 643.13 254.239 634.043 258.743C631.523 259.737 628.58 255.076 627.513 259.685Z" fill="#793DFA"/>
<path d="M362.512 415.964C362.454 420.072 362.432 421.613 362.403 423.667C363.769 433.443 355.706 436.42 350.636 440.462C345.064 444.498 340.139 438.271 335.149 436.665C330.659 435.065 326.715 430.391 322.756 426.744C316.327 420.497 314.016 406.599 318.142 398.436C319.173 396.395 318.214 393.301 322.732 392.846C325.239 392.879 327.81 388.29 330.352 385.755C335.967 378.638 340.994 377.676 346.914 384.431C350.866 388.591 355.327 392.245 357.753 397.926C360.674 404.127 364.095 410.335 362.512 415.964Z" fill="#793DFA"/>
<path d="M218.148 95.1341C224.068 101.888 230.504 107.621 233.388 116.39C237.239 127.739 234.646 133.868 225.53 140.426C214.896 147.991 207.399 146.352 198.515 136.478C197.033 134.918 196.045 133.878 195.057 132.838C193.626 127.683 197.214 122.08 192.253 118.421C189.427 105.544 198.099 94.8722 211.632 95.049C213.136 95.0686 215.642 95.1014 218.148 95.1341Z" fill="#793DFA"/>
</g>
</svg>
