<?xml version="1.0" encoding="utf-8"?>
<!-- Generator: Adobe Illustrator 25.2.0, SVG Export Plug-In . SVG Version: 6.00 Build 0)  -->
<svg version="1.1" id="Layer_1" xmlns="http://www.w3.org/2000/svg" xmlns:xlink="http://www.w3.org/1999/xlink" x="0px" y="0px"
	 viewBox="0 0 1049 268" style="enable-background:new 0 0 1049 268;" xml:space="preserve">
<style type="text/css">
	.st0{clip-path:url(#SVGID_2_);}
	.st1{opacity:0.2;}
	.st2{fill:#FFFFFF;}
</style>
<g>
	<defs>
		<rect id="SVGID_1_" width="1049" height="268"/>
	</defs>
	<clipPath id="SVGID_2_">
		<use xlink:href="#SVGID_1_"  style="overflow:visible;"/>
	</clipPath>
	<g class="st0">
		<g class="st1">
			<path class="st2" d="M1105.1,273.1c-0.4,0.8-1.6,2.9-3,5.5c0.7,0.6,1.6,1.3,2.7,2.3c0.2,2.7,3.3,6.2,0.5,9
				c-2.5,2.6,2.1,7.1-2.2,8.5c-0.4,6.5-5.4,10.1-8.9,13.9c-3.2,3.4-4.6,8.3-9,10.9c-3.8,2.2-6.4,6.6-9.6,10.1
				c-2.2-0.4-4.2-0.8-7-1.4c0.2,1.9,0.4,3.2,0.6,5.4c-0.9,0.7-2.4,1.9-4,3.2c0.3,2.9,0.7,5.7,1.1,8.9c-1.5,1.3-3.1,2.5-4.8,3.9
				c1,0.7,2,1.3,3.6,2.5c-2.3,1.1-4.1,1.9-6.1,2.8c0.3,0.5,0.7,1.3,1.3,2.5c-6.3,0.9-10.6-6.2-17.5-5c-4.6,2.1-8.6,7.8-15,8.7
				c-2.5,0.3-1.3,5.4-5.1,3.9c-1.4-0.5-1.2,4.6-4.3,2.8c-2,4.1-5.9,5-9.3,7.1c-2.8,1.7-5.5,4.2-7.9,6.7c-2,2.1-4.2,4.1-6.3,6.1
				c-1.9,1.8-4.1,3.4-5.7,5.5c-1.4,1.7-1.9,5.2-3.5,5.8c-2.2,0.7-3.7,1.7-4.7,4.5c-1.7-1.7-2.8-2.8-3.8-3.8c-4,1-8,2-10.9-3.8
				c0.5-3,1.1-6.5,1.7-10.1c-6.3-6.1-13-11.7-14.7-22.2c0.8-3.2,0.2-8.1,3.6-11.1c-2.6-10,2.3-16.7,7.5-23.1
				c6.3-7.8,13.9-13.9,22.5-19.1c-3.1-8.1-6.5-15.9-9-23.8c-1.7-5.5-3.6-11.5-2.8-17.1c0.9-5.8,0.2-12.3,4.4-17.3
				c1.9-2.3,1.2-6.4,3.3-9.5c1.3-1.9,2.3-4,4.1-5.6c1-0.9,1.2-2.7,2.4-5.3c1.7-1.1,5.8-2.2,7-4.9c1.8-3.9,6.5-1.1,7.3-6
				c1.1,1.4,1.6,2,2.4,2.9c2.2-0.2,4.6-0.3,7.2-0.5c0.6,2,1.1,3.7,1.6,5.8c-2.4,3-5,6.4-8,10.2c4.5,0.6,8,1.1,10.9,1.5
				c1,1.6,1.5,2.4,2,3.4c-1.6,2.2-3.3,4.5-5.4,7.5c2.8,1,4.9,1.8,7.5,2.8c-1.2,3.2-2.5,6.5-3.7,9.7c-1.3,0.8-2.7,1.7-4.2,2.6
				c0.7,1.1,0.9,1.6,1,1.6c1.3-0.4,2.5-0.9,4.1-1.4c0.2,1.5,0.4,2.4,0.6,3.5c-2.8,0.7-5.4,1.5-8.4,2.3c1.2,0.8,2.2,1.4,3.9,2.5
				c-2.5,1.8-4.8,3.3-7.7,5.4c2.7,3.5,5,6.6,7.6,9.9c4.2,2,8.1,0.9,12.1-1.5c9.2-5.5,19.1-9.8,28.3-15.3c9.4-5.7,19.2-11,26.7-19.9
				c1.8-2.1,4.4-3.2,6.8-4.9c2.8,0.7,5.7,1.4,9.4,2.4c0.4,0.8,1.1,2.3,1.8,3.7c-1.6,2.9-3.2,5.9-5.3,9.8c3-0.1,5.4-0.2,8.5-0.4
				C1103.7,268.9,1104.2,270.4,1105.1,273.1z"/>
			<path class="st2" d="M514.2,345.2c-3,0.2-5.6,0.4-8.8,0.7c1.1-1.5,1.7-2.6,2.6-3.9c-1.5-3.9-3.3-7.4-7.6-7.8
				c-0.1-1.4-0.1-2.4-0.2-3.6c-2.5-0.6-5.1-1.3-7.4-1.9c-0.6-1-1.2-1.5-1.2-2.1c-0.5-4,0-8.4-1.5-11.8c-2-4.4,0-7.7,0.4-11.3
				c0.4-3,2-5.7,3.2-8.4c4.2-9.9,9.6-18.9,15.9-27.3c3.9-5.1,8.1-10,12.6-14.5c4.4-4.4,9.3-8.2,14.1-12.4c-1-1-2-2.2-3-3.2
				c-10.4-10.5-19.1-22.5-26.8-35.3c-3.6-6.1-2.5-12.7-2.8-19.2c-0.1-2.6,0.8-5.2,1.2-7.8c3.2-4.4,8.2-3.6,13.2-4.4
				c1.1,3.4,2.2,6.9,3.4,10.9c0.4-0.2,1-0.5,2.1-1c0.5,0.8,1.5,1.7,1.6,2.7c0.9,6.2,4.7,10.2,8.9,13.9c8.5,7.4,17.1,14.7,26.3,22.5
				c2.8-2.1,5.9-5.7,9.6-6.9c3.5-1.1,4.6-6.5,9.4-4.8c-0.5-1.1-0.9-1.9-1.5-3c1.7-0.8,3.4-1.5,5.8-2.6c1-1.4,2.4-3.6,3.8-5.8
				c1.5,0.3,3,0.6,5,0.9c-0.6-1.4-1-2.2-1.5-3.3c3.9,0.4,4.9-3.8,7.6-5.5c2.9-1.8,5.3-4.7,8.2-7.4c0.5,0.6,0.9,1.1,1.8,2.2
				c0.7-1.1,1.3-2.1,2.1-3.3c0.6,0.7,1.1,1.4,2,2.6c2.3-6.5,6.8-11,11.4-15c4.8-4.1,9.3-9,16.2-10.8c0.7,0.9,1.6,2.1,2.6,3.5
				c-3.4,4.6-6.7,9.2-12.4,10.6c-0.5,2.6-0.9,5-1.3,7.7c1.3,0,2.5,0.4,2.8-0.1c1.4-1.8,2.5-3.9,3.1-4.9c4.9-2.7,8.9-4.9,13.9-7.7
				c-0.4,3.7-0.6,6.1-0.9,8.4c-1.4,0.3-2.5,0.4-3.7,0.7c0.2,0.5,0.4,1.4,0.6,1.4c2.2,0,4.5,0,7.2-0.1c0.5,1.6,1.1,3.6,1.7,5.5
				c-0.6,0.5-1.3,1-2.1,1.6c-0.1,2.9,2.6,6.2-0.4,8.7c-0.6-0.8-1.1-1.6-1.6-2.4c-0.4,0.5-1.1,1-1,1.4c0.1,1.2,0.6,2.4,1,4.1
				c-1.3,4.8-5.5,7.2-9.4,9.6c-3.7,2.3-7.7,4.2-12.4,6.7c1.5,1.5,2.8,2.7,4.3,4.2c-1.4,1.9-2.2,3-3.1,4.2c0.3,0.6,0.8,1.4,1.5,2.7
				c-2-0.1-3.7-0.3-6.1-0.5c0.4,1.9,0.6,3.6,1,5.5c-2-0.5-4-1-6-1.5c-1.5,2.2-2.8,4.1-4.1,5.9c0.7,1.2,1.1,2.1,1.8,3.3
				c-1.9-0.1-3.6-0.2-6-0.3c0.3,1.8,0.6,3.4,0.9,5.3c-1.6-0.1-3.3-0.3-5.4-0.5c0.3,2,0.6,3.6,1,6.3c-2.2-1.6-3.7-2.7-5.6-4.1
				c-1.3,1.7-2.6,3.5-3.9,5.3c0.2,0.8,0.2,1.6,0.6,1.9c0.6,0.6,1.6,0.8,2.3,1.4c2.4,2.4,2.4,6.3,4.8,8.6c2.6,2.5,3.3,5.9,4.7,9
				c1.2,2.9,2.1,5.2,1.4,8.3c-0.2,1,0.4,2.4,0.7,3.8c-0.6,0.8-1.5,1.8-2.7,3.3c-2.5-0.3-4.8,2.7-8.9-0.2
				c-7.1-5.2-14.6-10.1-22.8-13.2c-0.4-0.2-0.7-1.1-1.3-2.1c-3,2.4-5.9,4.7-9.6,7.7c-0.1,0.3-0.5,1.8-1,3.4
				c-1.8-0.1-3.4-0.3-6.1-0.5c1.2,3,2.2,5.2,3.6,8.5c-2-1.2-3.3-2-5-3c-0.4,0.4-1.4,1.1-2.4,2c0.5,3.3-0.7,5-4.4,6.3
				c-1.7,3.6-3.3,7.2-4.6,10.1c-1.6,0.2-2.5,0.4-3.7,0.5c0.7,1.2,1,1.7,1.6,2.6c-3,1.5-6.4,2.6-8.9,4.7c-2.3,1.9-3.6,5.1-5.7,8.2
				c0.1,0.3,0.5,1.4,1.2,3.1c-2.3,1.7-4.6,3.4-6.9,5c0.5,1.2,1,2,1.7,3.5c-1.6,1.3-3.2,2.6-4.9,4c-0.3,1.7-0.6,3.6-1,5.6
				C518.7,342.2,516.2,343.9,514.2,345.2z"/>
			<path class="st2" d="M719,326.4c0.4-4.6,6.3-3.6,4.3-8.5c-0.8,0.5-1.6,0.9-2.3,1.4c-0.2-0.3-0.5-0.6-0.5-0.8
				c0.2-4.9,1.2-9.3,5-12.4c4.1-3.4,8.3-6.8,12.3-10.3c1.3-1.1,2.2-2.7,3.5-4.4c-0.8-5-2.2-10.2-3.4-15.4c-1.2-5.5-0.2-11-1.6-16.6
				c-0.7-3,3.2-6.8,3-10.3c-0.2-3.9-1.7-7.4,1.8-10.1c1.7-9.5,8.7-14,15.1-19.3c5,1.2,9.9,2.5,14.8,3.7c0.7,1.1,1.4,2.2,2.6,4
				c-2.8,2.5-5.6,5.1-8.7,7.9c0.2,0.7,0.6,2.4,1.1,4.7c0.8,0.2,2.4,1.1,3,0.6c2.9-2,5.6-0.2,8.3,0.1c0.6,2.5,1.1,4.6,1.6,6.9
				c-1.6,1.5-3.3,3-5.9,5.3c3.1,1.2,5.2,2.1,7.9,3.2c-0.5,2.8-1,5.8-1.6,9.2c6,1.7,8-6,13-4.7c2.9-3.2,6.8-5,10.3-7.3
				c4.1-2.6,8-5.5,12-8.4c3.6-2.7,7.3-5.3,10.6-8.3c3.5-3.1,6.6-6.7,8.6-8.8c3.9-0.5,6.1-0.8,8.9-1.1c0.6,1.5,1.8,3.2,1.9,4.9
				c0.1,1.3-1.1,2.7-2,3.9c-0.9,1.3-2.1,2.5-2.6,5.1c2.8-0.6,5.6-1.1,8.7-1.7c1,3.6,2,7.5,3.6,13.3c0-0.1-0.4,1.8-0.6,3.7
				c-0.1,1.5,0.2,3,0.4,5c-0.5,0.6-1.3,1.7-2.1,2.6c0.7,1.3,1.2,2.1,1.6,2.9c-6.7,7.7-12.9,15.8-20.1,23c-6,6.1-5.4,6.8-9.3,7.9
				c0.4,0.8,0.9,1.6,1.2,2.3c-8.5,6.8-17,13.5-25.5,20.4c-0.2,1-0.4,2.2-0.5,3.2c4.9,5.3,9.7,10.3,14.6,15.6
				c-1.1,1.5-1.8,2.5-2.9,3.9c1.8,2.5,2.6,6.7,7,6.3c0.6,2.2,1,4,1.5,5.7c-0.7,0.6-1.5,1.5-2.6,2.6c1.8,3,3.5,5.7,5.2,8.6
				c-1.2,2.1-2.3,3.9-3.4,5.9c0.4,1.2,0.8,2.6,1.3,4c-0.5,0.7-0.7,1.4-1.1,1.6c-1,0.4-2.3,0.2-3.1,0.8c-4.6,3.7-5.4,3.8-9.9,0.8
				c-5.8-3.9-12.3-6.9-17.4-11.7c-6.9-6.5-12.7-14.2-19.5-22.1c-3.8,1.8-8.1,4.5-12.4,7.8c-4.1,3.1-9.3,5.2-16,5.6
				c1.5-1.7,2.1-2.4,3.4-4c-4.1-0.2-7.6-0.4-11-0.5c-0.1-0.5-0.3-0.9-0.3-1.4c2.3-1.2,4.6-2.4,6.9-3.6c-1.1-1.9-1.8-3-2.5-4.1
				c-1.7-0.4-3.5-0.9-6.1-1.5c-0.4-2.4-0.9-5.1-1.5-8.3c-2.2-0.6-4.8-1.2-7.4-1.9C719.7,330.4,719.2,327.7,719,326.4z"/>
			<path class="st2" d="M794.8,143.8c-3.2,0-6,0-10,0.1c-3.4-4.1-7.4-9.2-11.6-14.1c-5-5.8-9-12.6-15.1-17.3c-1.4-1.1-2.9-2-4.9-3.4
				c-1.8-4.8-0.8-12.6-8.5-13.6c-2.8-4.2-2.2-10.2-7.1-12c-1.1-3.4-1.5-7.1-3.3-9.8c-8.1-12.2-13.1-25.8-16.7-41.5
				c0.2-4.5,1.2-10.4,1.4-16.4c0.2-9.6,6.1-16.3,14.3-19.6c2.3-0.9,3.8-3.7,7.2-2.6c2.3,0.8,5,0.1,8.3,0.1c0.8,1.1,1.8,2.6,3.1,4.5
				c-3.3,3.9-8.5,5.6-9.9,11.7c5.2,3.4,8.9-2.7,14.7-2c0.6,0.8,1.6,2.3,2.5,3.7c-2.6,2.8-4.3,4.6-7.4,8c4.1-0.3,6.8,0.3,8.1-0.9
				c3.2-3,7.5-3.4,10.7-6.9c2.9-3.2,7-5.1,11.2-6.8c5.9-2.4,11.1-6.7,16.8-9.7c8.4-4.5,16.4-9.8,25.4-13c3.6-1.3,6.6-4.3,9.8-6.7
				c2.9-2.2,7-2.4,8.4-6.3c4.2,1.1,8,2,12,3c-0.4,2.4-0.8,4.5-1.4,8.4c-0.4,0.3-1.7,1.2-3.4,2.4c1.7,0.1,3.3,0.2,4.9,0.3
				c1.6,0,3.3-0.1,5.8-0.2c-1.4,6.1-2.1,11.7,1.4,16.8c-1.1,1.1-1.7,1.7-3,2.9c1.1,1.1,2.5,2.3,4.9,4.6c-3,0.1-4,0.2-5.4,0.2
				c0.3,1.4,0.8,2.7,0.8,4c0,1.3-0.4,2.6-0.6,3.8c-4.1,4.1-8.3,8.2-12.8,12.7c-0.7-0.1-2.1-0.3-4.2-0.5c0.5,1.1,0.8,1.8,1.1,2.6
				c-0.8,1.2-1.6,2.6-2.6,4.2c-7.8-2.4-9.3,6.4-14.8,8.5c0.8,1.7,1.2,2.6,1.3,3c-3.8,2.7-7.7,5.4-11.6,8.1c0.2,0.3-0.1-0.2,0,0
				c-1.7,1.2-3.5,2.5-5.3,3.7c-0.4-0.5-0.8-1.1-1.3-1.6c-0.3,1.5-0.5,3-0.9,5.1c-0.9-1.2-1.4-1.9-2.5-3.4c-0.1,2.2-0.1,3.7-0.2,5.8
				c-2.8,2.6-6.1,5.6-9.7,9c-1.1-1.4-1.9-2.3-2.6-3.1c-3.9,3.3-7.9,6.6-11.9,10c1.2,1,2.2,1.9,3.8,3.3c-2,1.8-3.7,3.3-5.3,4.8
				c0.1,0.8-0.1,1.6,0.2,2.1c4.3,7.9,9.7,15.5,12.7,23.9C795.1,123.1,799.6,133.2,794.8,143.8z"/>
			<path class="st2" d="M940.4,28.8c0.7-0.5,1.2-0.8,1.7-1.2c-0.2-0.5-0.4-1.1-0.8-1.6c-1.9-2.9-4.5-5.6-6-8.3
				c-1.5-2.7-3.2-4.8-4.7-7.3c-2-3.3-4.1-7.8-3.7-11.3c0.8-6.2,1.5-12.4,4-18.5c4.2-10.5,11-17.6,19.5-23.5
				c10.7-7.5,21.3-15,32.6-22.9c-3-4.3-2.1-10.6-7.6-13.3c-1.5-5.6-3-11.3-4.6-16.9c-1.4-5.2-0.1-10.1,0.7-15.1
				c0.6-3.5,1.2-7.1,1.8-10.6c3.7-3.4,7.4-6.8,11.1-10.1c4.9,1.2,9.5,2.4,14.8,3.7c-3.1,3.8-5.8,7.1-8.4,10.2
				c4.7,5.7,8.4-3.1,12.7,0.9c2.2,5.2-3.7,5.9-6.2,9.8c3.6,0,5.7-0.1,8.2-0.1c0.7,5-0.8,8.8-3.8,12.5c1.1,0.8,2,1.5,3.4,2.4
				c0.8,1.5-1.3,1.1-2,2.8c1,2.7,2.3,6.1,3.8,10.2c17.6-13,38.2-19.5,53-35.7c3,0.8,5.6,1.4,8.9,2.3c-1.2,3-2.3,5.7-3.8,9.2
				c2.7-0.3,4.7-0.6,7.5-0.9c-0.5,2.9-0.9,5.3-1.3,7.5c1.4,0.8,2.1,1.2,2.9,1.6c0.1,0.6,0.4,1.2,0.4,1.8c-0.1,1-0.5,1.9-0.4,2.9
				c0.1,10.5-5.9,17.3-12,23.6c-6.6,6.8-14,12.8-21.5,19.6c3.4,6.8,9.9,11.3,15.2,18.2c-0.1,0.9-0.1,2.4-0.2,4.2
				c1.3,2.6,3.5,5.4,3.8,8.4c0.6,6.4,3.7,13.1-0.4,20.1c-0.7,0.1-2.3,0.6-4,0.9c-1.6,0.3-3.3,0.5-5.1,0.8c-1.9-3.2-7.4-3.7-5.8-8.6
				c-5.1-3.1-9.7-5.8-14.1-8.4c-0.7-2.2-1.4-4.3-2.1-6.7c-3.3-0.8-6.5-1.6-9.8-2.5c-0.1-1.2-0.1-2.1-0.2-3.3c-3.1-4-6.8-1.2-9-1.1
				c-3.5,2.9-6.2,5.2-9.2,7.6c-0.6-0.7-1.1-1.4-1.9-2.4c-1.3,1.3-2.8,2.8-4.5,4.6c-0.2-0.3,0.2,0.4,0.7,1.5
				c-4.3,0.1-5.4,4.5-7.9,7.7c-1.3-1.3-2.1-2.2-3.4-3.5c-0.5,1.6-1.1,3.2-1.7,5c-0.7,0-1.5,0.1-3,0.1c-1.1,3.8-2.4,8.5-7.5,5.8
				c-2.2,2.1-5.6,3.7-5.8,5.7c-0.4,6-5.4,7.7-7.4,12c-1.6,5.7-1.5,5.7-0.5,10c-4.5,2.4-9.2,3.5-14.5,3.7
				C941.7,31.6,941.1,30.4,940.4,28.8z"/>
			<path class="st2" d="M586.9-61.3c8.7-7.7,16.1-14,23.3-20.5c6.9-6.2,13-13.1,18.8-20.3c-0.4-0.9-0.8-1.7-1.5-3.2
				c1.8-1.5,3.6-2.9,5.6-4.5c2,0.5,4,1,5.9,1.5c1.8,2.9,3,6.8,5.3,8.3c2.9,1.8,2.9,4.6,3.8,6.9c3.1,8,4.9,15.7,0.1,23.9
				c-3,5-6,10-9,15c-0.9,1.5-1.7,3.1-2.9,5.4c-1.2,0.9-3.2,2.3-5.4,3.8c-0.4,2.4-0.9,5-1,6.1c-4.7,6-8.6,11.1-12.9,16.6
				c3.9,4.4,7.4,8.6,11.2,12.6c7.3,7.9,13,16.9,15.4,27.9c0.5,2.3,0.5,4.9,0.9,8.4c-0.5,0.7-1.5,2.4-2.8,4.2c-2,0.5-4.2,1-5.8,1.3
				c-3.9-2.6-7.4-4.7-10.7-7.2c-3.3-2.5-6.3-5.4-9.5-8.1c0.4-5.7-5.9-5-7.7-9.4c-1.5-3.6-5.7-6-9.1-9.5
				c-13.8,9.9-26.5,21.4-38.4,33.8c-0.9,1-1,2.9-1.5,4.3c-4.7,2.4-8.6,0.9-12.2-3.3c0.2-1.2,0.4-2.5,0.5-3.1
				c-4.7-4.8-9.1-9.2-13.9-14.1c-2-3.9,0.2-8.8-0.8-13.2c-1.1-4.9,1.2-8.8,1.1-12.3c8.3-12.8,17.5-23.5,29.3-31.7
				c0.3-1.8,0.7-4,1.1-6.6c-5-5.8-7.4-13.5-10-21.1c-0.8-2.5-0.5-5.5-0.6-8.3c-0.2-5.6-1-11.2,0.1-16.9c2.2-10.8,9.2-17.1,19.4-18.6
				c6.5-0.9,12.1,1.8,18.7,2.7c-4.8,7-13.1,4.2-19.1,9.5c8.5,1.7,15.1-5.6,23.5-1.8c-0.7,2.1-1.4,4.2-2.2,6.4c1.5,1,3.6,2.5,5.7,3.9
				c-0.8,4.6-1.4,8.4-2.1,12.3c-3,3.7-6.3,7.5-9.1,11.5C587.4-67.3,587.6-65,586.9-61.3z"/>
			<path class="st2" d="M985.2,67.2c1.6,1.6,3,2.8,4.9,4.7c-1,3-2.1,6.1-3.3,9.8c1,3.2,1.5,7.8,5.8,10.6c2.6-2.6,4.4-5.8,8.6-6.5
				c2.9-0.5,5.3-4.4,7.9-6.7c2.9-2.6,6.4-4,8.9-7.4c2.1-2.9,5.7-4.3,8.4-6.8c2.7-2.6,4.9-5.7,7.3-8.6c3.5,0.9,6.7,1.7,10,2.5
				c0,3.2,0.4,6.4-3.5,8.7c2.8,0.9,5,1.5,7,2.1c0.1,4.7,0.3,9,0.4,13.2c-1.5,0.2-2.6,0.4-3.9,0.6c0,0.9-0.2,1.8-0.1,2.7
				c1.3,7.3,0.6,9.4-5.1,13.4c-2.4,1.6-3.8,4.7-3.3,7c0.7,3.6-2.9,1.4-1.6,4.8c-1.6-2.2-2.1-2.9-3-4.1c-0.3,2.1-0.6,3.6-0.9,5.4
				c-2-0.1-3.6-0.1-5.6-0.2c-0.4,2.1-0.7,4.2-0.9,5.3c-2.7,2-4.6,3.4-6.2,4.6c2.5,4.1,4.9,7.8,6.8,10.9c-0.5,3.1-0.9,5-1.2,7.3
				c1.6,2.6,3.2,5.2,4.9,8c-0.9,1.1-1.4,1.8-2.3,2.9c0.6,2.3,1.3,5.1,2.2,8.7c-2.4,3.5-5,7.3-7.5,10.9c-3.2-0.8-5.5-1.4-7.4-1.9
				c-7.7-7.6-15.2-14.9-22.7-22.1c-1.9,2.1-3.4,3.8-4.7,5.2c-1.4-1.2-2.5-2.1-4.3-3.7c-0.6,3.3-1,5.7-1.5,9c-2.5-1.8-4.3-3-7.6-5.3
				c1.1,2.5,1.4,3.2,2,4.6c-1.9,1.3-4,2.6-7.2,4.7c0.1-3.7,0.1-6.1,0.2-8.6c1.3-0.1,2.4-0.3,3.8-0.4c0.3-0.7,0.6-1.5,0.9-2.6
				c-1.1-0.7-2-1.4-3-2c0.7-1.6,1.4-3.2,2.5-6c-1.9,1.2-2.7,1.7-3.1,2c-3.7-1.7-7.1-3.3-10.8-5.1c-0.4-1.4-0.9-3.1-1.4-5.2
				c1.2-2.7,2.5-5.7,3.8-8.7c1.7,0.8,3.8,1.7,6,2.7c0.2-0.3,0.3-0.7,0.4-1c-2.1-1.9-4.2-3.7-6-5.3c1.7-2.4,3.3-4.7,5-7.2
				c-4-12.3-8.7-24-10.2-36.6c-0.8-8.6,3.1-15.9,5.6-23.6c1.9-6,7.4-9.1,13-11c0.8-0.3,1.6-0.6,2.9-1.1c2.6,0.7,5.8,1.5,8.8,2.2
				c1.1,1.9,2.2,3.5,2.9,4.7c-2.1,1.4-4.2,2.9-5.4,3.8c-0.5,2.9-0.7,4.1-1,5.9c2.1-0.1,4-0.1,6.3-0.2c0.9,1.4,1.8,2.7,3,4.5
				C988.3,64.4,986.8,65.7,985.2,67.2z"/>
			<path class="st2" d="M442.7,46.2c0.8,1.3,1.5,2.5,2.5,4c-6.3,3.7-12.6,7.3-18.8,11c0.1,0.4,0.1,0.7,0.2,1.1
				c1.2-0.1,2.6,0.3,3.6-0.3c1.8-1,3.4-2.5,5.6-2.5c4.2-1.4,8.4-2.7,12.4-4.1c2.7,3.6,0,5.3-2,8.3c2.3-0.3,3.7-0.5,5.3-0.8
				c0.5,0.9,1.2,2,1.9,3.1c-0.7,3.8-1.3,7.7-2,11.6c-1.2,0.8-2.5,1.7-3.8,2.6c0.1,0.5,0,1.1,0.3,1.4c1.7,2.1,3.5,4.3,5.3,6.3
				c2,2.1,5.2,3.4,4.5,7.4c-0.1,0.5,0.5,1.2,1,1.6c1.6,1.8,3.6,3.4,4.7,5.5c1.2,2.1,1.6,4.7,2.7,7.8c-0.3,1.6-0.7,4.2-1.2,6.7
				c-1.7,1.2-3.5,2.4-4.9,3.5c-10.4-7.2-20.8-14.2-31.1-21.3c-2.7,0.8-5.6,1.7-8.5,2.5c-0.1-0.2-0.2-0.4-0.2-0.7
				c-2.7,1.9-5.4,3.8-8.9,6.3c-0.2,0.7-0.5,2.2-0.9,4.1c-5.5,3.7-11.2,7.5-15.9,10.6c-3.1,6.1-3.3,13.2-11.7,12.5
				c-1.2-3.4-7.2-5.3-4.6-11.8c-1.6-1-3.5-2.1-5.7-3.4c-0.6,0.2-1.6,0.7-2.4,1c-1.8-3.2-3.4-6-5.8-10.1c0.4-6.2,0.9-14,1.4-22.3
				c8.9-6.8,17.6-13.5,26.8-20.5c-2.7-2.8-5.5-5.3-7.7-8.3c-2.4-3.1-4.2-6.6-6.2-10.1c1.1-2.3,2.3-4.7,3.5-7.2
				c-1.3-0.9-2.3-1.5-3.5-2.4c0.4-2,0.7-4.2,1.1-6.5c0.6-0.4,1.4-0.9,2.2-1.5c2.6,0.1,5.4,0.2,8.8,0.3c7.8,7.5,16.4,15.8,24.8,23.8
				C425.4,54.3,433,46.9,442.7,46.2z"/>
		</g>
	</g>
</g>
</svg>
