<svg width="1044" height="268" viewBox="0 0 1044 268" fill="none" xmlns="http://www.w3.org/2000/svg">
<g clip-path="url(#clip0)">
<g opacity="0.2">
<path d="M556.174 95.6624C557.654 93.1318 560.029 91.1106 561.053 88.5451C564.656 79.1265 573.477 76.2777 582.242 74.7466C588.249 73.4448 594.257 72.1429 601.085 73.1073C616.11 75.1413 626.767 83.0097 633.551 95.8691C636.961 101.86 639.915 107.815 641.006 114.509C641.733 118.971 642.88 124.348 641.344 128.196C635.655 143.624 625.989 155.662 608.841 160.516C604.203 161.923 599.127 162.856 594.507 163.824C593.575 164.193 592.662 164.123 592.225 163.648C580.142 156.993 568.553 149.494 562.189 137.548C559.198 132.471 556.701 126.55 557.892 120.032C559.12 112.634 556.259 104.483 561.139 97.3653C559.313 97.2252 557.962 96.6809 556.174 95.6624ZM579.281 134.011C585.671 134.502 591.111 135.8 596.169 135.307C605.39 133.811 618.474 116.747 618.407 107.487C618.463 106.169 618.099 103.938 617.205 103.429C612.752 100.443 607.824 97.8617 603.353 95.3153C600.41 99.9371 591.96 94.0007 590.276 101.363C589.69 104.403 582.004 102.051 584.045 107.936C577.759 115.827 581.021 125.331 579.281 134.011Z" fill="white"/>
<path d="M190.897 219.51C186.828 218.317 184.621 216.386 186.175 212.1C186.65 211.696 188.019 211.801 188.968 210.993C197.422 205.915 207.041 205.771 216.278 203.837C220.44 202.835 226.316 204.607 229.873 207.082C240.052 215.351 251.181 222.812 255.187 236.335C258.83 247.627 256.43 261.098 249.215 269.355C244.886 274.309 238.825 276.927 234.496 281.881C227.689 280.478 220.277 282.552 213.144 278.041C210.024 276.039 196.195 267.49 193.531 265.524C187.348 260.204 184.888 253.408 182.885 246.647C182.484 245.295 181.646 243.468 182.158 242.186C185.686 234.528 183.775 225.571 190.897 219.51Z" fill="white"/>
<path d="M835.177 12.3225C837.412 13.3685 838.756 13.9089 840.555 14.4841C839.026 18.3047 837.97 21.724 836.459 25.1086C834.641 24.9695 832.351 25.2318 829.606 25.4593C830.46 26.8371 830.896 27.308 831.749 28.6858C827.457 33.1701 822.292 36.7127 815.041 35.7203C813.224 35.5813 811.388 35.8783 809.533 36.6115C804.462 37.9735 799.464 37.5911 794.558 35.0282C792.778 34.0169 789.634 32.9013 789.143 33.7387C784.359 39.0605 780.584 31.3338 775.985 32.2945C774.149 32.5915 772.535 27.6553 768.446 27.3424C766.174 27.1686 764.486 23.9768 762.269 22.4947C759.599 20.9778 758.856 16.9833 754.748 17.1065C753.171 11.2981 746.939 7.7587 744.416 2.75296C738.063 -8.67113 738.727 -24.3709 744.623 -34.4202C750.009 -43.196 759.679 -45.5187 767.581 -38.3514C771.541 -34.9858 774.629 -32.5619 779.775 -35.6683C781.481 -32.9126 782.9 -34.1167 784.337 -35.7568C786.283 -38.6705 789.464 -38.4271 792.172 -37.7824C802.075 -34.8371 811.506 -31.4904 819.444 -25.1953C826.056 -19.8767 830.722 -11.6444 836.37 -5.08697C834.767 0.478102 842.269 6.30236 835.177 12.3225ZM758.269 -1.43739C767.877 8.48563 784.03 14.5343 797.68 15.1411C804.059 15.1917 809.149 13.3936 813.405 9.78154C815.787 7.33873 818.606 5.36681 821.443 2.95877C820.153 1.11005 818.846 -0.302554 818.447 -1.64563C816.888 -7.89016 813.419 -12.0932 806.168 -13.0856C803.006 -13.765 799.899 -15.7528 796.756 -16.8683C794.503 -17.4783 790.923 -19.0647 790.432 -18.2273C787.067 -14.1096 785.999 -21.1915 781.762 -18.0156C779.398 -16.0088 775.634 -13.2342 771.397 -10.0583C768.309 -12.4821 766.111 -14.4004 763.913 -16.3186C756.495 -13.386 760.326 -6.96769 758.269 -1.43739Z" fill="white"/>
<path d="M403.73 51.1943C405.94 53.1283 406.817 54.0778 407.693 55.0272C408.663 53.7783 409.249 50.7355 410.163 50.8056C412.922 50.5762 416.596 50.4169 418.367 51.8761C424.139 56.2889 429.892 61.1414 434.237 66.7681C438.126 72.3597 440.607 78.7256 442.156 85.4611C442.921 89.0487 442.278 93.4105 439.809 97.6322C434.851 106.515 429.948 114.079 420.132 118.619C415.928 120.502 410.884 120.556 407.137 122.475C405.729 123.249 403.426 123.513 401.562 124.252C401.161 122.898 400.303 121.509 399.445 120.12C398 121.774 397.087 121.704 394.858 120.209C391.315 117.291 383.827 110.1 380.741 107.216C370.587 98.056 376.953 88.3989 377.799 79.2005C377.892 77.0021 382.096 75.119 384.492 72.6561C392.986 77.7189 396.8 85.0693 399.664 93.229C407.924 92.9805 409.61 85.6109 414.364 81.5645C415.315 80.7552 414.969 78.0821 415.136 74.1249C410.858 77.7667 408.005 80.1945 405.628 82.2177C399.251 81.2874 400.481 73.8828 395.017 73.0225C395.222 68.186 394.512 63.2793 395.612 58.9526C397.587 55.5752 400.859 54.0618 403.73 51.1943Z" fill="white"/>
<path d="M813.535 146.715C812.273 143.966 810.571 140.74 809.309 137.991C810.981 131.045 819.607 133.475 822.578 128.398C825.549 123.32 833.699 126.156 838.52 120.778C836.744 119.315 834.95 118.293 833.632 116.866C834.109 116.46 834.146 115.579 834.604 115.614C842.902 114.924 849.146 119.382 854.418 125.092C858.83 129.41 861.335 135.35 864.794 140.479C866.514 143.263 863.197 145.662 865.87 147.635C868.543 149.609 869.366 151.882 868.778 154.932C868.19 157.982 871.246 161.753 870.714 163.481C869.173 167.342 868.987 171.749 867.464 175.169C864.418 182.01 860.476 188.339 854.299 193.171C850.963 196.01 845.889 196.505 839.973 195.167C825.87 191.874 825.412 191.839 819.299 184.296C814.485 178.621 811.54 172.206 810.482 164.608C809.752 160.131 807.612 156.43 810.545 152.234C806.536 149.273 812.947 149.765 813.535 146.715ZM825.318 139.661C826.432 145.936 827.601 150.889 828.77 155.842C829.172 157.199 829.097 158.962 828.621 159.368C822.921 163.794 827.791 168.147 828.979 172.659C838.595 173.397 838.156 172.921 843.472 166.697C849.761 159.221 849.217 150.337 849.131 141.488C849.206 139.725 847.448 137.822 846.13 136.394C843.476 133.98 838.748 137.154 836.167 132.977C835.196 134.229 834.224 135.481 833.252 136.732C828.785 133.737 827.664 138.514 825.318 139.661Z" fill="white"/>
<path d="M459.642 296.615C448.492 298.861 442.822 291.338 435.663 286.36C428.944 281.858 428.802 274.316 426.768 267.959C425.174 262.078 429.108 256.178 431.628 251.055C433.669 246.339 437.051 242.611 439.534 238.372C438.634 237.86 436.816 237.277 435.457 236.73C437.369 235.105 439.28 233.479 441.209 231.413C438.473 230.76 436.196 230.142 432.542 229.419C434.912 227.829 436.842 225.762 438.22 225.868C442.333 226.626 446.999 225.212 451.478 228.213C462.695 235.275 468.234 245.888 472.359 257.279C477.234 272.714 473.442 286.155 459.642 296.615Z" fill="white"/>
<path d="M959.844 111.755C954.963 107.848 952.498 101.036 944.726 100.44C943.027 97.2191 939.956 93.893 939.648 90.3372C938.629 81.8703 940.774 74.5292 950.086 71.27C951.019 70.9001 951.989 69.65 952.941 68.8399C951.587 68.2946 950.234 67.7493 949.777 67.7142C952.156 65.6892 955.011 63.2591 957.39 61.2341C956.951 60.7589 956.074 59.8086 955.636 59.3335C956.55 59.4036 957.94 59.0687 958.855 59.1389C963.847 60.4049 969.94 57.3403 973.832 62.937C979.04 69.9593 982.876 76.8762 984.352 85.3782C986.174 96.5557 974.222 108.001 965.825 111.331C963.502 112.035 960.926 107.864 959.844 111.755Z" fill="white"/>
<path d="M716.692 238.607C716.543 242.131 716.487 243.452 716.413 245.214C717.432 253.689 709.998 255.77 705.272 258.943C700.089 262.081 695.735 256.444 691.214 254.771C687.15 253.134 683.656 248.888 680.125 245.524C674.398 239.782 672.612 227.713 676.571 220.946C677.561 219.254 676.757 216.541 680.895 216.416C683.183 216.592 685.639 212.803 688.021 210.776C693.316 204.995 697.93 204.465 703.18 210.613C706.693 214.418 710.682 217.817 712.766 222.838C715.289 228.335 718.27 233.867 716.692 238.607Z" fill="white"/>
</g>
</g>
<defs>
<clipPath id="clip0">
<rect width="1044" height="268" fill="white"/>
</clipPath>
</defs>
</svg>
