<svg width="412" height="142" viewBox="0 0 412 142" fill="none" xmlns="http://www.w3.org/2000/svg">
<g clip-path="url(#clip0)">
<g opacity="0.2">
<path d="M250.35 41.6129C250.887 40.6775 251.736 39.9208 252.112 38.9762C253.438 35.5098 256.566 34.3994 259.667 33.7704C261.794 33.2471 263.921 32.7239 266.324 33.0212C271.612 33.6432 275.325 36.4296 277.643 41.0686C278.811 43.2276 279.819 45.3775 280.164 47.8119C280.395 49.4348 280.768 51.3878 280.204 52.8046C278.107 58.481 274.627 62.9521 268.55 64.8611C266.906 65.4117 265.11 65.7928 263.474 66.183C263.144 66.3252 262.822 66.3069 262.67 66.1374C258.447 63.805 254.403 61.1608 252.228 56.8518C251.202 55.0229 250.356 52.8821 250.814 50.4933C251.29 47.7836 250.328 44.8314 252.091 42.1947C251.448 42.1582 250.975 41.9703 250.35 41.6129ZM258.277 55.4242C260.528 55.552 262.44 55.9824 264.227 55.7618C267.488 55.1419 272.203 48.8091 272.234 45.4302C272.261 44.9488 272.146 44.1373 271.833 43.9586C270.28 42.9046 268.556 42.0019 266.994 41.1084C265.929 42.8188 262.983 40.7198 262.346 43.4204C262.121 44.5345 259.424 43.7376 260.11 45.8692C257.847 48.7995 258.942 52.2423 258.277 55.4242Z" fill="white"/>
<path d="M119.43 85.8615C118.001 85.4585 117.234 84.771 117.807 83.1937C117.977 83.0424 118.459 83.0697 118.799 82.7671C121.812 80.8452 125.207 80.7159 128.478 79.9355C129.952 79.5362 132.015 80.1362 133.256 81.0115C136.8 83.9493 140.683 86.5843 142.018 91.4895C143.238 95.5833 142.312 100.521 139.718 103.594C138.162 105.437 136.008 106.442 134.451 108.285C132.057 107.828 129.43 108.644 126.939 107.054C125.85 106.349 121.02 103.338 120.091 102.641C117.94 100.748 117.112 98.2867 116.445 95.8341C116.311 95.3436 116.026 94.6834 116.214 94.2112C117.504 91.3866 116.882 88.1317 119.43 85.8615Z" fill="white"/>
<path d="M349.665 11.3486C350.451 11.7152 350.925 11.903 351.559 12.0999C350.994 13.5168 350.6 14.7823 350.045 16.0386C349.401 16.0021 348.588 16.117 347.614 16.2227C347.909 16.7224 348.06 16.8919 348.355 17.3916C346.807 19.0746 344.957 20.4185 342.393 20.112C341.75 20.0755 341.097 20.1995 340.436 20.484C338.631 21.0255 336.862 20.9251 335.139 20.0225C334.514 19.665 333.406 19.2802 333.227 19.5921C331.501 21.5869 330.209 18.7769 328.573 19.167C327.921 19.291 327.378 17.4894 325.931 17.4073C325.127 17.3617 324.547 16.2019 323.77 15.6749C322.833 15.1388 322.593 13.6763 321.137 13.7547C320.612 11.6321 318.425 10.3812 317.56 8.5613C315.376 4.41281 315.703 -1.36398 317.851 -5.1057C319.811 -8.37515 323.252 -9.30684 326.01 -6.73564C327.393 -5.53027 328.473 -4.66408 330.315 -5.84746C330.904 -4.84818 331.413 -5.30221 331.932 -5.9167C332.639 -7.00348 333.765 -6.93963 334.72 -6.72443C338.212 -5.7214 341.535 -4.56703 344.311 -2.31676C346.623 -0.41479 348.227 2.57396 350.19 4.93908C349.59 6.99777 352.214 9.07845 349.665 11.3486ZM322.493 6.90938C325.84 10.4799 331.528 12.5734 336.362 12.6866C338.622 12.6539 340.436 11.9519 341.965 10.5898C342.824 9.6726 343.834 8.92501 344.854 8.01695C344.408 7.34771 343.953 6.83895 343.819 6.34843C343.303 4.06541 342.099 2.54823 339.535 2.2418C338.419 2.01748 337.329 1.31176 336.222 0.926968C335.427 0.720889 334.168 0.166502 333.989 0.478312C332.772 2.01912 332.436 -0.575704 330.916 0.625924C330.066 1.38264 328.716 2.43293 327.196 3.63455C326.116 2.76836 325.348 2.08088 324.581 1.3934C321.935 2.53117 323.255 4.8598 322.493 6.90938Z" fill="white"/>
<path d="M361.196 109.891C362.519 109.322 364.03 108.281 366.236 109.211C366.057 109.523 365.717 109.826 365.368 110.289C366.163 110.495 367.601 110.737 367.744 111.068C368.232 113.832 371.251 114.647 372.07 117.269C373.441 121.533 374.491 125.778 371.985 130.143C371.636 130.606 371.466 130.758 371.751 131.418C372.607 133.398 371.569 134.627 369.907 135.499C368.584 136.068 369.351 136.755 369.949 137.594C368.393 139.437 366.675 141.272 365.119 143.115C363.511 143.024 362.064 142.942 360.295 142.841C359.385 141.824 358.484 140.646 357.422 139.459C356.521 138.281 355.271 137.566 354.54 136.237C352.774 133.239 352.464 130.163 353.451 126.999C354.069 124.619 355.492 122.285 356.272 119.915C356.685 118.328 357.24 117.072 358.903 116.2C359.564 115.916 360.119 114.66 360.174 113.697C360.247 112.413 361.078 111.977 361.767 111.211C361.615 111.042 361.33 110.382 361.196 109.891Z" fill="white"/>
<path d="M195.622 25.3078C196.39 25.9953 196.693 26.3345 196.996 26.6737C197.345 26.2105 197.57 25.0964 197.891 25.1146C198.865 25.0089 200.161 24.9214 200.777 25.4393C202.785 27.0021 204.785 28.7253 206.283 30.7422C207.621 32.7499 208.459 35.0511 208.965 37.4946C209.214 38.7966 208.962 40.3921 208.067 41.9512C206.268 45.2297 204.496 48.0269 201.01 49.7609C199.517 50.4811 197.739 50.5413 196.407 51.2706C195.907 51.5642 195.094 51.679 194.432 51.9635C194.299 51.4729 194.005 50.9733 193.71 50.4737C193.191 51.0882 192.87 51.0699 192.093 50.5429C190.861 49.5071 188.264 46.945 187.193 45.9184C183.668 42.6597 185.968 39.0876 186.32 35.7269C186.365 34.9246 187.858 34.2044 188.717 33.2872C191.681 35.0652 192.982 37.7147 193.944 40.667C196.857 40.5102 197.494 37.8097 199.193 36.2963C199.533 35.9936 199.426 35.0217 199.508 33.5775C197.979 34.9396 196.96 35.8476 196.11 36.6043C193.868 36.3161 194.345 33.6065 192.424 33.3365C192.524 31.5714 192.303 29.788 192.715 28.2016C193.431 26.9544 194.593 26.3764 195.622 25.3078Z" fill="white"/>
<path d="M342.394 59.8747C341.966 58.8845 341.387 57.7248 340.959 56.7346C341.587 54.1945 344.606 55.0097 345.68 53.1389C346.754 51.268 349.603 52.2345 351.329 50.2397C350.713 49.7218 350.088 49.3644 349.633 48.8556C349.803 48.7043 349.821 48.3833 349.982 48.3925C352.904 48.0753 355.073 49.6472 356.893 51.6822C358.419 53.2177 359.266 55.3585 360.452 57.1966C361.041 58.1959 359.86 59.0948 360.789 59.7914C361.717 60.488 361.993 61.3086 361.769 62.4227C361.544 63.5369 362.597 64.8844 362.4 65.5172C361.836 66.934 361.744 68.5387 361.189 69.795C360.079 72.3078 358.656 74.6418 356.456 76.4488C355.267 77.5082 353.48 77.7288 351.408 77.2893C346.468 76.2041 346.308 76.195 344.202 73.4998C342.542 71.4739 341.544 69.1635 341.217 66.4082C340.986 64.7853 340.255 63.4559 341.311 61.906C339.918 60.8611 342.169 60.9888 342.394 59.8747ZM346.578 57.2144C346.933 59.4883 347.315 61.2808 347.697 63.0733C347.831 63.5638 347.794 64.2056 347.624 64.357C345.595 66.0126 347.282 67.5572 347.673 69.1892C351.05 69.3808 350.898 69.2112 352.803 66.9046C355.058 64.1348 354.918 60.9072 354.939 57.6887C354.976 57.0469 354.369 56.3685 353.914 55.8598C352.995 55.0027 351.314 56.1952 350.431 54.6963C350.082 55.1594 349.733 55.6226 349.384 56.0857C347.831 55.0317 347.409 56.7786 346.578 57.2144Z" fill="white"/>
<path d="M215.137 113.506C211.214 114.411 209.269 111.725 206.788 109.974C204.457 108.393 204.451 105.656 203.775 103.364C203.25 101.241 204.664 99.0677 205.577 97.1877C206.32 95.459 207.528 94.0787 208.423 92.5196C208.111 92.3409 207.476 92.144 207.003 91.9561C207.683 91.3508 208.362 90.7454 209.051 89.9795C208.095 89.7643 207.301 89.5583 206.023 89.3248C206.864 88.7286 207.552 87.9627 208.035 87.9901C209.473 88.2327 211.117 87.682 212.671 88.7361C216.563 91.2106 218.444 95.02 219.825 99.1228C221.445 104.688 220.037 109.599 215.137 113.506Z" fill="white"/>
<path d="M262.674 137.131C262.146 137.906 261.779 138.69 261.412 139.474C264.143 142.527 265.059 146.281 264.349 150.266C264.134 151.219 264.088 152.022 263.39 152.948C261.843 154.631 261.536 157.189 258.757 157.836C257.613 158.094 256.3 158.502 255.523 157.975C253.336 156.724 250.969 155.785 249.649 153.456C249.07 152.296 248.49 151.137 248.412 149.683C248.202 144.842 250.359 140.94 253.16 137.074C253.688 136.299 254.689 135.712 255.842 135.294C257.165 134.726 257.996 134.29 259.228 135.326C260.317 136.031 261.424 136.416 262.674 137.131Z" fill="white"/>
<path d="M394.435 47.3698C392.739 45.9857 391.911 43.524 389.177 43.3689C388.598 42.2092 387.536 41.0221 387.448 39.7292C387.138 36.653 387.936 33.9615 391.234 32.6998C391.565 32.5576 391.914 32.0944 392.254 31.7917C391.78 31.6039 391.307 31.4161 391.146 31.4069C391.996 30.6502 393.015 29.7422 393.865 28.9854C393.713 28.8158 393.41 28.4767 393.258 28.3071C393.579 28.3253 394.071 28.1922 394.393 28.2105C396.143 28.6317 398.306 27.4666 399.644 29.4743C401.437 31.9908 402.748 34.4799 403.218 37.5652C403.795 41.6225 399.52 45.8875 396.543 47.1675C395.721 47.4428 394.838 45.9439 394.435 47.3698Z" fill="white"/>
<path d="M307.312 92.4956C307.239 93.7794 307.212 94.2608 307.175 94.9026C307.485 97.9789 304.857 98.7957 303.176 99.9882C301.335 101.172 299.836 99.1547 298.255 98.5821C296.835 98.0186 295.631 96.5015 294.408 95.3052C292.427 93.261 291.869 88.8828 293.301 86.3883C293.659 85.7647 293.392 84.7837 294.848 84.7053C295.652 84.7509 296.538 83.3523 297.388 82.5956C299.284 80.4494 300.91 80.2197 302.721 82.4153C303.935 83.772 305.318 84.9773 306.022 86.7881C306.878 88.7684 307.894 90.7579 307.312 92.4956Z" fill="white"/>
<path d="M265.207 -9.86324C267.018 -7.66771 269.009 -5.78398 269.819 -3.00132C270.905 0.601913 269.991 2.48189 266.979 4.40374C263.465 6.61916 261.081 6.00093 258.359 2.78787C257.904 2.2791 257.601 1.93992 257.297 1.60074C256.906 -0.0312891 258.132 -1.73255 256.587 -2.94704C255.85 -7.01343 258.775 -10.2281 263.117 -9.98183C263.599 -9.95447 264.403 -9.90885 265.207 -9.86324Z" fill="white"/>
</g>
</g>
<defs>
<clipPath id="clip0">
<rect width="412" height="142" fill="white"/>
</clipPath>
</defs>
</svg>
