<svg xmlns="http://www.w3.org/2000/svg" viewBox="0 0 691.82 81.12"><defs><style>.cls-1{fill:#221f1f;}</style></defs><title>Asset 1</title><g id="Layer_2" data-name="Layer 2"><g id="Layer_1-2" data-name="Layer 1"><polygon class="cls-1" points="15.64 1.25 0 1.25 0 78.94 41.15 78.94 41.15 65.19 15.64 65.19 15.64 1.25"/><path class="cls-1" d="M73.38,19.62c-20,0-30.87,15.65-30.87,30.34v.11c0,14.91,10.82,30.55,30.87,30.55S104.24,65,104.24,50.07,93.43,19.62,73.38,19.62Zm0,48.09c-9.45,0-17.11-7.46-17.11-17.54v-.1c0-10.18,7.66-17.64,17.11-17.64s17,7.46,17,17.64S82.83,67.71,73.38,67.71Z"/><polygon class="cls-1" points="134.37 61.62 120.51 21.3 106.23 21.3 127.65 78.94 141.09 78.94 162.51 21.3 148.23 21.3 134.37 61.62"/><path class="cls-1" d="M194.1,19.52c-17.43,0-30.23,14.38-30.23,30.76a30.32,30.32,0,0,0,30.44,30.44,28.53,28.53,0,0,0,16.48-5A32.52,32.52,0,0,0,222.45,61.2H208.27c-2.62,4.72-7.14,7.77-13.85,7.77-7.88.1-16.07-5-16.7-14.28h46.41c1.15-10.08-1.47-19.11-8.51-26.35A29.39,29.39,0,0,0,194.1,19.52ZM177.93,44.19c.53-5.67,6.09-13,16.28-13s15.85,7.56,16.37,13Z"/><path class="cls-1" d="M265,34.63c-6.48-2.7-10.79-4.42-13.51-6.19s-3.86-3.65-3.84-6.51v-.21h0a8.59,8.59,0,0,1,2.92-6.54,10.34,10.34,0,0,1,6.85-2.49c3.89,0,6.24,1.53,7.65,3.53a15,15,0,0,1,2.19,6h15C281.51,5.35,268.11,0,257.93,0a28.24,28.24,0,0,0-17.45,5.86,21,21,0,0,0-8.06,16.91,18.86,18.86,0,0,0,7.43,15.37c4.08,3.28,8.91,5,11.85,6h0c5.4,2.15,9.5,3.64,12.28,5.45s4.24,4,4.23,7.35A10.72,10.72,0,0,1,257.4,67.5c-3.41,0-10.51-2.06-11.12-12.49H231.16v0c0,14.78,9,25.12,26.45,25.14,18.16,0,25.69-11.52,25.71-23.93C283.31,45.35,276.82,39.78,265,34.63Z"/><path class="cls-1" d="M408.35,28.86V21.3h-13V78.94h13.75V47.86c0-10,4.94-14.48,14.6-14.48h.63V19.52C415.59,19.62,410.87,23.72,408.35,28.86Z"/><rect class="cls-1" x="432.7" y="21.3" width="13.75" height="57.64"/><rect class="cls-1" x="432.7" y="1.25" width="13.75" height="12.28"/><path class="cls-1" d="M486.55,19.52c-17.42,0-30.23,14.38-30.23,30.76a30.32,30.32,0,0,0,30.45,30.44,28.56,28.56,0,0,0,16.48-5A32.5,32.5,0,0,0,514.9,61.2H500.73C498.1,65.92,493.59,69,486.87,69c-7.87.1-16.06-5-16.69-14.28h46.4c1.16-10.08-1.47-19.11-8.5-26.35A29.43,29.43,0,0,0,486.55,19.52ZM470.39,44.19c.52-5.67,6.09-13,16.27-13s15.85,7.56,16.38,13Z"/><path class="cls-1" d="M545.72,43.66c-5.46-1.57-9.66-3.56-9.77-7.24,0-2.83,2.21-5.77,6.83-5.77,5.35,0,6.93,3.15,7,6.19h13.55C562.2,23,550.65,19.52,542.88,19.52c-11.12,0-20.68,7-20.68,18.37.11,8.3,6.41,12.6,14.17,15,10.61,3.68,14.91,5,14.91,10,.11,3.88-3.57,6.72-7.87,6.72-2.62,0-8-1.26-8.5-7.46H521.15c1.05,14,13.13,18.58,22.05,18.58,12.07,0,22-7.55,21.84-19.42C564.93,48.91,555,46.19,545.72,43.66Z"/><path class="cls-1" d="M356.16,19.62c-19.5,0-30.23,14.79-30.81,29.12v0c-1,12.73-8.38,18.19-13,18.2a6.69,6.69,0,0,1-5-2.3h0a8.7,8.7,0,0,1-2.06-6.07V31.92h14.22V21.53H305.23V3.92H291.12V59.26c0,6.18,1.84,10.85,5.48,14.32a18.76,18.76,0,0,0,13.5,5.25c5,0,15.45-.76,20-12,5,8,13.78,13.83,26.05,13.83,20,0,30.87-15.64,30.87-30.55S376.21,19.62,356.16,19.62Zm0,48.09c-9.45,0-17.11-7.46-17.11-17.54v-.1c0-10.18,7.66-17.64,17.11-17.64s17,7.46,17,17.64S365.61,67.71,356.16,67.71Z"/><polygon class="cls-1" points="675.65 3.43 656.02 62.43 636.59 3.43 568.99 3.43 568.99 17.18 587.57 17.18 587.57 81.12 601.43 81.12 601.43 17.18 625.33 17.18 648.14 81.12 664 81.12 691.82 3.43 675.65 3.43"/></g></g></svg>