<svg width="1005" height="907" viewBox="0 0 1005 907" fill="none" xmlns="http://www.w3.org/2000/svg">
<path d="M414.878 528.503C413.792 528.086 413.283 526.729 413.911 525.748C415.383 523.446 417.165 521.341 417.998 518.899C421.666 507.647 431.247 503.664 440.806 501.221C447.351 499.252 453.896 497.283 461.407 497.894C477.933 499.138 489.847 507.511 497.664 521.994C501.579 528.722 504.994 535.443 506.389 543.166C507.319 548.314 508.735 554.496 507.167 559.098C501.392 577.512 491.158 592.273 472.511 599.22C467.75 601.098 462.548 602.512 457.744 603.906C457.182 604.069 456.646 604.321 456.076 604.449C456.05 604.455 456.025 604.46 456 604.465C454.888 604.686 453.878 603.858 452.872 603.337C439.986 596.663 427.755 588.885 420.702 575.944C417.273 570.25 414.36 563.535 415.471 555.845C416.453 548.238 414.005 540.194 416.78 532.511C417.338 530.965 416.411 529.092 414.878 528.503ZM439.707 558.99C439.842 565.088 444.785 570.917 450.881 571.13C453.313 571.216 455.632 571.167 457.873 570.78C467.933 568.344 481.763 547.466 481.414 536.676C481.436 535.136 480.971 532.562 479.976 532.035C477.811 530.664 475.55 529.389 473.275 528.17C468.465 525.589 461.061 525.836 455.653 526.601C453.215 526.946 451.098 527.931 450.403 531.649C450.061 533.878 446.652 533.886 444.699 535.182C442.014 536.963 442.537 541.303 441.391 544.313C439.582 549.066 439.596 554.021 439.707 558.99Z" fill="#793DFA"/>
<path d="M6.55279 695.961C7.79401 691.665 5.14921 685.076 5.76614 680.648C5.89534 679.721 6.57814 678.637 7.46876 678.347C7.82095 678.233 8.19876 678.094 8.55732 677.885C9.01992 677.616 9.41329 677.239 9.8551 676.936C18.8181 670.798 29.0941 669.881 38.9202 667.002C43.453 665.52 49.9472 667.146 53.9208 669.766C65.3259 678.646 77.7479 686.513 82.5428 701.983C86.8728 714.88 84.6433 730.773 76.98 740.945C73.6023 745.428 69.1621 748.512 65.2204 752.252C62.5563 754.781 58.9428 756.308 55.2731 756.407C49.5352 756.561 43.5858 757.285 37.696 753.785C34.2164 751.685 18.8015 742.752 15.8231 740.659C8.88566 734.919 5.98695 727.177 3.58948 719.442C3.10998 717.894 2.1365 715.827 2.65946 714.293C5.03029 708.301 4.85423 701.84 6.55279 695.961Z" fill="#793DFA"/>
<path d="M719.964 414.075C719.137 415.64 719.686 417.863 721.36 418.434C722.724 418.899 723.319 420.301 722.881 421.674C721.989 424.466 721.225 427.094 720.335 429.682C719.868 431.041 718.564 431.914 717.137 432.079C716.442 432.16 715.705 432.267 714.924 432.389C713.536 432.607 712.813 434.088 713.616 435.24C714.097 435.931 714.087 436.931 713.534 437.566C709.116 442.649 703.753 446.587 696.263 446.009C694.258 445.983 692.245 446.47 690.226 447.471C684.684 449.453 679.17 449.381 673.693 446.741C672.178 445.94 669.792 445.127 668.511 445.234C667.88 445.287 667.506 445.905 667.072 446.368C662.228 451.547 657.993 443.517 653.164 444.932C651.152 445.42 649.227 439.745 644.716 439.686C642.21 439.653 640.255 436.032 637.771 434.459C637.095 434.101 636.523 433.586 635.991 433.009C632.714 429.453 628.264 425.221 625.042 421.615C622.374 418.628 619.249 415.973 617.525 412.623C610.188 399.687 610.448 381.201 616.637 368.955C622.303 358.243 632.879 354.786 641.793 362.607C644.367 364.716 646.613 366.478 649.123 366.815C652.691 367.294 658.149 367.267 660.316 364.39C662.372 360.821 665.88 360.867 668.881 361.42C679.871 364.132 690.354 367.35 699.282 374.144C705.411 378.879 710.145 386.038 715.211 392.481C717.222 395.039 717.961 398.471 718.842 401.604C719.968 405.609 722.31 409.637 719.964 414.075ZM633.294 400.667C633.346 404.386 634.245 408.376 637.196 410.637C648.116 419.002 663.431 423.429 676.532 423.153C683.557 422.731 689.106 420.235 693.683 415.673C694.955 414.152 696.35 412.76 697.808 411.37C700.417 408.88 699.957 405.315 698.89 401.873C696.987 394.658 693.042 389.984 685.03 389.366C681.529 388.806 678.049 386.706 674.555 385.634C672.523 385.189 669.506 384.053 668.172 384.193C667.69 384.243 667.418 384.729 667.103 385.098C663.846 388.921 662.388 381.542 658.014 385.417C656.348 387.079 654.03 389.172 651.344 391.558C648.729 393.881 644.513 393.804 641.81 391.588C639.548 389.735 636.375 389.359 634.729 391.779C633.002 394.32 633.249 397.429 633.294 400.667Z" fill="#793DFA"/>
<path d="M767.476 732.381C766.921 731.198 767.377 729.52 768.528 728.899C771.72 727.178 775.378 725.297 780.302 726.513C781.282 726.755 781.814 727.634 781.198 728.434C780.465 729.386 780.819 730.895 781.998 731.118C783.836 731.466 785.78 731.864 786.633 732.399C786.955 732.601 787.072 732.985 787.168 733.352C789.325 741.646 798.474 743.906 801.303 751.983C806.127 765.4 809.948 778.803 802.728 793.09C801.704 794.617 801.195 795.124 802.169 797.191C805.089 803.393 802.024 807.462 796.968 810.477C796.664 810.628 796.397 810.779 796.164 810.931C792.413 813.373 795.517 819.628 792.743 823.14C790.558 825.907 788.337 828.672 786.174 831.439C784.209 833.952 781.196 835.438 778.008 835.396C776.123 835.371 774.235 835.347 772.257 835.321C769.563 835.286 766.993 834.169 765.206 832.155C763.151 829.837 761.025 827.356 758.665 824.871C755.708 821.237 751.727 819.131 749.279 814.99C743.395 805.668 742.029 795.892 744.68 785.655C746.292 777.972 750.411 770.321 752.524 762.645C753.599 757.523 755.161 753.434 760.216 750.419C762.236 749.418 763.798 745.33 763.841 742.249C763.885 739.148 765.336 737.529 766.922 735.828C767.831 734.854 768.041 733.585 767.476 732.381Z" fill="#793DFA"/>
<path d="M951.504 308.13C951.17 305.728 948.005 305.14 946.671 307.167C945.617 308.768 943.599 308.759 942.109 307.557C942.059 307.516 942.012 307.482 941.967 307.454C941.837 307.371 941.673 307.384 941.519 307.404C932.544 308.576 929.076 299.743 923.16 295.792C922.649 295.451 922.224 295.189 922.02 294.61C921.419 292.909 922.325 291.105 923.36 289.625C926.153 285.631 922.952 282.397 921.131 278.944C920.566 277.873 918.912 277.555 917.937 278.274C917.407 278.665 916.65 278.619 916.223 278.118C916.146 278.027 916.101 277.918 916.103 277.761C916.691 271.605 913.277 264.884 919.364 259.827C920.882 258.82 920.424 255.732 921.456 253.691C924.027 249.103 925.116 242.954 929.671 239.932C934.726 236.916 932.809 230.728 937.872 227.199C945.978 221.141 959.053 218.23 968.526 221.949C982.488 227.268 991.351 238.683 996.182 251.586C1000.04 262.422 1001.88 274.259 999.706 286.044C998.61 292.706 992.53 297.249 987.46 301.292C986.522 301.914 984.644 301.545 982.52 301.04C980.384 300.532 978.613 302.086 979.216 304.198C979.32 304.565 979.508 304.937 979.707 305.262C980.789 307.029 981.05 309.002 979.092 309.71C978.59 309.891 978.063 310.011 977.537 310.099C975.211 310.491 974.423 308.676 974.817 306.036C974.845 305.845 974.901 305.798 974.843 305.614C974.316 303.952 971.479 304.557 970.116 305.647C969.256 306.334 968.351 307.024 967.425 307.795C966.415 308.635 964.954 308.75 964.63 307.477C964.277 306.088 962.42 304.977 961.375 305.959C959.819 307.422 958.219 308.854 956.495 310.38C954.706 311.963 951.872 310.841 951.552 308.475C951.536 308.36 951.52 308.245 951.504 308.13ZM976.641 255.767C976.674 253.901 975.431 252.478 974.636 250.791C972.808 245.401 967.277 245.986 962.88 244.688C962.418 244.552 961.979 244.306 961.498 244.294C959.54 244.243 956.382 247.057 953.445 248.566C952.894 248.849 952.335 249.126 951.912 249.579C950.379 251.22 948.229 254.985 946.466 257.613C944.926 260.161 943.365 264.25 941.353 264.737C936.834 265.192 937.8 267.772 937.263 270.333C936.412 273.62 936.543 277.157 939.393 278.998C947.318 284.115 955.165 280.66 963.741 276.843C973.782 272.327 976.481 264.774 976.641 255.767Z" fill="#793DFA"/>
<path d="M238.681 485.157C239.754 484.114 241.993 484.418 243.081 485.443C244.352 486.639 245.702 485.868 246.295 484.224C246.592 483.399 246.889 482.687 247.234 482.399C247.425 482.24 247.694 482.243 247.938 482.206C250.905 481.755 254.683 481.39 256.586 482.894C263.037 487.601 269.481 492.821 274.406 499.049C278.83 505.27 281.736 512.498 283.632 520.227C284.577 524.348 284.003 529.477 281.425 534.579C276.26 545.297 271.118 554.475 260.505 560.499C255.958 563.008 250.437 563.45 246.391 565.965C245.392 566.627 243.962 567.062 242.526 567.567C241.358 567.978 240.022 567.465 239.44 566.373C238.778 565.132 236.992 565.397 235.585 565.381C234.869 565.373 234.034 564.979 232.879 564.247C228.913 561.114 220.501 553.3 217.036 550.173C205.645 540.266 212.328 528.54 212.981 517.763C212.992 516.961 213.444 516.164 214.138 515.355C217.264 511.709 223.297 511.203 226.755 514.53C230.002 517.654 232.399 521.309 234.347 525.295C236.354 529.402 240.942 532.453 244.318 529.367C247.847 526.141 249.7 521.15 253.086 517.773C255.379 515.488 249.724 513.025 247.432 515.311C246.618 516.122 245.866 516.872 245.16 517.576C244.133 518.599 242.657 519.229 241.332 518.644C239.781 517.959 238.775 516.741 237.925 515.404C235.141 511.024 231.486 505.29 231.372 500.099C231.327 498.062 231.37 496.066 231.652 494.137C231.779 493.274 232.064 492.438 232.529 491.7C234.171 489.088 236.449 487.328 238.681 485.157Z" fill="#793DFA"/>
<path d="M768.613 131.776C768.651 128.14 769.546 124.348 772.122 121.779C773.175 120.73 774.168 119.74 775.131 118.78C777.04 116.876 779.635 115.823 782.329 115.858C784.99 115.893 787.68 115.928 790.455 115.965C793.225 116.001 796.827 113.668 795.154 111.462C794.367 110.424 792.697 110.541 790.971 110.557C789.521 110.571 788.231 108.756 789.259 107.731C793.275 104.619 788.722 102.986 787.957 99.8419C787.74 98.9508 788.049 98.0284 788.505 97.232C791.964 91.1952 799.398 90.1516 805.101 86.367C806.619 85.3596 810.121 85.919 812.111 86.9722C823.073 91.7378 826.938 102.06 831.304 112.39C833.476 117.395 832.297 122.928 833.599 127.787C834.463 131.008 835.5 134.412 834.733 137.658C833.3 143.729 832.001 149.836 829.199 154.991C825.088 162.128 817.018 165.618 809.485 166.546C805.468 167.008 801.385 172.09 797.426 168.443C793.954 165.83 788.92 167.305 785.978 162.644C783.515 159.53 778.51 158.951 777.58 153.803C777.14 151.367 772.634 150.718 770.077 147.146C769.783 146.735 769.562 146.275 769.394 145.798C767.686 140.931 768.566 136.325 768.613 131.776Z" fill="#793DFA"/>
<path d="M700.168 575.024C701.321 574.069 701.15 572.212 700.485 570.873C699.704 569.3 698.858 567.659 698.056 566.065C697.098 564.159 696.637 561.857 697.816 560.076C700.923 555.384 708.188 556.183 710.82 550.974C713.455 545.76 720.363 546.934 725.509 543.315C727.08 542.209 726.766 540.006 725.194 538.906C724.729 538.581 724.28 538.258 723.853 537.92C723.088 537.314 722.541 535.556 723.464 535.236C723.56 535.203 723.627 535.211 723.727 535.196C732.697 533.849 739.604 538.545 745.499 544.75C750.446 549.437 753.359 556.152 757.289 561.853C759.251 564.961 755.699 567.996 758.677 570.089C761.655 572.182 762.622 574.763 762.07 578.351C761.518 581.939 764.968 586.093 764.438 588.141C762.869 592.742 762.797 597.878 761.235 601.966C758.112 610.143 753.994 617.793 747.391 623.87C743.831 627.419 738.303 628.374 731.802 627.262C716.3 624.491 715.799 624.485 708.898 616.177C703.471 609.943 700.064 602.708 698.683 593.958C698.189 591.22 697.265 588.767 696.971 586.303C696.504 582.381 697.124 577.545 700.168 575.024ZM717.159 560.501C715.361 562.54 714.486 565.638 715.052 568.295C716.16 573.496 717.279 577.949 718.398 582.403C718.877 583.95 718.848 586.004 718.34 586.511C715.013 589.552 715.126 592.331 716.147 595.067C717.699 599.225 722.246 602.479 726.602 601.611C729.999 600.934 731.027 599.009 734.779 593.916C741.425 584.758 740.568 574.475 740.211 564.198C740.24 562.144 738.264 560.064 736.782 558.504C734.556 556.55 731.151 558.331 728.346 557.385C726.842 556.878 724.803 556.763 723.919 558.083C723.255 559.072 721.939 559.253 720.775 559.003C719.179 558.659 718.092 559.443 717.159 560.501Z" fill="#793DFA"/>
<path d="M335.435 194.052C338.086 190.339 343.336 189.616 346.839 192.533C353.653 198.208 354.35 203.877 348.635 212.401C345.047 218.003 349.471 224.224 344.393 228.781C343.885 229.288 345.331 233.415 346.304 235.482C348.222 241.671 350.22 242.21 357.259 240.762C367.088 238.189 373.001 232.375 376.687 224.215C378.852 219.42 375.772 214.182 370.717 212.736C368.912 212.22 367.09 211.685 365.197 211.076C363.202 210.365 362.16 209.153 361.568 207.737C359.606 203.053 362.066 196.478 365.665 192.89C366.253 192.303 366.841 191.717 367.429 191.131C368.14 190.422 368.945 189.79 369.886 189.439C376.222 187.08 380.552 192.285 385.791 195.372C388.018 196.684 390.171 198.269 391.56 200.449C396.666 208.457 402.6 216.178 401.569 226.96C400.35 242.352 393.645 255.618 377.018 261.564C362.911 266.516 351.913 264.317 340.537 253.383C333.614 246.616 327.694 239.862 327.359 228.044C326.285 215.662 328.311 204.029 335.435 194.052Z" fill="#793DFA"/>
<path d="M314.494 760.432C313.404 761.484 312.052 762.257 310.56 762.52C299.901 764.392 293.817 756.803 286.376 751.897C278.923 747.178 278.545 738.441 276.14 731.22C274.23 724.518 278.341 717.381 280.934 711.252C282.797 706.228 285.848 702.04 288.317 697.565C288.806 696.677 288.631 695.674 287.673 695.342C286.381 694.895 285.804 693.24 286.759 692.26C287.219 691.788 287.68 691.307 288.14 690.811C289.385 689.471 288.931 687.399 287.135 687.061C285.052 686.669 283.823 683.683 285.51 682.399C286.2 681.873 286.82 681.539 287.369 681.547C291.873 682.119 296.914 680.131 301.883 683.277C314.312 690.63 320.661 702.526 325.492 715.429C331.033 732.275 327.807 747.586 314.494 760.432Z" fill="#793DFA"/>
<path d="M458.975 828.497C461.592 829.644 462.465 832.875 461.324 835.497C460.544 837.29 461.003 839.292 462.237 840.806C469.534 849.755 472.209 860.691 470.666 872.434C470.121 875.509 470.085 878.076 468.036 881.131C463.446 886.721 462.829 894.931 454.271 897.387C450.748 898.368 446.717 899.856 444.232 898.283C437.266 894.597 429.784 891.931 425.374 884.683C423.42 881.062 421.466 877.441 421.03 872.813C419.743 857.388 425.939 844.629 434.14 831.896C435.68 829.348 438.716 827.333 442.246 825.839C446.285 823.837 448.813 822.329 452.779 825.463C454.808 826.687 456.842 827.562 458.975 828.497Z" fill="#793DFA"/>
<path d="M868.206 524.772C864.723 526.146 858.593 522.8 856.104 520.007C854.414 518.109 852.652 516.303 850.435 515.11C847.245 513.392 843.61 511.779 841.654 508.729C840.341 506.68 839.189 504.564 838.946 502.304C837.579 492.528 839.707 483.825 849.797 479.334C850.482 478.995 851.173 478.183 851.864 477.38C852.308 476.864 851.76 475.902 851.115 475.686C850.339 475.425 850.33 474.246 850.911 473.667C852.874 471.71 854.999 469.591 856.897 467.699C857.227 467.37 857.276 466.884 856.956 466.547C856.434 465.997 856.78 464.886 857.525 464.746C858.013 464.654 858.49 464.572 858.897 464.561C858.985 464.559 859.073 464.569 859.16 464.585C864.632 465.596 871.137 461.685 875.526 467.857C881.432 475.639 885.835 483.4 887.702 493.183C890.027 506.054 877.294 520.268 868.206 524.772Z" fill="#793DFA"/>
<path d="M596.949 680.714C596.82 681.573 596.669 682.434 596.656 683.302C596.618 686.005 596.598 687.433 596.577 688.93C596.57 689.439 596.608 689.951 596.655 690.459C597.507 699.63 589.735 702.555 584.799 706.491C579.228 710.527 574.302 704.299 569.312 702.693C564.822 701.094 560.878 696.42 556.919 692.773C550.49 686.525 548.179 672.628 552.305 664.464C553.336 662.423 552.377 659.329 556.896 658.875C559.402 658.907 561.973 654.318 564.515 651.784C570.13 644.667 575.157 643.705 581.078 650.459C585.029 654.62 589.49 658.273 591.916 663.955C594.617 669.69 597.747 675.431 596.949 680.714Z" fill="#793DFA"/>
<path d="M447.86 361.1C450.693 361.137 453.376 362.375 455.288 364.463C460.273 369.904 465.146 375.104 467.551 382.415C471.401 393.764 468.808 399.893 459.692 406.45C449.058 414.015 441.562 412.377 432.677 402.502C432.012 401.802 431.446 401.206 430.935 400.668C429.808 399.482 428.922 398.037 428.864 396.402C428.751 393.24 429.69 390.051 428.691 387.364C427.847 385.095 426.033 383.145 425.909 380.727C425.338 369.579 433.59 360.914 445.794 361.073C446.359 361.081 447.065 361.09 447.86 361.1Z" fill="#793DFA"/>
<path d="M581.128 221.164C581.147 219.815 581.769 218.543 582.838 217.719C583.078 217.535 583.307 217.359 583.528 217.189C585.3 215.826 585.194 213.262 583.615 211.684C583.289 211.359 582.972 211.034 582.659 210.709C582.135 210.164 581.899 209.491 582.412 208.935C583.286 207.988 582.93 206.47 581.683 206.151C580.898 205.95 580.113 205.735 579.328 205.523C577.275 204.971 576.034 202.71 577.197 200.929C581.921 193.694 590.009 193.007 596.608 189.96C597.896 189.538 600.253 191 602.154 192.092C602.77 192.446 603.364 192.841 603.899 193.309C610.88 199.41 615.573 206.451 619.316 214.909C619.803 215.943 620.275 218.004 619.767 218.51C613.171 224.074 621.54 234.969 612.961 238.966C612.088 239.251 610.401 237.983 608.264 236.751C606.615 235.801 605.453 237.558 606.683 239.01C607.533 240.013 607.316 241.594 606.211 242.309C603.56 244.026 601.084 245.926 598.302 247.505C597.293 248.006 595.796 247.473 594.293 247.453C592.596 247.431 592.74 245.412 592.194 243.806C590.934 240.096 584.176 243.491 583.382 239.093C582.917 236.519 580.941 234.439 580.977 231.871C581.02 228.83 581.073 225.054 581.128 221.164Z" fill="#793DFA"/>
<path d="M606.005 11.7334C605.235 12.347 603.617 12.174 603.631 11.1904C603.64 10.5575 603.648 10.008 603.655 9.50534C603.669 8.52069 604.478 7.73316 605.463 7.74602C607.468 7.77222 609.474 7.79842 611.479 7.82463C614.118 7.8591 616.56 9.22447 618.026 11.4168C622.988 18.8374 628.403 26.6667 627.35 37.3343C627.144 39.4242 625.819 40.8908 623.727 41.0712C621.286 41.2817 618.775 39.3168 618.809 36.8671C618.822 35.9753 618.834 35.1012 618.846 34.2381C618.877 32.0932 616.238 29.2946 614.605 30.688C614.339 30.9156 614.241 31.0921 614.051 31.3862C613.342 32.4786 613.21 34.2271 612.311 35.5691C610.771 38.1169 609.776 37.5903 607.32 33.9631C606.29 32.146 605.008 30.5789 603.481 28.9061C602.466 27.7947 603.194 25.8264 604.574 25.2235C606.211 24.5085 605.778 22.6677 604.404 21.5287C602.944 20.3187 603.928 19.4675 607.073 15.9844C607.7 15.3584 607.761 14.3332 607.723 13.0361C607.695 12.0528 606.774 11.1198 606.005 11.7334Z" fill="#793DFA"/>
</svg>
