<svg width="414" height="404" viewBox="0 0 414 404" fill="none" xmlns="http://www.w3.org/2000/svg">
    <path d="M178.59 413.929C176.527 414.561 174.816 415.1 172.612 415.779C173.151 414.632 173.503 413.883 173.948 412.899C172.472 410.699 170.831 408.709 167.783 409.154C167.549 408.264 167.408 407.679 167.197 406.883C165.416 406.883 163.564 406.883 161.923 406.883C161.408 406.368 160.939 406.11 160.822 405.736C160.001 403.301 159.837 400.398 158.384 398.502C156.485 396.043 157.446 393.632 157.352 391.268C157.282 389.324 158.056 387.358 158.548 385.415C160.259 378.485 162.884 371.907 166.26 365.633C168.323 361.77 170.643 358.024 173.198 354.466C175.683 350.977 178.59 347.817 181.403 344.399C180.629 343.907 179.809 343.345 178.941 342.83C170.549 337.867 163.213 331.64 156.415 324.734C153.203 321.48 153.18 317.102 152.242 313.052C151.867 311.436 152.172 309.657 152.172 307.948C153.883 304.67 157.352 304.39 160.704 303.055C161.83 305.045 163.002 307.082 164.314 309.399C164.549 309.236 164.947 308.931 165.65 308.416C166.096 308.861 166.869 309.282 167.08 309.891C168.416 313.684 171.511 315.627 174.816 317.266C181.52 320.613 188.294 323.844 195.514 327.332C197.202 325.553 198.889 322.814 201.327 321.456C203.577 320.192 203.695 316.587 207.211 316.938C206.718 316.329 206.367 315.884 205.851 315.252C206.929 314.503 208.031 313.73 209.555 312.677C210.047 311.624 210.774 310.008 211.477 308.416C212.555 308.346 213.587 308.299 215.04 308.205C214.431 307.41 214.102 306.988 213.587 306.356C216.306 305.958 216.47 303.149 218.181 301.65C219.986 300.059 221.252 297.858 222.963 295.681C223.338 295.962 223.736 296.243 224.487 296.804C224.815 296.032 225.119 295.283 225.518 294.37C225.987 294.744 226.409 295.095 227.182 295.704C228.026 291.233 230.558 287.627 233.277 284.397C236.066 281.072 238.574 277.233 243.122 275.009C243.685 275.477 244.458 276.109 245.325 276.811C243.52 280.276 241.786 283.694 238.082 285.497C238.082 287.229 238.082 288.821 238.082 290.6C238.949 290.39 239.84 290.437 240.028 290.085C240.778 288.704 241.294 287.206 241.575 286.504C244.622 283.999 247.083 281.962 250.224 279.387C250.412 281.775 250.506 283.32 250.623 284.818C249.662 285.216 248.935 285.497 248.185 285.825C248.373 286.106 248.631 286.621 248.748 286.597C250.295 286.269 251.842 285.871 253.717 285.403C254.256 286.34 254.913 287.487 255.569 288.634C255.217 289.032 254.795 289.477 254.35 289.992C254.608 291.841 256.835 293.48 255.124 295.587C254.631 295.142 254.186 294.721 253.717 294.323C253.506 294.721 253.108 295.142 253.178 295.4C253.412 296.149 253.858 296.828 254.35 297.811C253.998 301.042 251.397 303.219 249.006 305.396C246.732 307.456 244.224 309.282 241.294 311.624C242.489 312.326 243.544 312.911 244.716 313.59C243.989 314.995 243.544 315.861 243.075 316.751C243.356 317.055 243.755 317.5 244.388 318.202C243.005 318.436 241.833 318.623 240.145 318.881C240.614 320.051 240.989 321.035 241.458 322.182C240.004 322.182 238.574 322.182 237.191 322.182C236.394 323.797 235.715 325.202 235.058 326.56C235.668 327.215 236.09 327.683 236.699 328.339C235.386 328.573 234.214 328.807 232.527 329.111C232.949 330.188 233.324 331.172 233.769 332.342C232.667 332.506 231.495 332.67 229.972 332.904C230.417 334.121 230.792 335.105 231.402 336.72C229.737 336.065 228.518 335.596 227.065 335.034C226.385 336.345 225.682 337.68 224.979 338.991C225.213 339.459 225.307 339.974 225.612 340.115C226.127 340.396 226.807 340.349 227.323 340.63C229.268 341.73 229.737 344.258 231.659 345.335C233.746 346.506 234.636 348.519 235.949 350.298C237.145 351.914 238.012 353.272 237.895 355.308C237.848 356.011 238.481 356.736 238.856 357.626C238.528 358.211 238.035 359.007 237.379 360.131C235.644 360.318 234.402 362.636 231.237 361.419C225.729 359.288 220.009 357.369 214.032 356.666C213.704 356.619 213.423 356.104 212.883 355.542C211.125 357.509 209.391 359.476 207.211 361.934C207.187 362.168 207.07 363.174 206.929 364.251C205.711 364.439 204.539 364.626 202.71 364.907C203.906 366.592 204.82 367.857 206.156 369.729C204.632 369.285 203.624 369.004 202.359 368.629C202.101 368.934 201.562 369.566 200.976 370.268C201.726 372.305 201.116 373.569 198.725 374.927C197.999 377.502 197.319 379.983 196.733 382.044C195.654 382.442 195.045 382.676 194.271 382.957C194.904 383.589 195.186 383.87 195.678 384.361C193.779 385.813 191.576 387.007 190.099 388.786C188.763 390.378 188.2 392.625 187.169 394.896C187.263 395.06 187.685 395.669 188.364 396.675C186.958 398.127 185.575 399.555 184.239 400.913C184.755 401.568 185.13 402.037 185.809 402.856C184.872 403.933 183.934 404.986 182.926 406.157C182.926 407.281 182.926 408.545 182.926 409.879C181.309 411.331 179.762 412.806 178.59 413.929Z" fill="#0C090A"/>
    <path d="M320.969 371.906C320.664 368.91 324.884 368.605 322.891 365.819C322.376 366.264 321.93 366.662 321.485 367.083C321.344 366.943 321.063 366.803 321.039 366.639C320.571 363.502 320.758 360.552 322.985 358C325.423 355.191 327.861 352.381 330.205 349.502C330.955 348.589 331.4 347.442 332.127 346.178C330.978 343.158 329.384 340.044 328.001 336.93C326.525 333.606 326.548 329.977 324.954 326.676C324.11 324.92 326.337 321.854 325.798 319.7C325.212 317.288 323.782 315.252 325.868 313.004C325.915 306.683 330.228 302.727 333.979 298.349C337.542 298.349 341.105 298.349 344.621 298.349C345.254 298.934 345.863 299.52 346.871 300.479C345.254 302.54 343.636 304.6 341.831 306.894C342.042 307.315 342.511 308.345 343.144 309.703C343.753 309.703 344.902 310.054 345.301 309.633C347.082 307.877 349.145 308.603 351.02 308.392C351.7 309.891 352.286 311.131 352.919 312.536C351.958 313.73 350.973 314.971 349.473 316.844C351.747 317.125 353.27 317.335 355.286 317.593C355.286 319.442 355.286 321.432 355.286 323.703C359.599 323.843 360.068 318.623 363.702 318.646C365.342 316.141 367.757 314.385 369.937 312.396C372.445 310.078 374.812 307.643 377.18 305.185C379.36 302.914 381.563 300.667 383.509 298.232C385.525 295.704 387.236 292.964 388.408 291.302C391.057 290.366 392.534 289.827 394.385 289.172C394.995 290.038 395.979 290.904 396.237 291.958C396.425 292.754 395.792 293.831 395.347 294.72C394.854 295.704 394.174 296.617 394.174 298.349C396.026 297.553 397.902 296.78 399.964 295.914C401.066 298.045 402.238 300.315 404.02 303.78C404.02 303.71 403.926 304.974 404.043 306.192C404.16 307.151 404.559 308.065 404.91 309.282C404.652 309.727 404.184 310.546 403.762 311.295C404.418 311.998 404.84 312.442 405.215 312.864C401.511 318.787 398.183 324.92 394.104 330.656C390.705 335.479 391.174 335.806 388.666 337.164C389.064 337.609 389.463 338.054 389.791 338.405C384.728 344.071 379.712 349.689 374.625 355.378C374.625 356.01 374.625 356.853 374.625 357.485C378.633 360.037 382.501 362.495 386.533 365.07C385.947 366.217 385.595 366.92 385.033 368.02C386.556 369.331 387.588 371.859 390.565 370.923C391.221 372.21 391.737 373.264 392.276 374.294C391.901 374.809 391.432 375.465 390.799 376.331C392.393 377.923 393.846 379.374 395.393 380.919C394.807 382.441 394.292 383.752 393.729 385.18C394.128 385.882 394.62 386.725 395.089 387.521C394.854 388.013 394.784 388.505 394.503 388.692C393.87 389.113 392.956 389.183 392.487 389.698C389.744 392.789 389.252 392.976 385.783 391.782C381.306 390.26 376.5 389.347 372.398 387.123C366.913 384.127 361.99 380.123 356.341 376.214C353.974 377.97 351.301 380.381 348.723 383.12C346.238 385.765 342.957 387.872 338.409 389.23C339.206 387.919 339.534 387.357 340.261 386.187C337.401 386.725 335.01 387.17 332.619 387.615C332.479 387.334 332.338 387.076 332.221 386.796C333.651 385.672 335.104 384.548 336.534 383.424C335.526 382.418 334.94 381.832 334.307 381.2C333.065 381.2 331.775 381.2 329.947 381.2C329.361 379.749 328.728 378.11 327.954 376.19C326.384 376.19 324.532 376.19 322.657 376.19C321.93 374.317 321.274 372.679 320.969 371.906Z" fill="#0C090A"/>
    <path d="M348.701 246.611C346.498 247.126 344.575 247.594 341.833 248.249C339.02 246.189 335.691 243.614 332.222 241.179C328.097 238.3 324.51 234.624 319.822 232.587C318.744 232.119 317.595 231.768 316.071 231.23C314.243 228.49 314.032 223.387 308.641 223.949C306.203 221.725 305.898 217.862 302.359 217.487C301.187 215.497 300.46 213.227 298.936 211.822C291.951 205.36 286.888 197.565 282.551 188.2C282.176 185.297 282.176 181.434 281.543 177.572C280.559 171.485 283.817 166.241 289.091 162.846C290.545 161.91 291.295 159.873 293.732 160.084C295.42 160.224 297.202 159.335 299.452 158.796C300.108 159.381 300.999 160.154 302.101 161.161C300.296 164.181 296.897 166.1 296.639 170.15C300.647 171.485 302.452 167.037 306.484 166.522C306.976 166.967 307.844 167.739 308.664 168.465C307.234 170.619 306.273 172.047 304.492 174.716C307.258 173.849 309.203 173.826 309.93 172.889C311.758 170.478 314.712 169.518 316.447 166.826C318.041 164.321 320.666 162.472 323.362 160.716C327.159 158.258 330.23 154.723 333.793 151.866C339.02 147.653 343.919 143.064 349.756 139.552C352.053 138.171 353.764 135.76 355.686 133.77C357.421 131.944 360.187 131.148 360.726 128.432C363.75 128.432 366.446 128.432 369.329 128.432C369.329 130.001 369.329 131.429 369.329 133.981C369.094 134.215 368.274 135.034 367.266 136.041C368.415 135.83 369.54 135.666 370.665 135.432C371.79 135.174 372.915 134.823 374.626 134.355C374.369 138.475 374.556 142.128 377.556 144.796C376.924 145.639 376.572 146.131 375.845 147.091C376.76 147.582 377.814 148.168 379.783 149.244C377.767 149.806 377.064 149.994 376.127 150.251C376.478 151.071 376.97 151.82 377.135 152.662C377.299 153.482 377.181 154.348 377.181 155.191C374.814 158.445 372.446 161.699 369.845 165.258C369.376 165.304 368.368 165.421 366.868 165.585C367.313 166.194 367.594 166.592 367.946 167.084C367.571 167.997 367.149 169.003 366.657 170.15C361.031 169.869 360.984 175.675 357.515 177.923C358.241 178.883 358.616 179.374 358.78 179.585C356.46 181.903 354.139 184.22 351.772 186.585C351.959 186.749 351.655 186.491 351.795 186.608C350.74 187.662 349.662 188.739 348.584 189.816C348.232 189.535 347.881 189.277 347.529 188.996C347.529 190.003 347.529 191.01 347.529 192.367C346.779 191.759 346.357 191.408 345.396 190.612C345.607 192.04 345.747 192.999 345.958 194.334C344.364 196.394 342.442 198.876 340.356 201.568C339.418 200.889 338.786 200.421 338.223 199.999C335.926 202.692 333.558 205.454 331.191 208.217C332.105 208.661 332.949 209.083 334.191 209.691C333.043 211.143 332.058 212.384 331.12 213.578C331.261 214.093 331.261 214.584 331.519 214.842C335.41 219.196 340.028 223.106 343.075 227.975C346.427 233.454 350.693 239.142 348.701 246.611Z" fill="#0C090A"/>
    <path d="M63.5426 82.172C61.9486 82.3593 60.9875 82.4763 59.7921 82.6402C60.5187 83.4596 60.9407 83.9278 61.6204 84.6536C60.0265 87.6033 57.026 89.3592 54.9867 91.9578C55.2914 92.2621 55.5962 92.5665 55.9947 92.9644C54.3772 94.2286 52.7364 95.5162 51.3534 96.5931C50.5798 98.6065 52.2207 100.877 49.525 102.118C51.916 103.71 54.096 105.138 56.2291 106.613C62.9331 111.248 70.1294 115.228 75.6614 121.456C78.8259 125.037 81.8263 128.479 81.8732 133.606C81.8732 134.472 82.764 135.315 83.4672 136.579C81.5451 137.796 79.7401 138.944 77.4664 140.372C64.7146 132.904 51.5175 126.255 39.4221 116.492C38.5547 116.984 36.656 117.405 36.3044 118.365C34.9214 122.205 32.2023 124.92 29.4363 127.659C29.1081 127.987 29.2253 128.807 29.1316 129.392C27.9361 129.532 26.9516 129.626 25.4045 129.79C25.7092 130.797 25.9436 131.663 26.389 133.161C23.9277 135.221 22.0994 138.288 21.1148 142.081C20.5523 144.281 18.4426 146.107 16.5439 148.753C16.5439 152.733 16.5439 157.555 16.5439 162.635C15.325 162.706 14.317 162.776 13.1919 162.846C12.9575 163.548 12.6762 164.274 12.3715 165.164C10.9884 165.164 9.582 165.164 7.96459 165.164C7.28481 163.174 6.55815 161.114 5.76116 158.773C4.54225 159.311 3.32333 159.85 1.84656 160.482C1.54183 159.545 1.30742 158.819 1.07302 158.094C0.697966 157.953 0.322914 157.602 -0.0052557 157.672C-2.70094 158.187 -4.55276 155.893 -4.90437 154.442C-6.26393 148.519 -10.0848 142.666 -6.40458 136.321C-6.33425 130.024 -2.41965 125.225 -0.216223 119.747C0.51044 117.967 3.62806 118.272 2.78419 115.181C2.43258 113.917 4.75321 111.904 5.87837 110.242C6.90976 108.743 7.87083 107.198 9.06631 105.817C10.4493 104.225 12.137 102.867 13.52 101.252C14.6686 99.9175 15.5594 98.349 16.6845 96.6868C8.92566 90.8575 4.16719 82.57 -1.27106 74.8678C-3.00567 67.3997 -6.02952 60.1423 -4.85749 51.41C-3.05255 49.3499 -0.75536 46.7044 1.70592 43.8717C4.44848 44.4336 7.51922 42.748 10.0274 45.5807C8.38653 47.7813 6.76912 49.982 5.12826 52.1826C5.57364 52.6508 5.99557 53.119 6.41751 53.5404C9.88673 54.2662 11.1525 49.2094 14.7858 50.3799C15.325 51.4334 15.8641 52.4635 16.4267 53.5638C15.3015 54.2662 14.0357 55.0855 12.6996 55.9517C13.52 56.7711 14.1295 57.3798 14.7155 57.9651C16.5205 56.0922 18.2785 56.0688 20.4116 58.6206C20.2241 60.0487 21.3258 62.1088 19.1927 63.771C20.0835 64.1924 20.9508 64.6138 22.1931 65.1991C21.1617 66.5569 20.271 67.7743 19.3333 69.0151C20.2007 69.3194 20.9273 69.5769 22.4978 70.1388C21.068 70.5133 20.3882 70.7006 19.2161 71.0284C19.3333 72.0585 19.0989 73.4865 19.685 74.2825C22.1228 77.56 24.8419 80.6737 27.7251 84.1853C29.3191 82.7573 30.538 81.7038 31.7335 80.6035C38.7188 74.0952 44.579 66.276 53.2521 61.664C53.2052 59.2527 55.7134 59.44 56.8151 58.1524C58.034 56.7009 59.3936 55.3665 60.2843 54.43C61.9017 54.43 62.8862 54.43 64.574 54.43C62.6284 57.2862 59.2998 58.9015 60.3781 63.0453C63.1441 61.3831 65.8632 59.7677 69.1683 57.8012C68.8636 59.6975 68.6527 61.149 68.3948 62.8112C69.5434 63.3964 71.278 64.2626 73.1298 65.1991C72.661 66.1823 72.2625 67.0017 71.7937 67.9616C72.4501 68.102 73.0361 68.2191 73.6455 68.3361C73.7159 68.5937 73.9503 69.0151 73.8331 69.1555C72.286 71.2625 70.1997 73.112 69.1918 75.4297C67.8791 78.4497 65.1365 79.7607 63.5426 82.172Z" fill="#0C090A"/>
    <path d="M180.231 147.348C185.318 141.097 189.631 135.924 193.827 130.656C197.812 125.67 201.234 120.285 204.328 114.784C203.93 114.292 203.555 113.824 202.898 113.004C203.977 111.787 205.055 110.57 206.18 109.259C207.61 109.259 209.04 109.259 210.399 109.259C211.97 110.827 213.236 113.075 215.041 113.66C217.244 114.362 217.549 116.118 218.44 117.429C221.51 121.971 223.667 126.606 221.299 132.529C219.846 136.181 218.369 139.81 216.846 143.438C216.4 144.539 216.049 145.686 215.486 147.348C214.736 148.097 213.54 149.291 212.251 150.579C212.251 152.194 212.251 153.88 212.251 154.605C209.72 159.171 207.633 162.987 205.313 167.154C208.501 169.308 211.431 171.391 214.455 173.334C220.432 177.174 225.378 181.973 228.332 188.528C228.964 189.933 229.269 191.525 229.925 193.725C229.691 194.217 229.152 195.458 228.519 196.815C227.206 197.424 225.776 198.08 224.675 198.595C221.674 197.565 219.002 196.792 216.471 195.738C213.939 194.685 211.501 193.351 209.016 192.133C208.594 188.434 204.375 189.933 202.64 187.404C201.211 185.344 198.046 184.478 195.257 182.862C186.935 191.361 179.598 200.631 172.847 210.394C172.332 211.143 172.496 212.36 172.355 213.367C169.425 215.614 166.518 215.287 163.612 213.226C163.612 212.407 163.612 211.564 163.612 211.19C159.838 208.919 156.275 206.812 152.407 204.494C150.555 202.317 151.493 198.899 150.274 196.277C148.938 193.327 150.063 190.494 149.547 188.317C153.767 178.906 158.783 170.665 165.956 163.548C165.956 162.331 165.956 160.903 165.956 159.194C161.807 156.314 159.252 151.82 156.626 147.418C155.759 145.943 155.618 144.024 155.22 142.268C154.399 138.733 153.181 135.315 153.298 131.569C153.509 124.382 157.587 119.255 164.456 116.68C168.792 115.064 172.988 115.884 177.653 115.416C175.145 120.589 169.144 120.145 165.628 124.499C171.675 124.242 175.355 118.529 181.544 119.63C181.309 121.081 181.075 122.533 180.817 124.054C181.942 124.452 183.607 125.038 185.201 125.599C185.201 128.643 185.201 131.171 185.201 133.7C183.56 136.556 181.755 139.435 180.278 142.455C179.833 143.462 180.231 144.867 180.231 147.348Z" fill="#0C090A"/>
    <path d="M288.271 67.8684C285.88 70.865 283.7 73.604 281.285 76.624C281.285 79.0354 281.285 81.7276 281.285 84.8179C279.035 85.7309 276.855 86.5971 274.37 87.5804C271.44 84.7476 270.268 80.9785 269.331 77.4434C268.088 77.9117 266.963 78.3096 265.322 78.9183C264.033 77.0688 262.462 75.4301 261.619 73.487C259.087 67.6577 259.298 61.4304 259.556 55.5542C260.611 53.1429 261.572 50.9891 262.744 48.2734C260.986 48.0159 259.415 48.25 258.759 47.5945C254.633 43.4273 250.555 39.19 246.757 34.6951C244.718 32.2837 242.561 29.5447 241.764 26.5949C240.569 22.2873 240.545 17.6519 239.983 12.8527C241.928 10.1136 243.499 6.9297 245.984 4.70567C248.257 2.66892 251.492 1.73248 254.985 -0.0467529C255.805 0.842862 256.602 1.68566 257.399 2.55186C256.93 2.99667 250.695 9.01328 250.695 9.01328C251.141 9.45809 251.609 9.9263 252.266 10.5818C255.125 8.49824 257.962 5.78257 262.627 7.5618C261.478 9.13033 260.564 10.3711 258.993 12.5249C261.126 11.7055 262.322 11.2373 263.963 10.5818C264.736 11.7524 265.58 13.0165 266.588 14.5383C264.83 16.2941 263.447 17.6753 261.759 19.3609C262.837 19.5716 263.424 19.7121 264.385 19.8994C262.931 22.3341 263.752 25.7053 260.025 26.9695C263.728 31.5346 267.854 34.0396 272.05 36.8021C286.138 25.12 299.921 13.7189 313.891 2.13046C315.579 2.13046 317.572 2.13046 320.056 2.13046C318.978 4.28427 318.111 6.01668 317.243 7.7725C319.095 9.17715 320.572 7.60862 322.213 6.88288C326.948 11.3075 328.073 16.8091 327.089 22.9662C325.12 25.4946 323.104 28.0932 321.041 30.7152C321.181 30.8323 321.486 31.1132 322.33 31.9092C321.181 32.0496 320.103 32.1901 319.001 32.3306C319.423 32.7988 319.869 33.2436 320.291 33.7118C319.447 33.7118 318.603 33.7118 317.923 33.7118C313.54 41.9525 306.133 47.5477 300.718 55.0392C308.148 59.1829 316.47 62.2497 324.323 66.9319C324.557 68.1025 324.838 69.4603 325.143 71.0288C326.104 69.9988 326.831 69.2496 327.534 68.5005C330.698 68.9219 330.628 72.5505 333.3 73.885C335.621 75.0555 336.981 78.1458 338.785 80.4166C338.785 82.9216 338.785 85.45 338.785 88.0018C338.176 88.6104 337.567 89.2191 336.723 90.0619C330.136 89.3596 324.698 85.6138 318.697 82.5938C318.58 82.7109 318.134 83.1089 317.947 83.2728C313.751 82.2427 311.243 77.7478 306.414 78.4033C304.164 75.5003 300.46 75.2896 297.553 73.5806C294.623 71.9653 291.787 70.0924 288.271 67.8684Z" fill="#0C090A"/>
    <path d="M89.9598 235.444C90.6864 236.169 91.2959 236.778 92.1398 237.621C88.2252 240.969 84.334 244.293 80.4428 247.617C80.5366 247.852 80.6304 248.062 80.7007 248.296C81.5211 248.062 82.5291 248.039 83.1385 247.524C84.2637 246.587 85.1544 245.37 86.7015 245.066C89.4206 243.521 92.1632 241.975 94.812 240.477C97.1326 242.35 95.4449 243.825 94.437 246.096C95.9606 245.51 96.9451 245.159 98 244.738C98.4688 245.206 99.0548 245.791 99.6642 246.4C99.6642 248.952 99.6642 251.504 99.6642 254.079C98.9141 254.805 98.164 255.554 97.3671 256.326C97.4843 256.631 97.5077 257.029 97.7421 257.192C99.1954 258.269 100.649 259.393 102.172 260.353C103.813 261.383 106.134 261.687 106.181 264.356C106.181 264.661 106.696 265.012 107.048 265.246C108.361 266.159 109.908 266.861 110.963 268.008C112.041 269.155 112.627 270.724 113.729 272.573C113.729 273.65 113.729 275.359 113.729 277.045C112.674 278.098 111.619 279.152 110.728 280.042C102.665 277.162 94.6948 274.329 86.725 271.473C84.9435 272.41 83.0448 273.44 81.1461 274.446C81.0757 274.306 80.982 274.189 80.9117 274.048C79.2474 275.711 77.6065 277.349 75.4734 279.48C75.45 279.971 75.3796 280.978 75.3093 282.219C71.9573 285.449 68.4412 288.821 65.6049 291.536C64.175 295.938 64.9016 300.479 59.018 301.392C57.7991 299.449 53.4391 299.145 54.4236 294.603C53.2047 294.252 51.7279 293.831 50.1105 293.362C49.7355 293.596 49.0791 294.041 48.5634 294.392C46.9226 292.66 45.4927 291.138 43.383 288.914C42.9142 284.934 42.3282 279.831 41.6953 274.47C47.0164 268.734 52.2436 263.092 57.7757 257.099C55.5957 255.741 53.3688 254.594 51.4467 253.072C49.4542 251.48 47.7899 249.514 45.9381 247.664C46.4538 246.002 46.9695 244.316 47.5321 242.49C46.5007 242.139 45.7506 241.882 44.8129 241.554C44.8129 240.196 44.8129 238.768 44.8129 237.246C45.1645 236.895 45.6334 236.427 46.1491 235.912C47.9774 235.537 49.8996 235.163 52.2671 234.695C58.5726 238.23 65.4877 242.092 72.2151 245.862C79.013 243.38 83.3729 237.457 89.9598 235.444Z" fill="#0C090A"/>
</svg>
