<svg width="60" height="69" viewBox="0 0 60 69" fill="none" xmlns="http://www.w3.org/2000/svg">
<path fill-rule="evenodd" clip-rule="evenodd" d="M30.3362 5.21328C53.4132 5.21328 54.9516 11.3466 54.9516 11.3466V31.74C54.9523 42.8166 48.9597 53.0328 39.2747 58.466L30.3362 63.4799L21.3978 58.466C11.7128 53.0328 5.7202 42.8166 5.72085 31.74V11.3466C5.72085 11.3466 5.72085 5.21328 30.3362 5.21328ZM30.3362 0.613281C19.3978 0.613281 11.4593 1.80928 6.73624 4.17061C1.52085 6.77728 1.10547 10.3039 1.10547 11.3466V31.74C1.12988 44.4542 8.01896 56.1711 19.1362 62.4066L28.0747 67.4206C29.4791 68.2074 31.1934 68.2074 32.5978 67.4206L41.5362 62.4066C52.6535 56.1711 59.5426 44.4542 59.567 31.74V11.3466C59.5671 10.9693 59.5206 10.5933 59.4285 10.2273C58.5209 6.63928 53.5516 0.613281 30.3362 0.613281Z" fill="black"/>
<path fill-rule="evenodd" clip-rule="evenodd" d="M28.8006 42.7794C28.1888 42.7789 27.6022 42.5362 27.1698 42.1047L16.4006 31.3714C15.5534 30.4652 15.5784 29.053 16.4572 28.1771C17.336 27.3012 18.7529 27.2763 19.6621 28.1207L28.8006 37.2287L44.0929 21.9874C45.0022 21.143 46.4191 21.1679 47.2979 22.0438C48.1767 22.9197 48.2017 24.3318 47.3545 25.2381L30.4314 42.1047C29.999 42.5362 29.4124 42.7789 28.8006 42.7794Z" fill="black"/>
</svg>
