<svg width="20" height="22" viewBox="0 0 20 22" fill="none" xmlns="http://www.w3.org/2000/svg">
<path fill-rule="evenodd" clip-rule="evenodd" d="M18.3027 6.62355L17.6803 5.54346C17.1537 4.62954 15.9868 4.31426 15.0716 4.83866V4.83866C14.636 5.09528 14.1161 5.16809 13.6268 5.04103C13.1374 4.91396 12.7187 4.59746 12.4629 4.16131C12.2984 3.88409 12.21 3.56833 12.2066 3.24598V3.24598C12.2215 2.72916 12.0265 2.22834 11.6661 1.85761C11.3057 1.48688 10.8106 1.2778 10.2936 1.27802H9.03956C8.53303 1.27801 8.04738 1.47985 7.69006 1.83888C7.33275 2.19791 7.13324 2.68453 7.13567 3.19106V3.19106C7.12066 4.23686 6.26854 5.07675 5.22263 5.07664C4.90027 5.07329 4.58452 4.98488 4.3073 4.82035V4.82035C3.39213 4.29595 2.22518 4.61123 1.6986 5.52516L1.03041 6.62355C0.504473 7.53633 0.815463 8.70255 1.72606 9.23225V9.23225C2.31797 9.57398 2.68259 10.2055 2.68259 10.889C2.68259 11.5725 2.31797 12.204 1.72606 12.5457V12.5457C0.81662 13.0719 0.50529 14.2353 1.03041 15.1453V15.1453L1.66199 16.2345C1.90871 16.6797 2.32267 17.0082 2.81226 17.1474C3.30185 17.2865 3.8267 17.2248 4.27068 16.976V16.976C4.70714 16.7213 5.22725 16.6515 5.7154 16.7821C6.20355 16.9128 6.6193 17.233 6.87023 17.6716C7.03476 17.9488 7.12317 18.2646 7.12652 18.5869V18.5869C7.12652 19.6435 7.98302 20.5 9.03956 20.5H10.2936C11.3465 20.5 12.2016 19.6491 12.2066 18.5961V18.5961C12.2042 18.088 12.4049 17.6 12.7642 17.2407C13.1235 16.8814 13.6115 16.6806 14.1197 16.6831C14.4412 16.6917 14.7557 16.7797 15.035 16.9393V16.9393C15.9478 17.4653 17.114 17.1543 17.6437 16.2437V16.2437L18.3027 15.1453C18.5578 14.7074 18.6278 14.1859 18.4973 13.6963C18.3667 13.2067 18.0463 12.7893 17.6071 12.5366V12.5366C17.1678 12.2839 16.8474 11.8665 16.7169 11.3769C16.5863 10.8872 16.6563 10.3658 16.9114 9.9279C17.0773 9.63827 17.3174 9.39814 17.6071 9.23225V9.23225C18.5122 8.70283 18.8225 7.54343 18.3027 6.63271V6.63271V6.62355Z" stroke="#ECECEC" stroke-width="1.5" stroke-linecap="round" stroke-linejoin="round"/>
<circle cx="9.67113" cy="10.889" r="2.63616" stroke="#ECECEC" stroke-width="1.5" stroke-linecap="round" stroke-linejoin="round"/>
</svg>
