<svg viewBox="0 0 22 22" fill="none" xmlns="http://www.w3.org/2000/svg">
<path fill-rule="evenodd" clip-rule="evenodd" d="M17.5769 13.9699C16.4392 13.9706 15.3628 14.4962 14.6477 15.3999L8.30458 12.1604C8.47261 11.5007 8.46144 10.8067 8.27228 10.1529L14.7338 6.58344C15.9919 8.07077 18.1448 8.35128 19.7282 7.23416C21.3115 6.11704 21.8167 3.96104 20.9002 2.23273C19.9837 0.504414 17.9397 -0.241183 16.1587 0.503112C14.3776 1.24741 13.4315 3.24257 13.9638 5.13144L7.50228 8.70094C6.46349 7.47891 4.78739 7.05091 3.3078 7.62985C1.82822 8.2088 0.861056 9.67108 0.88746 11.2892C0.913863 12.9074 1.9282 14.3359 3.42585 14.8642C4.9235 15.3925 6.5847 14.9077 7.58305 13.6509L13.9261 16.8904C13.5328 18.4851 14.1745 20.1588 15.5234 21.0566C16.8723 21.9543 18.6305 21.8779 19.8998 20.8663C21.1691 19.8547 21.6693 18.1314 21.1447 16.5766C20.6202 15.0219 19.1868 13.9791 17.5769 13.9809V13.9699ZM17.5769 1.86994C18.7664 1.86994 19.7307 2.85492 19.7307 4.06994C19.7307 5.28497 18.7664 6.26994 17.5769 6.26994C16.3874 6.26994 15.423 5.28497 15.423 4.06994C15.423 2.85492 16.3874 1.86994 17.5769 1.86994ZM4.65382 13.4199C3.46428 13.4199 2.49997 12.435 2.49997 11.2199C2.49997 10.0049 3.46428 9.01994 4.65382 9.01994C5.84335 9.01994 6.80766 10.0049 6.80766 11.2199C6.80766 12.435 5.84335 13.4199 4.65382 13.4199ZM17.5769 20.0199C16.3874 20.0199 15.423 19.035 15.423 17.8199C15.423 16.6049 16.3874 15.6199 17.5769 15.6199C18.7664 15.6199 19.7307 16.6049 19.7307 17.8199C19.7307 19.035 18.7664 20.0199 17.5769 20.0199Z" fill="#ECECEC"/>
</svg>
