<svg width="254" height="49" viewBox="0 0 254 49" fill="none" xmlns="http://www.w3.org/2000/svg">
<rect x="1" y="1" width="252" height="47" rx="23.5" fill="white" stroke="white" stroke-width="2"/>
<path d="M69.1647 26.94C69.5607 28.992 71.2347 30.18 73.5747 30.18C75.8607 30.18 77.5167 28.902 77.5167 26.832C77.5167 25.176 76.3827 24.168 74.6547 23.772L72.7287 23.322C71.7387 23.088 71.2707 22.62 71.2707 21.882C71.2707 20.964 72.0807 20.352 73.2687 20.352C74.5827 20.352 75.2847 21 75.5727 21.828H77.4447C77.0487 19.992 75.6447 18.768 73.2507 18.768C71.0187 18.768 69.4887 20.172 69.4887 22.044C69.4887 23.826 70.7127 24.654 72.2427 25.014L74.1147 25.464C75.2667 25.734 75.7167 26.184 75.7167 26.958C75.7167 27.984 74.8707 28.596 73.5747 28.596C72.3687 28.596 71.4327 28.074 71.0727 26.94H69.1647ZM80.9668 22.008H79.1668V30H80.9668V22.008ZM81.1828 19.596C81.1828 18.984 80.6608 18.498 80.0668 18.498C79.4728 18.498 78.9508 18.984 78.9508 19.596C78.9508 20.208 79.4728 20.694 80.0668 20.694C80.6608 20.694 81.1828 20.208 81.1828 19.596ZM88.3762 29.46C88.3762 30.954 87.7462 31.764 86.4142 31.764C85.4242 31.764 84.7942 31.314 84.6142 30.432H82.8682C83.0662 32.178 84.3802 33.24 86.4142 33.24C88.5382 33.24 90.1762 32.034 90.1762 29.334V22.008H88.3762V22.656C88.0162 22.224 87.2422 21.828 86.3422 21.828C83.9842 21.828 82.6342 23.772 82.6342 25.878C82.6342 27.984 83.9842 29.928 86.3422 29.928C87.2422 29.928 88.0162 29.532 88.3762 29.1V29.46ZM88.3762 27.39C88.0702 27.93 87.4042 28.344 86.6482 28.344C85.2622 28.344 84.4702 27.3 84.4702 25.878C84.4702 24.456 85.2622 23.412 86.6482 23.412C87.4042 23.412 88.0702 23.826 88.3762 24.366V27.39ZM92.4031 30H94.2031V24.744C94.4011 23.952 95.1031 23.466 95.8771 23.466C96.9031 23.466 97.3891 24.114 97.3891 25.104V30H99.1891V24.798C99.1891 23.034 98.1811 21.828 96.3631 21.828C95.4271 21.828 94.6351 22.26 94.2031 22.764V22.008H92.4031V30ZM107.088 22.008H105.288V30H107.088V22.008ZM107.304 19.596C107.304 18.984 106.782 18.498 106.188 18.498C105.594 18.498 105.072 18.984 105.072 19.596C105.072 20.208 105.594 20.694 106.188 20.694C106.782 20.694 107.304 20.208 107.304 19.596ZM109.313 30H111.113V24.744C111.311 23.952 112.013 23.466 112.787 23.466C113.813 23.466 114.299 24.114 114.299 25.104V30H116.099V24.798C116.099 23.034 115.091 21.828 113.273 21.828C112.337 21.828 111.545 22.26 111.113 22.764V22.008H109.313V30ZM127.796 22.008H126.158L124.754 27.678L123.206 22.008H121.406L123.728 30H125.528L126.95 24.438L128.372 30H130.172L132.494 22.008H130.748L129.2 27.678L127.796 22.008ZM135.74 22.008H133.94V30H135.74V22.008ZM135.956 19.596C135.956 18.984 135.434 18.498 134.84 18.498C134.246 18.498 133.724 18.984 133.724 19.596C133.724 20.208 134.246 20.694 134.84 20.694C135.434 20.694 135.956 20.208 135.956 19.596ZM138.38 27.84C138.38 29.424 139.388 30.18 140.81 30.18C141.368 30.18 141.854 30.072 142.16 29.892V28.254C141.908 28.434 141.494 28.578 141.134 28.578C140.54 28.578 140.18 28.29 140.18 27.642V23.502H141.98V22.008H140.18V19.866H138.38V22.008H137.12V23.502H138.38V27.84ZM143.995 30H145.795V24.744C145.993 23.952 146.695 23.466 147.469 23.466C148.495 23.466 148.981 24.114 148.981 25.104V30H150.781V24.798C150.781 23.034 149.773 21.828 147.955 21.828C147.019 21.828 146.227 22.26 145.795 22.764V18.3H143.995V30ZM164.512 25.896C164.278 27.444 163.27 28.524 161.596 28.524C159.544 28.524 158.284 26.814 158.284 24.474C158.284 22.134 159.562 20.46 161.524 20.46C163 20.46 163.738 21.216 164.188 22.404H166.06C165.628 20.208 164.062 18.768 161.524 18.768C158.644 18.768 156.394 21.072 156.394 24.474C156.394 27.876 158.626 30.18 161.596 30.18C164.296 30.18 166.294 28.218 166.294 25.158V24.294H162.1V25.896H164.512ZM175.256 26.004C175.256 23.556 173.708 21.828 171.458 21.828C169.208 21.828 167.66 23.556 167.66 26.004C167.66 28.452 169.208 30.18 171.458 30.18C173.708 30.18 175.256 28.452 175.256 26.004ZM173.456 26.004C173.456 27.516 172.754 28.632 171.458 28.632C170.162 28.632 169.46 27.516 169.46 26.004C169.46 24.492 170.162 23.376 171.458 23.376C172.754 23.376 173.456 24.492 173.456 26.004ZM184.027 26.004C184.027 23.556 182.479 21.828 180.229 21.828C177.979 21.828 176.431 23.556 176.431 26.004C176.431 28.452 177.979 30.18 180.229 30.18C182.479 30.18 184.027 28.452 184.027 26.004ZM182.227 26.004C182.227 27.516 181.525 28.632 180.229 28.632C178.933 28.632 178.231 27.516 178.231 26.004C178.231 24.492 178.933 23.376 180.229 23.376C181.525 23.376 182.227 24.492 182.227 26.004ZM190.945 29.46C190.945 30.954 190.315 31.764 188.983 31.764C187.993 31.764 187.363 31.314 187.183 30.432H185.437C185.635 32.178 186.949 33.24 188.983 33.24C191.107 33.24 192.745 32.034 192.745 29.334V22.008H190.945V22.656C190.585 22.224 189.811 21.828 188.911 21.828C186.553 21.828 185.203 23.772 185.203 25.878C185.203 27.984 186.553 29.928 188.911 29.928C189.811 29.928 190.585 29.532 190.945 29.1V29.46ZM190.945 27.39C190.639 27.93 189.973 28.344 189.217 28.344C187.831 28.344 187.039 27.3 187.039 25.878C187.039 24.456 187.831 23.412 189.217 23.412C189.973 23.412 190.639 23.826 190.945 24.366V27.39ZM196.771 18.3H194.971V30H196.771V18.3ZM203.929 27.516C203.731 28.29 203.083 28.668 202.219 28.668C201.067 28.668 200.257 27.822 200.203 26.418H205.657V25.77C205.657 23.43 204.433 21.828 202.183 21.828C200.005 21.828 198.439 23.628 198.439 26.022C198.439 28.488 199.987 30.18 202.219 30.18C204.145 30.18 205.315 29.1 205.585 27.516H203.929ZM202.201 23.34C203.299 23.34 203.857 24.132 203.875 25.104H200.257C200.473 23.952 201.211 23.34 202.201 23.34Z" fill="#787878"/>
<g clip-path="url(#clip0)">
<path d="M36.001 25.2988C36.001 24.4151 35.9279 23.5266 35.7719 22.6572H23.2617V27.6633H30.4257C30.1285 29.2778 29.1732 30.7061 27.7746 31.6137V34.8619H32.0486C34.5584 32.5977 36.001 29.2539 36.001 25.2988Z" fill="#4285F4"/>
<path d="M23.2585 38.0001C26.8357 38.0001 29.8524 36.8489 32.0503 34.8618L27.7763 31.6136C26.5871 32.4065 25.052 32.8555 23.2634 32.8555C19.8033 32.8555 16.8694 30.5675 15.8167 27.4912H11.4062V30.8397C13.6578 35.2296 18.2437 38.0001 23.2585 38.0001V38.0001Z" fill="#34A853"/>
<path d="M15.8165 27.491C15.2609 25.8764 15.2609 24.1281 15.8165 22.5136V19.165H11.4109C9.52971 22.8384 9.52971 27.1661 11.4109 30.8395L15.8165 27.491V27.491Z" fill="#FBBC04"/>
<path d="M23.2585 17.1445C25.1495 17.1158 26.977 17.8132 28.3465 19.0934L32.1331 15.3819C29.7354 13.175 26.553 11.9617 23.2585 11.9999C18.2437 11.9999 13.6578 14.7704 11.4062 19.1651L15.8119 22.5136C16.8597 19.4326 19.7984 17.1445 23.2585 17.1445V17.1445Z" fill="#EA4335"/>
</g>
<defs>
<clipPath id="clip0">
<rect width="26" height="26" fill="white" transform="translate(10 12)"/>
</clipPath>
</defs>
</svg>
