<svg width="254" height="49" viewBox="0 0 254 49" fill="none" xmlns="http://www.w3.org/2000/svg">
<rect x="1" y="1" width="252" height="47" rx="23.5" fill="#1877F2" stroke="#1877F2" stroke-width="2"/>
<path d="M52.1114 24.474C52.1114 27.876 54.2894 30.18 57.1334 30.18C59.6174 30.18 61.2194 28.74 61.6334 26.508H59.7974C59.3654 27.696 58.6094 28.488 57.1334 28.488C55.1714 28.488 54.0014 26.778 54.0014 24.474C54.0014 22.152 55.1894 20.46 57.1334 20.46C58.6094 20.46 59.3654 21.252 59.7974 22.422H61.6334C61.2194 20.208 59.6354 18.768 57.1334 18.768C54.2894 18.768 52.1114 21.072 52.1114 24.474ZM70.446 26.004C70.446 23.556 68.898 21.828 66.648 21.828C64.398 21.828 62.85 23.556 62.85 26.004C62.85 28.452 64.398 30.18 66.648 30.18C68.898 30.18 70.446 28.452 70.446 26.004ZM68.646 26.004C68.646 27.516 67.944 28.632 66.648 28.632C65.352 28.632 64.65 27.516 64.65 26.004C64.65 24.492 65.352 23.376 66.648 23.376C67.944 23.376 68.646 24.492 68.646 26.004ZM72.1267 30H73.9267V24.744C74.1247 23.952 74.8267 23.466 75.6007 23.466C76.6267 23.466 77.1127 24.114 77.1127 25.104V30H78.9127V24.798C78.9127 23.034 77.9047 21.828 76.0867 21.828C75.1507 21.828 74.3587 22.26 73.9267 22.764V22.008H72.1267V30ZM81.4529 27.84C81.4529 29.424 82.4609 30.18 83.8829 30.18C84.4409 30.18 84.9269 30.072 85.2329 29.892V28.254C84.9809 28.434 84.5669 28.578 84.2069 28.578C83.6129 28.578 83.2529 28.29 83.2529 27.642V23.502H85.0529V22.008H83.2529V19.866H81.4529V22.008H80.1929V23.502H81.4529V27.84ZM88.8681 22.008H87.0681V30H88.8681V22.008ZM89.0841 19.596C89.0841 18.984 88.5621 18.498 87.9681 18.498C87.3741 18.498 86.8521 18.984 86.8521 19.596C86.8521 20.208 87.3741 20.694 87.9681 20.694C88.5621 20.694 89.0841 20.208 89.0841 19.596ZM91.0935 30H92.8935V24.744C93.0915 23.952 93.7935 23.466 94.5675 23.466C95.5935 23.466 96.0795 24.114 96.0795 25.104V30H97.8795V24.798C97.8795 23.034 96.8715 21.828 95.0535 21.828C94.1175 21.828 93.3255 22.26 92.8935 22.764V22.008H91.0935V30ZM106.648 22.008H104.848V27.264C104.65 28.056 103.966 28.542 103.192 28.542C102.166 28.542 101.698 27.894 101.698 26.904V22.008H99.8976V27.21C99.8976 28.974 100.888 30.18 102.706 30.18C103.642 30.18 104.416 29.748 104.848 29.244V30H106.648V22.008ZM113.815 27.516C113.617 28.29 112.969 28.668 112.105 28.668C110.953 28.668 110.143 27.822 110.089 26.418H115.543V25.77C115.543 23.43 114.319 21.828 112.069 21.828C109.891 21.828 108.325 23.628 108.325 26.022C108.325 28.488 109.873 30.18 112.105 30.18C114.031 30.18 115.201 29.1 115.471 27.516H113.815ZM112.087 23.34C113.185 23.34 113.743 24.132 113.761 25.104H110.143C110.359 23.952 111.097 23.34 112.087 23.34ZM126.768 22.008H125.13L123.726 27.678L122.178 22.008H120.378L122.7 30H124.5L125.922 24.438L127.344 30H129.144L131.466 22.008H129.72L128.172 27.678L126.768 22.008ZM134.712 22.008H132.912V30H134.712V22.008ZM134.928 19.596C134.928 18.984 134.406 18.498 133.812 18.498C133.218 18.498 132.696 18.984 132.696 19.596C132.696 20.208 133.218 20.694 133.812 20.694C134.406 20.694 134.928 20.208 134.928 19.596ZM137.351 27.84C137.351 29.424 138.359 30.18 139.781 30.18C140.339 30.18 140.825 30.072 141.131 29.892V28.254C140.879 28.434 140.465 28.578 140.105 28.578C139.511 28.578 139.151 28.29 139.151 27.642V23.502H140.951V22.008H139.151V19.866H137.351V22.008H136.091V23.502H137.351V27.84ZM142.967 30H144.767V24.744C144.965 23.952 145.667 23.466 146.441 23.466C147.467 23.466 147.953 24.114 147.953 25.104V30H149.753V24.798C149.753 23.034 148.745 21.828 146.927 21.828C145.991 21.828 145.199 22.26 144.767 22.764V18.3H142.967V30ZM157.831 30V25.518H162.673V23.88H157.831V20.604H163.015V18.948H155.959V30H157.831ZM170.656 30V24.762C170.656 22.944 169.468 21.828 167.452 21.828C165.814 21.828 164.554 22.854 164.32 24.222H166.048C166.246 23.664 166.696 23.358 167.416 23.358C168.442 23.358 168.946 23.988 168.946 24.798V25.446C168.622 25.212 167.812 24.96 167.092 24.96C165.328 24.96 163.978 26.022 163.978 27.534C163.978 29.172 165.328 30.144 166.966 30.144C167.866 30.144 168.676 29.82 168.946 29.55V30H170.656ZM168.946 27.876C168.748 28.38 168.028 28.686 167.308 28.686C166.498 28.686 165.652 28.344 165.652 27.534C165.652 26.742 166.498 26.4 167.308 26.4C168.028 26.4 168.748 26.706 168.946 27.21V27.876ZM172.221 26.004C172.221 28.488 173.787 30.18 175.947 30.18C177.855 30.18 179.061 29.1 179.295 27.498H177.495C177.351 28.218 176.757 28.614 175.965 28.614C174.759 28.614 174.021 27.516 174.021 26.004C174.021 24.492 174.759 23.394 175.965 23.394C176.757 23.394 177.351 23.79 177.495 24.51H179.295C179.061 22.908 177.855 21.828 175.947 21.828C173.787 21.828 172.221 23.52 172.221 26.004ZM185.832 27.516C185.634 28.29 184.986 28.668 184.122 28.668C182.97 28.668 182.16 27.822 182.106 26.418H187.56V25.77C187.56 23.43 186.336 21.828 184.086 21.828C181.908 21.828 180.342 23.628 180.342 26.022C180.342 28.488 181.89 30.18 184.122 30.18C186.048 30.18 187.218 29.1 187.488 27.516H185.832ZM184.104 23.34C185.202 23.34 185.76 24.132 185.778 25.104H182.16C182.376 23.952 183.114 23.34 184.104 23.34ZM191.015 29.316C191.375 29.766 192.167 30.18 193.049 30.18C195.389 30.18 196.757 28.308 196.757 26.004C196.757 23.718 195.389 21.828 193.049 21.828C192.167 21.828 191.375 22.242 191.015 22.692V18.3H189.215V30H191.015V29.316ZM191.015 24.492C191.321 23.862 192.005 23.43 192.743 23.43C194.129 23.43 194.957 24.528 194.957 26.004C194.957 27.48 194.129 28.578 192.743 28.578C192.005 28.578 191.321 28.146 191.015 27.516V24.492ZM205.516 26.004C205.516 23.556 203.968 21.828 201.718 21.828C199.468 21.828 197.92 23.556 197.92 26.004C197.92 28.452 199.468 30.18 201.718 30.18C203.968 30.18 205.516 28.452 205.516 26.004ZM203.716 26.004C203.716 27.516 203.014 28.632 201.718 28.632C200.422 28.632 199.72 27.516 199.72 26.004C199.72 24.492 200.422 23.376 201.718 23.376C203.014 23.376 203.716 24.492 203.716 26.004ZM214.288 26.004C214.288 23.556 212.74 21.828 210.49 21.828C208.24 21.828 206.692 23.556 206.692 26.004C206.692 28.452 208.24 30.18 210.49 30.18C212.74 30.18 214.288 28.452 214.288 26.004ZM212.488 26.004C212.488 27.516 211.786 28.632 210.49 28.632C209.194 28.632 208.492 27.516 208.492 26.004C208.492 24.492 209.194 23.376 210.49 23.376C211.786 23.376 212.488 24.492 212.488 26.004ZM221.153 30H223.331L219.803 25.464L223.205 22.008H220.901L217.769 25.284V18.3H215.969V30H217.769V27.354L218.507 26.598L221.153 30Z" fill="white"/>
<path fill-rule="evenodd" clip-rule="evenodd" d="M40 23.4944C40 15.489 33.511 9 25.5056 9C17.5002 9 11 15.489 11 23.4944C11 30.7416 16.3072 36.7401 23.2311 37.8216V27.6867H19.5517V23.4944H23.2311V20.2945C23.2311 16.6597 25.3941 14.6528 28.7055 14.6528C30.2887 14.6528 31.95 14.9316 31.95 14.9316V18.4994H30.1215C28.3264 18.4994 27.7578 19.6144 27.7578 20.7628V23.4944H31.7828L31.1361 27.6867H27.7578V37.8216C34.6928 36.7401 40 30.7416 40 23.4944Z" fill="#1977F3"/>
<path fill-rule="evenodd" clip-rule="evenodd" d="M31.1469 27.6867L31.7936 23.4945H27.7686V20.774C27.7686 19.6256 28.3261 18.5107 30.1323 18.5107H31.9608V14.9428C31.9608 14.9428 30.2995 14.6641 28.7163 14.6641C25.4049 14.6641 23.2419 16.671 23.2419 20.3057V23.4945H19.5625V27.6867H23.2419V37.8217C23.9777 37.9332 24.7359 38.0001 25.5052 38.0001C26.2745 38.0001 27.0327 37.9443 27.7686 37.8217V27.6867H31.1469Z" fill="#FEFEFE"/>
</svg>
