<svg width="26" height="26" viewBox="0 0 26 26" fill="none" xmlns="http://www.w3.org/2000/svg">
<g clip-path="url(#clip0)">
<path d="M26.001 13.2988C26.001 12.4151 25.9279 11.5266 25.7719 10.6572H13.2617V15.6633H20.4257C20.1285 17.2778 19.1732 18.7061 17.7746 19.6137V22.8619H22.0486C24.5584 20.5977 26.001 17.2539 26.001 13.2988Z" fill="#4285F4"/>
<path d="M13.2585 26.0001C16.8357 26.0001 19.8524 24.8489 22.0503 22.8618L17.7763 19.6136C16.5871 20.4065 15.052 20.8555 13.2634 20.8555C9.80325 20.8555 6.86942 18.5675 5.81675 15.4912H1.40625V18.8397C3.6578 23.2296 8.24374 26.0001 13.2585 26.0001V26.0001Z" fill="#34A853"/>
<path d="M5.8165 15.491C5.26092 13.8764 5.26092 12.1281 5.8165 10.5136V7.16504H1.41087C-0.470291 10.8384 -0.470291 15.1661 1.41087 18.8395L5.8165 15.491V15.491Z" fill="#FBBC04"/>
<path d="M13.2585 5.14449C15.1495 5.11583 16.977 5.81324 18.3465 7.09341L22.1331 3.38186C19.7354 1.17499 16.553 -0.0383147 13.2585 -0.000100508C8.24374 -0.000100508 3.6578 2.77043 1.40625 7.16507L5.81187 10.5136C6.85967 7.43257 9.79838 5.14449 13.2585 5.14449V5.14449Z" fill="#EA4335"/>
</g>
<defs>
<clipPath id="clip0">
<rect width="26" height="26" fill="white"/>
</clipPath>
</defs>
</svg>
