<svg width="29" height="29" viewBox="0 0 29 29" fill="none" xmlns="http://www.w3.org/2000/svg">
<path fill-rule="evenodd" clip-rule="evenodd" d="M29 14.4944C29 6.48904 22.511 0 14.5056 0C6.50019 0 0 6.48904 0 14.4944C0 21.7416 5.30719 27.7401 12.2311 28.8216V18.6867H8.55171V14.4944H12.2311V11.2945C12.2311 7.65975 14.3941 5.65283 17.7055 5.65283C19.2887 5.65283 20.95 5.93156 20.95 5.93156V9.49942H19.1215C17.3264 9.49942 16.7578 10.6144 16.7578 11.7628V14.4944H20.7828L20.1361 18.6867H16.7578V28.8216C23.6928 27.7401 29 21.7416 29 14.4944Z" fill="#1977F3"/>
<path fill-rule="evenodd" clip-rule="evenodd" d="M20.1469 18.6867L20.7936 14.4945H16.7686V11.774C16.7686 10.6256 17.3261 9.51066 19.1323 9.51066H20.9608V5.9428C20.9608 5.9428 19.2995 5.66406 17.7163 5.66406C14.4049 5.66406 12.2419 7.67098 12.2419 11.3057V14.4945H8.5625V18.6867H12.2419V28.8217C12.9777 28.9332 13.7359 29.0001 14.5052 29.0001C15.2745 29.0001 16.0327 28.9443 16.7686 28.8217V18.6867H20.1469Z" fill="#FEFEFE"/>
</svg>
