<svg width="695" height="576" viewBox="0 0 695 576" fill="none" xmlns="http://www.w3.org/2000/svg">
<path d="M176.878 232.503C175.792 232.086 175.283 230.729 175.911 229.748C177.383 227.446 179.165 225.341 179.997 222.899C183.665 211.647 193.247 207.664 202.806 205.221C209.351 203.252 215.896 201.283 223.407 201.894C239.933 203.138 251.847 211.511 259.663 225.994C263.579 232.722 266.994 239.443 268.389 247.166C269.319 252.314 270.735 258.496 269.166 263.098C263.392 281.512 253.158 296.273 234.511 303.22C229.75 305.098 224.548 306.512 219.744 307.906C219.182 308.069 218.646 308.321 218.076 308.449C218.05 308.455 218.025 308.46 218 308.465C216.887 308.686 215.878 307.858 214.871 307.337C201.985 300.663 189.755 292.885 182.702 279.944C179.273 274.25 176.36 267.535 177.471 259.845C178.453 252.238 176.005 244.194 178.78 236.511C179.338 234.965 178.411 233.092 176.878 232.503ZM201.706 262.99C201.842 269.088 206.785 274.917 212.881 275.13C215.313 275.216 217.632 275.167 219.872 274.78C229.933 272.344 243.763 251.466 243.414 240.676C243.436 239.136 242.971 236.562 241.976 236.035C239.811 234.664 237.549 233.389 235.275 232.17C230.464 229.589 223.061 229.836 217.653 230.601C215.214 230.946 213.098 231.931 212.403 235.649C212.06 237.878 208.652 237.886 206.699 239.182C204.014 240.963 204.537 245.303 203.391 248.313C201.582 253.066 201.596 258.021 201.706 262.99Z" fill="#793DFA"/>
<path d="M481.964 118.075C481.137 119.64 481.686 121.863 483.36 122.434C484.724 122.899 485.319 124.301 484.881 125.674C483.989 128.466 483.225 131.094 482.336 133.682C481.868 135.041 480.564 135.914 479.137 136.079C478.442 136.16 477.705 136.267 476.924 136.389C475.536 136.607 474.813 138.088 475.616 139.24C476.098 139.931 476.087 140.931 475.534 141.566C471.116 146.649 465.753 150.587 458.263 150.009C456.258 149.983 454.246 150.47 452.226 151.471C446.684 153.453 441.17 153.381 435.693 150.741C434.178 149.94 431.793 149.127 430.512 149.234C429.88 149.287 429.506 149.905 429.072 150.368C424.228 155.547 419.993 147.517 415.164 148.932C413.152 149.42 411.227 143.745 406.716 143.686C404.21 143.653 402.256 140.032 399.771 138.459C399.095 138.101 398.523 137.586 397.992 137.009C394.715 133.453 390.265 129.221 387.043 125.615C384.374 122.628 381.249 119.973 379.525 116.623C372.188 103.687 372.449 85.2008 378.637 72.9552C384.303 62.2435 394.879 58.7864 403.793 66.607C406.367 68.7159 408.613 70.4783 411.123 70.8152C414.691 71.2941 420.149 71.2668 422.316 68.3898C424.372 64.8214 427.881 64.8672 430.881 65.42C441.871 68.1317 452.354 71.3503 461.282 78.1438C467.412 82.8795 472.146 90.0384 477.211 96.4815C479.222 99.0393 479.961 102.471 480.842 105.604C481.968 109.609 484.31 113.637 481.964 118.075ZM395.294 104.667C395.346 108.386 396.245 112.376 399.196 114.637C410.116 123.002 425.432 127.429 438.532 127.153C445.557 126.731 451.106 124.235 455.683 119.673C456.955 118.152 458.35 116.76 459.808 115.37C462.417 112.88 461.957 109.315 460.891 105.873C458.987 98.6579 455.042 93.984 447.03 93.3657C443.529 92.8063 440.049 90.7065 436.555 89.6336C434.523 89.1894 431.506 88.0529 430.172 88.1927C429.69 88.2433 429.418 88.7285 429.104 89.0977C425.846 92.9209 424.388 85.5419 420.014 89.4175C418.348 91.0786 416.03 93.1723 413.345 95.5578C410.729 97.8811 406.514 97.8035 403.81 95.5885C401.548 93.7353 398.375 93.3588 396.729 95.7793C395.002 98.3198 395.25 101.429 395.294 104.667Z" fill="#793DFA"/>
<path d="M529.476 436.381C528.921 435.198 529.377 433.52 530.528 432.899C533.72 431.178 537.378 429.297 542.302 430.513C543.282 430.755 543.814 431.634 543.198 432.434C542.465 433.386 542.819 434.895 543.998 435.118C545.836 435.466 547.78 435.864 548.633 436.399C548.955 436.6 549.072 436.985 549.168 437.352C551.325 445.646 560.474 447.906 563.303 455.983C568.127 469.4 571.948 482.803 564.728 497.09C563.704 498.617 563.195 499.124 564.169 501.191C567.089 507.393 564.024 511.462 558.968 514.477C558.664 514.628 558.397 514.779 558.164 514.931C554.413 517.373 557.517 523.628 554.743 527.14C552.558 529.907 550.337 532.672 548.174 535.439C546.209 537.952 543.196 539.438 540.008 539.396C538.123 539.371 536.236 539.347 534.257 539.321C531.563 539.286 528.993 538.169 527.206 536.155C525.152 533.837 523.025 531.356 520.665 528.871C517.708 525.237 513.728 523.131 511.279 518.99C505.395 509.668 504.029 499.892 506.68 489.655C508.292 481.972 512.411 474.321 514.524 466.645C515.599 461.523 517.161 457.434 522.217 454.419C524.236 453.418 525.798 449.33 525.841 446.249C525.885 443.148 527.336 441.529 528.922 439.828C529.831 438.854 530.041 437.585 529.476 436.381Z" fill="#793DFA"/>
<path d="M713.505 12.1304C713.17 9.72812 710.005 9.13987 708.671 11.1674C707.618 12.7681 705.599 12.7594 704.11 11.557C704.059 11.5164 704.012 11.4818 703.968 11.4538C703.837 11.3712 703.673 11.3842 703.52 11.4042C694.544 12.5757 691.076 3.74286 685.16 -0.207643C684.649 -0.548711 684.225 -0.811178 684.02 -1.39036C683.419 -3.0914 684.325 -4.89512 685.36 -6.37481C688.153 -10.3693 684.952 -13.6026 683.131 -17.056C682.566 -18.1266 680.913 -18.4452 679.937 -17.7264C679.407 -17.3354 678.651 -17.3808 678.224 -17.8818C678.146 -17.973 678.101 -18.0825 678.103 -18.2391C678.691 -24.3946 675.277 -31.1161 681.364 -36.1726C682.882 -37.18 682.424 -40.2676 683.456 -42.3085C686.027 -46.8974 687.117 -53.0464 691.671 -56.0685C696.727 -59.0841 694.809 -65.2724 699.872 -68.8015C707.978 -74.8588 721.054 -77.7696 730.526 -74.0506C744.488 -68.7321 753.351 -57.317 758.182 -44.4138C762.04 -33.5777 763.878 -21.7408 761.707 -9.95628C760.61 -3.29375 754.53 1.24923 749.46 5.29183C748.523 5.91366 746.644 5.54468 744.52 5.0396C742.384 4.53159 740.613 6.08628 741.216 8.19774C741.321 8.56472 741.508 8.93679 741.707 9.26222C742.789 11.0287 743.05 13.0025 741.092 13.7101C740.59 13.8915 740.064 14.0108 739.537 14.0994C737.211 14.4912 736.424 12.6761 736.817 10.0362C736.846 9.84511 736.902 9.79786 736.843 9.61379C736.316 7.95228 733.479 8.55745 732.116 9.64667C731.256 10.3341 730.351 11.0238 729.425 11.7945C728.415 12.6353 726.955 12.75 726.631 11.4775C726.277 10.0883 724.421 8.97713 723.375 9.95941C721.819 11.4216 720.22 12.8542 718.496 14.3797C716.706 15.9632 713.872 14.8412 713.552 12.4748C713.536 12.3597 713.521 12.245 713.505 12.1304ZM738.641 -40.2335C738.674 -42.0988 737.431 -43.5218 736.637 -45.2089C734.808 -50.5989 729.277 -50.0138 724.88 -51.312C724.418 -51.4482 723.979 -51.6939 723.498 -51.7065C721.54 -51.7575 718.382 -48.9434 715.445 -47.4337C714.895 -47.1507 714.335 -46.8736 713.912 -46.4212C712.379 -44.7804 710.229 -41.0155 708.467 -38.3865C706.927 -35.8386 705.365 -31.7502 703.353 -31.2629C698.835 -30.8083 699.801 -28.2277 699.263 -25.6667C698.412 -22.38 698.543 -18.8427 701.394 -17.0023C709.319 -11.885 717.165 -15.3405 725.741 -19.1575C735.782 -23.6725 738.482 -31.2258 738.641 -40.2335Z" fill="#793DFA"/>
<path d="M0.681554 189.157C1.75405 188.114 3.99291 188.418 5.0813 189.443C6.35271 190.639 7.70224 189.868 8.29508 188.224C8.59274 187.399 8.88907 186.687 9.23486 186.399C9.425 186.24 9.69419 186.243 9.9387 186.206C12.905 185.755 16.683 185.39 18.5868 186.894C25.0375 191.601 31.481 196.821 36.4064 203.049C40.8305 209.27 43.7364 216.498 45.6327 224.227C46.5772 228.348 46.0035 233.477 43.4249 238.579C38.2605 249.297 33.1179 258.475 22.5052 264.499C17.9579 267.008 12.4372 267.45 8.39118 269.965C7.39239 270.627 5.96284 271.062 4.5266 271.567C3.3582 271.978 2.02272 271.465 1.44024 270.373C0.778067 269.132 -1.00729 269.397 -2.41466 269.381C-3.13109 269.373 -3.96561 268.979 -5.12022 268.247C-9.08657 265.114 -17.4988 257.3 -20.9639 254.173C-32.3545 244.266 -25.6719 232.54 -25.0186 221.763C-25.0072 220.961 -24.5555 220.164 -23.862 219.355C-20.7356 215.709 -14.7026 215.203 -11.2446 218.53C-7.99748 221.654 -5.60048 225.309 -3.65235 229.295C-1.6458 233.402 2.94187 236.453 6.31836 233.367C9.84771 230.141 11.7004 225.15 15.0868 221.773C17.3791 219.488 11.7244 217.025 9.4321 219.311C8.61803 220.122 7.8662 220.872 7.16012 221.576C6.13366 222.599 4.65699 223.229 3.33223 222.644C1.78125 221.959 0.775623 220.741 -0.0742075 219.404C-2.85861 215.024 -6.51412 209.29 -6.6278 204.099C-6.67238 202.062 -6.62971 200.066 -6.34737 198.137C-6.22106 197.274 -5.93556 196.438 -5.47113 195.7C-3.82884 193.088 -1.55076 191.328 0.681554 189.157Z" fill="#793DFA"/>
<path d="M462.168 279.024C463.321 278.069 463.15 276.212 462.485 274.873C461.704 273.3 460.858 271.659 460.057 270.065C459.098 268.159 458.637 265.857 459.816 264.076C462.923 259.384 470.188 260.183 472.82 254.974C475.455 249.76 482.363 250.934 487.509 247.315C489.08 246.209 488.766 244.006 487.194 242.906C486.729 242.581 486.28 242.258 485.853 241.92C485.088 241.314 484.541 239.556 485.464 239.236C485.56 239.203 485.627 239.211 485.727 239.196C494.697 237.849 501.604 242.545 507.499 248.75C512.446 253.437 515.359 260.152 519.289 265.853C521.251 268.961 517.699 271.996 520.677 274.089C523.656 276.182 524.622 278.763 524.07 282.351C523.518 285.939 526.969 290.093 526.438 292.141C524.87 296.742 524.797 301.878 523.235 305.966C520.112 314.143 515.994 321.793 509.391 327.87C505.832 331.419 500.304 332.374 493.802 331.262C478.3 328.491 477.799 328.485 470.898 320.177C465.471 313.943 462.064 306.708 460.684 297.958C460.189 295.22 459.265 292.767 458.971 290.303C458.504 286.381 459.124 281.545 462.168 279.024ZM479.159 264.501C477.361 266.54 476.486 269.638 477.052 272.295C478.16 277.496 479.279 281.949 480.398 286.403C480.877 287.95 480.848 290.004 480.34 290.511C477.013 293.552 477.126 296.331 478.147 299.067C479.7 303.225 484.246 306.479 488.602 305.611C491.999 304.934 493.027 303.009 496.779 297.916C503.425 288.758 502.568 278.475 502.211 268.198C502.24 266.144 500.265 264.064 498.783 262.504C496.556 260.55 493.151 262.331 490.346 261.385C488.842 260.878 486.804 260.763 485.919 262.083C485.255 263.072 483.939 263.253 482.775 263.003C481.179 262.659 480.092 263.443 479.159 264.501Z" fill="#793DFA"/>
<path d="M76.4943 464.432C75.4034 465.484 74.0523 466.257 72.5598 466.52C61.9008 468.392 55.8166 460.803 48.3762 455.897C40.923 451.178 40.5449 442.441 38.1402 435.22C36.2295 428.518 40.3407 421.381 42.9338 415.252C44.7965 410.228 47.8482 406.039 50.3164 401.565C50.8062 400.677 50.6304 399.674 49.6729 399.342C48.3811 398.895 47.8038 397.24 48.7588 396.26C49.2191 395.788 49.6795 395.307 50.1401 394.811C51.3846 393.471 50.9306 391.399 49.1345 391.061C47.0522 390.669 45.8226 387.683 47.5096 386.399C48.1995 385.873 48.8198 385.539 49.3687 385.547C53.8725 386.119 58.9137 384.131 63.8825 387.277C76.3117 394.63 82.6611 406.526 87.4923 419.429C93.0332 436.275 89.8072 451.585 76.4943 464.432Z" fill="#793DFA"/>
<path d="M220.975 532.497C223.592 533.644 224.465 536.875 223.324 539.497C222.544 541.29 223.003 543.292 224.237 544.806C231.534 553.755 234.209 564.691 232.666 576.434C232.121 579.509 232.085 582.076 230.036 585.131C225.446 590.721 224.829 598.931 216.271 601.387C212.748 602.368 208.717 603.856 206.232 602.283C199.266 598.597 191.784 595.931 187.374 588.683C185.42 585.062 183.466 581.441 183.03 576.813C181.743 561.388 187.939 548.629 196.14 535.896C197.68 533.348 200.716 531.333 204.246 529.839C208.285 527.837 210.813 526.329 214.779 529.463C216.808 530.687 218.842 531.562 220.975 532.497Z" fill="#793DFA"/>
<path d="M630.206 228.772C626.723 230.146 620.592 226.8 618.104 224.007C616.414 222.109 614.652 220.303 612.435 219.11C609.245 217.392 605.61 215.779 603.654 212.729C602.341 210.68 601.189 208.564 600.945 206.304C599.579 196.528 601.707 187.825 611.797 183.334C612.482 182.995 613.173 182.183 613.864 181.38C614.308 180.864 613.76 179.902 613.115 179.686C612.339 179.425 612.33 178.246 612.911 177.667C614.874 175.71 616.999 173.591 618.897 171.699C619.227 171.37 619.276 170.884 618.956 170.547C618.434 169.997 618.779 168.886 619.525 168.746C620.013 168.654 620.49 168.572 620.897 168.561C620.985 168.559 621.073 168.569 621.16 168.585C626.632 169.596 633.137 165.685 637.526 171.857C643.432 179.639 647.835 187.4 649.702 197.183C652.027 210.054 639.294 224.268 630.206 228.772Z" fill="#793DFA"/>
<path d="M358.949 384.714C358.82 385.573 358.669 386.434 358.656 387.302C358.618 390.005 358.598 391.433 358.577 392.93C358.57 393.439 358.608 393.951 358.655 394.459C359.507 403.63 351.735 406.555 346.799 410.491C341.228 414.527 336.302 408.299 331.312 406.693C326.822 405.094 322.878 400.42 318.919 396.773C312.49 390.525 310.179 376.628 314.305 368.464C315.336 366.423 314.377 363.329 318.896 362.875C321.402 362.907 323.973 358.318 326.515 355.784C332.13 348.667 337.157 347.705 343.078 354.459C347.029 358.62 351.49 362.273 353.916 367.955C356.617 373.69 359.747 379.431 358.949 384.714Z" fill="#793DFA"/>
<path d="M209.86 65.1004C212.693 65.1374 215.376 66.3748 217.289 68.4626C222.273 73.9037 227.146 79.1045 229.551 86.4147C233.401 97.7638 230.808 103.893 221.692 110.45C211.058 118.015 203.562 116.377 194.678 106.502C194.012 105.802 193.446 105.206 192.935 104.668C191.809 103.482 190.922 102.037 190.864 100.402C190.752 97.2396 191.69 94.0514 190.691 91.3636C189.847 89.0949 188.033 87.1448 187.909 84.7269C187.338 73.5789 195.59 64.9139 207.795 65.0734C208.359 65.0808 209.066 65.09 209.86 65.1004Z" fill="#793DFA"/>
</svg>
