<svg width="25" height="24" viewBox="0 0 25 24" fill="none" xmlns="http://www.w3.org/2000/svg">
<path fill-rule="evenodd" clip-rule="evenodd" d="M12.9675 17.1419C12.896 17.7277 12.8749 18.3042 12.7151 18.9005C12.4605 19.7505 11.7947 20.2704 11.0763 20.2494C10.7355 20.2578 10.2559 20.0503 9.93295 19.7788L6.1663 16.7195H4.06787C3.056 16.7195 2.3744 16.0299 2.23661 14.8938C2.03992 13.4956 2.05885 10.9698 2.23661 9.54336C2.3744 8.55817 3.056 7.78156 4.06787 7.78156H6.1663L9.85511 4.77464C10.178 4.5011 10.7355 4.24327 11.0763 4.25061C11.7947 4.22965 12.4605 4.75054 12.7151 5.59948C12.8571 6.14237 12.896 6.77331 12.9675 7.35918C13.139 8.72901 13.139 15.772 12.9675 17.1419Z" stroke="#ECECEC" stroke-width="1.5" stroke-linecap="round" stroke-linejoin="round"/>
<path d="M16.9395 7.06049C17.8475 8.36649 18.3925 10.1185 18.3925 12.0685C18.3925 14.0185 17.8475 15.7695 16.9395 17.0755" stroke="#ECECEC" stroke-width="1.5" stroke-linecap="round" stroke-linejoin="round"/>
<path d="M20.3706 4C21.8336 6.104 22.7116 8.926 22.7116 12.068C22.7116 15.21 21.8336 18.033 20.3706 20.137" stroke="#ECECEC" stroke-width="1.5" stroke-linecap="round" stroke-linejoin="round"/>
</svg>
