<svg width="25" height="24" viewBox="0 0 25 24" fill="none" xmlns="http://www.w3.org/2000/svg">
<path fill-rule="evenodd" clip-rule="evenodd" d="M15.751 7.62448L20.6249 2.73525C20.9388 2.42158 21.4468 2.42158 21.7607 2.73525C22.0746 3.05005 22.0746 3.55947 21.7607 3.87427L4.41998 21.2642C4.26361 21.421 4.05815 21.5 3.85269 21.5C3.64723 21.5 3.44177 21.421 3.28425 21.2642C2.9715 20.9494 2.9715 20.44 3.28425 20.1252L14.1884 9.19164C14.177 7.88205 14.1496 7.67942 14.1039 7.36118L14.016 6.62053L14.0152 6.61305C13.9698 6.18611 13.923 5.74614 13.8311 5.38878C13.693 4.93088 13.3506 4.6092 12.983 4.6092H12.9625C12.813 4.61493 12.4431 4.76146 12.2148 4.95377L8.44925 8.0446C8.30543 8.16251 8.12622 8.22662 7.94131 8.22662H5.80454C5.1311 8.22662 4.81149 8.80014 4.73616 9.33817C4.55695 10.7897 4.55581 13.3024 4.73616 14.5972C4.7978 15.0379 4.49189 15.4454 4.05244 15.5061C4.01477 15.5118 3.97711 15.5141 3.94058 15.5141C3.54564 15.5141 3.20207 15.2222 3.14614 14.8204C2.92584 13.2395 2.96808 10.5505 3.14386 9.12753C3.35046 7.64279 4.44281 6.61595 5.80454 6.61595H7.65481L11.1876 3.7163C11.6145 3.35456 12.3621 3.02258 12.9591 2.99854C14.0274 3.01457 15.0182 3.75178 15.3766 4.95492C15.5079 5.45861 15.5615 5.9623 15.6129 6.44996L15.6951 7.13338C15.7179 7.29479 15.7362 7.43445 15.751 7.62448ZM14.1856 14.3444C14.1914 13.9014 14.5247 13.5545 14.9995 13.5511C15.4435 13.5579 15.7974 13.9231 15.7905 14.3684C15.7722 15.6597 15.73 16.5561 15.6615 17.1101L15.6124 17.5669L15.6116 17.5757C15.5662 18.0354 15.5191 18.5122 15.383 19.0207C15.0246 20.2227 14.0681 21.0023 12.9837 21.0023C12.9483 21.0023 12.9129 21.0023 12.8776 21.0011C12.2795 21.0011 11.6266 20.6405 11.2567 20.3269L9.85504 19.181C9.51147 18.9005 9.45896 18.3934 9.73976 18.0488C10.0206 17.7054 10.5251 17.6539 10.8698 17.9332L12.2817 19.0882C12.5192 19.2886 12.8205 19.3905 12.9164 19.3905C12.922 19.3929 12.9277 19.3924 12.9337 19.392C12.9362 19.3918 12.9388 19.3916 12.9415 19.3916C13.3513 19.3916 13.6925 19.0676 13.8387 18.5834C13.9334 18.2205 13.9733 17.8244 14.0144 17.4077C14.0304 17.244 14.0475 17.0792 14.0669 16.9144C14.1274 16.4221 14.1674 15.559 14.1856 14.3444Z" fill="#ECECEC"/>
</svg>
