<svg width="25" height="24" viewBox="0 0 25 24" fill="none" xmlns="http://www.w3.org/2000/svg">
<path fill-rule="evenodd" clip-rule="evenodd" d="M15.9397 6.4445L15.9405 6.45227L15.9879 6.8927C16.1706 8.36995 16.1706 15.6289 15.9879 17.1096L15.9405 17.5649C15.8953 18.0283 15.848 18.5077 15.7126 19.0192C15.3617 20.2201 14.4173 21 13.3465 21L13.3449 20.9999C13.3116 20.9988 13.2794 20.9977 13.2461 20.9989C12.6526 20.9989 12.0084 20.6376 11.6439 20.3245L7.87315 17.2002C7.53353 16.9192 7.48276 16.4134 7.75919 16.0682C8.03675 15.7241 8.53433 15.6713 8.87395 15.9523L12.6549 19.0869C12.8918 19.2888 13.2032 19.4138 13.2867 19.3874C13.6771 19.4161 14.0438 19.0754 14.1894 18.58C14.2849 18.2201 14.3233 17.8261 14.3638 17.4116L14.3642 17.4067C14.38 17.2415 14.3958 17.0786 14.4161 16.9123C14.5797 15.5784 14.5797 8.42042 14.4161 7.08997L14.3654 6.61973L14.3649 6.61488C14.3199 6.18859 14.2736 5.75013 14.1826 5.39021C14.0438 4.92341 13.6715 4.56901 13.3273 4.61144C13.1795 4.61603 12.814 4.76169 12.5894 4.95552L8.87508 8.04537C8.73291 8.1635 8.5569 8.22773 8.37298 8.22773H6.26645C5.60189 8.22773 5.28596 8.8012 5.21263 9.33796C5.03548 10.7911 5.03435 13.3029 5.21263 14.5967C5.27355 15.0359 4.97117 15.4431 4.5379 15.5062C4.10802 15.5589 3.70409 15.2596 3.64429 14.8192C3.42653 13.2375 3.46828 10.5503 3.64316 9.12693C3.84626 7.64509 4.92378 6.61858 6.26645 6.61858H8.09091L11.5751 3.72028C11.9937 3.35784 12.7575 3.00459 13.3194 3C14.3812 3.01835 15.3538 3.75354 15.7069 4.95667C15.8371 5.4575 15.8891 5.95834 15.9397 6.4445ZM18.5208 7.08561C18.2714 6.71859 18.3594 6.21853 18.7182 5.96391C19.0782 5.71158 19.5701 5.7999 19.8206 6.16462C20.9015 7.7451 21.4961 9.81532 21.4961 12.0002C21.4961 14.1828 20.9015 16.2554 19.8206 17.8347C19.666 18.0595 19.42 18.1788 19.1695 18.1788C19.0138 18.1788 18.8559 18.1317 18.7182 18.0343C18.3594 17.7819 18.2714 17.2796 18.5208 16.9148C19.4178 15.6028 19.9131 13.8571 19.9131 12.0002C19.9131 10.1422 19.4178 8.39656 18.5208 7.08561Z" fill="#ECECEC"/>
</svg>
