<svg width="152" height="134" viewBox="0 0 152 134" fill="none" xmlns="http://www.w3.org/2000/svg">
<path d="M36.8944 124.656C36.8944 124.656 37.2907 123.862 37.687 122.67C38.0834 121.479 38.3476 119.89 38.2155 118.301C38.0834 117.639 37.9513 116.978 37.687 116.448C37.2907 115.389 36.7622 114.594 36.2338 114.065C35.9696 113.8 35.8374 113.535 35.5732 113.403C35.4411 113.271 35.309 113.138 35.309 113.138C35.309 113.138 34.7805 113.933 34.2521 114.992C33.7236 116.051 33.1951 117.639 33.3273 119.228C33.3273 119.89 33.5915 120.552 33.8557 121.082C35.0448 123.332 36.7622 124.656 36.8944 124.656C36.7622 124.524 34.9126 123.332 32.6667 122.803C32.0061 122.67 31.3455 122.67 30.685 122.67C28.9675 122.67 27.5142 123.332 26.3252 123.994C25.2683 124.656 24.4756 125.186 24.4756 125.186C24.4756 125.186 24.6077 125.318 24.8719 125.451C25.1362 125.583 25.4004 125.848 25.7967 126.112C26.5894 126.642 27.6463 127.304 28.9675 127.569C29.6281 127.701 30.4207 127.834 31.0813 127.834C32.7988 127.701 34.2521 126.907 35.309 126.245C36.3659 125.451 36.8944 124.656 36.8944 124.656Z" fill="black"/>
<path d="M14.9624 103.474C16.1514 103.209 17.0762 102.812 17.0762 102.812C17.0762 102.812 17.8689 102.282 18.6616 101.355C19.0579 100.958 19.5864 100.296 19.9827 99.7667C20.3791 99.1047 20.7754 98.4428 21.0397 97.6484C21.3039 96.9865 21.3039 96.4569 21.436 95.795C21.5681 94.7358 21.436 93.6767 21.1718 93.0148C21.0397 92.6176 21.0397 92.3528 20.9075 92.088C20.7754 91.8232 20.7754 91.8232 20.7754 91.8232C20.7754 91.8232 19.9827 92.2204 18.9258 93.0148C18.3974 93.4119 17.8689 93.9415 17.4726 94.4711C16.9441 95.0006 16.5478 95.6626 16.2835 96.4569C16.0193 97.1189 15.8872 97.7808 15.8872 98.4428C15.8872 99.5019 16.1514 100.561 16.4156 101.355C16.6799 102.15 16.9441 102.679 17.0762 102.679C17.0762 102.547 16.6799 102.15 16.1514 101.488C15.623 100.826 14.9624 100.031 14.0376 99.3695C13.5091 98.9723 12.9807 98.5752 12.3201 98.3104C11.5274 97.9132 10.7347 97.7808 9.94203 97.6484C9.14934 97.5161 8.48876 97.516 7.82819 97.516C6.50704 97.6484 5.71436 97.9132 5.71436 97.9132C5.71436 97.9132 5.71436 98.0456 5.84647 98.3104C5.97858 98.5752 6.1107 98.9723 6.37493 99.3695C6.90339 100.164 7.56396 101.223 8.62088 102.017C9.14934 102.415 9.80991 102.812 10.4705 103.076C11.2632 103.474 12.0559 103.606 12.8485 103.606C13.6412 103.606 14.3018 103.606 14.9624 103.474Z" fill="black"/>
<path d="M20.6435 111.947C21.8326 111.55 22.6252 111.02 22.6252 111.02C22.6252 111.02 23.2858 110.358 23.9464 109.299C24.607 108.24 25.3997 106.916 25.6639 105.327C25.796 104.533 25.796 103.871 25.6639 103.077C25.5318 102.415 25.3997 101.753 25.2675 101.223C24.8712 100.164 24.4749 99.502 24.4749 99.502C24.4749 99.502 23.6822 100.032 22.8895 100.958C21.9647 101.885 21.172 103.209 20.7756 104.798C20.5114 106.386 20.9078 107.843 21.3041 108.902C21.5683 109.431 21.8326 109.961 21.9647 110.226C22.2289 110.623 22.361 110.755 22.361 110.755C22.2289 110.49 20.1151 107.975 17.0764 107.048C15.4911 106.651 13.7736 106.783 12.5845 107.048C11.3955 107.313 10.4707 107.71 10.4707 107.71C10.4707 107.71 10.9992 108.637 11.924 109.564C12.4524 110.093 12.9809 110.623 13.6415 111.02C14.302 111.417 15.0947 111.814 15.8874 112.079C17.737 112.741 19.3224 112.476 20.6435 111.947Z" fill="black"/>
<path d="M27.3816 119.625C28.4385 119.096 29.2312 118.434 29.2312 118.434C29.2312 118.434 29.7597 117.64 30.4202 116.58C30.6845 116.051 30.9487 115.389 31.2129 114.595C31.345 114.197 31.345 113.933 31.4772 113.535C31.6093 113.138 31.6093 112.741 31.6093 112.344C31.6093 111.55 31.4772 110.755 31.345 110.226C31.2129 109.564 30.9487 109.034 30.6845 108.505C30.4202 107.975 30.156 107.578 30.0239 107.313C29.8918 107.048 29.7597 106.916 29.7597 106.916C29.7597 106.916 29.0991 107.578 28.4385 108.637C27.7779 109.696 26.9853 111.152 26.9853 112.741C26.9853 113.138 26.9853 113.535 26.9853 113.933C26.9853 114.33 27.1174 114.595 27.2495 114.992C27.5137 115.654 27.7779 116.316 28.0422 116.845C28.7027 117.904 29.3633 118.566 29.4954 118.566C29.3633 118.434 28.7027 117.904 27.6458 117.242C27.1174 116.845 26.5889 116.58 25.7962 116.316C25.3999 116.183 25.1357 116.051 24.7393 115.918C24.343 115.786 23.9466 115.786 23.5503 115.654C21.8328 115.389 20.2474 115.786 19.0584 116.316C17.8693 116.713 17.0767 117.242 17.0767 117.242C17.0767 117.242 17.2088 117.507 17.473 117.772C17.7372 118.037 18.2657 118.434 18.7941 118.963C19.3226 119.361 19.9832 119.89 20.7759 120.155C21.5686 120.552 22.3612 120.817 23.1539 120.817C23.5503 120.817 23.9466 120.817 24.343 120.817C24.7393 120.817 25.1357 120.685 25.532 120.552C26.1926 120.287 26.8531 119.89 27.3816 119.625Z" fill="black"/>
<path d="M2.54401 71.8323C3.73304 73.1562 5.1863 73.8181 6.37534 74.0829C7.56437 74.3477 8.48917 74.4801 8.48917 74.4801C8.48917 74.4801 9.41397 74.3477 10.603 73.9505C11.792 73.5533 13.2453 72.759 14.3022 71.6999C14.6986 71.1703 15.0949 70.7731 15.3591 70.2436C15.8876 69.3168 16.2839 68.2577 16.4161 67.5957C16.5482 67.1986 16.5482 66.9338 16.5482 66.669C16.5482 66.4042 16.5482 66.2718 16.5482 66.2718C16.5482 66.2718 15.6234 66.2718 14.4343 66.5366C13.2453 66.8014 11.6599 67.331 10.603 68.5225C10.0745 69.052 9.6782 69.5816 9.41397 70.1112C8.88552 71.1703 8.62129 72.2294 8.62129 73.0238C8.48917 73.8181 8.62129 74.4801 8.62129 74.4801C8.62129 74.3477 8.48917 73.8181 8.35706 73.0238C8.22494 72.2294 7.96071 71.1703 7.30014 70.1112C7.03591 69.4492 6.63957 68.7873 6.24322 68.2577C5.1863 66.9338 3.73304 66.1394 2.54401 65.6099C1.35498 65.2127 0.430176 65.0803 0.430176 65.0803C0.430176 65.0803 0.430176 65.2127 0.430176 65.4775C0.430176 65.7423 0.430176 66.1395 0.430176 66.669C0.56229 67.5958 0.82652 68.7873 1.35498 69.9788C1.61921 70.6407 2.01555 71.3027 2.54401 71.8323Z" fill="black"/>
<path d="M3.60093 82.5559C4.92207 83.615 6.50745 84.1446 7.8286 84.277C9.14974 84.4093 9.94243 84.277 9.94243 84.277C9.94243 84.277 10.8672 84.0122 11.9241 83.3502C12.9811 82.6883 14.3022 81.7615 15.227 80.57C16.1518 79.2461 16.5482 77.9222 16.6803 76.8631C16.6803 76.5983 16.6803 76.3335 16.6803 76.0687C16.6803 75.8039 16.6803 75.6715 16.6803 75.4068C16.6803 75.0096 16.6803 74.8772 16.6803 74.8772C16.6803 74.8772 15.7555 75.0096 14.5664 75.4068C14.038 75.6715 13.3774 75.9363 12.7168 76.3335C12.0563 76.7307 11.5278 77.2602 10.9993 77.9222C10.4709 78.5841 10.2067 79.2461 9.94243 79.9081C9.81032 80.57 9.6782 81.232 9.6782 81.8939C9.6782 82.5559 9.6782 83.0854 9.6782 83.4826C9.6782 83.8798 9.81032 84.1446 9.81032 84.1446C9.81032 84.1446 9.6782 83.8798 9.54609 83.4826C9.41397 83.0854 9.28186 82.5559 9.01763 82.0263C8.7534 81.4967 8.48917 80.8348 8.09282 80.3052C7.69648 79.6433 7.16802 79.1137 6.63956 78.5841C5.97899 78.0546 5.31842 77.6574 4.52573 77.2602C3.86516 76.9955 3.20458 76.7307 2.54401 76.5983C1.35498 76.3335 0.430176 76.2011 0.430176 76.2011C0.430176 76.2011 0.430176 76.4659 0.56229 76.8631C0.56229 77.1278 0.694405 77.2602 0.694405 77.6574C0.82652 77.9222 0.82652 78.187 0.958634 78.5841C1.48709 79.9081 2.27978 81.4967 3.60093 82.5559Z" fill="black"/>
<path d="M10.6032 94.0739C11.9244 94.0739 12.7171 93.8092 12.7171 93.8092C12.7171 93.8092 13.5097 93.412 14.5667 92.6176C15.4915 91.8233 16.6805 90.7642 17.4732 89.3079C17.8695 88.6459 18.0016 87.8516 18.1338 87.1896C18.2659 86.5277 18.2659 85.8657 18.2659 85.3361C18.2659 85.0714 18.2659 84.8066 18.2659 84.5418C18.2659 84.277 18.2659 84.1446 18.2659 84.0122C18.2659 83.6151 18.1338 83.4827 18.1338 83.4827C18.1338 83.4827 17.209 83.7474 16.152 84.4094C15.6236 84.6742 14.963 85.0714 14.4345 85.6009C13.9061 86.1305 13.3776 86.66 12.9813 87.4544C12.5849 88.1163 12.4528 88.9107 12.3207 89.5726C12.1886 90.2346 12.1886 91.0289 12.3207 91.5585C12.4528 92.75 12.7171 93.6768 12.8492 93.8092C12.8492 93.6768 12.4528 92.8824 11.7923 91.8233C11.3959 91.2937 10.9996 90.7642 10.4711 90.2346C9.94265 89.705 9.41419 89.1755 8.75361 88.7783C8.09304 88.3811 7.30035 87.984 6.50766 87.8516C5.84709 87.4544 5.0544 87.322 4.52594 87.322C3.2048 87.1896 2.41211 87.322 2.41211 87.322C2.41211 87.322 2.41211 87.5868 2.54422 87.984C2.54422 88.2487 2.67634 88.3811 2.80845 88.6459C2.94057 88.9107 3.07268 89.1755 3.2048 89.5726C3.46903 90.2346 3.86537 90.8966 4.39383 91.5585C4.92229 92.2205 5.58286 92.75 6.24343 93.2796C7.6967 93.9415 9.28207 94.2063 10.6032 94.0739Z" fill="black"/>
<path d="M9.94273 42.309C10.3391 42.971 10.8675 43.5006 11.396 43.8977C12.3208 44.6921 13.1135 45.0892 13.1135 45.0892C13.1135 45.0892 14.0383 45.354 15.2273 45.4864C15.8879 45.4864 16.5485 45.6188 17.3412 45.4864C18.1338 45.4864 18.9265 45.2216 19.5871 44.9569C20.2477 44.6921 20.7761 44.4273 21.1725 44.0301C22.0973 43.3682 22.7578 42.7062 23.2863 42.0443C23.5505 41.7795 23.6827 41.5147 23.8148 41.3823C23.9469 41.2499 23.9469 41.1175 23.9469 41.1175C23.9469 41.1175 23.1542 40.7204 21.833 40.4556C21.1725 40.3232 20.5119 40.1908 19.7192 40.1908C18.9265 40.1908 18.266 40.3232 17.4733 40.588C16.8127 40.8527 16.2842 41.1175 15.7558 41.5147C14.831 42.1766 14.1704 43.1034 13.7741 43.7653C13.3777 44.4273 13.1135 44.9569 13.1135 45.0892C13.1135 44.9569 13.3777 44.4273 13.5098 43.6329C13.7741 42.8386 13.9062 41.7795 13.9062 40.588C13.9062 39.926 13.9062 39.2641 13.6419 38.6021C13.3777 37.8078 13.1135 37.0134 12.7171 36.3515C12.3208 35.6895 11.9244 35.1599 11.5281 34.6304C10.7354 33.7036 9.94273 33.1741 9.94273 33.1741C9.94273 33.1741 9.81061 33.3065 9.6785 33.5712C9.54638 33.836 9.41427 34.1008 9.28216 34.6304C9.01793 35.5571 8.62158 36.7486 8.62158 38.0725C8.62158 38.7345 8.7537 39.5288 8.88581 40.1908C9.15004 40.9851 9.54638 41.7795 9.94273 42.309Z" fill="black"/>
<path d="M5.18603 50.3849C5.58238 51.1793 5.97872 51.8412 6.50718 52.3708C7.03564 52.9004 7.69621 53.2975 8.22467 53.6947C9.28159 54.3567 10.2064 54.6215 10.2064 54.6215C10.2064 54.6215 11.1312 54.7538 12.3202 54.6215C12.9808 54.6215 13.6414 54.4891 14.3019 54.3567C15.0946 54.2243 15.7552 53.9595 16.4158 53.5623C17.0764 53.1652 17.6048 52.768 18.1333 52.2384C18.6617 51.7089 19.0581 51.3117 19.3223 50.7821C19.5865 50.3849 19.8508 49.8554 19.9829 49.5906C20.115 49.3258 20.2471 49.061 20.2471 49.061C20.2471 49.061 19.3223 48.7963 18.1333 48.6639C16.8121 48.5315 15.3589 48.6639 13.9056 49.4582C13.245 49.8554 12.5845 50.2526 12.1881 50.7821C11.6597 51.3117 11.3954 51.8412 10.9991 52.3708C10.3385 53.4299 10.2064 54.3567 10.2064 54.4891C10.2064 54.3567 10.3385 53.4299 10.4706 52.2384C10.4706 51.5765 10.4706 50.9145 10.3385 50.2526C10.2064 49.4582 10.0743 48.7963 9.67793 48.0019C9.01736 46.4132 7.82833 45.2217 6.90352 44.4274C5.97872 43.633 5.05392 43.2358 5.05392 43.2358C5.05392 43.2358 4.9218 43.5006 4.78969 43.8978C4.65757 44.295 4.52546 44.8245 4.39334 45.6189C4.26123 46.2808 4.26123 47.0752 4.26123 47.8695C4.65757 48.6639 4.78969 49.5906 5.18603 50.3849Z" fill="black"/>
<path d="M2.01569 58.5932C2.27992 59.3875 2.54415 60.1818 3.07261 60.9762C3.60107 61.6381 4.12953 62.3001 4.7901 62.6973C5.45068 63.0944 6.11125 63.4916 6.63971 63.7564C7.82874 64.286 8.75354 64.4184 8.75354 64.4184C8.75354 64.4184 9.67835 64.4184 10.8674 64.1536C11.528 64.0212 12.1885 63.8888 12.8491 63.4916C13.5097 63.2268 14.3024 62.8297 14.8308 62.3001C15.4914 61.7705 15.8877 61.241 16.2841 60.7114C16.6804 60.1818 16.9447 59.6523 17.2089 59.1227C17.6052 58.0636 17.8695 57.4016 17.8695 57.4016C17.8695 57.4016 16.9447 57.2692 15.7556 57.4016C14.4345 57.534 12.9812 57.7988 11.6601 58.8579C10.9995 59.3875 10.471 59.9171 10.0747 60.4466C9.67835 60.9762 9.41412 61.6381 9.14989 62.1677C8.75354 63.3592 8.62143 64.286 8.62143 64.4184C8.62143 64.286 8.62143 63.3592 8.48931 62.1677C8.48931 61.5058 8.3572 60.8438 8.09297 60.1818C7.82874 59.5199 7.56451 58.7255 7.16817 58.0636C6.24336 56.6073 4.92222 55.5482 3.8653 54.8862C2.80838 54.2243 1.88358 53.9595 1.88358 53.9595C1.88358 53.9595 1.75146 55.0186 1.75146 56.3425C1.75146 57.1369 1.88358 57.7988 2.01569 58.5932Z" fill="black"/>
<path d="M30.0238 20.7294C30.0238 20.7294 30.6843 21.3914 31.7413 22.0533C32.7982 22.7153 34.2514 23.3772 35.8368 23.5096C36.4974 23.5096 37.158 23.5096 37.6864 23.5096C38.7433 23.3772 39.6681 22.98 40.3287 22.5829C40.9893 22.3181 41.3856 21.9209 41.3856 21.9209C41.3856 21.9209 40.8572 21.259 39.8002 20.4646C38.8754 19.6703 37.4222 18.8759 35.8368 18.6111C35.1762 18.6111 34.5157 18.6111 33.8551 18.7435C32.6661 19.0083 31.7413 19.4055 31.0807 19.8027C30.5522 20.3322 30.1559 20.7294 30.0238 20.7294C30.1559 20.597 30.5522 20.1998 31.0807 19.6703C31.6091 19.0083 32.2697 18.0816 32.6661 17.0225C32.9303 16.4929 33.1945 15.8309 33.3266 15.0366C33.5909 13.3155 33.4587 11.7268 33.0624 10.5353C32.6661 9.34378 32.2697 8.54944 32.2697 8.54944C32.2697 8.54944 31.7413 8.94661 31.0807 9.60857C30.4201 10.2705 29.6274 11.1973 28.9668 12.3888C28.7026 13.0507 28.4384 13.7127 28.3063 14.3746C28.042 16.0957 28.4384 17.6844 28.9668 18.8759C29.4953 20.0674 30.0238 20.7294 30.0238 20.7294Z" fill="black"/>
<path d="M23.2854 28.0109C23.2854 28.0109 24.078 28.5405 25.2671 28.9376C26.4561 29.4672 28.0415 29.8644 29.4947 29.732C29.8911 29.732 30.2874 29.5996 30.5517 29.5996C30.948 29.4672 31.2122 29.4672 31.6086 29.3348C32.2692 29.07 32.7976 28.8052 33.3261 28.5405C33.8545 28.2757 34.2509 28.0109 34.383 27.7461C34.6472 27.4813 34.7793 27.3489 34.7793 27.3489C34.7793 27.3489 34.1188 26.687 33.0618 26.1574C32.5334 25.8926 31.8728 25.4955 31.2122 25.3631C30.8159 25.2307 30.4195 25.0983 30.1553 25.0983C29.759 25.0983 29.3626 24.9659 28.9663 25.0983C28.1736 25.0983 27.513 25.3631 26.7203 25.6279C26.0598 25.8926 25.5313 26.2898 25.0028 26.5546C23.9459 27.2165 23.2854 27.8785 23.2854 28.0109C23.4175 27.8785 23.9459 27.2165 24.4744 26.1574C24.7386 25.6279 25.0028 24.9659 25.2671 24.3039C25.5313 23.642 25.6634 22.8477 25.6634 22.0533C25.6634 21.6561 25.6634 21.259 25.6634 20.8618C25.6634 20.4646 25.5313 20.0674 25.5313 19.6703C25.3992 18.8759 25.135 18.214 24.8707 17.6844C24.3423 16.4929 23.8138 15.8309 23.8138 15.8309C23.8138 15.8309 23.6817 15.9633 23.2854 16.3605C23.0211 16.6253 22.6248 17.1548 22.2284 17.6844C21.8321 18.214 21.4358 19.0083 21.1715 19.6703C21.0394 20.0674 20.9073 20.4646 20.7752 20.8618C20.6431 21.259 20.6431 21.6561 20.6431 22.1857C20.6431 23.9068 21.3036 25.3631 21.9642 26.5546C22.6248 27.3489 23.2854 28.0109 23.2854 28.0109Z" fill="black"/>
<path d="M16.0193 34.7628C16.812 35.6896 17.6047 36.2191 17.6047 36.2191C17.6047 36.2191 18.3974 36.6163 19.5864 36.8811C20.7755 37.1459 22.3608 37.4107 23.9462 37.0135C25.3995 36.6163 26.7206 35.9544 27.5133 35.16C27.9097 34.7628 28.306 34.4981 28.4381 34.2333C28.7024 33.9685 28.8345 33.8361 28.8345 33.8361C28.8345 33.8361 28.1739 33.4389 26.9849 33.0418C25.7958 32.6446 24.2105 32.115 22.6251 32.5122C21.8324 32.6446 21.1718 32.9094 20.5112 33.3065C19.8507 33.7037 19.3222 34.1009 18.9259 34.4981C18.5295 34.8952 18.1332 35.2924 17.8689 35.6896C17.6047 35.9544 17.4726 36.2191 17.4726 36.3515C17.4726 36.3515 17.6047 36.0868 17.7368 35.6896C17.8689 35.2924 18.1332 34.8952 18.3974 34.2333C18.6616 33.7037 18.7938 33.0418 18.9259 32.2474C19.058 31.5855 19.058 30.7911 19.058 29.9968C18.9259 28.2757 18.1332 26.8194 17.4726 25.7603C16.812 24.7011 16.1515 24.0392 16.1515 24.0392C16.1515 24.0392 16.0193 24.304 15.7551 24.5687C15.4909 24.9659 15.2267 25.3631 14.9624 26.025C14.434 27.349 13.9055 28.9376 14.0376 30.6587C14.3019 32.3798 15.2267 33.7037 16.0193 34.7628Z" fill="black"/>
<path d="M37.9508 14.6394C37.9508 14.6394 38.4793 15.3013 39.5362 16.0957C40.461 16.89 41.9143 17.8167 43.3675 18.0815C44.1602 18.2139 44.8208 18.3463 45.6135 18.3463C46.274 18.3463 46.9346 18.2139 47.4631 18.0815C48.52 17.8167 49.1806 17.4196 49.1806 17.4196C49.1806 17.4196 48.6521 16.6252 47.8594 15.6985C47.0667 14.7717 45.7456 13.7126 44.1602 13.3154C43.3675 13.1831 42.7069 13.0507 41.9143 13.1831C41.2537 13.1831 40.461 13.4478 39.9325 13.5802C38.7435 14.1098 37.9508 14.507 37.9508 14.6394C38.0829 14.507 38.8756 14.1098 39.6683 13.1831C40.0646 12.7859 40.5931 12.2563 40.9895 11.5944C41.3858 10.9324 41.7821 10.2705 42.0464 9.47611C42.5748 7.88742 42.5748 6.29873 42.4427 4.97482C42.3106 3.65091 41.9143 2.85657 41.9143 2.85657C41.9143 2.85657 40.9894 3.25374 39.9325 4.18048C39.4041 4.57765 38.8756 5.2396 38.3472 5.76917C37.8187 6.43112 37.4224 7.09307 37.1581 8.01981C36.6297 9.74089 36.7618 11.3296 37.1581 12.5211C37.4224 13.845 37.9508 14.6394 37.9508 14.6394Z" fill="black"/>
<path d="M114.974 124.656C114.974 124.656 114.577 123.862 114.181 122.67C113.785 121.479 113.52 119.89 113.653 118.301C113.785 117.639 113.917 116.978 114.181 116.448C114.577 115.389 115.106 114.594 115.634 114.065C115.898 113.8 116.031 113.535 116.295 113.403C116.427 113.271 116.559 113.138 116.559 113.138C116.559 113.138 117.088 113.933 117.616 114.992C118.144 116.051 118.673 117.639 118.541 119.228C118.541 119.89 118.277 120.552 118.012 121.082C116.955 123.332 115.106 124.656 114.974 124.656C115.106 124.524 116.955 123.332 119.201 122.803C119.862 122.67 120.522 122.67 121.183 122.67C122.901 122.67 124.354 123.332 125.543 123.994C126.6 124.656 127.392 125.186 127.392 125.186C127.392 125.186 127.26 125.318 126.996 125.451C126.732 125.583 126.468 125.848 126.071 126.112C125.279 126.642 124.222 127.304 122.901 127.569C122.24 127.701 121.447 127.834 120.787 127.834C119.069 127.701 117.616 126.907 116.559 126.245C115.502 125.451 114.974 124.656 114.974 124.656Z" fill="black"/>
<path d="M137.037 103.474C135.848 103.209 134.923 102.812 134.923 102.812C134.923 102.812 134.13 102.282 133.337 101.355C132.941 100.958 132.413 100.296 132.016 99.7667C131.62 99.1047 131.224 98.4428 130.959 97.6484C130.695 96.9865 130.695 96.4569 130.563 95.795C130.431 94.7358 130.563 93.6767 130.827 93.0148C130.959 92.6176 130.959 92.3528 131.092 92.088C131.224 91.8232 131.224 91.8232 131.224 91.8232C131.224 91.8232 132.016 92.2204 133.073 93.0148C133.602 93.4119 134.13 93.9415 134.527 94.4711C135.055 95.0006 135.451 95.6626 135.716 96.4569C135.98 97.1189 136.112 97.7808 136.112 98.4428C136.112 99.5019 135.848 100.561 135.583 101.355C135.319 102.15 135.055 102.679 134.923 102.679C134.923 102.547 135.319 102.15 135.848 101.488C136.376 100.826 137.037 100.031 137.961 99.3695C138.49 98.9723 139.018 98.5752 139.679 98.3104C140.472 97.9132 141.264 97.7808 142.057 97.6484C142.85 97.5161 143.51 97.516 144.171 97.516C145.492 97.516 146.285 97.7808 146.285 97.7808C146.285 97.7808 146.285 97.9132 146.153 98.178C146.02 98.4428 145.888 98.84 145.624 99.2371C145.096 100.031 144.435 101.091 143.378 101.885C142.85 102.282 142.189 102.679 141.529 102.944C140.736 103.341 139.943 103.474 139.151 103.474C138.358 103.606 137.565 103.606 137.037 103.474Z" fill="black"/>
<path d="M131.356 111.947C130.167 111.55 129.374 111.02 129.374 111.02C129.374 111.02 128.713 110.358 128.053 109.299C127.392 108.24 126.6 106.916 126.335 105.327C126.203 104.533 126.203 103.871 126.335 103.077C126.468 102.415 126.6 101.753 126.732 101.223C127.128 100.164 127.524 99.502 127.524 99.502C127.524 99.502 128.317 100.032 129.11 100.958C130.035 101.885 130.827 103.209 131.224 104.798C131.488 106.386 131.092 107.843 130.695 108.902C130.431 109.431 130.167 109.961 130.035 110.226C129.77 110.623 129.638 110.755 129.638 110.755C129.77 110.49 131.884 107.975 134.923 107.048C136.508 106.651 138.226 106.783 139.415 107.048C140.604 107.313 141.529 107.71 141.529 107.71C141.529 107.71 141 108.637 140.075 109.564C139.547 110.093 139.018 110.623 138.358 111.02C137.697 111.417 136.905 111.814 136.112 112.079C134.13 112.741 132.545 112.476 131.356 111.947Z" fill="black"/>
<path d="M124.486 119.625C123.43 119.096 122.637 118.434 122.637 118.434C122.637 118.434 122.108 117.639 121.448 116.58C121.184 116.051 120.919 115.389 120.655 114.594C120.523 114.197 120.523 113.932 120.391 113.535C120.259 113.138 120.259 112.741 120.259 112.344C120.259 111.549 120.391 110.755 120.523 110.226C120.655 109.564 120.919 109.034 121.184 108.504C121.448 107.975 121.712 107.578 121.844 107.313C121.976 107.048 122.108 106.916 122.108 106.916C122.108 106.916 122.769 107.578 123.43 108.637C124.09 109.696 124.883 111.152 124.883 112.741C124.883 113.138 124.883 113.535 124.883 113.932C124.883 114.33 124.751 114.594 124.619 114.992C124.354 115.654 124.09 116.316 123.826 116.845C123.165 117.904 122.505 118.566 122.373 118.566C122.505 118.434 123.165 117.904 124.222 117.242C124.751 116.845 125.279 116.58 126.072 116.316C126.468 116.183 126.732 116.051 127.129 115.918C127.525 115.786 127.921 115.786 128.318 115.654C130.035 115.389 131.621 115.786 132.81 116.316C133.999 116.713 134.791 117.242 134.791 117.242C134.791 117.242 134.659 117.507 134.395 117.772C134.131 118.037 133.602 118.434 133.074 118.963C132.545 119.361 131.885 119.89 131.092 120.155C130.3 120.552 129.507 120.817 128.714 120.817C128.318 120.817 127.921 120.817 127.525 120.817C127.129 120.817 126.732 120.684 126.336 120.552C125.675 120.287 125.015 119.89 124.486 119.625Z" fill="black"/>
<path d="M149.455 71.8323C148.266 73.1562 146.813 73.8181 145.624 74.0829C144.435 74.3477 143.51 74.4801 143.51 74.4801C143.51 74.4801 142.585 74.3477 141.396 73.9505C140.207 73.5533 138.754 72.759 137.697 71.6999C137.301 71.1703 136.904 70.7731 136.64 70.2436C136.112 69.3168 135.715 68.2577 135.583 67.5957C135.451 67.1986 135.451 66.9338 135.451 66.669C135.451 66.4042 135.451 66.2718 135.451 66.2718C135.451 66.2718 136.376 66.2718 137.565 66.5366C138.754 66.8014 140.339 67.331 141.396 68.5225C141.925 69.052 142.321 69.5816 142.585 70.1112C143.114 71.1703 143.378 72.2294 143.378 73.0238C143.51 73.8181 143.378 74.4801 143.378 74.4801C143.378 74.3477 143.51 73.8181 143.642 73.0238C143.774 72.2294 144.039 71.1703 144.699 70.1112C144.963 69.5816 145.36 68.9197 145.756 68.3901C146.813 67.0662 148.266 66.2718 149.455 65.7423C150.644 65.2127 151.569 65.0803 151.569 65.0803C151.569 65.0803 151.569 65.2127 151.569 65.4775C151.569 65.7423 151.569 66.1395 151.569 66.669C151.437 67.5958 151.173 68.7873 150.644 69.9788C150.248 70.6407 149.852 71.3027 149.455 71.8323Z" fill="black"/>
<path d="M148.399 82.5557C147.078 83.6149 145.492 84.1444 144.171 84.2768C142.85 84.4092 142.057 84.2768 142.057 84.2768C142.057 84.2768 141.132 84.012 140.075 83.3501C139.019 82.6881 137.697 81.7614 136.773 80.5699C135.848 79.246 135.451 77.9221 135.319 76.8629C135.319 76.5982 135.319 76.3334 135.319 76.0686C135.319 75.8038 135.319 75.6714 135.319 75.4066C135.319 75.0095 135.319 74.8771 135.319 74.8771C135.319 74.8771 136.244 75.0095 137.433 75.4066C137.962 75.6714 138.622 75.9362 139.283 76.3334C139.943 76.7306 140.472 77.2601 141 77.9221C141.529 78.584 141.793 79.246 142.057 79.9079C142.189 80.5699 142.321 81.2318 142.321 81.8938C142.321 82.5557 142.321 83.0853 142.321 83.4825C142.321 83.8797 142.189 84.1444 142.189 84.1444C142.189 84.1444 142.321 83.8797 142.454 83.4825C142.586 83.0853 142.718 82.5557 142.982 82.0262C143.246 81.4966 143.51 80.8347 143.907 80.3051C144.303 79.6431 144.832 79.1136 145.36 78.584C146.021 78.0545 146.681 77.6573 147.474 77.2601C148.134 76.9953 148.795 76.7306 149.456 76.5982C150.645 76.3334 151.569 76.201 151.569 76.201C151.569 76.201 151.569 76.4658 151.437 76.8629C151.437 77.1277 151.305 77.2601 151.305 77.6573C151.173 77.9221 151.173 78.1869 151.041 78.584C150.38 79.9079 149.72 81.4966 148.399 82.5557Z" fill="black"/>
<path d="M141.264 94.0739C139.943 94.0739 139.15 93.8092 139.15 93.8092C139.15 93.8092 138.358 93.412 137.301 92.6176C136.376 91.8233 135.187 90.7642 134.394 89.3079C133.998 88.6459 133.866 87.8516 133.734 87.1896C133.602 86.5277 133.602 85.8657 133.602 85.3361C133.602 85.0714 133.602 84.8066 133.602 84.5418C133.602 84.277 133.602 84.1446 133.602 84.0122C133.602 83.6151 133.734 83.4827 133.734 83.4827C133.734 83.4827 134.658 83.7474 135.715 84.4094C136.244 84.6742 136.904 85.0714 137.433 85.6009C137.961 86.1305 138.49 86.66 138.886 87.4544C139.282 88.1163 139.415 88.9107 139.547 89.5726C139.679 90.2346 139.679 91.0289 139.547 91.5585C139.415 92.75 139.15 93.6768 139.018 93.8092C139.018 93.6768 139.415 92.8824 140.075 91.8233C140.339 91.2937 140.868 90.7642 141.264 90.2346C141.793 89.705 142.321 89.1755 142.982 88.7783C143.642 88.3811 144.435 87.984 145.228 87.8516C146.02 87.5868 146.681 87.4544 147.341 87.4544C148.663 87.322 149.455 87.4544 149.455 87.4544C149.455 87.4544 149.455 87.7192 149.323 88.1163C149.323 88.3811 149.191 88.5135 149.059 88.7783C148.927 89.0431 148.795 89.3079 148.663 89.705C148.398 90.367 148.002 91.029 147.474 91.6909C146.945 92.3529 146.285 92.8824 145.624 93.412C144.171 93.9416 142.585 94.2063 141.264 94.0739Z" fill="black"/>
<path d="M141.926 42.309C141.529 42.971 141.001 43.5006 140.472 43.8977C139.547 44.6921 138.755 45.0892 138.755 45.0892C138.755 45.0892 137.83 45.354 136.641 45.4864C135.98 45.4864 135.32 45.6188 134.527 45.4864C133.734 45.4864 132.942 45.2216 132.281 44.9569C131.621 44.6921 131.092 44.4273 130.696 44.0301C129.771 43.3682 129.11 42.7062 128.582 42.0443C128.318 41.7795 128.186 41.5147 128.053 41.3823C127.921 41.2499 127.921 41.1175 127.921 41.1175C127.921 41.1175 128.714 40.7204 130.035 40.4556C130.696 40.3232 131.356 40.1908 132.149 40.1908C132.942 40.1908 133.602 40.3232 134.395 40.588C135.056 40.8527 135.584 41.1175 136.112 41.5147C137.037 42.1766 137.698 43.1034 138.094 43.7653C138.491 44.4273 138.755 44.9569 138.755 45.0892C138.755 44.9569 138.491 44.4273 138.358 43.6329C138.094 42.8386 137.962 41.7795 137.962 40.588C137.962 39.926 137.962 39.2641 138.226 38.6021C138.491 37.8078 138.755 37.0134 139.151 36.3515C139.547 35.6895 139.944 35.1599 140.34 34.6304C141.133 33.7036 141.926 33.1741 141.926 33.1741C141.926 33.1741 142.058 33.3065 142.19 33.5712C142.322 33.836 142.454 34.1008 142.586 34.6304C142.85 35.5571 143.247 36.7486 143.247 38.0725C143.247 38.7345 143.115 39.5288 142.982 40.1908C142.85 40.9851 142.454 41.7795 141.926 42.309Z" fill="black"/>
<path d="M146.681 50.3848C146.284 51.1792 145.888 51.8411 145.36 52.3707C144.831 52.9002 144.171 53.2974 143.642 53.6946C142.585 54.3565 141.66 54.6213 141.66 54.6213C141.66 54.6213 140.736 54.7537 139.547 54.6213C138.886 54.6213 138.225 54.4889 137.565 54.3565C136.772 54.2242 136.112 53.9594 135.451 53.5622C134.79 53.165 134.262 52.7679 133.733 52.2383C133.205 51.7087 132.809 51.3116 132.544 50.782C132.28 50.3848 132.016 49.8553 131.884 49.5905C131.752 49.3257 131.62 49.0609 131.62 49.0609C131.62 49.0609 132.544 48.7961 133.733 48.6637C135.055 48.5314 136.508 48.6637 137.961 49.4581C138.622 49.8553 139.282 50.2524 139.679 50.782C140.207 51.3116 140.471 51.8411 140.868 52.3707C141.528 53.4298 141.66 54.3566 141.66 54.4889C141.66 54.3566 141.528 53.4298 141.396 52.2383C141.396 51.5763 141.396 50.9144 141.528 50.2524C141.66 49.4581 141.792 48.7961 142.189 48.0018C142.849 46.4131 144.038 45.2216 144.963 44.4272C145.888 43.6329 146.813 43.2357 146.813 43.2357C146.813 43.2357 146.945 43.5005 147.077 43.8977C147.209 44.2948 147.341 44.8244 147.473 45.6188C147.606 46.2807 147.606 47.0751 147.606 47.8694C147.341 48.6637 147.077 49.5905 146.681 50.3848Z" fill="black"/>
<path d="M149.852 58.5932C149.588 59.3875 149.323 60.1818 148.795 60.9762C148.266 61.6381 147.738 62.3001 147.077 62.6973C146.417 63.0944 145.756 63.4916 145.228 63.7564C144.039 64.286 143.114 64.4184 143.114 64.4184C143.114 64.4184 142.189 64.4184 141 64.1536C140.34 64.0212 139.679 63.8888 139.018 63.4916C138.358 63.2268 137.565 62.8297 137.037 62.3001C136.376 61.7705 135.98 61.241 135.583 60.7114C135.187 60.1818 134.923 59.6523 134.659 59.1227C134.262 58.0636 133.998 57.4016 133.998 57.4016C133.998 57.4016 134.923 57.2692 136.112 57.4016C137.433 57.534 138.886 57.7988 140.207 58.8579C140.868 59.3875 141.396 59.9171 141.793 60.4466C142.189 60.9762 142.453 61.6381 142.718 62.1677C143.114 63.3592 143.246 64.286 143.246 64.4184C143.246 64.286 143.246 63.3592 143.378 62.1677C143.378 61.5058 143.51 60.8438 143.775 60.1818C144.039 59.5199 144.303 58.7255 144.699 58.0636C145.624 56.6073 146.945 55.5482 148.002 54.8862C149.059 54.2243 149.984 53.9595 149.984 53.9595C149.984 53.9595 150.248 55.0186 150.248 56.3425C150.116 57.1369 149.984 57.7988 149.852 58.5932Z" fill="black"/>
<path d="M121.843 20.7294C121.843 20.7294 121.183 21.3914 120.126 22.0533C119.069 22.7153 117.616 23.3772 116.03 23.5096C115.37 23.5096 114.709 23.5096 114.181 23.5096C113.124 23.3772 112.199 22.98 111.538 22.5829C110.878 22.3181 110.481 21.9209 110.481 21.9209C110.481 21.9209 111.01 21.259 112.067 20.4646C112.992 19.6703 114.445 18.8759 116.03 18.6111C116.691 18.6111 117.351 18.6111 118.012 18.7435C119.201 19.0083 120.126 19.4055 120.786 19.8027C121.315 20.3322 121.711 20.7294 121.843 20.7294C121.711 20.597 121.315 20.1998 120.786 19.6703C120.258 19.0083 119.597 18.0816 119.201 17.0225C118.937 16.4929 118.673 15.8309 118.54 15.0366C118.276 13.3155 118.408 11.7268 118.805 10.5353C119.201 9.34378 119.597 8.54944 119.597 8.54944C119.597 8.54944 120.126 8.94661 120.786 9.60857C121.447 10.2705 122.24 11.1973 122.9 12.3888C123.164 13.0507 123.429 13.7127 123.561 14.3746C123.825 16.0957 123.429 17.6844 122.9 18.8759C122.372 20.0674 121.843 20.7294 121.843 20.7294Z" fill="black"/>
<path d="M128.714 28.0108C128.714 28.0108 127.921 28.5403 126.732 28.9375C125.543 29.4671 123.958 29.8642 122.504 29.7319C122.108 29.7319 121.712 29.5995 121.447 29.5995C121.051 29.4671 120.787 29.4671 120.39 29.3347C119.73 29.0699 119.201 28.8051 118.673 28.5403C118.145 28.2756 117.748 28.0108 117.616 27.746C117.352 27.4812 117.22 27.3488 117.22 27.3488C117.22 27.3488 117.88 26.6869 118.937 26.1573C119.466 25.8925 120.126 25.4953 120.787 25.363C121.183 25.2306 121.58 25.0982 121.844 25.0982C122.24 25.0982 122.636 24.9658 123.033 25.0982C123.825 25.0982 124.486 25.363 125.279 25.6277C125.939 25.8925 126.468 26.2897 126.996 26.5545C127.921 27.2164 128.582 27.8784 128.714 28.0108C128.582 27.8784 128.053 27.2164 127.525 26.1573C127.26 25.6277 126.996 24.9658 126.732 24.3038C126.468 23.6419 126.336 22.8475 126.336 22.0532C126.336 21.656 126.336 21.2588 126.336 20.8617C126.336 20.4645 126.468 20.0673 126.468 19.6701C126.6 18.8758 126.864 18.2138 127.128 17.6843C127.657 16.4928 128.185 15.8308 128.185 15.8308C128.185 15.8308 128.317 15.9632 128.714 16.3604C128.978 16.6252 129.374 17.1547 129.771 17.6843C130.167 18.2138 130.563 19.0082 130.828 19.6701C130.96 20.0673 131.092 20.4645 131.224 20.8617C131.356 21.2588 131.356 21.656 131.356 22.1856C131.356 23.9067 130.695 25.363 130.035 26.5545C129.374 27.3488 128.714 28.0108 128.714 28.0108Z" fill="black"/>
<path d="M135.98 34.7628C135.187 35.6895 134.395 36.2191 134.395 36.2191C134.395 36.2191 133.602 36.6163 132.413 36.881C131.224 37.1458 129.639 37.4106 128.053 37.0134C126.6 36.6163 125.279 35.9543 124.486 35.16C124.09 34.7628 123.693 34.498 123.561 34.2332C123.297 33.9684 123.165 33.836 123.165 33.836C123.165 33.836 123.958 33.3065 125.147 32.9093C126.336 32.5121 127.921 31.9826 129.507 32.3797C130.299 32.5121 130.96 32.7769 131.62 33.1741C132.281 33.5713 132.809 33.9684 133.206 34.3656C133.602 34.7628 133.998 35.16 134.263 35.5571C134.527 35.8219 134.659 36.0867 134.659 36.2191C134.659 36.2191 134.527 35.9543 134.395 35.5571C134.263 35.16 133.998 34.7628 133.734 34.1008C133.47 33.5713 133.338 32.9093 133.206 32.115C133.074 31.453 133.074 30.6587 133.074 29.8643C133.206 28.1432 133.998 26.6869 134.659 25.6278C135.32 24.5687 135.98 23.9067 135.98 23.9067C135.98 23.9067 136.112 24.1715 136.377 24.4363C136.641 24.8335 136.905 25.2306 137.169 25.8926C137.698 27.2165 138.226 28.8052 138.094 30.5263C137.566 32.3798 136.773 33.7037 135.98 34.7628Z" fill="black"/>
<path d="M114.049 14.6394C114.049 14.6394 113.52 15.3013 112.463 16.0957C111.538 16.89 110.085 17.8167 108.632 18.0815C107.839 18.2139 107.179 18.3463 106.386 18.3463C105.725 18.3463 105.065 18.2139 104.536 18.0815C103.479 17.8167 102.819 17.4196 102.819 17.4196C102.819 17.4196 103.347 16.6252 104.14 15.6985C104.933 14.7717 106.254 13.7126 107.839 13.3154C108.632 13.1831 109.292 13.0507 110.085 13.1831C110.746 13.1831 111.538 13.4478 112.067 13.5802C113.124 14.1098 113.916 14.507 114.049 14.6394C113.916 14.507 113.124 14.1098 112.331 13.1831C111.935 12.7859 111.406 12.2563 111.01 11.5944C110.614 10.9324 110.217 10.2705 109.953 9.47611C109.425 7.88742 109.425 6.29873 109.557 4.97482C109.689 3.65091 110.085 2.85657 110.085 2.85657C110.085 2.85657 111.01 3.25374 112.067 4.18048C112.595 4.57765 113.124 5.2396 113.652 5.76917C114.181 6.43112 114.577 7.09307 114.841 8.01981C115.37 9.74089 115.238 11.3296 114.841 12.5211C114.445 13.845 114.049 14.6394 114.049 14.6394Z" fill="black"/>
<path d="M46.8022 120.552L41.5176 133.924H104.933L110.217 120.552H46.8022Z" fill="#FAF17A"/>
<path d="M103.612 124.127H103.48V124.259C103.347 124.789 103.083 125.451 102.951 125.98C102.819 126.377 102.687 126.907 102.555 127.304C102.423 127.701 102.291 128.231 102.026 128.628L101.894 128.76L101.762 128.628C101.762 128.496 101.63 128.363 101.63 128.231C101.366 127.436 101.102 126.642 100.837 125.848C100.705 125.318 100.441 124.656 100.309 124.127C100.309 123.994 100.309 123.994 100.177 123.994C98.4593 123.994 96.6096 123.994 94.8922 123.994H94.6279V125.186H94.76C95.1564 125.186 95.6848 125.186 96.0812 125.186C96.2133 125.186 96.2133 125.186 96.2133 125.318C96.2133 127.039 96.2133 128.76 96.2133 130.349V130.481H97.4023V130.217C97.4023 128.496 97.4023 126.907 97.4023 125.186C97.4023 125.053 97.4023 125.053 97.5344 125.053C98.0629 125.053 98.7235 125.053 99.2519 125.053C99.3841 125.053 99.3841 125.053 99.3841 125.186C99.5162 125.715 99.7804 126.113 99.9125 126.642C100.177 127.304 100.441 128.098 100.705 128.76C100.837 129.29 101.102 129.819 101.234 130.349V130.481H102.555V130.349C102.687 130.084 102.819 129.687 102.951 129.422C103.215 128.496 103.612 127.701 103.876 126.774C104.14 126.113 104.404 125.318 104.669 124.656C104.801 124.391 104.801 124.259 104.933 123.994H104.801C104.272 124.127 104.008 124.127 103.612 124.127Z" fill="black"/>
<path d="M79.3027 127.569C79.1705 126.907 78.9063 126.377 78.3778 125.98C77.8494 125.583 77.3209 125.451 76.6604 125.451C76.264 125.451 75.7356 125.583 75.3392 125.848C74.6786 126.245 74.2823 126.907 74.1502 127.701C74.1502 127.966 74.1502 128.231 74.0181 128.363C73.8859 128.76 73.7538 129.025 73.3575 129.29C73.0933 129.422 72.6969 129.29 72.5648 129.025C72.5648 128.893 72.4327 128.76 72.4327 128.628C72.4327 127.966 72.4327 127.172 72.4327 126.51C72.4327 126.377 72.4327 126.377 72.5648 126.377C72.829 126.377 73.2254 126.377 73.4896 126.377H73.6217V125.583H73.3575C73.0933 125.583 72.829 125.583 72.5648 125.583C72.4327 125.583 72.4327 125.583 72.4327 125.451C72.4327 125.053 72.4327 124.656 72.4327 124.391V124.127H71.2437V124.391C71.2437 125.848 71.2437 127.304 71.2437 128.628C71.2437 128.76 71.2437 129.025 71.3758 129.158C71.5079 129.687 71.9042 129.952 72.3006 130.217C72.5648 130.349 72.9611 130.349 73.2254 130.217C73.7538 130.084 74.1502 129.82 74.4144 129.422C74.4144 129.422 74.4144 129.29 74.5465 129.29C74.5465 129.29 74.5465 129.29 74.5465 129.422C74.6786 129.687 74.9429 129.82 75.2071 130.084C75.8677 130.481 76.5282 130.614 77.3209 130.481C77.9815 130.349 78.51 129.952 78.9063 129.422C79.3027 128.76 79.4348 128.231 79.3027 127.569ZM77.1888 129.422C76.3961 129.687 75.4713 129.158 75.3392 128.363C75.2071 127.701 75.3392 127.172 75.8677 126.775C76.5282 126.245 77.8494 126.51 78.1136 127.436C78.1136 127.569 78.1136 127.569 78.2457 127.701C78.2457 127.834 78.2457 127.834 78.2457 127.966C78.2457 128.76 77.8494 129.29 77.1888 129.422Z" fill="black"/>
<path d="M70.0547 127.172C69.7904 126.907 69.3941 126.775 68.9978 126.642C68.6014 126.51 68.3372 126.377 67.9408 126.113C67.8087 125.98 67.6766 125.715 67.8087 125.318C67.9408 124.921 68.4693 124.656 68.9978 124.921C69.262 125.053 69.3941 125.318 69.3941 125.583V125.715C69.3941 125.715 69.3941 125.715 69.5262 125.715H69.6583C69.7904 125.715 69.9226 125.715 70.0547 125.715C70.1868 125.715 70.451 125.715 70.5831 125.715C70.5831 125.715 70.5831 125.715 70.5831 125.583C70.5831 125.451 70.5831 125.318 70.5831 125.318C70.451 124.921 70.1868 124.524 69.7904 124.259C69.262 123.862 68.6014 123.862 67.9408 123.994C67.1482 124.259 66.6197 124.656 66.4876 125.451C66.3555 125.98 66.4876 126.51 67.016 126.907C67.2803 127.172 67.6766 127.304 68.073 127.569C68.4693 127.701 68.7335 127.834 69.1299 127.966C69.262 128.098 69.3941 128.231 69.5262 128.363C69.6583 128.76 69.5262 129.025 69.262 129.29C68.9978 129.555 68.7335 129.555 68.3372 129.555C67.9408 129.422 67.6766 129.025 67.6766 128.628C67.6766 128.496 67.6766 128.496 67.5445 128.496C67.1482 128.496 66.8839 128.496 66.4876 128.496C66.3555 128.496 66.3555 128.496 66.3555 128.628C66.3555 128.893 66.3555 129.025 66.4876 129.29C66.7518 130.084 67.4124 130.481 68.073 130.614C68.4693 130.614 68.7335 130.614 69.1299 130.614C69.5262 130.614 69.7904 130.481 70.1868 130.217C70.7152 129.82 70.8474 129.29 70.8474 128.628C70.7152 127.966 70.451 127.569 70.0547 127.172Z" fill="black"/>
<path d="M65.6949 127.172C65.2985 125.848 63.9774 125.186 62.6562 125.583C61.5993 125.848 60.9388 126.774 60.8066 127.834C60.8066 128.76 61.0709 129.555 61.8636 130.084C62.392 130.481 63.0526 130.614 63.8453 130.481C64.5059 130.349 65.0343 129.952 65.2985 129.422C65.4307 129.29 65.5628 129.025 65.5628 128.893C65.1664 128.893 64.9022 128.893 64.5059 128.893C64.5059 128.893 64.3737 128.893 64.3737 129.025C64.2416 129.158 64.1095 129.29 63.9774 129.422C63.7132 129.555 63.3168 129.687 63.0526 129.555C62.392 129.422 61.9957 129.158 61.8636 128.496C61.8636 128.363 61.8636 128.363 61.9957 128.363C63.1847 128.363 64.3737 128.363 65.5628 128.363C65.5628 128.363 65.6949 128.363 65.6949 128.231C65.827 127.834 65.827 127.569 65.6949 127.172ZM64.5059 127.569H61.8636C61.8636 127.436 61.8636 127.172 61.9957 127.039C62.2599 126.642 62.6562 126.377 63.1847 126.377C63.7132 126.377 64.2416 126.642 64.3737 127.172V127.304C64.638 127.436 64.638 127.569 64.5059 127.569Z" fill="black"/>
<path d="M88.2866 125.583C86.9654 125.186 85.5122 125.98 85.2479 127.436C84.9837 128.76 85.6443 130.217 87.0975 130.481C88.4187 130.746 89.4756 130.084 90.0041 128.893H88.9471V129.025C88.815 129.29 88.5508 129.422 88.2866 129.555C88.0223 129.687 87.7581 129.687 87.626 129.555C87.0975 129.555 86.5691 129.158 86.437 128.496C86.437 128.363 86.437 128.363 86.5691 128.363C87.7581 128.363 88.9471 128.363 90.1362 128.363H90.2683C90.4004 127.172 89.7398 125.848 88.2866 125.583ZM86.3049 127.436C86.3049 127.172 86.437 127.039 86.5691 126.907C86.8333 126.51 87.2297 126.377 87.7581 126.377C88.4187 126.377 88.815 126.774 89.0793 127.304C89.0793 127.304 89.0793 127.436 89.0793 127.569H86.3049V127.436Z" fill="black"/>
<path d="M55.7859 127.436C55.6537 126.774 55.2574 126.112 54.5968 125.848C53.9362 125.45 53.2757 125.45 52.6151 125.583C51.8224 125.715 51.294 126.245 50.8976 127.039C50.6334 127.569 50.6334 127.966 50.7655 128.495C50.8976 128.893 51.0297 129.29 51.294 129.687C51.8224 130.349 52.483 130.481 53.2757 130.614C53.5399 130.614 53.672 130.614 53.9362 130.481C54.4647 130.349 54.9932 130.084 55.2574 129.687C55.7859 128.893 55.918 128.231 55.7859 127.436ZM53.672 129.422C52.8793 129.687 52.0866 129.29 51.8224 128.495C51.5582 127.833 51.8224 127.039 52.483 126.642C53.2757 126.245 54.2005 126.51 54.4647 127.436C54.4647 127.569 54.5968 127.833 54.5968 127.966C54.7289 128.628 54.3326 129.157 53.672 129.422Z" fill="black"/>
<path d="M60.014 125.583H59.4856V125.715C59.4856 125.848 59.3534 125.98 59.3534 125.98C59.0892 126.907 58.6929 127.834 58.4286 128.76C58.4286 128.76 58.4286 128.76 58.2965 128.893C58.1644 128.496 58.0323 128.231 57.9002 127.834C57.6359 127.172 57.3717 126.377 57.2396 125.715L57.1075 125.451H55.9185V125.583C56.1827 126.377 56.4469 127.172 56.8433 127.966C57.1075 128.76 57.3717 129.422 57.6359 130.217C57.6359 130.349 57.7681 130.349 57.7681 130.349C58.0323 130.349 58.2965 130.349 58.6929 130.349C58.825 130.349 58.825 130.349 58.825 130.217C59.0892 129.555 59.3534 128.893 59.6177 128.231C59.8819 127.569 60.1461 126.774 60.4104 126.113C60.5425 125.98 60.5425 125.715 60.6746 125.451C60.4104 125.583 60.2782 125.583 60.014 125.583Z" fill="black"/>
<path d="M50.3702 129.29C49.7097 129.29 49.1812 129.29 48.5206 129.29C48.3885 129.29 48.3885 129.29 48.3885 129.158C48.3885 127.436 48.3885 125.848 48.3885 124.127V123.994H47.0674V124.127C47.0674 125.186 47.0674 126.245 47.0674 127.172C47.0674 128.231 47.0674 129.29 47.0674 130.217C47.0674 130.349 47.0674 130.349 47.1995 130.349C48.2564 130.349 49.3133 130.349 50.3702 130.349V129.29Z" fill="black"/>
<path d="M82.3417 125.451C81.9453 125.451 81.549 125.715 81.2847 126.113C81.2847 126.113 81.2847 126.113 81.1526 126.245V126.113C81.1526 125.98 81.1526 125.848 81.1526 125.848V125.715H80.0957C80.0957 127.172 80.0957 128.76 80.0957 130.217V130.349C80.2278 130.349 80.3599 130.349 80.6242 130.349H81.1526V130.217C81.1526 129.422 81.1526 128.628 81.1526 127.834C81.1526 127.701 81.1526 127.569 81.1526 127.304C81.2847 126.907 81.4168 126.642 81.8132 126.51C81.9453 126.51 82.0774 126.51 82.2095 126.51L82.3417 125.451Z" fill="black"/>
<path d="M84.3223 123.862H83.1333V124.921H84.3223V123.862Z" fill="black"/>
<path d="M83.2656 126.642C83.2656 127.569 83.2656 128.495 83.2656 129.422V130.481H84.4547V129.422C84.4547 129.025 84.4547 128.495 84.4547 128.098C84.4547 127.569 84.4547 127.172 84.4547 126.642V125.583H83.2656V126.642Z" fill="black"/>
<path d="M94.2316 128.76C94.2316 128.363 93.9674 128.098 93.7032 127.834C93.439 127.701 93.0426 127.569 92.6463 127.436C92.382 127.304 92.1178 127.304 91.9857 127.172C91.7215 127.039 91.7215 126.774 91.9857 126.51C92.1178 126.377 92.382 126.377 92.6463 126.377C92.9105 126.377 93.0426 126.51 93.0426 126.774V126.907C93.0426 126.907 93.7032 126.907 93.9674 126.907H94.0995C94.0995 126.907 94.0995 126.907 94.0995 126.774C94.0995 126.377 93.8353 125.98 93.439 125.715C92.7784 125.318 92.2499 125.318 91.5893 125.583C91.0609 125.848 90.7967 126.245 90.6646 126.907C90.6646 127.304 90.7967 127.701 91.193 127.966C91.4572 128.098 91.7215 128.231 92.1178 128.363C92.382 128.496 92.6463 128.496 92.9105 128.76C93.1747 128.893 93.1747 129.29 92.9105 129.555C92.5142 129.819 91.8536 129.687 91.7215 129.158C91.4572 129.158 91.0609 129.158 90.7967 129.158C90.7967 129.158 90.7967 129.158 90.6646 129.158C90.6646 129.687 91.0609 130.084 91.3251 130.349C91.8536 130.746 92.5141 130.746 93.1747 130.614C93.8353 130.217 94.2316 129.555 94.2316 128.76Z" fill="black"/>
<path d="M53.9371 64.6832L47.5956 80.3053H47.3314L38.876 60.1819C37.4228 57.0045 37.2907 56.3426 34.9126 56.3426V55.5482C36.2337 55.5482 38.4797 55.6806 40.8578 55.6806C43.2358 55.6806 45.6139 55.6806 47.4635 55.5482V56.2102C45.2175 56.2102 44.6891 56.7397 44.6891 57.6665C44.6891 58.196 44.8212 58.858 45.2175 59.7847L49.9737 71.6999L53.4086 62.9621L52.3517 60.1819C51.1627 56.8721 50.7664 56.3426 49.0489 56.3426V55.5482C50.37 55.5482 52.4838 55.6806 54.5977 55.6806C56.8436 55.6806 59.0896 55.6806 60.9392 55.5482V56.2102C58.5611 56.3426 57.9005 56.7397 57.9005 57.7989C57.9005 58.3284 58.0327 58.858 58.2969 59.7847L62.3924 71.5675L66.2238 60.5791C66.6201 59.3876 66.8843 58.4608 66.8843 57.7989C66.8843 56.6073 66.2238 56.2102 63.3172 56.2102V55.5482C65.1668 55.5482 66.6201 55.6806 67.9413 55.6806C69.2624 55.6806 70.8478 55.6806 72.1689 55.5482V56.2102C69.7909 56.2102 69.2624 56.8721 67.8091 60.0495L60.0144 80.1729H59.8823L53.9371 64.6832Z" fill="black"/>
<path d="M86.0411 79.9082C83.7952 79.9082 81.285 79.7758 78.9069 79.7758C76.5289 79.7758 74.415 79.7758 72.6975 79.9082V79.2462C74.8114 79.2462 75.3398 78.7166 75.6041 77.9223C75.8683 76.9956 76.0004 74.6125 76.0004 68.2578V67.1986C76.0004 60.8439 76.0004 58.5932 75.6041 57.5341C75.3398 56.6074 74.6793 56.2102 72.5654 56.2102V55.5482H82.8704C90.7973 55.5482 92.3826 55.2834 92.3826 55.2834C92.5147 58.196 92.6469 60.5791 92.9111 62.6973L92.5147 62.8297C91.3257 59.1228 90.1367 56.6074 84.8521 56.6074C83.531 56.6074 83.0025 56.7397 81.6813 57.0045C81.5492 59.52 81.5492 62.0354 81.5492 67.0662V67.331H83.1346C86.8338 67.331 87.7586 66.5367 87.8907 63.6241H88.5513C88.4192 64.948 88.4192 66.1395 88.4192 67.8606C88.4192 69.4493 88.4192 70.7732 88.5513 72.0971H87.8907C87.7586 69.1845 86.9659 68.3901 83.1346 68.3901H81.5492C81.5492 73.2886 81.6813 76.8632 81.8135 77.6575C82.0777 78.7166 82.7383 79.2462 85.7769 79.3786V79.9082H86.0411Z" fill="black"/>
<path d="M116.956 79.908C115.899 79.908 113.653 79.7756 111.275 79.7756C108.897 79.7756 106.387 79.7757 104.802 79.908V79.2461C106.916 79.1137 107.708 78.9813 107.708 77.7898C107.708 77.1278 107.444 76.0687 106.916 74.6124L105.33 70.2435H98.5923L97.139 74.48C96.6106 75.9363 96.3463 76.9954 96.3463 77.6574C96.3463 78.9813 97.139 79.2461 99.6492 79.2461V79.908C98.0638 79.908 96.6106 79.7756 95.2894 79.7756C93.9683 79.7756 92.3829 79.7757 91.1938 79.908V79.3785C93.5719 79.2461 94.1004 78.5841 95.2894 75.6715L101.499 58.9903L100.838 57.1368C102.688 56.7396 105.198 55.5481 106.255 54.7538C106.255 54.7538 107.444 59.1227 109.294 63.8887L113.521 75.4067C114.578 78.187 114.842 79.1137 117.088 79.1137V79.908H116.956ZM104.934 69.1844L101.895 60.579L98.9886 69.1844H104.934Z" fill="black"/>
<path d="M62.2597 11.462C63.8451 11.462 64.3736 11.0649 65.0342 10.4029H65.1663L63.5809 14.507H53.9365V14.3746C58.1642 9.87334 60.5423 8.01987 60.5423 5.23966C60.5423 3.51858 59.4853 2.72423 57.9 2.72423C56.5788 2.72423 55.3898 3.65097 54.7292 4.31292L54.5971 4.18053C56.1825 1.92989 58.0321 0.076416 60.278 0.076416C62.524 0.076416 64.2415 1.53272 64.2415 3.78336C64.2415 6.29879 60.5423 9.07899 57.2394 11.462H62.2597Z" fill="black"/>
<path d="M65.8267 7.35791C65.8267 3.38619 68.6011 0.076416 72.1682 0.076416C75.7353 0.076416 78.5097 3.51858 78.5097 7.35791C78.5097 11.3296 75.7353 14.6394 72.1682 14.6394C68.6011 14.6394 65.8267 11.3296 65.8267 7.35791ZM69.658 7.35791C69.658 11.1972 70.3186 14.2422 72.1682 14.2422C73.8857 14.2422 74.6783 11.1972 74.6783 7.35791C74.6783 3.51858 74.0178 0.473589 72.1682 0.473589C70.4507 0.473589 69.658 3.51858 69.658 7.35791Z" fill="black"/>
<path d="M86.8327 11.462C88.4181 11.462 88.9466 11.0649 89.6071 10.4029H89.7392L88.286 14.507H78.6416V14.3746C82.8693 9.87334 85.2473 8.01987 85.2473 5.23966C85.2473 3.51858 84.1904 2.72423 82.605 2.72423C81.2839 2.72423 80.0949 3.65097 79.4343 4.31292L79.3022 4.18053C80.8876 1.92989 82.7372 0.076416 84.9831 0.076416C87.2291 0.076416 88.9466 1.53272 88.9466 3.78336C88.9466 6.29879 85.2473 9.07899 81.9445 11.462H86.8327Z" fill="black"/>
<path d="M92.5131 3.65097C92.5131 3.38619 92.381 3.12141 91.9847 3.12141C91.7204 3.12141 91.3241 3.2538 90.135 3.65097L90.0029 3.38619C92.2489 2.45945 94.7591 0.73837 95.6839 0.076416H95.816C95.816 0.605979 95.6839 1.92989 95.6839 4.18053V11.8592C95.6839 13.7127 96.0802 14.1098 96.8729 14.2422L97.9298 14.3746V14.507C96.6087 14.507 95.2875 14.507 93.9664 14.507C92.6452 14.507 91.3241 14.507 90.0029 14.507V14.1098L91.192 13.9775C92.1168 13.9775 92.381 13.5803 92.381 11.5944V3.65097H92.5131Z" fill="black"/>
</svg>
