<svg width="935" height="881" viewBox="0 0 935 881" fill="none" xmlns="http://www.w3.org/2000/svg">
<path d="M835.992 554.021C835.527 554.689 834.338 556.401 832.844 558.539C833.489 559.092 834.216 559.699 835.192 560.563C835.192 562.816 837.805 565.864 835.088 568.181C832.658 570.258 836.559 574.19 832.485 575.287C831.65 580.773 826.856 583.613 823.397 586.683C820.24 589.454 818.573 593.543 814.38 595.56C810.734 597.311 807.988 600.921 804.853 603.73C802.874 603.294 801.042 602.899 798.499 602.313C798.555 603.882 798.625 605.043 798.699 606.902C797.811 607.489 796.382 608.439 794.802 609.474C794.932 611.952 795.072 614.274 795.198 617.004C793.686 618.026 792.181 619.019 790.518 620.127C791.43 620.753 792.262 621.324 793.711 622.315C791.555 623.133 789.766 623.764 787.894 624.468C788.095 624.903 788.418 625.592 788.929 626.649C783.034 627.195 779.577 621.129 773.053 621.887C768.702 623.545 764.57 628.179 758.615 628.709C756.305 628.915 757.09 633.218 753.623 631.813C752.388 631.323 752.242 635.662 749.463 634.061C747.346 637.459 743.652 638.087 740.388 639.718C737.709 641.062 735.041 643.076 732.619 645.123C730.603 646.835 728.486 648.457 726.397 650.086C724.513 651.548 722.423 652.828 720.736 654.501C719.306 655.926 718.617 658.85 717.078 659.263C715.022 659.822 713.513 660.592 712.486 662.886C711.015 661.381 710.123 660.444 709.222 659.537C705.437 660.268 701.668 660.939 699.443 655.965C700.125 653.42 700.895 650.549 701.712 647.5C696.27 642.204 690.451 637.25 689.631 628.338C690.589 625.709 690.3 621.571 693.719 619.124C691.962 610.628 696.919 605.167 702.208 599.891C708.579 593.54 715.982 588.672 724.265 584.547C721.902 577.601 719.288 571 717.487 564.205C716.262 559.531 714.911 554.379 716.038 549.7C717.212 544.844 717.019 539.399 721.202 535.286C723.063 533.437 722.697 529.945 724.897 527.425C726.224 525.909 727.273 524.129 729.051 522.828C730 522.131 730.375 520.614 731.602 518.405C733.268 517.519 737.061 516.759 738.385 514.544C740.337 511.292 744.476 513.86 745.519 509.73C746.437 510.928 746.868 511.456 747.509 512.262C749.527 512.2 751.797 512.142 754.157 512.108C754.553 513.832 754.893 515.287 755.281 517.041C752.904 519.513 750.269 522.233 747.278 525.333C751.382 526.021 754.551 526.521 757.26 526.961C758.042 528.313 758.476 529.063 758.932 529.852C757.302 531.667 755.626 533.534 753.421 535.957C755.898 536.906 757.798 537.637 760.165 538.525C758.811 541.208 757.449 543.92 756.103 546.573C754.82 547.212 753.454 547.925 752.028 548.621C752.571 549.56 752.764 550.024 752.839 549.981C754.065 549.675 755.239 549.323 756.719 548.895C756.833 550.131 756.909 550.913 757.027 551.896C754.436 552.439 751.949 552.946 749.149 553.56C750.201 554.254 751.041 554.796 752.579 555.811C750.137 557.219 747.959 558.475 745.141 560.1C747.383 563.111 749.371 565.769 751.497 568.623C755.262 570.456 758.914 569.627 762.777 567.775C771.682 563.468 781.083 560.15 789.899 555.819C798.91 551.349 808.356 547.155 815.849 539.932C817.604 538.245 820.126 537.366 822.455 536.024C825.004 536.706 827.641 537.413 830.961 538.303C831.276 539.022 831.807 540.242 832.359 541.501C830.726 543.918 829.019 546.379 826.822 549.597C829.591 549.578 831.846 549.579 834.749 549.532C835.025 550.399 835.367 551.728 835.992 554.021Z" fill="#793DFA"/>
<path d="M277.551 586.568C274.729 586.668 272.383 586.769 269.368 586.881C270.438 585.614 271.136 584.786 272.032 583.693C270.911 580.411 269.511 577.339 265.507 576.869C265.512 575.665 265.533 574.878 265.536 573.8C263.283 573.196 260.942 572.569 258.868 572.013C258.39 571.187 257.885 570.703 257.864 570.19C257.651 566.834 258.427 563.108 257.232 560.218C255.664 556.467 257.696 553.744 258.379 550.723C258.948 548.243 260.592 546.019 261.873 543.729C266.384 535.548 271.931 528.12 278.324 521.331C282.241 517.147 286.443 513.197 290.879 509.564C295.202 505.996 299.947 502.985 304.661 499.616C303.85 498.733 303.003 497.744 302.081 496.799C293.153 487.682 285.987 477.324 279.732 466.29C276.774 461.088 278.228 455.545 278.414 450.107C278.488 447.938 279.476 445.791 280.054 443.631C283.328 440.067 287.809 440.887 292.499 440.335C293.248 443.232 294.039 446.204 294.914 449.579C295.266 449.451 295.872 449.202 296.936 448.789C297.348 449.502 298.184 450.297 298.244 451.138C298.649 456.385 301.902 459.89 305.526 463.081C312.867 469.585 320.337 475.964 328.283 482.82C331.02 481.142 334.081 478.251 337.623 477.36C340.897 476.524 342.266 472.006 346.592 473.641C346.176 472.705 345.882 472.023 345.445 471.05C347.062 470.468 348.716 469.864 350.999 469.048C351.978 467.883 353.444 466.087 354.873 464.313C356.26 464.589 357.58 464.879 359.449 465.253C358.948 464.041 358.676 463.397 358.238 462.423C361.81 462.841 362.969 459.345 365.64 458.03C368.462 456.629 370.807 454.276 373.708 452.103C374.087 452.585 374.496 453.075 375.254 454.04C375.93 453.174 376.569 452.33 377.383 451.311C377.848 451.943 378.263 452.53 379.035 453.562C381.616 448.194 386.038 444.494 390.57 441.331C395.223 438.073 399.695 434.068 406.197 432.797C406.75 433.58 407.514 434.641 408.372 435.823C404.917 439.592 401.566 443.325 396.273 444.35C395.686 446.54 395.147 448.552 394.544 450.802C395.712 450.829 396.822 451.19 397.178 450.81C398.594 449.318 399.754 447.598 400.347 446.805C405.048 444.671 408.85 442.93 413.694 440.738C413.122 443.82 412.717 445.806 412.358 447.74C411.008 447.917 409.994 448.026 408.934 448.186C409.076 448.605 409.228 449.344 409.384 449.354C411.451 449.463 413.542 449.484 416.071 449.528C416.435 450.894 416.877 452.567 417.318 454.239C416.738 454.623 416.054 455.043 415.317 455.543C415.016 457.969 417.276 460.795 414.399 462.879C413.928 462.15 413.507 461.466 413.05 460.804C412.648 461.236 412.001 461.634 412.003 461.983C412.046 463.01 412.379 464.019 412.668 465.429C411.129 469.394 407.102 471.265 403.342 473.208C399.769 475.042 395.98 476.501 391.482 478.468C392.756 479.761 393.891 480.858 395.143 482.114C393.748 483.643 392.892 484.588 391.998 485.554C392.25 486.034 392.603 486.731 393.165 487.833C391.338 487.661 389.792 487.501 387.572 487.254C387.768 488.893 387.909 490.263 388.113 491.872C386.275 491.38 384.468 490.896 382.719 490.427C381.164 492.199 379.829 493.745 378.539 495.239C379.088 496.274 379.463 497.009 380.011 498.044C378.272 497.896 376.711 497.795 374.474 497.608C374.643 499.112 374.784 500.482 374.951 502.113C373.502 501.947 371.965 501.757 369.959 501.537C370.11 503.227 370.251 504.597 370.474 506.846C368.592 505.453 367.21 504.448 365.563 503.246C364.259 504.673 362.918 506.122 361.585 507.541C361.723 508.212 361.667 508.895 362.005 509.176C362.561 509.706 363.437 509.877 363.994 510.407C366.081 512.457 365.817 515.812 367.882 517.825C370.123 520.012 370.567 522.859 371.624 525.553C372.588 528 373.225 530.011 372.386 532.546C372.089 533.418 372.644 534.55 372.816 535.801C372.203 536.43 371.311 537.27 370.101 538.468C367.844 538.117 365.489 540.627 361.9 538.016C355.658 533.456 349.077 529.092 341.758 526.179C341.359 526.008 341.178 525.262 340.687 524.369C337.798 526.26 334.938 528.158 331.35 530.527C331.241 530.816 330.752 532.048 330.209 533.362C328.605 533.186 327.059 533.026 324.653 532.762C325.593 535.298 326.32 537.206 327.375 540.026C325.6 538.948 324.42 538.251 322.947 537.349C322.518 537.646 321.622 538.263 320.643 538.952C320.902 541.781 319.703 543.173 316.22 544.08C314.429 547.089 312.729 549.996 311.29 552.402C309.792 552.54 308.943 552.63 307.869 552.723C308.455 553.736 308.716 554.187 309.172 554.975C306.28 556.167 303.089 556.93 300.62 558.679C298.391 560.239 296.919 562.89 294.845 565.411C294.908 565.65 295.236 566.563 295.754 568.066C293.484 569.424 291.252 570.761 289.103 572.025C289.533 573.029 289.848 573.748 290.43 575.014C288.88 576.058 287.338 577.072 285.667 578.211C285.286 579.631 284.858 581.23 284.406 582.917C281.869 584.204 279.414 585.544 277.551 586.568Z" fill="#793DFA"/>
<path d="M467.69 671.999C470.218 677.498 470.21 677.528 475.419 676.227C475.149 677.709 474.786 678.944 474.765 680.208C474.75 681.092 475.279 681.963 475.533 682.793C474.82 683.204 474.331 683.486 473.693 683.854C474.676 684.688 475.608 685.477 477.164 686.783C474.629 688.895 472.244 690.92 469.837 692.909C470.989 697.5 466.087 696.948 464.826 698.925C462.901 701.962 458.68 701.593 457.61 705.113C456.351 709.217 451.979 708.584 449.499 710.489C447.336 712.162 444.126 712.761 443.056 715.33C443.385 716.592 443.659 717.585 444.108 719.228C441.343 719.946 438.951 720.574 436.568 721.173L430.895 722.191C428.87 723.583 426.875 724.984 424.188 726.833C424.172 726.892 423.887 727.958 423.768 728.402C417.596 730.809 411.814 733.066 405.118 735.65C406.497 736.907 407.348 737.643 408.726 738.9C405.671 741.412 402.578 743.946 399.273 746.677C404.904 750.438 410.232 754.023 415.701 757.677C414.791 758.702 414.01 759.603 412.963 760.782C415.406 762.452 417.658 764.007 420.255 765.813C419.961 766.908 419.62 768.181 419.311 769.335C420.675 771.477 421.857 773.348 423.082 775.294C422.664 777.212 422.298 779.05 421.919 780.82C422.679 782.133 423.374 783.335 424.068 784.536L414.972 788.729C412.7 790.214 410.958 789.366 409.351 787.54C408.861 786.996 408.095 786.537 407.346 786.368C398.942 784.306 392.263 779.122 385.422 774.307C380.368 770.764 375.672 766.715 370.538 762.643C368.547 763.79 365.732 764.337 364.534 767.505C360.971 767.407 357.319 767.285 353.883 767.189C352.675 765.057 351.699 763.368 350.722 761.679C351.376 761.251 352.06 760.832 353.061 760.18C352.705 758.308 352.329 756.273 352.111 755.072C349.519 754.79 347.201 754.549 344.95 754.295C344.399 751.61 343.874 749.185 343.356 746.731C342.68 747.121 342.192 747.402 342.004 747.51C340.709 745.228 339.393 742.909 337.578 739.726C339.847 734.339 337.983 726.955 340.824 720.262C341.42 718.867 340.857 716.464 339.973 715.022C336.399 709.274 337.921 702.766 337.173 696.665C336.877 694.334 336.672 691.424 337.295 688.863C338.255 684.806 338.891 680.535 340.619 676.811C343.373 670.919 346.298 664.628 354.179 664.139C356.764 663.975 359.425 664.593 362.709 664.902C361.567 669.164 360.592 672.804 359.339 677.481C362.533 676.465 364.688 675.773 367.89 674.728C367.974 675.956 368.07 677.377 368.157 678.828C368.651 678.643 369.124 678.421 369.618 678.236C368.992 680.575 368.365 682.913 367.627 685.665C369.211 685.328 370.353 685.095 371.428 684.876C374.065 688.786 372.945 692.61 371.416 696.419C372.461 697.143 373.292 697.715 374.661 698.653C373.549 700.195 372.467 701.745 371.133 703.64C372.099 703.708 372.558 703.894 372.88 703.759C373.637 703.422 374.32 702.653 375.073 702.57C382.675 701.815 388.11 695.404 395.726 694.717C398.459 690.088 404.02 690.436 408.036 687.896C412.18 685.231 417.354 684.175 421.992 682.277C426.517 680.444 429.898 676.243 435.192 676.044C439.993 671.049 445.806 667.848 452.435 666.103C453.29 662.082 458.87 663.069 459.878 658.835C462.219 659.462 464.56 660.089 467.168 660.788C467.559 661.464 468.101 662.402 468.666 663.378C464.701 664.187 462.53 667.191 459.356 670.147C463.917 672.447 468.273 667.333 472.085 671.242C470.66 671.463 469.459 671.68 467.69 671.999Z" fill="#793DFA"/>
<path d="M471.789 581.674C472.419 577.782 477.856 578.827 476.281 574.629C475.478 575.017 474.78 575.369 474.074 575.751C473.944 575.526 473.636 575.253 473.662 575.038C474.132 570.913 475.368 567.247 479.048 564.776C483.082 562.05 487.116 559.324 491.055 556.478C492.312 555.577 493.264 554.278 494.611 552.926C494.182 548.719 493.221 544.242 492.528 539.837C491.787 535.134 493.046 530.554 492.149 525.841C491.677 523.336 495.531 520.213 495.579 517.307C495.655 514.06 494.537 511.001 497.936 508.866C500.136 500.891 506.93 497.35 513.154 493.085C517.659 494.292 522.163 495.499 526.609 496.691C527.21 497.645 527.783 498.591 528.732 500.146C525.989 502.203 523.247 504.26 520.187 506.549C520.311 507.153 520.555 508.614 520.895 510.545C521.666 510.751 522.999 511.585 523.645 511.187C526.493 509.57 528.855 511.187 531.297 511.556C531.649 513.68 531.969 515.447 532.294 517.438C530.674 518.622 529.009 519.857 526.478 521.716C529.257 522.842 531.112 523.624 533.574 524.633C532.947 526.971 532.273 529.487 531.504 532.358C536.909 533.996 539.27 527.555 543.856 528.815C546.779 526.204 550.426 524.802 553.856 523.025C557.812 520.945 561.63 518.668 565.456 516.363C568.981 514.23 572.528 512.135 575.813 509.716C579.218 507.203 582.309 504.319 584.354 502.615C588.02 502.328 590.07 502.148 592.633 501.946C593.11 503.248 594.061 504.677 594.03 506.096C593.998 507.166 592.833 508.313 591.968 509.287C591.013 510.363 589.844 511.287 589.257 513.477C591.868 513.098 594.501 512.757 597.402 512.36C598.073 515.427 598.786 518.695 599.864 523.679C599.888 523.59 599.341 525.157 599.077 526.735C598.9 527.989 599.094 529.278 599.127 530.936C598.65 531.411 597.78 532.288 596.992 533.092C597.584 534.203 597.967 534.908 598.298 535.568C591.61 541.801 585.324 548.428 578.224 554.298C572.293 559.244 572.775 559.817 569.144 560.684C569.497 561.381 569.85 562.078 570.146 562.634C561.826 568.081 553.581 573.485 545.223 578.954C545.008 579.753 544.723 580.819 544.509 581.618C548.712 586.202 552.769 590.62 556.994 595.241C555.864 596.493 555.182 597.262 554.098 598.462C555.58 600.636 556.028 604.182 560.109 604.007C560.502 605.857 560.797 607.363 561.13 608.848C560.481 609.372 559.666 610.042 558.573 610.923C560.049 613.476 561.394 615.803 562.827 618.281C561.571 620.006 560.475 621.489 559.28 623.103C559.545 624.126 559.882 625.359 560.205 626.524C559.742 627.066 559.487 627.664 559.068 627.805C558.125 628.123 556.945 627.903 556.178 628.395C551.664 631.373 550.978 631.443 546.997 628.758C541.852 625.318 536.086 622.535 531.653 618.334C525.734 612.687 520.867 605.959 515.049 599.102C511.461 600.52 507.266 602.663 503.078 605.253C499.04 607.755 494.178 609.308 487.969 609.484C489.42 608.096 490.026 607.497 491.341 606.263C487.543 605.975 484.369 605.728 481.196 605.48C481.113 605.077 481.023 604.704 480.97 604.309C483.158 603.373 485.376 602.445 487.565 601.508C486.631 599.894 486.089 598.956 485.503 597.942C483.932 597.521 482.302 597.085 479.991 596.465C479.741 594.432 479.496 592.145 479.169 589.456C477.183 588.924 474.842 588.297 472.471 587.662C472.187 585.048 471.912 582.754 471.789 581.674Z" fill="#793DFA"/>
<path d="M549.297 432.661C546.337 432.566 543.748 432.507 540.059 432.407C537.201 428.849 533.865 424.466 530.303 420.212C526.063 415.174 522.774 409.313 517.537 405.149C516.332 404.192 514.999 403.359 513.255 402.162C511.872 398.08 513.334 391.556 506.327 390.44C503.999 386.803 504.922 381.816 500.574 380.143C499.766 377.23 499.617 374.113 498.167 371.821C491.524 361.286 487.764 349.715 485.454 336.407C485.963 332.61 487.271 327.726 487.78 322.628C488.597 314.599 494.493 309.073 502.311 306.568C504.465 305.877 506.104 303.556 509.114 304.648C511.2 305.397 513.754 304.876 516.781 304.958C517.413 305.92 518.277 307.198 519.329 308.844C516.024 312.051 511.077 313.327 509.379 318.36C513.994 321.404 517.783 316.392 523.055 317.107C523.527 317.836 524.361 319.107 525.153 320.302C522.615 322.541 520.917 324.021 517.76 326.791C521.551 326.633 524.018 327.263 525.254 326.325C528.383 323.896 532.442 323.683 535.547 320.867C538.41 318.24 542.356 316.791 546.359 315.484C551.993 313.663 557.072 310.234 562.544 307.83C570.581 304.273 578.329 300.132 586.897 297.669C590.27 296.701 593.25 294.232 596.354 292.368C599.166 290.647 602.932 290.577 604.534 287.327C608.357 288.351 611.765 289.264 615.41 290.241C614.878 292.224 614.395 294.029 613.53 297.256C613.155 297.472 611.84 298.23 610.224 299.161C611.748 299.284 613.226 299.458 614.728 299.543C616.237 299.599 617.779 299.536 620.101 299.524C618.379 304.646 617.379 309.326 620.268 313.717C619.183 314.568 618.572 315.07 617.328 316.038C618.317 316.969 619.452 318.066 621.577 320.095C618.838 320.122 617.885 320.121 616.613 320.129C616.78 321.284 617.148 322.398 617.07 323.519C617 324.61 616.558 325.666 616.273 326.731C612.177 330.043 608.082 333.355 603.587 336.973C602.978 336.873 601.664 336.679 599.712 336.378C600.069 337.299 600.29 337.897 600.568 338.638C599.784 339.665 598.91 340.795 597.899 342.078C590.882 339.818 588.856 347.142 583.708 348.808C584.302 350.268 584.61 351.016 584.746 351.338C581.027 353.482 577.308 355.626 573.513 357.814C573.695 358.084 573.397 357.655 573.535 357.851C571.845 358.826 570.117 359.822 568.389 360.818C568.039 360.344 567.682 359.899 567.333 359.425C566.992 360.698 566.651 361.97 566.191 363.687C565.448 362.663 565.034 362.076 564.089 360.744C563.872 362.621 563.724 363.883 563.539 365.641C560.826 367.706 557.555 370.192 554.006 372.889C553.05 371.713 552.409 370.907 551.84 370.183C548.024 372.809 544.095 375.499 540.166 378.19C541.171 379.062 542.095 379.88 543.46 381.071C541.516 382.517 539.851 383.752 538.261 384.944C538.264 385.643 538.098 386.264 538.336 386.677C541.781 393.5 546.294 400.007 548.497 407.196C550.88 415.257 554.346 423.895 549.297 432.661Z" fill="#793DFA"/>
<path d="M692.702 346.036C693.341 345.668 693.829 345.386 694.318 345.105C694.124 344.64 693.998 344.163 693.73 343.742C692.141 341.254 689.94 338.919 688.75 336.602C687.583 334.322 686.088 332.431 684.843 330.321C683.186 327.498 681.553 323.634 682.204 320.731C683.368 315.556 684.422 310.318 687.11 305.265C691.704 296.535 698.444 290.823 706.626 286.131C716.986 280.184 727.324 274.198 738.218 267.918C735.712 264.233 736.946 258.917 732.067 256.499C731.03 251.717 730 246.904 728.963 242.122C727.987 237.705 729.498 233.605 730.609 229.461C731.431 226.51 732.195 223.542 732.988 220.582C736.642 217.85 740.304 215.088 743.883 212.399C748.329 213.59 752.507 214.71 757.338 216.004C754.191 219.094 751.505 221.769 748.873 224.363C752.884 229.308 756.815 221.986 760.537 225.521C762.264 229.981 756.728 230.37 754.123 233.573C757.433 233.667 759.36 233.708 761.695 233.762C761.968 237.959 760.42 241.129 757.378 244.184C758.364 244.892 759.128 245.478 760.327 246.338C760.976 247.591 759.01 247.223 758.287 248.615C759.06 250.948 759.98 253.796 761.143 257.279C778.222 246.883 797.747 242.058 812.423 228.892C815.15 229.623 817.521 230.258 820.543 231.068C819.207 233.565 818.047 235.76 816.428 238.721C818.895 238.525 820.772 238.394 823.403 238.179C822.752 240.606 822.213 242.618 821.721 244.453C822.938 245.128 823.594 245.526 824.287 245.902C824.376 246.402 824.583 246.933 824.515 247.423C824.39 248.246 823.96 249.019 823.932 249.836C823.317 258.649 817.354 264.188 811.317 269.296C804.751 274.833 797.566 279.601 790.123 285.093C792.817 290.922 798.54 294.93 802.952 300.871C802.842 301.634 802.687 302.925 802.514 304.401C803.504 306.633 805.42 309.082 805.484 311.573C805.617 317.002 808.031 322.693 803.805 328.507C803.111 328.607 801.595 328.93 800.073 329.157C798.551 329.384 796.994 329.506 795.294 329.685C793.74 326.952 788.727 326.339 790.513 322.281C785.974 319.542 781.959 317.102 778.076 314.761C777.571 312.85 777.095 311.072 776.577 309.094C773.584 308.292 770.709 307.521 767.656 306.704C767.673 305.693 767.694 304.905 767.732 303.932C765.125 300.505 761.538 302.748 759.469 302.765C756.014 305.107 753.373 306.905 750.46 308.884C749.935 308.236 749.542 307.687 748.828 306.797C747.522 307.875 746.097 309.048 744.376 310.49C744.254 310.235 744.534 310.849 744.913 311.807C740.895 311.746 739.592 315.425 737.107 318.059C736.017 316.91 735.33 316.155 734.241 315.007C733.631 316.334 733.058 317.64 732.363 319.167C731.761 319.164 730.994 319.181 729.595 319.187C728.359 322.377 726.852 326.224 722.285 323.826C720.092 325.491 716.834 326.743 716.576 328.419C715.822 333.483 711.077 334.717 708.919 338.263C707.085 342.974 707.174 342.998 707.821 346.629C703.541 348.496 699.071 349.297 694.189 349.258C693.728 348.373 693.268 347.361 692.702 346.036Z" fill="#793DFA"/>
<path d="M244.486 128.168C242.407 127.865 241.153 127.688 239.586 127.49C240.227 128.772 240.602 129.507 241.215 130.655C238.201 133.844 233.813 135.047 230.354 137.642C230.636 138.13 230.919 138.618 231.288 139.256C228.814 140.306 226.304 141.378 224.191 142.271C222.531 144.555 223.836 147.981 220.007 148.637C222.491 151.46 224.763 154.003 226.96 156.591C233.866 164.722 241.616 172.191 246.5 181.938C249.287 187.539 251.915 192.906 250.237 199.404C249.944 200.499 250.784 201.866 251.245 203.703C248.403 204.591 245.732 205.429 242.374 206.465C228.782 192.703 214.35 179.827 202.365 163.387C201.102 163.715 198.559 163.605 197.789 164.699C194.74 169.085 190.383 171.597 185.958 174.123C185.432 174.426 185.302 175.501 184.986 176.21C183.427 175.982 182.15 175.767 180.139 175.45C180.183 176.826 180.186 178.001 180.241 180.046C176.432 181.817 173.081 185.074 170.552 189.536C169.095 192.127 165.81 193.721 162.513 196.423C161.165 201.454 159.531 207.551 157.81 213.974C156.245 213.65 154.947 213.397 153.501 213.105C152.967 213.913 152.365 214.735 151.678 215.757C149.93 215.288 148.152 214.812 146.107 214.264C145.922 211.518 145.701 208.667 145.486 205.438C143.763 205.705 142.04 205.973 139.958 206.272C139.89 204.985 139.84 203.988 139.789 202.991C139.363 202.686 139.008 202.115 138.569 202.093C134.986 201.831 133.422 198.303 133.47 196.349C133.757 188.4 130.909 179.707 137.711 172.932C139.934 164.994 146.508 160.253 151.15 154.074C152.671 152.07 156.51 153.511 156.49 149.319C156.473 147.601 160.089 145.842 162.075 144.122C163.886 142.577 165.625 140.949 167.604 139.608C169.892 138.064 172.486 136.919 174.781 135.345C176.685 134.047 178.343 132.366 180.328 130.645C172.494 120.647 169.285 108.558 165.019 96.9779C165.356 86.9487 163.992 76.7491 168.432 66.1063C171.411 64.1132 175.212 61.5468 179.283 58.7993C182.56 60.4387 187.013 59.3479 189.225 63.7789C186.405 66.0052 183.614 68.2395 180.794 70.4658C181.199 71.2086 181.574 71.9435 181.964 72.6192C186.105 74.7119 189.418 68.7477 193.615 71.4583C193.939 72.9729 194.272 74.4578 194.611 76.0394C192.95 76.5462 191.072 77.1533 189.09 77.7958C189.849 79.1096 190.414 80.0856 190.956 81.0241C193.873 79.2677 196.103 79.8337 197.936 83.7824C197.215 85.5243 197.91 88.5021 194.65 89.881C195.633 90.7155 196.587 91.542 197.959 92.7028C196.195 94.0701 194.657 95.3074 193.051 96.5584C194.045 97.237 194.876 97.8087 196.671 99.0511C194.737 99.0403 193.814 99.0468 192.221 99.0641C192.02 100.406 191.24 102.132 191.711 103.337C193.683 108.306 196.066 113.164 198.522 118.58C201.021 117.315 202.918 116.396 204.803 115.41C215.839 109.548 225.896 101.648 238.424 98.755C239.181 95.6906 242.289 96.7771 244.118 95.5224C246.15 94.1003 248.321 92.8738 249.765 91.9916C251.809 92.5395 253.054 92.8731 255.188 93.4448C251.761 96.3966 247.005 97.3112 246.965 102.915C251.025 101.751 255.01 100.63 259.854 99.2632C258.827 101.557 258.068 103.321 257.179 105.335C258.433 106.464 260.333 108.147 262.357 109.958C261.431 111.042 260.649 111.943 259.732 112.998C260.514 113.398 261.215 113.744 261.946 114.099C261.948 114.448 262.101 115.06 261.905 115.198C259.236 117.338 255.972 118.969 253.912 121.558C251.23 124.931 247.318 125.66 244.486 128.168Z" fill="#793DFA"/>
<path d="M369.936 250.098C378.484 243.919 385.69 238.839 392.779 233.601C399.506 228.646 405.657 222.998 411.432 217.091C411.095 216.335 410.78 215.616 410.227 214.357C412.003 213.183 413.779 212.01 415.645 210.733C417.453 211.218 419.261 211.702 420.979 212.163C422.434 214.678 423.273 217.948 425.356 219.299C427.904 220.934 427.695 223.257 428.377 225.216C430.72 231.998 431.876 238.589 426.877 245.275C423.802 249.4 420.706 253.487 417.55 257.559C416.615 258.799 415.781 260.13 414.507 262.041C413.305 262.734 411.389 263.838 409.323 265.03C408.776 267.072 408.205 269.203 407.959 270.12C403.212 275.034 399.282 279.152 394.936 283.634C398.237 287.437 401.236 291.064 404.4 294.545C410.657 301.424 415.284 309.167 416.797 318.454C417.122 320.445 416.968 322.561 417.052 325.565C416.589 326.107 415.487 327.493 414.227 328.995C412.361 329.32 410.331 329.665 408.764 329.943C405.32 327.624 402.203 325.742 399.359 323.552C396.516 321.363 393.886 318.85 391.157 316.469C391.876 311.65 386.034 312.115 384.698 308.331C383.588 305.242 379.881 303.075 376.901 300.087C363.502 308.012 351.086 317.248 339.244 327.303C338.338 328.075 338.133 329.67 337.614 330.895C333.148 332.744 329.585 331.345 326.608 327.755C326.885 326.72 327.171 325.654 327.298 325.18C323.296 321.031 319.505 317.16 315.4 312.92C313.797 309.54 316.14 305.536 315.487 301.809C314.797 297.627 317.179 294.427 317.265 291.499C325.787 281.03 334.921 272.311 346.4 265.744C346.813 264.205 347.296 262.399 347.875 260.239C343.605 255.193 341.898 248.644 340.07 242.191C339.473 240.032 339.945 237.558 340.036 235.203C340.196 230.456 339.813 225.721 341.23 221.026C343.932 212.011 350.825 206.91 360.381 205.981C366.41 205.408 371.437 207.865 377.493 208.854C372.57 214.545 365.134 211.95 359.214 216.264C366.947 217.987 373.534 212.012 380.985 215.499C380.197 217.255 379.409 219.011 378.568 220.847C379.855 221.731 381.761 223.035 383.586 224.285C382.555 228.133 381.699 231.33 380.842 234.526C377.8 237.581 374.543 240.61 371.653 243.928C370.749 245.05 370.777 246.961 369.936 250.098Z" fill="#793DFA"/>
<path d="M533.447 186.213C529.409 189.192 525.725 191.916 521.649 194.916C520.832 197.965 519.92 201.369 518.874 205.275C515.719 205.667 512.67 206.024 509.195 206.425C506.451 201.852 506.246 196.689 506.258 191.902C504.528 192.074 502.971 192.196 500.691 192.409C499.687 189.634 498.257 187.03 497.848 184.288C496.622 176.061 498.998 168.259 501.315 160.918C503.465 158.226 505.41 155.829 507.812 152.793C505.676 151.872 503.612 151.635 503.004 150.584C499.2 143.918 495.479 137.18 492.2 130.211C490.439 126.471 488.64 122.278 488.632 118.278C488.58 112.428 490.121 106.559 491.035 100.301C494.423 97.4974 497.487 94.0042 501.382 92.0341C504.946 90.2294 509.353 90.1413 514.371 89.0751C515.107 90.4777 515.829 91.8132 516.544 93.1783C515.8 93.5818 505.879 99.0761 505.879 99.0761C506.291 99.7894 506.725 100.54 507.333 101.591C511.655 99.9258 516.16 97.4533 521.455 101.283C519.472 102.877 517.895 104.136 515.18 106.327C518.155 106.013 519.825 105.826 522.121 105.554C522.703 107.296 523.341 109.18 524.1 111.445C521.283 113.069 519.066 114.347 516.361 115.906C517.653 116.538 518.347 116.914 519.498 117.476C516.836 120.062 516.731 124.602 511.591 124.938C514.727 131.964 519.094 136.528 523.463 141.442C545.231 131.446 566.519 121.701 588.107 111.783C590.241 112.354 592.76 113.029 595.901 113.871C593.808 116.229 592.125 118.125 590.434 120.051C592.299 122.454 594.697 120.972 597.018 120.61C601.505 127.808 601.064 135.144 597.733 142.595C594.387 145.125 590.959 147.727 587.462 150.343C587.601 150.539 587.891 150.997 588.688 152.289C587.188 152.078 585.777 151.89 584.337 151.694C584.712 152.429 585.124 153.143 585.499 153.877C584.432 153.592 583.365 153.306 582.506 153.075C574.172 162.009 562.912 166.573 553.529 174.21C561.519 181.966 571.001 188.662 579.343 197.242C579.243 198.801 579.138 200.613 578.992 202.7C580.556 201.723 581.729 201.022 582.871 200.313C586.729 201.918 585.411 206.482 588.338 209.074C590.875 211.34 591.547 215.707 593.06 219.19C592.211 222.357 591.354 225.553 590.49 228.779C589.513 229.342 588.537 229.905 587.184 230.685C579.095 227.566 573.488 220.988 566.925 215.137C566.737 215.245 566.039 215.598 565.746 215.741C560.791 213.018 559.142 206.485 552.815 205.678C550.954 201.246 546.343 199.725 543.247 196.579C540.09 193.545 537.138 190.216 533.447 186.213Z" fill="#793DFA"/>
<path d="M734.253 378.235C735.659 379.627 736.794 380.724 738.435 382.305C737.285 384.821 736.134 387.336 734.721 390.478C735.457 393.181 735.624 397.065 739.354 399.619C741.882 397.536 743.793 394.907 747.73 394.44C750.489 394.1 752.893 390.938 755.461 389.057C758.279 386.957 761.667 385.929 764.199 383.118C766.322 380.769 769.785 379.698 772.363 377.661C775.025 375.551 777.27 372.98 779.713 370.621C782.884 371.471 785.759 372.241 788.811 373.059C788.603 375.731 788.729 378.461 785.001 380.286C787.577 381.103 789.539 381.724 791.352 382.305C791.175 386.286 791.004 389.888 790.819 393.423C789.38 393.577 788.366 393.686 787.151 393.836C787.071 394.608 786.835 395.369 786.927 396.092C787.689 402.26 786.825 404.059 781.319 407.183C779.036 408.475 777.549 411.058 777.792 412.995C778.219 416.028 775.029 414.063 775.985 417.015C774.617 415.126 774.21 414.51 773.468 413.486C773.008 415.203 772.667 416.475 772.263 417.985C770.457 417.85 768.925 417.757 767.06 417.606C766.592 419.352 766.108 421.157 765.878 422.016C763.225 423.621 761.368 424.741 759.812 425.688C761.89 429.195 763.816 432.439 765.416 435.12C764.718 437.725 764.298 439.294 763.79 441.188C765.071 443.403 766.395 445.692 767.754 448.087C766.884 448.964 766.354 449.52 765.401 450.47C765.8 452.417 766.274 454.796 766.878 457.876C764.435 460.711 761.757 463.832 759.215 466.799C756.281 466.013 754.177 465.449 752.488 464.996C745.84 458.393 739.419 452.01 732.99 445.656C731.102 447.37 729.561 448.734 728.299 449.887C727.089 448.833 726.135 448.006 724.536 446.626C723.79 449.408 723.251 451.421 722.521 454.144C720.307 452.567 718.755 451.485 715.85 449.406C716.7 451.569 716.921 452.167 717.378 453.305C715.523 454.299 713.556 455.358 710.448 456.999C710.753 453.845 710.957 451.901 711.156 449.734C712.386 449.651 713.391 449.572 714.688 449.475C714.965 448.915 715.311 448.215 715.705 447.337C714.763 446.704 713.932 446.132 713.071 445.552C713.807 444.227 714.551 442.872 715.794 440.604C713.918 441.56 713.212 441.942 712.77 442.173C709.506 440.6 706.405 439.135 703.142 437.563C702.878 436.413 702.553 434.899 702.166 433.145C703.422 430.944 704.818 428.463 706.267 425.901C707.766 426.588 709.694 427.454 711.622 428.319C711.79 428.047 711.958 427.775 712.097 427.495C710.278 425.866 708.481 424.274 706.86 422.856C708.551 420.93 710.221 418.967 711.966 416.96C709.08 406.511 705.547 396.46 704.913 385.79C704.765 378.518 708.861 372.478 711.623 366.08C713.782 361.107 719.024 358.61 724.405 357.26C725.16 357.05 725.923 356.811 727.164 356.445C729.565 357.088 732.439 357.859 735.195 358.597C736.129 360.211 736.953 361.638 737.539 362.651C735.548 363.799 733.482 364.99 732.28 365.683C731.638 368.081 731.352 369.146 730.948 370.656C732.853 370.659 734.683 370.705 736.781 370.696C737.565 371.921 738.246 373.055 739.224 374.618C737.364 375.991 735.873 377.051 734.253 378.235Z" fill="#793DFA"/>
<path d="M225.963 330.892C226.635 332.056 227.2 333.032 227.981 334.383C221.898 337.29 215.852 340.174 209.807 343.059C209.846 343.387 209.893 343.685 209.903 344.005C211.019 343.987 212.301 344.298 213.246 343.854C214.986 343.051 216.525 341.814 218.584 341.953C222.545 340.921 226.536 339.896 230.392 338.899C232.691 342.053 230.058 343.346 228.014 345.876C230.139 345.652 231.503 345.542 232.979 345.366C233.413 346.117 233.956 347.055 234.52 348.031C233.655 351.257 232.791 354.484 231.919 357.739C230.725 358.403 229.522 359.096 228.253 359.802C228.298 360.227 228.193 360.738 228.434 361.025C229.906 362.878 231.363 364.791 232.964 366.521C234.69 368.379 237.521 369.55 236.676 372.94C236.573 373.325 237.106 373.944 237.471 374.359C238.821 375.958 240.539 377.37 241.484 379.177C242.459 380.993 242.668 383.174 243.435 385.886C243.07 387.247 242.491 389.408 241.92 391.539C240.229 392.513 238.539 393.488 237.111 394.311C227.892 387.939 218.776 381.658 209.668 375.347C207.098 375.927 204.349 376.586 201.607 377.216C201.566 377.015 201.487 376.835 201.446 376.633C198.779 378.171 196.149 379.687 192.73 381.658C192.534 382.271 192.104 383.52 191.595 385.065C186.263 388.014 180.676 391.085 176.17 393.557C172.871 398.637 172.251 404.625 164.504 403.787C163.621 400.917 158.212 399.055 160.995 393.647C159.573 392.79 157.849 391.757 155.962 390.617C155.409 390.786 154.428 391.126 153.658 391.395C152.17 388.649 150.878 386.241 148.964 382.715C149.719 377.524 150.707 370.874 151.723 363.881C160.394 358.432 168.913 353.07 177.938 347.367C175.642 344.912 173.215 342.707 171.3 340.133C169.32 337.445 167.883 334.395 166.168 331.429C167.383 329.503 168.606 327.546 169.936 325.428C168.751 324.635 167.89 324.055 166.815 323.323C167.275 321.607 167.759 319.801 168.275 317.877C168.838 317.553 169.589 317.119 170.416 316.643C172.854 316.789 175.411 316.966 178.563 317.176C185.337 323.782 192.771 331.008 200 338.052C209.434 337.217 216.953 331.206 225.963 330.892Z" fill="#793DFA"/>
</svg>
