<svg width="799" height="551" viewBox="0 0 799 551" fill="none" xmlns="http://www.w3.org/2000/svg">
<path fill-rule="evenodd" clip-rule="evenodd" d="M184.082 0H789C794.523 0 799 4.477 799 10V541C799 546.523 794.523 551 789 551H19.913C-34.828 371.305 26.798 152.433 184.082 0Z" fill="#6A25FF"/>
<mask id="mask0" mask-type="alpha" maskUnits="userSpaceOnUse" x="0" y="0" width="799" height="551">
<path fill-rule="evenodd" clip-rule="evenodd" d="M184.082 0H799V551H19.913C-34.828 371.305 26.798 152.433 184.082 0Z" fill="#6A25FF"/>
</mask>
<g mask="url(#mask0)">
<path d="M811.925 496.785C811.408 497.529 810.085 499.433 808.422 501.812C809.141 502.428 809.95 503.104 811.035 504.065C811.035 506.572 813.944 509.963 810.92 512.542C808.215 514.853 812.557 519.229 808.023 520.45C807.094 526.555 801.759 529.715 797.91 533.131C794.397 536.214 792.542 540.765 787.875 543.01C783.819 544.959 780.763 548.976 777.274 552.101C775.071 551.617 773.033 551.176 770.204 550.524C770.266 552.271 770.344 553.562 770.426 555.632C769.438 556.285 767.847 557.341 766.089 558.494C766.234 561.251 766.39 563.834 766.53 566.873C764.847 568.01 763.172 569.115 761.322 570.349C762.337 571.044 763.262 571.68 764.875 572.783C762.475 573.694 760.485 574.396 758.401 575.179C758.625 575.663 758.985 576.43 759.554 577.606C752.993 578.213 749.147 571.464 741.887 572.307C737.045 574.152 732.447 579.309 725.82 579.899C723.249 580.128 724.123 584.915 720.265 583.352C718.891 582.807 718.728 587.635 715.636 585.854C713.279 589.635 709.169 590.334 705.536 592.149C702.555 593.645 699.587 595.886 696.891 598.164C694.648 600.069 692.292 601.874 689.968 603.687C687.871 605.313 685.545 606.738 683.667 608.6C682.076 610.186 681.31 613.44 679.597 613.899C677.309 614.521 675.63 615.378 674.487 617.931C672.85 616.256 671.857 615.214 670.855 614.204C666.643 615.017 662.449 615.764 659.973 610.229C660.732 607.397 661.588 604.202 662.497 600.809C656.442 594.915 649.966 589.403 649.053 579.486C650.12 576.559 649.799 571.955 653.603 569.232C651.648 559.777 657.164 553.701 663.05 547.829C670.139 540.762 678.377 535.345 687.595 530.754C684.965 523.025 682.056 515.679 680.053 508.118C678.689 502.916 677.186 497.183 678.439 491.976C679.746 486.572 679.532 480.514 684.187 475.936C686.258 473.879 685.85 469.992 688.298 467.189C689.775 465.502 690.942 463.52 692.92 462.073C693.977 461.297 694.394 459.609 695.759 457.15C697.614 456.165 701.835 455.319 703.308 452.854C705.48 449.235 710.086 452.094 711.247 447.498C712.268 448.83 712.747 449.418 713.461 450.315C715.706 450.246 718.233 450.182 720.859 450.144C721.299 452.062 721.678 453.682 722.11 455.633C719.464 458.384 716.532 461.41 713.204 464.861C717.771 465.626 721.298 466.182 724.312 466.672C725.182 468.176 725.665 469.012 726.172 469.889C724.358 471.909 722.494 473.987 720.04 476.682C722.796 477.739 724.911 478.553 727.545 479.541C726.038 482.526 724.522 485.544 723.024 488.496C721.597 489.208 720.076 490.001 718.49 490.776C719.094 491.82 719.309 492.337 719.393 492.289C720.756 491.948 722.063 491.557 723.71 491.08C723.837 492.456 723.922 493.326 724.053 494.42C721.169 495.024 718.402 495.589 715.286 496.272C716.457 497.044 717.391 497.648 719.103 498.777C716.386 500.344 713.961 501.741 710.826 503.549C713.321 506.9 715.533 509.858 717.899 513.034C722.088 515.074 726.153 514.151 730.452 512.091C740.361 507.297 750.823 503.605 760.633 498.785C770.66 493.812 781.172 489.144 789.511 481.106C791.463 479.229 794.27 478.251 796.862 476.757C799.698 477.517 802.633 478.303 806.327 479.293C806.678 480.093 807.268 481.452 807.883 482.852C806.066 485.542 804.166 488.281 801.722 491.862C804.803 491.84 807.312 491.842 810.542 491.79C810.849 492.754 811.231 494.233 811.925 496.785Z" fill="#793DFA"/>
<path d="M190.485 533.002C187.345 533.114 184.734 533.226 181.378 533.351C182.569 531.94 183.346 531.019 184.344 529.803C183.096 526.15 181.537 522.732 177.082 522.209C177.088 520.869 177.111 519.993 177.114 518.794C174.608 518.122 172.002 517.424 169.694 516.805C169.163 515.886 168.6 515.347 168.576 514.776C168.34 511.041 169.203 506.896 167.874 503.68C166.129 499.506 168.39 496.476 169.15 493.114C169.783 490.353 171.613 487.878 173.038 485.33C178.058 476.226 184.231 467.961 191.345 460.406C195.703 455.749 200.38 451.354 205.316 447.311C210.127 443.34 215.408 439.99 220.654 436.241C219.751 435.258 218.808 434.158 217.782 433.107C207.847 422.961 199.872 411.434 192.912 399.155C189.621 393.366 191.238 387.198 191.446 381.147C191.527 378.733 192.626 376.345 193.271 373.94C196.914 369.974 201.9 370.887 207.119 370.273C207.952 373.497 208.833 376.804 209.806 380.56C210.198 380.417 210.873 380.139 212.057 379.68C212.515 380.474 213.445 381.358 213.512 382.294C213.962 388.133 217.583 392.033 221.615 395.585C229.785 402.822 238.098 409.921 246.94 417.55C249.985 415.683 253.392 412.466 257.334 411.475C260.976 410.544 262.5 405.516 267.315 407.336C266.852 406.294 266.525 405.536 266.037 404.452C267.837 403.804 269.678 403.133 272.219 402.225C273.308 400.929 274.94 398.93 276.529 396.955C278.073 397.263 279.541 397.586 281.621 398.002C281.064 396.652 280.761 395.936 280.274 394.852C284.249 395.317 285.539 391.427 288.511 389.964C291.651 388.405 294.261 385.786 297.489 383.368C297.911 383.904 298.366 384.45 299.209 385.523C299.962 384.56 300.673 383.621 301.578 382.486C302.097 383.19 302.558 383.843 303.417 384.991C306.289 379.019 311.21 374.901 316.254 371.38C321.431 367.755 326.407 363.299 333.643 361.884C334.258 362.755 335.108 363.936 336.064 365.251C332.218 369.445 328.489 373.6 322.599 374.74C321.946 377.177 321.346 379.417 320.675 381.92C321.975 381.951 323.211 382.352 323.607 381.929C325.183 380.268 326.473 378.355 327.134 377.473C332.365 375.097 336.596 373.16 341.986 370.721C341.349 374.151 340.899 376.36 340.499 378.512C338.997 378.71 337.868 378.831 336.689 379.01C336.847 379.476 337.016 380.297 337.19 380.309C339.49 380.431 341.816 380.454 344.631 380.502C345.037 382.023 345.528 383.884 346.019 385.745C345.374 386.173 344.613 386.64 343.792 387.196C343.457 389.895 345.973 393.04 342.771 395.36C342.246 394.548 341.778 393.788 341.269 393.051C340.822 393.531 340.102 393.974 340.104 394.363C340.152 395.505 340.522 396.628 340.844 398.197C339.132 402.61 334.65 404.692 330.466 406.854C326.49 408.895 322.273 410.519 317.268 412.708C318.686 414.146 319.949 415.367 321.342 416.764C319.79 418.467 318.837 419.517 317.842 420.592C318.123 421.126 318.516 421.902 319.142 423.129C317.108 422.937 315.388 422.759 312.917 422.485C313.135 424.308 313.292 425.833 313.519 427.624C311.474 427.076 309.463 426.537 307.517 426.015C305.787 427.988 304.301 429.708 302.866 431.371C303.476 432.522 303.893 433.34 304.503 434.492C302.568 434.327 300.831 434.214 298.342 434.006C298.53 435.68 298.687 437.205 298.872 439.02C297.26 438.835 295.55 438.624 293.318 438.379C293.485 440.259 293.642 441.784 293.891 444.286C291.796 442.737 290.258 441.619 288.425 440.28C286.975 441.868 285.482 443.481 283.999 445.06C284.152 445.807 284.09 446.567 284.466 446.88C285.085 447.469 286.059 447.66 286.679 448.249C289.001 450.531 288.708 454.264 291.006 456.504C293.5 458.937 293.994 462.106 295.17 465.104C296.243 467.827 296.951 470.064 296.019 472.886C295.688 473.856 296.305 475.116 296.497 476.509C295.815 477.208 294.822 478.143 293.475 479.476C290.964 479.086 288.342 481.878 284.349 478.972C277.403 473.899 270.08 469.042 261.935 465.8C261.491 465.611 261.289 464.78 260.743 463.786C257.528 465.89 254.346 468.003 250.352 470.64C250.231 470.96 249.687 472.332 249.083 473.794C247.298 473.598 245.578 473.42 242.9 473.126C243.946 475.948 244.756 478.071 245.93 481.21C243.954 480.01 242.642 479.234 241.002 478.23C240.524 478.561 239.528 479.247 238.438 480.014C238.726 483.163 237.392 484.711 233.516 485.72C231.523 489.07 229.631 492.305 228.03 494.982C226.363 495.135 225.418 495.235 224.223 495.339C224.875 496.467 225.165 496.968 225.673 497.845C222.454 499.171 218.904 500.021 216.156 501.967C213.676 503.703 212.037 506.653 209.73 509.459C209.8 509.725 210.164 510.74 210.741 512.413C208.215 513.925 205.731 515.412 203.34 516.819C203.818 517.936 204.169 518.736 204.817 520.145C203.092 521.306 201.375 522.435 199.516 523.702C199.092 525.283 198.616 527.061 198.113 528.939C195.29 530.371 192.558 531.863 190.485 533.002Z" fill="#793DFA"/>
<path d="M406.636 527.559C407.337 523.228 413.387 524.391 411.634 519.72C410.741 520.151 409.965 520.543 409.179 520.968C409.034 520.718 408.691 520.414 408.72 520.175C409.243 515.584 410.619 511.505 414.714 508.755C419.203 505.721 423.692 502.688 428.075 499.52C429.474 498.519 430.533 497.073 432.032 495.568C431.555 490.886 430.486 485.905 429.714 481.003C428.89 475.769 430.291 470.673 429.292 465.428C428.767 462.64 433.056 459.164 433.11 455.931C433.194 452.318 431.95 448.913 435.732 446.538C438.181 437.663 445.741 433.722 452.668 428.977C457.68 430.32 462.693 431.663 467.64 432.989C468.309 434.051 468.946 435.104 470.003 436.834C466.95 439.123 463.898 441.412 460.494 443.959C460.632 444.631 460.903 446.257 461.282 448.406C462.139 448.636 463.623 449.563 464.342 449.12C467.511 447.322 470.139 449.12 472.857 449.531C473.248 451.895 473.605 453.862 473.966 456.076C472.164 457.394 470.311 458.768 467.494 460.838C470.587 462.09 472.651 462.961 475.39 464.083C474.693 466.685 473.943 469.485 473.087 472.68C479.102 474.503 481.73 467.335 486.832 468.738C490.085 465.832 494.144 464.272 497.961 462.294C502.363 459.979 506.612 457.446 510.87 454.88C514.793 452.507 518.74 450.176 522.395 447.484C526.184 444.687 529.624 441.478 531.899 439.582C535.979 439.263 538.26 439.062 541.112 438.838C541.643 440.286 542.701 441.876 542.667 443.455C542.631 444.646 541.334 445.922 540.373 447.006C539.309 448.204 538.009 449.232 537.356 451.669C540.261 451.247 543.19 450.867 546.419 450.426C547.166 453.839 547.959 457.476 549.159 463.022C549.186 462.923 548.577 464.666 548.283 466.423C548.086 467.818 548.303 469.252 548.338 471.098C547.808 471.626 546.839 472.602 545.963 473.497C546.622 474.733 547.048 475.517 547.417 476.252C539.973 483.188 532.978 490.563 525.078 497.095C518.478 502.598 519.014 503.236 514.973 504.201C515.366 504.977 515.759 505.753 516.089 506.371C506.83 512.433 497.654 518.447 488.353 524.533C488.115 525.422 487.797 526.607 487.559 527.497C492.237 532.598 496.751 537.514 501.453 542.657C500.196 544.05 499.436 544.906 498.23 546.242C499.88 548.66 500.377 552.606 504.919 552.411C505.357 554.47 505.685 556.147 506.055 557.799C505.333 558.382 504.427 559.128 503.21 560.108C504.852 562.948 506.35 565.538 507.944 568.295C506.546 570.215 505.326 571.865 503.996 573.662C504.292 574.801 504.667 576.172 505.026 577.468C504.511 578.072 504.227 578.737 503.761 578.894C502.711 579.249 501.399 579.003 500.545 579.551C495.522 582.864 494.759 582.942 490.328 579.955C484.603 576.126 478.186 573.03 473.253 568.355C466.666 562.071 461.25 554.583 454.776 546.953C450.783 548.531 446.115 550.916 441.455 553.798C436.962 556.583 431.55 558.31 424.641 558.506C426.256 556.962 426.93 556.295 428.393 554.923C424.167 554.602 420.636 554.326 417.104 554.051C417.012 553.603 416.911 553.187 416.852 552.748C419.288 551.706 421.756 550.673 424.191 549.631C423.153 547.835 422.549 546.79 421.897 545.663C420.149 545.194 418.335 544.708 415.763 544.019C415.485 541.756 415.213 539.212 414.848 536.22C412.639 535.627 410.033 534.929 407.395 534.222C407.079 531.314 406.773 528.761 406.636 527.559Z" fill="#793DFA"/>
<path d="M492.886 361.739C489.592 361.633 486.711 361.567 482.606 361.456C479.425 357.497 475.713 352.619 471.75 347.886C467.031 342.279 463.371 335.756 457.543 331.124C456.203 330.058 454.719 329.131 452.778 327.799C451.239 323.257 452.866 315.997 445.069 314.755C442.478 310.707 443.505 305.158 438.667 303.296C437.768 300.055 437.602 296.586 435.987 294.036C428.596 282.312 424.411 269.436 421.84 254.626C422.407 250.401 423.863 244.966 424.429 239.293C425.338 230.359 431.899 224.209 440.599 221.422C442.997 220.652 444.82 218.069 448.17 219.285C450.492 220.119 453.333 219.539 456.702 219.629C457.405 220.7 458.367 222.123 459.537 223.954C455.86 227.523 450.354 228.942 448.465 234.543C453.601 237.931 457.817 232.354 463.683 233.149C464.208 233.961 465.137 235.374 466.018 236.705C463.194 239.196 461.304 240.843 457.791 243.926C462.009 243.75 464.755 244.45 466.131 243.407C469.612 240.704 474.129 240.467 477.584 237.333C480.771 234.41 485.162 232.797 489.616 231.343C495.886 229.316 501.538 225.501 507.628 222.826C516.57 218.868 525.193 214.259 534.728 211.519C538.481 210.441 541.797 207.694 545.251 205.619C548.38 203.704 552.572 203.627 554.354 200.009C558.608 201.149 562.401 202.166 566.457 203.252C565.866 205.459 565.327 207.468 564.365 211.058C563.947 211.299 562.484 212.143 560.687 213.179C562.382 213.316 564.027 213.509 565.698 213.604C567.378 213.666 569.093 213.596 571.677 213.582C569.761 219.282 568.648 224.491 571.863 229.377C570.655 230.324 569.975 230.883 568.591 231.959C569.692 232.996 570.955 234.217 573.319 236.474C570.272 236.504 569.212 236.503 567.795 236.512C567.981 237.797 568.391 239.037 568.304 240.284C568.226 241.499 567.735 242.673 567.417 243.859C562.86 247.545 558.302 251.23 553.3 255.256C552.623 255.145 551.161 254.93 548.988 254.595C549.386 255.619 549.631 256.285 549.941 257.109C549.069 258.252 548.096 259.509 546.971 260.938C539.162 258.422 536.907 266.572 531.179 268.426C531.84 270.051 532.182 270.884 532.333 271.242C528.195 273.628 524.056 276.014 519.834 278.448C520.036 278.749 519.705 278.272 519.858 278.49C517.977 279.574 516.054 280.683 514.131 281.791C513.742 281.263 513.345 280.769 512.956 280.241C512.577 281.657 512.197 283.073 511.685 284.984C510.859 283.845 510.398 283.191 509.346 281.709C509.105 283.798 508.941 285.201 508.734 287.158C505.715 289.456 502.076 292.222 498.126 295.224C497.062 293.915 496.348 293.018 495.716 292.213C491.469 295.135 487.097 298.129 482.725 301.123C483.843 302.093 484.872 303.004 486.39 304.329C484.227 305.938 482.374 307.312 480.605 308.639C480.608 309.416 480.423 310.108 480.689 310.567C484.522 318.16 489.545 325.401 491.996 333.401C494.647 342.372 498.504 351.983 492.886 361.739Z" fill="#793DFA"/>
<path d="M652.472 265.338C653.182 264.928 653.726 264.615 654.269 264.302C654.054 263.785 653.914 263.254 653.615 262.785C651.848 260.017 649.398 257.419 648.074 254.84C646.775 252.303 645.112 250.199 643.726 247.851C641.882 244.709 640.065 240.409 640.789 237.179C642.085 231.419 643.258 225.591 646.249 219.968C651.361 210.253 658.861 203.897 667.966 198.676C679.495 192.057 691 185.397 703.123 178.408C700.333 174.307 701.706 168.391 696.277 165.701C695.123 160.379 693.977 155.024 692.823 149.702C691.737 144.786 693.419 140.224 694.654 135.613C695.57 132.328 696.419 129.026 697.302 125.732C701.368 122.692 705.444 119.618 709.427 116.626C714.373 117.951 719.023 119.197 724.399 120.637C720.897 124.076 717.908 127.053 714.979 129.939C719.442 135.442 723.817 127.295 727.959 131.228C729.881 136.191 723.721 136.624 720.821 140.189C724.505 140.293 726.649 140.338 729.248 140.399C729.552 145.07 727.829 148.597 724.444 151.997C725.54 152.785 726.391 153.436 727.725 154.394C728.447 155.788 726.26 155.378 725.455 156.928C726.315 159.523 727.339 162.692 728.633 166.569C747.639 155 769.366 149.631 785.699 134.98C788.733 135.793 791.371 136.5 794.735 137.401C793.248 140.18 791.957 142.623 790.155 145.917C792.9 145.699 794.989 145.553 797.916 145.314C797.193 148.015 796.593 150.254 796.045 152.296C797.399 153.047 798.129 153.49 798.901 153.909C798.999 154.464 799.229 155.056 799.154 155.6C799.015 156.516 798.537 157.377 798.505 158.286C797.822 168.093 791.186 174.258 784.467 179.941C777.161 186.103 769.165 191.409 760.882 197.52C763.88 204.007 770.249 208.467 775.158 215.078C775.037 215.928 774.864 217.364 774.671 219.007C775.773 221.491 777.906 224.216 777.976 226.988C778.124 233.029 780.811 239.362 776.108 245.832C775.336 245.943 773.649 246.303 771.955 246.555C770.262 246.808 768.529 246.943 766.637 247.143C764.907 244.102 759.329 243.419 761.316 238.904C756.265 235.856 751.797 233.141 747.476 230.535C746.915 228.408 746.384 226.43 745.808 224.229C742.477 223.336 739.278 222.479 735.882 221.569C735.9 220.444 735.923 219.568 735.966 218.485C733.064 214.671 729.073 217.167 726.77 217.186C722.926 219.792 719.986 221.793 716.745 223.996C716.161 223.274 715.724 222.663 714.929 221.673C713.476 222.873 711.89 224.177 709.975 225.782C709.839 225.499 710.151 226.182 710.572 227.248C706.101 227.18 704.651 231.275 701.886 234.205C700.673 232.927 699.909 232.087 698.696 230.809C698.017 232.286 697.38 233.739 696.607 235.438C695.936 235.435 695.083 235.454 693.526 235.46C692.151 239.01 690.474 243.291 685.392 240.623C682.951 242.475 679.326 243.869 679.038 245.734C678.2 251.369 672.919 252.743 670.518 256.689C668.478 261.931 668.576 261.958 669.296 265.998C664.534 268.076 659.558 268.967 654.127 268.923C653.613 267.938 653.102 266.813 652.472 265.338Z" fill="#793DFA"/>
<path d="M153.691 22.8936C151.377 22.5562 149.981 22.3586 148.238 22.1385C148.951 23.5652 149.368 24.383 150.051 25.6603C146.696 29.2094 141.813 30.5485 137.965 33.4357C138.279 33.9787 138.593 34.5218 139.003 35.2319C136.251 36.4008 133.457 37.5937 131.106 38.5874C129.258 41.1283 130.711 44.9417 126.45 45.6712C129.214 48.8122 131.743 51.6431 134.188 54.5222C141.872 63.5708 150.496 71.8828 155.932 82.7293C159.033 88.9615 161.957 94.9342 160.091 102.165C159.764 103.384 160.699 104.905 161.212 106.949C158.049 107.937 155.077 108.87 151.34 110.022C136.215 94.7085 120.155 80.3797 106.818 62.0855C105.413 62.4503 102.582 62.3274 101.726 63.5452C98.3329 68.4254 93.4837 71.221 88.5597 74.0319C87.9744 74.3693 87.8305 75.5662 87.4779 76.3543C85.7431 76.1012 84.3227 75.8618 82.0843 75.5092C82.1336 77.0403 82.1368 78.3473 82.1986 80.6231C77.9592 82.5937 74.2308 86.2191 71.416 91.1837C69.795 94.0676 66.1386 95.8414 62.4701 98.8474C60.9698 104.447 59.1518 111.232 57.2367 118.379C55.4953 118.018 54.0508 117.737 52.4414 117.412C51.8468 118.311 51.1775 119.226 50.4134 120.363C48.4677 119.842 46.489 119.311 44.2135 118.702C44.0073 115.646 43.7616 112.473 43.5228 108.879C41.605 109.177 39.6871 109.476 37.3712 109.808C37.2955 108.376 37.2393 107.266 37.1831 106.157C36.7084 105.818 36.3131 105.183 35.825 105.158C31.8383 104.866 30.0979 100.94 30.1504 98.7656C30.4704 89.9202 27.3013 80.2457 34.8705 72.7073C37.3435 63.8739 44.66 58.5977 49.8251 51.7212C51.5182 49.492 55.7895 51.0954 55.7673 46.4297C55.7491 44.5186 59.773 42.5608 61.9825 40.6465C63.9984 38.9274 65.933 37.1159 68.1355 35.6233C70.6814 33.905 73.5677 32.6309 76.1223 30.8796C78.2413 29.4353 80.0858 27.5643 82.2953 25.65C73.577 14.5239 70.0066 1.07065 65.2591 -11.8155C65.634 -22.9761 64.1156 -34.3263 69.0564 -46.1697C72.3723 -48.3877 76.6015 -51.2435 81.132 -54.301C84.7787 -52.4766 89.7343 -53.6905 92.1951 -48.7597C89.057 -46.2822 85.9519 -43.7959 82.8139 -41.3184C83.264 -40.4918 83.6811 -39.674 84.1158 -38.9221C88.723 -36.5933 92.4101 -43.2304 97.0805 -40.2139C97.4419 -38.5285 97.812 -36.8761 98.1887 -35.116C96.341 -34.5521 94.2513 -33.8765 92.045 -33.1615C92.8904 -31.6995 93.5183 -30.6134 94.1222 -29.569C97.3675 -31.5235 99.8497 -30.8937 101.889 -26.4995C101.087 -24.5611 101.86 -21.2474 98.2324 -19.713C99.3267 -18.7844 100.388 -17.8646 101.915 -16.5729C99.9523 -15.0514 98.2402 -13.6745 96.4534 -12.2823C97.5588 -11.5272 98.4841 -10.8909 100.482 -9.50841C98.3289 -9.52046 97.302 -9.51322 95.5295 -9.49394C95.3061 -8.00055 94.438 -6.0798 94.9624 -4.73905C97.1566 0.791035 99.8083 6.1966 102.541 12.224C105.322 10.8157 107.434 9.79308 109.53 8.69573C121.811 2.1727 133.004 -6.61892 146.944 -9.83788C147.787 -13.248 151.245 -12.039 153.281 -13.4352C155.543 -15.0177 157.958 -16.3826 159.565 -17.3643C161.84 -16.7545 163.225 -16.3834 165.6 -15.7472C161.786 -12.4624 156.494 -11.4445 156.449 -5.20833C160.967 -6.50411 165.401 -7.75168 170.793 -9.27239C169.649 -6.71942 168.805 -4.75689 167.816 -2.51561C169.211 -1.25921 171.325 0.613336 173.577 2.62887C172.547 3.83547 171.677 4.83803 170.656 6.01169C171.526 6.45673 172.307 6.84232 173.12 7.23675C173.122 7.62556 173.293 8.30678 173.075 8.46022C170.104 10.8413 166.472 12.6568 164.18 15.5375C161.195 19.2915 156.842 20.102 153.691 22.8936Z" fill="#793DFA"/>
<path d="M293.294 158.576C302.807 151.7 310.825 146.047 318.714 140.218C326.2 134.705 333.045 128.419 339.472 121.846C339.097 121.004 338.745 120.204 338.131 118.804C340.107 117.497 342.083 116.191 344.16 114.771C346.172 115.31 348.183 115.849 350.096 116.361C351.714 119.16 352.648 122.799 354.967 124.303C357.802 126.122 357.569 128.707 358.327 130.887C360.936 138.434 362.222 145.769 356.659 153.209C353.237 157.799 349.792 162.348 346.28 166.879C345.239 168.259 344.312 169.74 342.894 171.866C341.556 172.638 339.424 173.867 337.125 175.192C336.516 177.465 335.88 179.836 335.607 180.857C330.324 186.325 325.951 190.908 321.115 195.896C324.788 200.127 328.125 204.163 331.646 208.037C338.609 215.692 343.758 224.308 345.442 234.644C345.803 236.859 345.631 239.213 345.725 242.557C345.21 243.16 343.984 244.702 342.582 246.374C340.505 246.735 338.247 247.119 336.503 247.428C332.67 244.848 329.201 242.753 326.037 240.317C322.872 237.88 319.946 235.084 316.909 232.435C317.71 227.072 311.209 227.589 309.721 223.378C308.486 219.941 304.361 217.529 301.045 214.205C286.134 223.024 272.318 233.301 259.14 244.49C258.132 245.35 257.904 247.124 257.326 248.488C252.357 250.545 248.391 248.988 245.078 244.994C245.387 243.841 245.705 242.656 245.846 242.129C241.393 237.511 237.174 233.204 232.607 228.485C230.822 224.724 233.43 220.269 232.703 216.12C231.935 211.467 234.586 207.905 234.681 204.648C244.165 192.998 254.329 183.296 267.103 175.987C267.562 174.274 268.101 172.265 268.745 169.861C263.993 164.245 262.093 156.958 260.059 149.777C259.394 147.375 259.92 144.621 260.021 142.001C260.2 136.718 259.773 131.45 261.35 126.224C264.357 116.192 272.028 110.517 282.661 109.483C289.371 108.845 294.965 111.579 301.704 112.679C296.225 119.013 287.95 116.125 281.362 120.925C289.968 122.843 297.299 116.194 305.59 120.075C304.713 122.028 303.836 123.982 302.9 126.026C304.333 127.01 306.454 128.46 308.484 129.852C307.337 134.134 306.384 137.691 305.431 141.248C302.046 144.647 298.421 148.018 295.205 151.71C294.199 152.959 294.23 155.085 293.294 158.576Z" fill="#793DFA"/>
<path d="M475.247 87.486C470.754 90.8005 466.654 93.8322 462.119 97.1709C461.21 100.563 460.195 104.351 459.03 108.699C455.52 109.135 452.127 109.532 448.26 109.978C445.206 104.888 444.978 99.1439 444.991 93.817C443.067 94.0074 441.334 94.1432 438.796 94.381C437.679 91.293 436.088 88.3954 435.633 85.3436C434.269 76.1881 436.913 67.5065 439.491 59.3367C441.884 56.3419 444.048 53.6741 446.721 50.2953C444.344 49.2702 442.047 49.0076 441.37 47.8379C437.137 40.42 432.996 32.921 429.348 25.1657C427.388 21.0045 425.387 16.338 425.377 11.8875C425.319 5.37658 427.034 -1.15366 428.051 -8.11769C431.821 -11.2378 435.231 -15.1251 439.565 -17.3174C443.532 -19.3257 448.436 -19.4237 454.02 -20.6103C454.839 -19.0494 455.643 -17.5633 456.437 -16.0442C455.61 -15.5951 444.57 -9.48097 444.57 -9.48097C445.029 -8.68729 445.512 -7.85183 446.188 -6.68219C450.997 -8.53547 456.011 -11.2869 461.903 -7.02525C459.696 -5.2515 457.942 -3.85049 454.92 -1.41239C458.23 -1.76104 460.089 -1.96911 462.644 -2.27278C463.291 -0.334353 464.002 1.76233 464.846 4.28316C461.711 6.09065 459.245 7.51255 456.235 9.24774C457.672 9.95064 458.444 10.3692 459.725 10.995C456.763 13.8725 456.646 18.9246 450.926 19.2981C454.416 27.1169 459.276 32.1963 464.137 37.6645C488.361 26.54 512.05 15.6959 536.074 4.65897C538.448 5.2952 541.251 6.04629 544.747 6.98296C542.418 9.60663 540.545 11.717 538.663 13.8602C540.739 16.5345 543.408 14.8845 545.99 14.482C550.983 22.4919 550.492 30.6561 546.786 38.9473C543.063 41.7621 539.247 44.6581 535.357 47.5694C535.51 47.7871 535.833 48.2972 536.72 49.7352C535.051 49.4998 533.481 49.2909 531.879 49.0732C532.296 49.891 532.755 50.6847 533.172 51.5025C531.984 51.1844 530.797 50.8662 529.841 50.61C520.567 60.5512 508.037 65.6306 497.595 74.129C506.487 82.7599 517.038 90.2116 526.321 99.7591C526.209 101.494 526.093 103.511 525.931 105.832C527.671 104.745 528.976 103.965 530.248 103.176C534.541 104.962 533.074 110.041 536.33 112.926C539.154 115.447 539.902 120.307 541.585 124.183C540.641 127.707 539.688 131.264 538.726 134.854C537.639 135.48 536.552 136.107 535.047 136.975C526.045 133.504 519.806 126.184 512.502 119.673C512.293 119.793 511.516 120.185 511.191 120.345C505.676 117.314 503.842 110.045 496.801 109.147C494.729 104.214 489.598 102.522 486.153 99.0217C482.64 95.6445 479.356 91.9404 475.247 87.486Z" fill="#793DFA"/>
<path d="M698.707 301.165C700.272 302.714 701.535 303.935 703.361 305.695C702.081 308.494 700.801 311.293 699.228 314.79C700.047 317.798 700.233 322.119 704.384 324.961C707.197 322.644 709.323 319.719 713.704 319.198C716.775 318.821 719.45 315.301 722.308 313.208C725.444 310.871 729.214 309.728 732.032 306.6C734.394 303.985 738.247 302.794 741.117 300.527C744.079 298.178 746.577 295.318 749.296 292.692C752.824 293.638 756.023 294.495 759.42 295.405C759.189 298.379 759.329 301.417 755.18 303.447C758.046 304.357 760.229 305.048 762.248 305.694C762.05 310.125 761.86 314.133 761.654 318.067C760.053 318.238 758.925 318.359 757.572 318.527C757.483 319.385 757.221 320.233 757.324 321.037C758.171 327.901 757.21 329.902 751.083 333.379C748.542 334.816 746.888 337.692 747.158 339.847C747.633 343.222 744.083 341.035 745.147 344.321C743.625 342.218 743.172 341.532 742.346 340.393C741.834 342.303 741.455 343.72 741.005 345.399C738.995 345.249 737.291 345.146 735.215 344.978C734.694 346.921 734.156 348.93 733.9 349.885C730.947 351.671 728.881 352.918 727.15 353.972C729.462 357.874 731.605 361.484 733.386 364.468C732.609 367.366 732.142 369.112 731.577 371.22C733.002 373.685 734.475 376.233 735.988 378.897C735.019 379.873 734.43 380.492 733.369 381.549C733.813 383.716 734.341 386.363 735.013 389.791C732.294 392.946 729.314 396.419 726.485 399.72C723.22 398.846 720.879 398.218 718.999 397.714C711.601 390.366 704.456 383.263 697.302 376.192C695.2 378.1 693.486 379.617 692.082 380.9C690.735 379.727 689.673 378.807 687.893 377.271C687.064 380.368 686.464 382.607 685.652 385.637C683.188 383.883 681.461 382.679 678.228 380.365C679.174 382.772 679.419 383.438 679.929 384.704C677.865 385.81 675.676 386.989 672.217 388.815C672.557 385.306 672.783 383.142 673.005 380.731C674.373 380.638 675.492 380.55 676.935 380.442C677.243 379.819 677.629 379.04 678.067 378.063C677.019 377.358 676.094 376.722 675.136 376.077C675.955 374.602 676.783 373.094 678.166 370.57C676.078 371.635 675.293 372.06 674.8 372.316C671.169 370.566 667.718 368.935 664.086 367.186C663.793 365.907 663.432 364.222 663 362.27C664.399 359.821 665.951 357.06 667.564 354.209C669.232 354.974 671.377 355.937 673.523 356.9C673.71 356.597 673.897 356.294 674.051 355.983C672.028 354.17 670.028 352.398 668.224 350.82C670.106 348.677 671.964 346.492 673.906 344.259C670.694 332.632 666.763 321.447 666.057 309.573C665.893 301.48 670.451 294.759 673.524 287.64C675.926 282.106 681.761 279.327 687.748 277.825C688.588 277.591 689.437 277.324 690.819 276.918C693.49 277.633 696.689 278.491 699.756 279.312C700.794 281.109 701.712 282.696 702.364 283.824C700.149 285.101 697.849 286.427 696.512 287.198C695.797 289.866 695.479 291.051 695.029 292.731C697.149 292.734 699.185 292.786 701.521 292.776C702.393 294.139 703.15 295.401 704.239 297.141C702.169 298.669 700.51 299.848 698.707 301.165Z" fill="#793DFA"/>
<path d="M133.077 248.483C133.826 249.778 134.454 250.864 135.323 252.368C128.554 255.602 121.826 258.812 115.099 262.022C115.142 262.387 115.195 262.718 115.205 263.074C116.448 263.054 117.875 263.401 118.926 262.906C120.862 262.013 122.574 260.636 124.866 260.791C129.274 259.643 133.715 258.503 138.006 257.393C140.565 260.903 137.634 262.342 135.36 265.157C137.724 264.907 139.242 264.785 140.885 264.589C141.368 265.425 141.972 266.469 142.6 267.555C141.638 271.145 140.676 274.735 139.705 278.358C138.376 279.097 137.038 279.868 135.626 280.654C135.676 281.127 135.559 281.695 135.827 282.014C137.466 284.077 139.087 286.206 140.869 288.131C142.789 290.199 145.939 291.502 144.999 295.274C144.884 295.702 145.477 296.391 145.884 296.853C147.386 298.632 149.298 300.203 150.349 302.215C151.434 304.235 151.667 306.663 152.52 309.68C152.114 311.195 151.47 313.599 150.834 315.971C148.953 317.055 147.072 318.14 145.484 319.056C135.224 311.965 125.08 304.975 114.944 297.952C112.084 298.598 109.025 299.332 105.974 300.032C105.928 299.808 105.84 299.608 105.794 299.384C102.826 301.095 99.9001 302.782 96.096 304.975C95.8777 305.658 95.3993 307.048 94.8326 308.767C88.8988 312.048 82.6812 315.466 77.6671 318.217C73.9963 323.87 73.3065 330.534 64.6848 329.6C63.7024 326.407 57.6832 324.335 60.7804 318.317C59.1979 317.363 57.2791 316.214 55.1801 314.945C54.5642 315.133 53.4731 315.512 52.6152 315.811C50.9598 312.755 49.5218 310.076 47.3921 306.151C48.2329 300.375 49.3323 292.974 50.4629 285.193C60.1112 279.13 69.5922 273.163 79.6343 266.816C77.0792 264.084 74.3787 261.631 72.2482 258.765C70.0451 255.775 68.445 252.381 66.5369 249.081C67.889 246.936 69.25 244.759 70.7298 242.402C69.4111 241.52 68.4529 240.875 67.2573 240.06C67.7692 238.15 68.3075 236.141 68.8812 234C69.5082 233.638 70.3443 233.156 71.264 232.626C73.9775 232.788 76.8229 232.986 80.3302 233.22C87.8688 240.57 96.1412 248.611 104.185 256.45C114.684 255.521 123.051 248.832 133.077 248.483Z" fill="#793DFA"/>
</g>
</svg>
