<?xml version="1.0" encoding="utf-8"?>
<!-- Generator: Adobe Illustrator 22.1.0, SVG Export Plug-In . SVG Version: 6.00 Build 0)  -->
<svg version="1.1" id="Layer_1" xmlns="http://www.w3.org/2000/svg" xmlns:xlink="http://www.w3.org/1999/xlink" x="0px" y="0px"
	 viewBox="0 0 50 50" style="enable-background:new 0 0 50 50;" xml:space="preserve">
<style type="text/css">
	.st0{fill:none;stroke:#000000;stroke-width:0.75;stroke-linecap:round;stroke-linejoin:round;stroke-miterlimit:10;}
</style>
<g>
	<line class="st0" x1="25" y1="27.5" x2="25" y2="36.5"/>
	<line class="st0" x1="20" y1="27.5" x2="21" y2="36.5"/>
	<line class="st0" x1="30" y1="27.5" x2="29" y2="36.5"/>
	<path class="st0" d="M31.3,36.5H18.7c-0.4,0-0.8-0.3-0.9-0.7L15,27.5h20l-2.8,8.3C32.1,36.2,31.7,36.5,31.3,36.5z"/>
	<g>
		<path class="st0" d="M22.7,22.3c-0.8-0.8-1.9-1.2-3.2-1.2c-0.3,0-0.5,0-0.7,0.1c-0.2,0-0.5,0.1-0.7,0.2"/>
		<path class="st0" d="M15.8,27.5C15.3,26.8,15,26,15,25.2c0-1.8,1.3-3.4,3-3.9c0.4-3.2,3.3-5.8,7-5.8s6.6,2.5,7,5.8
			c1.8,0.6,3,2.1,3,3.9c0,0.8-0.3,1.6-0.8,2.3"/>
	</g>
	<path class="st0" d="M27,15.8c0-0.1,0-0.2,0-0.3c0-1.1-0.9-2-2-2s-2,0.9-2,2c0,0.1,0,0.2,0,0.3"/>
</g>
</svg>
