<?xml version="1.0" encoding="utf-8"?>
<!-- Generator: Adobe Illustrator 22.1.0, SVG Export Plug-In . SVG Version: 6.00 Build 0)  -->
<svg version="1.1" id="Layer_1" xmlns="http://www.w3.org/2000/svg" xmlns:xlink="http://www.w3.org/1999/xlink" x="0px" y="0px"
	 viewBox="0 0 50 50" style="enable-background:new 0 0 50 50;" xml:space="preserve">
<style type="text/css">
	.st0{fill:none;stroke:#000000;stroke-width:0.75;stroke-linecap:round;stroke-linejoin:round;stroke-miterlimit:10;}
</style>
<g>
	<g>
		<path class="st0" d="M25.5,37.5h-9V25c0-2.5,2-4.5,4.5-4.5l0,0c2.5,0,4.5,2,4.5,4.5V37.5z"/>
		<polyline class="st0" points="18.8,21.1 19.5,14.5 22.5,14.5 23.2,21.1 		"/>
		<line class="st0" x1="16.5" y1="26.5" x2="25.5" y2="26.5"/>
		<line class="st0" x1="16.5" y1="32.5" x2="25.5" y2="32.5"/>
	</g>
	<g>
		<path class="st0" d="M32.5,30.5L32.5,30.5c-1.7,0-3-1.3-3-3v-4h6v4C35.5,29.2,34.2,30.5,32.5,30.5z"/>
		<line class="st0" x1="29.5" y1="37.5" x2="35.5" y2="37.5"/>
		<line class="st0" x1="32.5" y1="30.5" x2="32.5" y2="37.5"/>
	</g>
</g>
</svg>
