<?xml version="1.0" encoding="utf-8"?>
<!-- Generator: Adobe Illustrator 22.1.0, SVG Export Plug-In . SVG Version: 6.00 Build 0)  -->
<svg version="1.1" id="Layer_1" xmlns="http://www.w3.org/2000/svg" xmlns:xlink="http://www.w3.org/1999/xlink" x="0px" y="0px"
	 viewBox="0 0 50 50" style="enable-background:new 0 0 50 50;" xml:space="preserve">
<style type="text/css">
	.st0{fill:none;stroke:#000000;stroke-width:0.75;stroke-linecap:round;stroke-linejoin:round;stroke-miterlimit:10;}
</style>
<g>
	<path class="st0" d="M14.6,25c1.1-0.1,2.3,0,3.4,0.2c1,0.2,1.9,0.6,2.8,1.2c1,0.7,1.5,1.6,2.3,2.5c1.3,1.5,3.2,2.5,5.1,2.5h7.3
		c0-1.2-0.6-2.4-1.5-3.1l-2.1-1.4c-0.6,0.3-1.3,0.4-2,0.5c-0.7,0-1.4,0-2.1-0.2c-0.7-0.2-1.3-0.5-1.8-0.9c-0.4-0.3-0.7-0.6-1-1
		s-0.6-0.7-0.9-1.1c-0.3-0.4-0.5-0.8-0.8-1.2s-0.5-0.8-0.8-1.2c-0.4-0.5-0.8-1-1.2-1.4s-0.9-0.8-1.4-1.1c-0.5-0.3-1-0.5-1.6-0.6
		s-1.2-0.2-1.8-0.1C16.4,18.4,14.1,19.5,14.6,25z"/>
	<path class="st0" d="M14.6,25c0.2,1.2,0.8,2.3,1.3,3.4c0.2,0.5,0.4,1,0.5,1.4c0,0.1,0.3,1.5,0.2,1.5H18c0-0.7,0-1.4,0-2.1
		c0-0.6-0.1-1.3,0-1.9c0.1-0.8,0.4-1.3,0.9-1.9"/>
</g>
</svg>
