<?xml version="1.0" encoding="utf-8"?>
<!-- Generator: Adobe Illustrator 22.1.0, SVG Export Plug-In . SVG Version: 6.00 Build 0)  -->
<svg version="1.1" id="Layer_1" xmlns="http://www.w3.org/2000/svg" xmlns:xlink="http://www.w3.org/1999/xlink" x="0px" y="0px"
	 viewBox="0 0 50 50" style="enable-background:new 0 0 50 50;" xml:space="preserve">
<style type="text/css">
	.st0{fill:none;stroke:#010101;stroke-width:0.75;stroke-linecap:round;stroke-linejoin:round;stroke-miterlimit:10;}
</style>
<g>
	<polyline class="st0" points="34.3,24.5 34.3,38.5 17.3,38.5 17.3,24.5 	"/>
	<polyline class="st0" points="22.3,38.5 22.3,30.5 29.3,30.5 29.3,38.5 	"/>
	<line class="st0" x1="18.3" y1="24.5" x2="20.3" y2="19.5"/>
	<line class="st0" x1="22.3" y1="24.5" x2="23.3" y2="19.5"/>
	<line class="st0" x1="29.3" y1="24.5" x2="28.3" y2="19.5"/>
	<line class="st0" x1="31.3" y1="19.5" x2="33.3" y2="24.5"/>
	<path class="st0" d="M14.6,22.8l2.7-3.3h17l2.7,3.3c0.6,0.6,0.1,1.7-0.7,1.7h-21C14.4,24.5,14,23.5,14.6,22.8z"/>
	<line class="st0" x1="25.8" y1="19.5" x2="25.8" y2="24.5"/>
	<polyline class="st0" points="34.3,19.5 34.3,15.5 17.3,15.5 17.3,19.5 	"/>
</g>
</svg>
