<?xml version="1.0" encoding="utf-8"?>
<!-- Generator: Adobe Illustrator 22.1.0, SVG Export Plug-In . SVG Version: 6.00 Build 0)  -->
<svg version="1.1" id="Layer_1" xmlns="http://www.w3.org/2000/svg" xmlns:xlink="http://www.w3.org/1999/xlink" x="0px" y="0px"
	 viewBox="0 0 50 50" style="enable-background:new 0 0 50 50;" xml:space="preserve">
<style type="text/css">
	.st0{fill:#FFFFFF;stroke:#010101;stroke-width:0.75;stroke-linecap:round;stroke-linejoin:round;stroke-miterlimit:10;}
	.st1{fill:none;stroke:#010101;stroke-width:0.75;stroke-linecap:round;stroke-linejoin:round;stroke-miterlimit:10;}
</style>
<g>
	<rect x="8.8" y="24.8" class="st0" width="18.5" height="3.2"/>
	<rect x="10.4" y="28" class="st0" width="15.3" height="10.5"/>
	<path class="st1" d="M22.2,22.5c0.3-0.4,0.5-1,0.3-1.5c-0.2-0.6-0.9-1-1.4-1c-1.9,0.2-3.2,2.7-3.3,4.8c0,0,1.7-0.6,1.8-0.6
		C20.2,24,21.5,23.4,22.2,22.5z"/>
	<path class="st1" d="M14,22.9c-0.2-0.4-0.4-0.8-0.2-1.3c0.2-0.6,0.7-0.9,1.2-0.8c1.6,0.2,2.7,2.3,2.7,4c0,0-1.4-0.5-1.5-0.5
		C15.6,24.1,14.5,23.6,14,22.9z"/>
	<line class="st1" x1="16.9" y1="28" x2="16.9" y2="38.5"/>
	<line class="st1" x1="19.3" y1="28" x2="19.3" y2="38.5"/>
</g>
<g>
	<rect x="22.5" y="15.6" class="st0" width="18.5" height="3.2"/>
	<rect x="24.1" y="18.8" class="st0" width="15.3" height="21.5"/>
	<path class="st1" d="M35.8,13.3c0.3-0.4,0.5-1,0.3-1.5c-0.2-0.6-0.9-1-1.4-1c-1.9,0.2-3.2,2.7-3.3,4.8c0,0,1.7-0.6,1.8-0.6
		C33.8,14.8,35.2,14.1,35.8,13.3z"/>
	<path class="st1" d="M27.6,13.7c-0.2-0.4-0.4-0.8-0.2-1.3c0.2-0.6,0.7-0.9,1.2-0.8c1.6,0.2,2.7,2.3,2.7,4c0,0-1.4-0.5-1.5-0.5
		C29.2,14.9,28.1,14.4,27.6,13.7z"/>
	<line class="st1" x1="30.5" y1="18.8" x2="30.5" y2="40.2"/>
	<line class="st1" x1="32.9" y1="18.8" x2="32.9" y2="40.2"/>
</g>
</svg>
