<?xml version="1.0" encoding="utf-8"?>
<!-- Generator: Adobe Illustrator 22.1.0, SVG Export Plug-In . SVG Version: 6.00 Build 0)  -->
<svg version="1.1" id="Layer_1" xmlns="http://www.w3.org/2000/svg" xmlns:xlink="http://www.w3.org/1999/xlink" x="0px" y="0px"
	 viewBox="0 0 50 50" style="enable-background:new 0 0 50 50;" xml:space="preserve">
<style type="text/css">
	.st0{fill:none;stroke:#000000;stroke-width:0.75;stroke-linecap:round;stroke-linejoin:round;}
</style>
<g>
	<line class="st0" x1="22.5" y1="16.6" x2="22.5" y2="13.5"/>
	<line class="st0" x1="28.5" y1="16.6" x2="28.5" y2="13.5"/>
	<path class="st0" d="M28.5,24.5l4,11c-3.9,1.3-10.1,1.3-14,0l4-11l-1.7-4.6c-0.3-0.9-0.2-2,0.4-2.7c0.5-0.5,1.1-0.8,1.8-0.8
		c1.4,0,2.5,1.2,2.5,2.7c0-1.5,1.1-2.7,2.5-2.7c0.7,0,1.3,0.3,1.8,0.8c0.7,0.7,0.8,1.8,0.4,2.7L28.5,24.5z"/>
	<line class="st0" x1="28.5" y1="24.5" x2="22.5" y2="24.5"/>
	<polyline class="st0" points="26.5,27.5 25.5,24.5 24.5,26.5 	"/>
</g>
</svg>
