<?xml version="1.0" encoding="utf-8"?>
<!-- Generator: Adobe Illustrator 22.1.0, SVG Export Plug-In . SVG Version: 6.00 Build 0)  -->
<svg version="1.1" id="Layer_1" xmlns="http://www.w3.org/2000/svg" xmlns:xlink="http://www.w3.org/1999/xlink" x="0px" y="0px"
	 viewBox="0 0 50 50" style="enable-background:new 0 0 50 50;" xml:space="preserve">
<style type="text/css">
	.st0{fill:none;stroke:#000000;stroke-width:0.75;stroke-linecap:round;stroke-linejoin:round;stroke-miterlimit:10;}
</style>
<g>
	<path class="st0" d="M20.8,36c-1.2,1.2-6.1,1.6-6.1,1.6s0.4-4.8,1.6-6.1c1.2-1.2,3.2-1.2,4.5,0C22.1,32.8,22.1,34.7,20.8,36z"/>
	<path class="st0" d="M19.8,30.8c1.1-2.7,2.7-5.1,4.7-7.2c1.6-1.8,3.5-3.3,5.6-4.5l7.7-4.5l-4.5,7.7c-1.2,2.1-2.7,4-4.5,5.6
		c-2.1,2-4.6,3.5-7.2,4.6"/>
	<line class="st0" x1="25" y1="30.8" x2="21.5" y2="27.4"/>
</g>
</svg>
