<?xml version="1.0" encoding="utf-8"?>
<!-- Generator: Adobe Illustrator 23.0.4, SVG Export Plug-In . SVG Version: 6.00 Build 0)  -->
<svg version="1.1" id="Layer_1" xmlns="http://www.w3.org/2000/svg" xmlns:xlink="http://www.w3.org/1999/xlink" x="0px" y="0px"
	 viewBox="0 0 50 50" style="enable-background:new 0 0 50 50;" xml:space="preserve">
<g>
	<g>
		<path d="M17.9,21.8c-1.8,0-3.2,1.5-3.2,3.2c0,1.8,1.5,3.2,3.2,3.2c0.1,0,0.1,0,0.2,0c-0.1-0.1-0.2-0.2-0.3-0.3
			c-0.1-0.4,0.3-0.8,0.9-1s1.2,0,1.3,0.4c0,0.1,0,0.2,0,0.2c0.7-0.6,1.2-1.5,1.2-2.5C21.2,23.2,19.7,21.8,17.9,21.8z M17.3,24
			c-0.6,0.2-1.2,0-1.3-0.4c-0.1-0.4,0.3-0.8,0.9-1s1.2,0,1.3,0.4C18.3,23.3,17.9,23.8,17.3,24z"/>
		<path d="M37.8,22c-1.7-3.6-4.9-6-7.9-6c-0.8,0-1.6,0.2-2.3,0.5c-1.3,0.6-2.2,1.8-2.8,3.3c-0.5-1.5-1.5-2.6-2.8-3.3
			c-0.7-0.3-1.5-0.5-2.3-0.5c-3,0-6.2,2.4-7.9,6c-1.1,2.2-1.5,4.6-1.2,6.7c0.3,2.2,1.5,3.9,3.1,4.7c0.7,0.3,1.5,0.5,2.3,0.5
			c0,0,0,0,0,0c3,0,6.2-2.4,7.9-6c0.3-0.7,0.6-1.4,0.8-2.1c0.2,0.7,0.5,1.4,0.8,2.1c1.7,3.6,4.9,6,7.9,6c0.8,0,1.6-0.2,2.3-0.5
			c1.7-0.8,2.8-2.5,3.1-4.7C39.3,26.6,38.9,24.2,37.8,22z M22.8,27.4c-0.8,1.6-1.8,2.9-3.1,3.8c-1.2,0.9-2.5,1.4-3.6,1.4
			c0,0,0,0,0,0c-0.6,0-1.2-0.1-1.7-0.4c-1.2-0.6-2.1-1.9-2.4-3.7c-0.3-1.8,0.1-3.9,1-5.9c0.8-1.6,1.8-2.9,3.1-3.8
			c1.2-0.9,2.5-1.4,3.6-1.4c0.6,0,1.2,0.1,1.7,0.4c1.2,0.6,2.1,1.9,2.4,3.7C24.1,23.3,23.7,25.4,22.8,27.4z M37.6,28.5
			c-0.3,1.7-1.1,3-2.4,3.7c-0.5,0.2-1.1,0.4-1.7,0.4c-1.2,0-2.4-0.5-3.6-1.4c-1.2-0.9-2.3-2.3-3.1-3.8c-1-2-1.3-4.1-1-5.9
			c0.3-1.7,1.1-3,2.4-3.7c0.5-0.2,1.1-0.4,1.7-0.4c1.2,0,2.4,0.5,3.6,1.4c1.2,0.9,2.3,2.3,3.1,3.8C37.5,24.6,37.9,26.7,37.6,28.5z"
			/>
		<path d="M31.7,21.8c-1.8,0-3.2,1.5-3.2,3.2c0,1,0.5,1.9,1.2,2.5c0-0.1,0-0.2,0-0.2c0.1-0.4,0.7-0.6,1.3-0.4s1,0.6,0.9,1
			c0,0.1-0.1,0.2-0.3,0.3c0.1,0,0.1,0,0.2,0c1.8,0,3.2-1.5,3.2-3.2C34.9,23.2,33.5,21.8,31.7,21.8z M33.6,23.6
			C33.5,24,33,24.1,32.4,24c-0.6-0.2-1-0.6-0.9-1s0.7-0.6,1.3-0.4C33.4,22.7,33.8,23.2,33.6,23.6z"/>
	</g>
</g>
</svg>
