<?xml version="1.0" encoding="utf-8"?>
<!-- Generator: Adobe Illustrator 23.0.6, SVG Export Plug-In . SVG Version: 6.00 Build 0)  -->
<svg version="1.1" id="Layer_1" xmlns="http://www.w3.org/2000/svg" xmlns:xlink="http://www.w3.org/1999/xlink" x="0px" y="0px"
	 viewBox="0 0 21 21" style="enable-background:new 0 0 21 21;" xml:space="preserve">
<path d="M9.4,1.9h1.9v0.7H9.4V1.9z"/>
<path d="M13.9,18.8c0.6,0,1-0.4,1-1c0-0.6-0.4-1-1-1s-1,0.4-1,1C13,18.3,13.4,18.8,13.9,18.8z M13.9,17.4c0.2,0,0.3,0.1,0.3,0.3
	c0,0.2-0.1,0.3-0.3,0.3s-0.3-0.1-0.3-0.3C13.6,17.6,13.7,17.4,13.9,17.4z"/>
<path d="M16.1,14.4l0.4-0.4l0.4,0.4l0.5-0.5L17,13.5l0.4-0.4l-0.5-0.5L16.5,13l-0.4-0.4l-0.5,0.5l0.4,0.4l-0.4,0.4L16.1,14.4z"/>
<path d="M16.5,16.8c0,0.6-0.4,1-1,1v0.7c0.9,0,1.6-0.7,1.6-1.7v-1.7h-0.6V16.8z"/>
<path d="M13.9,14.5c0.6,0,1-0.4,1-1s-0.4-1-1-1s-1,0.4-1,1S13.4,14.5,13.9,14.5z M13.9,13.2c0.2,0,0.3,0.1,0.3,0.3s-0.1,0.3-0.3,0.3
	s-0.3-0.1-0.3-0.3S13.7,13.2,13.9,13.2z"/>
<path d="M14.6,16.3l0.6-1l0.5,0.4l-0.6,1L14.6,16.3z"/>
<path d="M13.6,15.1h0.6v1.3h-0.6V15.1z"/>
<path d="M16,11.1l-3-1.7c0.7-0.6,1.1-1.5,1.2-2.4l0.6-0.2c0.4-0.1,0.7-0.5,0.7-1V5.3c0-0.2,0-0.3-0.1-0.5c-0.2-0.4-0.7-0.7-1.2-0.5
	V2.1c0-0.9-0.6-1.6-1.5-1.7l-2.5-0.1L8,0.5C7.1,0.6,6.5,1.3,6.5,2.2v2.3C6,4.3,5.4,4.6,5.3,5.1c0,0.1,0,0.2,0,0.3v0.7
	c0,0.5,0.3,0.9,0.7,1l0.6,0.2C6.7,8.1,7.1,9,7.8,9.6l-3.3,1.7c-1.2,0.6-1.9,1.8-1.9,3.2v5.6h16.2v-8.9L16,11.1z M14.5,5.1
	c0.2-0.1,0.3,0,0.4,0.2c0,0,0,0.1,0,0.1V6c0,0.2-0.1,0.3-0.3,0.3l-0.4,0.1V5.1L14.5,5.1z M7.1,2.2c0-0.5,0.4-1,0.9-1l2.4-0.2
	l2.4,0.2c0.5,0,0.9,0.5,0.9,1v1.1H7.1V2.2z M13.6,3.9c-0.1,0.5-0.5,0.9-1,1c-1.5,0.4-3,0.4-4.4,0c-0.5-0.1-0.8-0.5-1-1H13.6z M5.8,6
	V5.4c0-0.1,0-0.1,0-0.2C5.9,5.1,6.1,5,6.3,5l0.2,0.1v1.3L6.1,6.3C5.9,6.3,5.8,6.2,5.8,6L5.8,6z M7.1,6.7V5.1C7.4,5.3,7.7,5.5,8,5.6
	c0.8,0.2,1.6,0.3,2.4,0.3c0.8,0,1.6-0.1,2.4-0.3c0.3-0.1,0.6-0.3,0.8-0.5v1.7c0,1.2-0.7,2.2-1.7,2.7l-0.3,0.2
	c-0.8,0.4-1.7,0.4-2.4,0L8.9,9.5C7.8,9,7.1,7.9,7.1,6.7L7.1,6.7z M8.6,10l0.3,0.2c0.9,0.4,2,0.4,2.9,0l0.3-0.2
	c0.1,0,0.1-0.1,0.2-0.1l2.3,1.3h-3v1.6c-0.2,0.1-0.3,0.2-0.5,0.3l-0.8,0.3l-1-0.4c-1.1-0.4-1.8-1.5-1.9-2.6l0.9-0.5
	C8.4,10,8.5,10,8.6,10L8.6,10z M6.9,10.7c0.2,1.2,0.9,2.2,1.9,2.7H7.9c-1.2,0-2.4-0.6-3.2-1.6c0,0,0.1,0,0.1-0.1L6.9,10.7z
	 M6.8,19.4v-3H6.2v3H3.3v-5c0-0.8,0.3-1.6,0.9-2.2c0.9,1.2,2.2,1.8,3.7,1.8h0.9v3.3H8.4v0.7h1.3v-0.7H9.4v-3.3h0.9l0.1,0l1-0.5
	c0.1,0,0.2-0.1,0.2-0.1v5.8L6.8,19.4z M18.1,19.4h-5.8v-7.6h5.8V19.4z"/>
</svg>
