<?xml version="1.0" encoding="utf-8"?>
<!-- Generator: Adobe Illustrator 22.1.0, SVG Export Plug-In . SVG Version: 6.00 Build 0)  -->
<svg version="1.1" id="Layer_1" xmlns="http://www.w3.org/2000/svg" xmlns:xlink="http://www.w3.org/1999/xlink" x="0px" y="0px"
	 viewBox="0 0 50 50" style="enable-background:new 0 0 50 50;" xml:space="preserve">
<style type="text/css">
	.st0{fill:none;stroke:#000000;stroke-width:0.75;stroke-linecap:round;stroke-linejoin:round;}
</style>
<g>
	<path class="st0" d="M25,29.7L25,29.7c-1.1,0-2-0.9-2-2v-2c0-1.1,0.9-2,2-2l0,0c1.1,0,2,0.9,2,2v2C27,28.8,26.1,29.7,25,29.7z"/>
	<path class="st0" d="M27,25.2l6-3.3c1.3-0.7,3,0.1,3,1.6v6.3c0,1.4-1.7,2.3-3,1.6l-6-3.3V25.2z"/>
	<path class="st0" d="M23,28.1l-6,3.3c-1.3,0.7-3-0.1-3-1.6v-6.3c0-1.4,1.7-2.3,3-1.6l6,3.3V28.1z"/>
	<line class="st0" x1="23" y1="26.7" x2="18" y2="26.7"/>
	<line class="st0" x1="32" y1="26.7" x2="27" y2="26.7"/>
</g>
</svg>
