<?xml version="1.0" encoding="utf-8"?>
<!-- Generator: Adobe Illustrator 23.0.4, SVG Export Plug-In . SVG Version: 6.00 Build 0)  -->
<svg version="1.1" id="Layer_1" xmlns="http://www.w3.org/2000/svg" xmlns:xlink="http://www.w3.org/1999/xlink" x="0px" y="0px"
	 viewBox="0 0 50 50" style="enable-background:new 0 0 50 50;" xml:space="preserve">
<g>
	<g>
		<g>
			<rect x="17.2" y="17.9" width="16.4" height="1.5"/>
			<rect x="32" y="20.2" width="1.5" height="1.5"/>
			<rect x="17.2" y="20.2" width="1.5" height="1.5"/>
			<rect x="24.6" y="13.1" width="1.5" height="1.5"/>
			<rect x="26.8" y="13.1" width="1.5" height="1.5"/>
			<rect x="22.4" y="13.1" width="1.5" height="1.5"/>
			<rect x="20.1" y="13.1" width="1.5" height="1.5"/>
			<rect x="29.1" y="13.1" width="1.5" height="1.5"/>
			<path d="M38.9,40c-0.7,0.3-1.2,0.6-2.4,0.7l4.4-13.2c0.1-0.4-0.1-0.8-0.4-0.9l-4-1.8v-7.2c0-1.2-1-2.2-2.2-2.2h-1.1v-3.7
				c0-0.4-0.3-0.7-0.7-0.7h-6.3v-3h-1.5v3h-6.3c-0.4,0-0.7,0.3-0.7,0.7v3.7h-1.1c-1.2,0-2.2,1-2.2,2.2v7.2l-4,1.8
				c-0.3,0.2-0.5,0.6-0.4,0.9l4.4,13.2c-1.2,0-1.7-0.3-2.4-0.7c-0.7-0.4-1.6-0.8-3.1-0.8v1.5c1.2,0,1.8,0.3,2.4,0.7
				c0.7,0.4,1.6,0.8,3.1,0.8c0.4,0,0.8,0,1.1-0.1c0.9-0.1,1.5-0.5,2-0.7c0.7-0.4,1.2-0.7,2.4-0.7c1.2,0,1.8,0.3,2.4,0.7
				c0.7,0.4,1.6,0.8,3.1,0.8c1.6,0,2.4-0.4,3.1-0.8c0.7-0.4,1.2-0.7,2.4-0.7c1.2,0,1.8,0.3,2.4,0.7c0.5,0.3,1.1,0.6,2.1,0.7
				c0.3,0.1,0.7,0.1,1.1,0.1c1.6,0,2.4-0.4,3.1-0.8c0.7-0.4,1.2-0.7,2.4-0.7v-1.5C40.5,39.1,39.7,39.6,38.9,40z M39.3,27.6l-0.5,1.6
				l-12.7-5.8v-1.7L39.3,27.6z M19,12.4h12.6v3H19V12.4z M15.7,17.6c0-0.4,0.3-0.7,0.7-0.7h1.9h14.1h1.9c0.4,0,0.7,0.3,0.7,0.7v6.5
				l-9.4-4.2c-0.2-0.1-0.4-0.1-0.6,0l-9.4,4.2L15.7,17.6L15.7,17.6z M11.4,27.6l13.2-5.9v1.7l-12.7,5.8L11.4,27.6z M35,40.4
				c-0.4-0.1-0.7-0.3-1-0.5c-0.7-0.4-1.6-0.8-3.1-0.8c-1.6,0-2.4,0.4-3.1,0.8c-0.7,0.4-1.2,0.7-2.4,0.7s-1.8-0.3-2.4-0.7
				c-0.7-0.4-1.6-0.8-3.1-0.8c-1.6,0-2.4,0.4-3.1,0.8c-0.3,0.2-0.6,0.3-1,0.4l-3.3-9.8L24.6,25v8.9h1.5V25l12.2,5.6L35,40.4z"/>
		</g>
	</g>
</g>
</svg>
