<?xml version="1.0" encoding="utf-8"?>
<!-- Generator: Adobe Illustrator 22.1.0, SVG Export Plug-In . SVG Version: 6.00 Build 0)  -->
<svg version="1.1" id="Layer_1" xmlns="http://www.w3.org/2000/svg" xmlns:xlink="http://www.w3.org/1999/xlink" x="0px" y="0px"
	 viewBox="0 0 50 50" style="enable-background:new 0 0 50 50;" xml:space="preserve">
<style type="text/css">
	.st0{fill:none;stroke:#000000;stroke-linecap:round;stroke-linejoin:round;stroke-miterlimit:10;}
</style>
<line class="st0" x1="15.5" y1="31.5" x2="19.5" y2="31.5"/>
<path class="st0" d="M17.5,38.5h16c1.1,0,2-0.9,2-2v-20h-16v20C19.5,37.6,18.6,38.5,17.5,38.5L17.5,38.5c-1.1,0-2-0.9-2-2v-5"/>
<line class="st0" x1="22.5" y1="21.5" x2="27.9" y2="21.5"/>
<line class="st0" x1="22.5" y1="25.5" x2="27.9" y2="25.5"/>
<line class="st0" x1="22.5" y1="29.5" x2="27.9" y2="29.5"/>
<line class="st0" x1="22.5" y1="33.5" x2="27.9" y2="33.5"/>
<polyline class="st0" points="32.5,20.5 30.5,22.5 29.5,21.5 "/>
<polyline class="st0" points="32.5,24.5 30.5,26.5 29.5,25.5 "/>
<polyline class="st0" points="32.5,28.5 30.5,30.5 29.5,29.5 "/>
<polyline class="st0" points="32.5,32.5 30.5,34.5 29.5,33.5 "/>
</svg>
