<?xml version="1.0" encoding="utf-8"?>
<!-- Generator: Adobe Illustrator 23.0.4, SVG Export Plug-In . SVG Version: 6.00 Build 0)  -->
<svg version="1.1" id="Layer_1" xmlns="http://www.w3.org/2000/svg" xmlns:xlink="http://www.w3.org/1999/xlink" x="0px" y="0px"
	 viewBox="0 0 50 50" style="enable-background:new 0 0 50 50;" xml:space="preserve">
<path d="M29.1,18.1c0.4,0.2,0.9,0.4,1.4,0.4c1.4,0,2.6-1.2,2.6-2.6c0-1.4-1.1-2.5-2.5-2.6c0,0-9.9,0-9.9,0c-1.4,0.1-2.5,1.2-2.5,2.6
	c0,1.4,1.2,2.6,2.6,2.6c0.5,0,1-0.1,1.4-0.4c0.1,0.1,0.3,0.2,0.4,0.5v14.7c-0.6,0-1,0.5-1,1.1c0,0.5,0.3,0.9,0.8,1c0,0,0.1,0,0.1,0
	c0,0,0.1,0.2,0.1,0.3c0,0.2,0,0.3-0.1,0.3h-0.5c-0.6,0-1.1,0.5-1.1,1.1v0.7c0,0.2,0,0.3,0.1,0.5H20c-0.2,0-0.3,0.1-0.3,0.3v1.5
	c0,0.2,0.1,0.3,0.3,0.3h11.4c0.2,0,0.3-0.1,0.3-0.3v-1.5c0-0.2-0.1-0.3-0.3-0.3h-1.1c0.1-0.1,0.1-0.3,0.1-0.5v-0.7
	c0-0.6-0.5-1.1-1.1-1.1h-0.5c0,0-0.1-0.2-0.1-0.3c0-0.2,0.1-0.3,0.1-0.3c0,0,0.1,0,0.1,0c0.4-0.1,0.8-0.5,0.8-1c0-0.6-0.5-1-1-1.1
	V18.6C28.8,18.4,29,18.2,29.1,18.1z M28.2,14c-0.1,0-0.1,0.1-0.2,0.1c-0.9,0.6-1.4,0.7-2.2,0.7c-0.8,0-1.3-0.1-2.2-0.7
	c-0.1,0-0.2-0.1-0.2-0.1H28.2z M31.1,39.9H20.3V39h10.9V39.9z M29.3,36.7c0.3,0,0.5,0.2,0.5,0.5v0.7c0,0.3-0.2,0.5-0.5,0.5h-7.3
	c-0.3,0-0.5-0.2-0.5-0.5v-0.7c0-0.3,0.2-0.5,0.5-0.5H29.3z M28.2,36.2h-5.1c0-0.1,0-0.2,0-0.3c0-0.1,0-0.2,0-0.3h5.1
	c0,0.1,0,0.2,0,0.3C28.2,35.9,28.2,36.1,28.2,36.2z M29.1,34.4c0,0.3-0.2,0.5-0.5,0.5h-5.9c-0.3,0-0.5-0.2-0.5-0.5
	c0-0.3,0.2-0.5,0.5-0.5h5.9C28.9,33.9,29.1,34.1,29.1,34.4z M26.8,19.2c-0.4,0-0.8,0.4-0.8,0.8v13.3h-0.7V20c0-0.4-0.4-0.8-0.8-0.8
	c-0.4,0-0.8,0.4-0.8,0.8v13.3h-0.5V18.9h4.9v14.4h-0.5V20C27.7,19.6,27.3,19.2,26.8,19.2z M27.1,20v13.3h-0.5V20
	c0-0.1,0.1-0.2,0.2-0.2S27.1,19.9,27.1,20z M24.8,20v13.3h-0.5V20c0-0.1,0.1-0.2,0.2-0.2S24.8,19.9,24.8,20z M23.2,18.3
	c0-0.1-0.1-0.2-0.1-0.2h5.3c0,0.1-0.1,0.1-0.1,0.2H23.2z M22.9,17.5c0.2-0.2,0.3-0.5,0.4-0.8H28c0.1,0.3,0.2,0.6,0.4,0.8H22.9z
	 M28.6,16.4C28.6,16.4,28.6,16.4,28.6,16.4C28.6,16.4,28.6,16.4,28.6,16.4c-0.1-0.4,0.2-1,0.4-1.2c0.5-0.4,1.2-0.4,1.6,0.1
	c0.3,0.3,0.3,0.8,0,1.2c-0.2,0.2-0.6,0.2-0.9,0c-0.2-0.2-0.2-0.4,0-0.6c0.1-0.1,0.3-0.1,0.4,0c0.1,0.1,0.3,0.1,0.4,0
	c0.1-0.1,0.1-0.3,0-0.4c-0.3-0.3-0.9-0.3-1.2,0c-0.4,0.4-0.4,1,0,1.4c0.2,0.2,0.5,0.3,0.8,0.3c0.3,0,0.6-0.1,0.8-0.3
	c0.5-0.5,0.5-1.4,0-2c-0.6-0.6-1.6-0.7-2.4-0.1c-0.4,0.3-0.6,0.8-0.6,1.3h-4.6c0-0.5-0.3-1.1-0.6-1.3c-0.7-0.6-1.7-0.5-2.4,0.1
	c-0.5,0.5-0.5,1.4,0,2c0.2,0.2,0.5,0.3,0.8,0.3c0.3,0,0.6-0.1,0.8-0.3c0.4-0.4,0.4-1,0-1.4c-0.3-0.3-0.9-0.3-1.2,0
	c-0.1,0.1-0.1,0.3,0,0.4c0.1,0.1,0.3,0.1,0.4,0c0.1-0.1,0.3-0.1,0.4,0c0.2,0.2,0.2,0.4,0,0.6c-0.2,0.2-0.6,0.2-0.9,0
	c-0.3-0.3-0.3-0.8,0-1.2c0.4-0.4,1.1-0.5,1.6-0.1c0.2,0.2,0.5,0.7,0.4,1.2c0,0,0,0,0,0c0,0,0,0,0,0c-0.1,0.9-1,1.6-2,1.6
	c-1.1,0-2-0.9-2-2c0-1.1,0.9-2,2-2h0.6c0.5,0,1,0.2,1.7,0.6c1,0.6,1.6,0.7,2.5,0.7h0c0.9,0,1.5-0.1,2.5-0.7c0.6-0.4,1.2-0.6,1.7-0.6
	h0.6c1.1,0,2,0.9,2,2c0,1.1-0.9,2-2,2C29.6,18,28.7,17.2,28.6,16.4z"/>
</svg>
