<?xml version="1.0" encoding="utf-8"?>
<!-- Generator: Adobe Illustrator 22.1.0, SVG Export Plug-In . SVG Version: 6.00 Build 0)  -->
<svg version="1.1" id="Layer_1" xmlns="http://www.w3.org/2000/svg" xmlns:xlink="http://www.w3.org/1999/xlink" x="0px" y="0px"
	 viewBox="0 0 50 50" style="enable-background:new 0 0 50 50;" xml:space="preserve">
<style type="text/css">
	.st0{fill:none;stroke:#000000;stroke-width:0.75;stroke-linecap:round;stroke-linejoin:round;stroke-miterlimit:10;}
</style>
<g>
	<path class="st0" d="M20.7,25.2l3.4,11.4c0.3,0.9,1.6,0.9,1.9,0l3.4-11.4"/>
	<path class="st0" d="M30.3,21.3c0.1-0.4,0.2-0.8,0.2-1.2c0-3.2-2.5-5.8-5.5-5.8c-3,0-5.5,2.6-5.5,5.8c0,0.5,0.1,0.9,0.2,1.2
		c-0.7,0.3-1.2,1.1-1.2,1.9c0,1.2,0.9,2.1,2,2.1c0.6,0,1.1-0.3,1.5-0.7c0.4,0.4,0.9,0.7,1.5,0.7c0.6,0,1.1-0.3,1.5-0.7
		c0.4,0.4,0.9,0.7,1.5,0.7c0.6,0,1.1-0.3,1.5-0.7c0.4,0.4,0.9,0.7,1.5,0.7c1.1,0,2-0.9,2-2.1C31.5,22.3,31,21.6,30.3,21.3z"/>
	<path class="st0" d="M23.9,16.5c0.4-0.1,0.7-0.2,1.1-0.2"/>
	<path class="st0" d="M21.5,20c0-0.5,0.1-1,0.3-1.5c0.2-0.4,0.4-0.9,0.8-1.2"/>
</g>
</svg>
