<?xml version="1.0" encoding="utf-8"?>
<!-- Generator: Adobe Illustrator 22.1.0, SVG Export Plug-In . SVG Version: 6.00 Build 0)  -->
<svg version="1.1" id="Layer_1" xmlns="http://www.w3.org/2000/svg" xmlns:xlink="http://www.w3.org/1999/xlink" x="0px" y="0px"
	 viewBox="0 0 50 50" style="enable-background:new 0 0 50 50;" xml:space="preserve">
<style type="text/css">
	.st0{fill:none;stroke:#010101;stroke-width:0.75;stroke-linecap:round;stroke-linejoin:round;stroke-miterlimit:10;}
	.st1{fill:none;stroke:#000000;stroke-width:0.75;stroke-linecap:round;stroke-linejoin:round;stroke-miterlimit:10;}
</style>
<path class="st0" d="M16.7,33.9c0.1-1.9,0.4-4.1,1.3-5.9"/>
<g>
	<path class="st0" d="M22.5,23.1c-6.1,0-8,5.9-8,12c5.8,4,15.2,4,21,0c0-6.1-1.9-12-8-12"/>
	<path class="st0" d="M16.6,33.9c0.1-1.9,0.4-4.1,1.3-5.9"/>
</g>
<g>
	<g>
		<path class="st1" d="M29.1,23.2c-0.6-2.5-0.5-5.5,0.3-7.9c0.2-0.5-0.2-1.1-0.8-1.1c-1.5,0-3,0.6-3.5,1.7c-0.5-1.1-2-1.7-3.5-1.7
			c-0.6,0-1,0.6-0.8,1.1c0.8,2.3,0.9,5.4,0.3,7.9"/>
	</g>
</g>
<line class="st1" x1="21.8" y1="11.9" x2="21.8" y2="14.2"/>
<line class="st1" x1="28.2" y1="11.9" x2="28.2" y2="14.2"/>
</svg>
