<?xml version="1.0" encoding="utf-8"?>
<!-- Generator: Adobe Illustrator 22.1.0, SVG Export Plug-In . SVG Version: 6.00 Build 0)  -->
<svg version="1.1" id="Layer_1" xmlns="http://www.w3.org/2000/svg" xmlns:xlink="http://www.w3.org/1999/xlink" x="0px" y="0px"
	 viewBox="0 0 50 50" style="enable-background:new 0 0 50 50;" xml:space="preserve">
<style type="text/css">
	.st0{fill:none;stroke:#000000;stroke-width:0.75;stroke-linecap:round;stroke-linejoin:round;stroke-miterlimit:10;}
</style>
<g>
	<path class="st0" d="M29.7,25.6c0.8,1.1,1.3,2.4,0.3,3.8c-0.4,0.6-1.1,1-1.7,1.4c-0.7,0.5-1.3,1.1-1.6,1.9
		c-0.3,0.9-0.1,1.8-0.4,2.6c-0.3,0.9-0.8,1.7-1.6,2.3c-1.1,0.9-2.6,1.3-3.9,1.1c-1.6-0.3-2.9-1.6-3.7-2.4c-0.8-0.8-2.1-2.2-2.4-3.7
		c-0.2-1.3,0.2-2.8,1.1-3.9c0.6-0.7,1.4-1.3,2.3-1.6c0.9-0.3,1.8-0.2,2.6-0.4c0.8-0.3,1.4-0.9,1.9-1.6c0.4-0.6,0.8-1.3,1.4-1.7
		c1.3-1,2.7-0.5,3.8,0.3"/>
	<circle class="st0" cx="23.1" cy="30.2" r="2.5"/>
	<line class="st0" x1="18.6" y1="31.8" x2="21.6" y2="34.8"/>
	<g>
		<path class="st0" d="M37.2,18.1l-9.7,9.7l-1.9-1.9l9.7-9.7c0.5-0.5,1.4-0.5,1.9,0l0,0C37.7,16.6,37.7,17.6,37.2,18.1z"/>
		<line class="st0" x1="36.6" y1="18.8" x2="37.6" y2="19.8"/>
		<line class="st0" x1="34.6" y1="20.8" x2="35.6" y2="21.8"/>
		<line class="st0" x1="36.6" y1="18.8" x2="37.6" y2="19.8"/>
		<line class="st0" x1="34.6" y1="20.8" x2="35.6" y2="21.8"/>
		<g>
			<line class="st0" x1="32.6" y1="18.8" x2="31.6" y2="17.8"/>
			<line class="st0" x1="34.6" y1="16.8" x2="33.6" y2="15.8"/>
		</g>
	</g>
</g>
</svg>
