<?xml version="1.0" encoding="utf-8"?>
<!-- Generator: Adobe Illustrator 22.1.0, SVG Export Plug-In . SVG Version: 6.00 Build 0)  -->
<svg version="1.1" id="Layer_1" xmlns="http://www.w3.org/2000/svg" xmlns:xlink="http://www.w3.org/1999/xlink" x="0px" y="0px"
	 viewBox="0 0 50 50" style="enable-background:new 0 0 50 50;" xml:space="preserve">
<style type="text/css">
	.st0{fill:none;stroke:#000000;stroke-width:0.75;stroke-linecap:round;stroke-linejoin:round;stroke-miterlimit:10;}
</style>
<path class="st0" d="M33.6,23l-5.2,1.1l4.4-2.9c1.3-0.9,1.5-2.7,0.3-3.8l0,0c-1.1-1.1-3-0.9-3.8,0.3l-2.9,4.4l1.1-5.2
	c0.3-1.5-0.9-2.9-2.5-2.9s-2.8,1.4-2.5,2.9l1.1,5.2l-2.9-4.4c-0.9-1.3-2.7-1.5-3.8-0.3l0,0c-1.1,1.1-0.9,3,0.3,3.8l4.4,2.9L16.4,23
	c-1.5-0.3-2.9,0.9-2.9,2.5s1.4,2.8,2.9,2.5l5.2-1.1l-4.4,2.9c-1.3,0.9-1.5,2.7-0.3,3.8c1.1,1.1,3,0.9,3.8-0.3l2.9-4.4l-1.1,5.2
	C22.2,35.6,23.4,37,25,37s2.8-1.4,2.5-2.9l-1.1-5.2l2.9,4.4c0.9,1.3,2.7,1.5,3.8,0.3s0.9-3-0.3-3.8l-4.4-2.9l5.2,1.1
	c1.5,0.3,2.9-0.9,2.9-2.5S35.1,22.7,33.6,23z"/>
<circle class="st0" cx="25" cy="25.5" r="3.5"/>
</svg>
