<?xml version="1.0" encoding="utf-8"?>
<!-- Generator: Adobe Illustrator 22.1.0, SVG Export Plug-In . SVG Version: 6.00 Build 0)  -->
<svg version="1.1" id="Layer_1" xmlns="http://www.w3.org/2000/svg" xmlns:xlink="http://www.w3.org/1999/xlink" x="0px" y="0px"
	 viewBox="0 0 50 50" style="enable-background:new 0 0 50 50;" xml:space="preserve">
<style type="text/css">
	.st0{fill:none;stroke:#000000;stroke-width:0.75;stroke-linecap:round;stroke-linejoin:round;stroke-miterlimit:10;}
</style>
<g>
	<polyline class="st0" points="34.2,25.1 34.2,37.1 28.2,37.1 23.2,37.1 17.2,37.1 17.2,25.1 	"/>
	<polyline class="st0" points="28.2,25.1 34.2,25.1 36.2,25.1 36.2,20.1 28.2,20.1 23.2,20.1 15.2,20.1 15.2,25.1 17.2,25.1 
		23.2,25.1 	"/>
	<line class="st0" x1="23.2" y1="20.1" x2="23.2" y2="37.1"/>
	<line class="st0" x1="28.2" y1="20.1" x2="28.2" y2="37.1"/>
	<path class="st0" d="M25.8,19.9c0-1.2,0.3-2.5,1-3.6s2-2,3.5-2.2s3.2,0.4,3.8,1.6c0.5,1,0.1,2.2-0.8,3c-0.9,0.8-2.2,1.2-3.5,1.3
		C28.4,20.2,27.1,20.1,25.8,19.9z"/>
	<path class="st0" d="M25.8,19.9c0-1.2-0.3-2.5-1-3.6s-2-2-3.5-2.2s-3.2,0.4-3.8,1.6c-0.5,1-0.1,2.2,0.8,3c0.9,0.8,2.2,1.2,3.5,1.3
		C23.1,20.2,24.4,20.1,25.8,19.9z"/>
</g>
</svg>
