<?xml version="1.0" encoding="utf-8"?>
<!-- Generator: Adobe Illustrator 22.1.0, SVG Export Plug-In . SVG Version: 6.00 Build 0)  -->
<svg version="1.1" id="Layer_1" xmlns="http://www.w3.org/2000/svg" xmlns:xlink="http://www.w3.org/1999/xlink" x="0px" y="0px"
	 viewBox="0 0 50 50" style="enable-background:new 0 0 50 50;" xml:space="preserve">
<style type="text/css">
	.st0{fill:none;stroke:#000000;stroke-width:0.75;stroke-linecap:round;stroke-linejoin:round;stroke-miterlimit:10;}
	.st1{fill:#FFFFFF;stroke:#000000;stroke-width:0.75;stroke-linecap:round;stroke-linejoin:round;stroke-miterlimit:10;}
</style>
<g>
	<g>
		<polygon class="st0" points="25.1,18.3 27.5,14.6 22.6,14.6 		"/>
		<polygon class="st0" points="25.1,18.3 22.3,20.2 20.7,16.5 22.6,14.6 		"/>
		<polygon class="st0" points="25.1,18.3 27.8,20.2 29.4,16.5 27.5,14.6 		"/>
	</g>
	<g>
		<polyline class="st0" points="17,17.8 12.8,34.5 16,35.6 18.5,27 		"/>
		<polyline class="st0" points="33.1,17.8 37.3,34.5 34.1,35.6 31.7,27.2 		"/>
		<path class="st0" d="M29.3,16.7l3.8,1.1c-0.4,0.9-1,5-1.4,9.4c-0.3,3.8-0.5,7.8-0.2,9.8H18.7c0.7-4.1-0.8-17.6-1.6-19.2l3.7-1"/>
	</g>
	<line class="st0" x1="25.1" y1="18.3" x2="25.1" y2="37"/>
</g>
<g>
	<path class="st1" d="M25,20.6L25,20.6c-0.4,0-0.7-0.3-0.7-0.7v-0.7c0-0.4,0.3-0.7,0.7-0.7l0,0c0.4,0,0.7,0.3,0.7,0.7v0.7
		C25.7,20.3,25.4,20.6,25,20.6z"/>
	<path class="st1" d="M25.7,19l2.1-1.2c0.5-0.3,1.1,0.1,1.1,0.5v2.2c0,0.5-0.6,0.8-1.1,0.5L25.7,20V19z"/>
	<path class="st1" d="M24.3,20l-2.1,1.2c-0.5,0.3-1.1-0.1-1.1-0.5v-2.2c0-0.5,0.6-0.8,1.1-0.5l2.1,1.2V20z"/>
	<line class="st0" x1="24.3" y1="19.5" x2="22.6" y2="19.5"/>
	<line class="st0" x1="27.4" y1="19.5" x2="25.7" y2="19.5"/>
</g>
<polyline class="st0" points="22.3,21.2 25.1,28.8 27.7,21.2 "/>
<line class="st0" x1="20.4" y1="32.5" x2="23.4" y2="32.5"/>
<line class="st0" x1="26.9" y1="32.5" x2="29.9" y2="32.5"/>
<circle cx="26.6" cy="30.1" r="0.5"/>
</svg>
