<?xml version="1.0" encoding="utf-8"?>
<!-- Generator: Adobe Illustrator 22.1.0, SVG Export Plug-In . SVG Version: 6.00 Build 0)  -->
<svg version="1.1" id="Layer_1" xmlns="http://www.w3.org/2000/svg" xmlns:xlink="http://www.w3.org/1999/xlink" x="0px" y="0px"
	 viewBox="0 0 50 50" style="enable-background:new 0 0 50 50;" xml:space="preserve">
<style type="text/css">
	.st0{fill:none;stroke:#000000;stroke-width:0.75;stroke-linecap:round;stroke-linejoin:round;stroke-miterlimit:10;}
</style>
<g>
	<line class="st0" x1="15" y1="32.5" x2="36" y2="32.5"/>
	<circle class="st0" cx="18.5" cy="35" r="1.5"/>
	<circle class="st0" cx="32.5" cy="35" r="1.5"/>
	<polyline class="st0" points="14,19.5 16,21.5 16,32.5 	"/>
	<path class="st0" d="M31,30.5H19c-0.6,0-1-0.4-1-1v-7c0-0.6,0.4-1,1-1h12c0.6,0,1,0.4,1,1v7C32,30.1,31.6,30.5,31,30.5z"/>
	<path class="st0" d="M27,21.5h-4v-1c0-0.6,0.4-1,1-1h2c0.6,0,1,0.4,1,1V21.5z"/>
	<line class="st0" x1="20" y1="21.5" x2="20" y2="30.5"/>
	<line class="st0" x1="30" y1="21.5" x2="30" y2="30.5"/>
</g>
</svg>
