<?xml version="1.0" encoding="utf-8"?>
<!-- Generator: Adobe Illustrator 22.1.0, SVG Export Plug-In . SVG Version: 6.00 Build 0)  -->
<svg version="1.1" id="Layer_1" xmlns="http://www.w3.org/2000/svg" xmlns:xlink="http://www.w3.org/1999/xlink" x="0px" y="0px"
	 viewBox="0 0 50 50" style="enable-background:new 0 0 50 50;" xml:space="preserve">
<style type="text/css">
	.st0{fill:none;stroke:#000000;stroke-width:0.75;stroke-linecap:round;stroke-linejoin:round;stroke-miterlimit:10;}
</style>
<g>
	<path class="st0" d="M30.7,36.5h-11c-0.6,0-1-0.4-1-1v-21c0-0.6,0.4-1,1-1h11c0.6,0,1,0.4,1,1v21C31.7,36.1,31.3,36.5,30.7,36.5z"
		/>
	<line class="st0" x1="24.7" y1="15.5" x2="25.7" y2="15.5"/>
	<line class="st0" x1="18.7" y1="31.5" x2="31.7" y2="31.5"/>
	<line class="st0" x1="18.7" y1="17.5" x2="31.7" y2="17.5"/>
	<circle class="st0" cx="25.2" cy="34" r="0.5"/>
</g>
<g>
	<line class="st0" x1="24" y1="21.7" x2="24" y2="27.8"/>
	<line class="st0" x1="26.5" y1="21.7" x2="26.5" y2="27.8"/>
	<line class="st0" x1="28.3" y1="23.5" x2="22.2" y2="23.5"/>
	<line class="st0" x1="28.3" y1="26" x2="22.2" y2="26"/>
</g>
</svg>
