<?xml version="1.0" encoding="utf-8"?>
<!-- Generator: Adobe Illustrator 22.1.0, SVG Export Plug-In . SVG Version: 6.00 Build 0)  -->
<svg version="1.1" id="Layer_1" xmlns="http://www.w3.org/2000/svg" xmlns:xlink="http://www.w3.org/1999/xlink" x="0px" y="0px"
	 viewBox="0 0 50 50" style="enable-background:new 0 0 50 50;" xml:space="preserve">
<style type="text/css">
	.st0{fill:none;stroke:#000000;stroke-width:0.75;stroke-linecap:round;stroke-linejoin:round;stroke-miterlimit:10;}
</style>
<g>
	<circle class="st0" cx="25" cy="19" r="3.5"/>
	<circle class="st0" cx="18.5" cy="22.5" r="2"/>
	<path class="st0" d="M28.3,20.1c0.6,0.2,1.3,0.5,1.8,0.9"/>
	<path class="st0" d="M16.1,25.7c0.2-0.7,0.5-1.3,0.9-1.9"/>
	<path class="st0" d="M34.4,27.5c0.1,0.5,0.1,1,0.1,1.5c0,5.2-4.2,9.5-9.5,9.5s-9.5-4.2-9.5-9.5c0-0.5,0-1,0.1-1.5"/>
	<path class="st0" d="M19.8,21c0.6-0.4,1.2-0.7,1.8-0.9"/>
	<path class="st0" d="M33,23.8c0.4,0.6,0.7,1.2,0.9,1.9"/>
	<circle class="st0" cx="15.5" cy="26.5" r="1"/>
	<circle class="st0" cx="31.5" cy="22.5" r="2"/>
	<circle class="st0" cx="34.5" cy="26.5" r="1"/>
	<rect x="23.9" y="17.9" transform="matrix(0.7071 -0.7071 0.7071 0.7071 -6.1127 23.2426)" class="st0" width="2.1" height="2.1"/>
</g>
</svg>
