<?xml version="1.0" encoding="utf-8"?>
<!-- Generator: Adobe Illustrator 23.0.4, SVG Export Plug-In . SVG Version: 6.00 Build 0)  -->
<svg version="1.1" id="Layer_1" xmlns="http://www.w3.org/2000/svg" xmlns:xlink="http://www.w3.org/1999/xlink" x="0px" y="0px"
	 viewBox="0 0 50 50" style="enable-background:new 0 0 50 50;" xml:space="preserve">
<g>
	<path d="M41.1,38.5h-1V22.2c0.6-0.3,1-1,1-1.7v-5c0-0.8-0.7-1.5-1.5-1.5H29.4c-0.4-1.7-2-3-3.9-3s-3.4,1.3-3.9,3H11.5
		c-0.8,0-1.5,0.7-1.5,1.5v5c0,0.7,0.4,1.4,1,1.7v16.3h-1c-0.3,0-0.5,0.2-0.5,0.5c0,0.3,0.2,0.5,0.5,0.5h31c0.3,0,0.5-0.2,0.5-0.5
		C41.6,38.7,41.3,38.5,41.1,38.5z M39.1,21.5c-0.6,0-1-0.4-1-1h2C40.1,21.1,39.6,21.5,39.1,21.5z M11.1,20.5h2c0,0.6-0.4,1-1,1
		C11.5,21.5,11.1,21.1,11.1,20.5z M28.1,18.1v1.4h-2V19C26.8,18.9,27.5,18.6,28.1,18.1z M35.1,19.5V15h2v4.5H35.1z M34.1,19.5h-2V15
		h2V19.5z M31.1,19.5h-2V17c0,0,0,0,0-0.1c0.3-0.6,0.5-1.2,0.5-1.9h1.5V19.5z M25.1,19.5h-2v-1.4c0.6,0.5,1.2,0.8,2,0.8V19.5z
		 M22.1,16.9C22.1,17,22.1,17,22.1,16.9l0,2.6h-2V15h1.5C21.6,15.7,21.7,16.4,22.1,16.9z M19.1,19.5h-2V15h2V19.5z M16.1,19.5h-2V15
		h2V19.5z M16.1,20.5c0,0.6-0.4,1-1,1c-0.6,0-1-0.4-1-1H16.1z M19.1,20.5c0,0.6-0.4,1-1,1c-0.6,0-1-0.4-1-1H19.1z M22.1,20.5
		c0,0.6-0.4,1-1,1c-0.6,0-1-0.4-1-1H22.1z M25.1,20.5c0,0.6-0.4,1-1,1c-0.6,0-1-0.4-1-1H25.1z M28.1,20.5c0,0.6-0.4,1-1,1
		s-1-0.4-1-1H28.1z M31.1,20.5c0,0.6-0.4,1-1,1s-1-0.4-1-1H31.1z M34.1,20.5c0,0.6-0.4,1-1,1c-0.6,0-1-0.4-1-1H34.1z M37.1,20.5
		c0,0.6-0.4,1-1,1c-0.6,0-1-0.4-1-1H37.1z M40.1,15.5v4h-2V15h1.5C39.8,15,40.1,15.2,40.1,15.5z M25.6,12c1.7,0,3,1.3,3,3
		s-1.3,3-3,3s-3-1.3-3-3S23.9,12,25.6,12z M11.5,15h1.5v4.5h-2v-4C11.1,15.2,11.3,15,11.5,15z M12.1,22.5c0.6,0,1.1-0.3,1.5-0.7
		c0.4,0.4,0.9,0.7,1.5,0.7c0.6,0,1.1-0.3,1.5-0.7c0.4,0.4,0.9,0.7,1.5,0.7s1.1-0.3,1.5-0.7c0.4,0.4,0.9,0.7,1.5,0.7s1.1-0.3,1.5-0.7
		c0.4,0.4,0.9,0.7,1.5,0.7s1.1-0.3,1.5-0.7c0.4,0.4,0.9,0.7,1.5,0.7s1.1-0.3,1.5-0.7c0.4,0.4,0.9,0.7,1.5,0.7s1.1-0.3,1.5-0.7
		c0.4,0.4,0.9,0.7,1.5,0.7c0.6,0,1.1-0.3,1.5-0.7c0.4,0.4,0.9,0.7,1.5,0.7c0.6,0,1.1-0.3,1.5-0.7c0.4,0.4,0.9,0.7,1.5,0.7v16h-1v-14
		c0-0.6-0.4-1-1-1h-6.5c-0.6,0-1,0.4-1,1v14H12.1V22.5z M37.1,38.5h-6.5l0-14l6.5,0V38.5z"/>
	<path d="M27.6,23.5H14.1c-0.6,0-1,0.4-1,1v12c0,0.6,0.4,1,1,1h13.5c0.6,0,1-0.4,1-1v-12C28.6,23.9,28.1,23.5,27.6,23.5z M27.6,36.5
		H14.1v-12h13.5V36.5z"/>
	<path d="M31.6,33.5c0.3,0,0.5-0.2,0.5-0.5v-1.5c0-0.3-0.2-0.5-0.5-0.5s-0.5,0.2-0.5,0.5V33C31.1,33.3,31.3,33.5,31.6,33.5z"/>
	<path d="M23.2,14.8l2,2.5c0.1,0.1,0.2,0.2,0.4,0.2s0.3-0.1,0.4-0.2l2-2.5c0.2-0.2,0.1-0.5,0-0.7l-1-1c-0.1-0.1-0.2-0.1-0.4-0.1h-2
		c-0.1,0-0.3,0.1-0.4,0.1l-1,1C23,14.3,23,14.6,23.2,14.8z M24.8,14h1.6l0.5,0.5l-1.3,1.7l-1.3-1.7L24.8,14z"/>
	<path d="M15.1,29.5C15.1,29.5,15.1,29.5,15.1,29.5C15.1,29.6,15.1,29.6,15.1,29.5C15.1,29.6,15.1,29.6,15.1,29.5c0,0.1,0,0.1,0,0.1
		c0,0,0,0,0,0c0,0,0,0,0,0c0,0,0,0,0,0s0,0,0,0c0,0,0,0,0,0c0,0,0,0,0,0c0,0,0,0,0,0c0,0,0,0,0,0c0,0,0,0,0,0c0,0,0,0,0,0
		c0,0,0,0,0,0l5.2,5.5c0,0,0,0,0,0c0,0,0,0,0,0c0,0,0,0,0,0c0,0,0,0,0,0c0,0,0,0,0,0c0,0,0,0,0,0c0,0,0,0,0,0c0,0,0,0,0,0
		c0,0,0,0,0,0c0,0,0,0,0,0c0,0,0,0,0,0c0,0,0,0,0,0c0,0,0,0,0,0c0,0,0,0,0,0c0,0,0,0,0,0c0,0,0,0,0,0c0,0,0,0,0.1,0c0,0,0,0,0,0
		c0,0,0,0,0,0c0,0,0,0,0.1,0c0,0,0,0,0,0c0,0,0,0,0,0c0,0,0,0,0.1,0c0,0,0,0,0,0c0,0,0,0,0,0c0,0,0,0,0.1,0c0,0,0,0,0,0s0,0,0,0
		c0,0,0,0,0,0c0,0,0,0,0,0c0,0,0,0,0,0c0,0,0,0,0,0c0,0,0,0,0,0c0,0,0,0,0,0c0,0,0,0,0,0c0,0,0,0,0,0c0,0,0,0,0,0c0,0,0,0,0,0
		c0,0,0,0,0,0c0,0,0,0,0,0l5.2-5.5c0,0,0,0,0,0c0,0,0,0,0,0c0,0,0,0,0,0c0,0,0,0,0,0c0,0,0,0,0,0c0,0,0,0,0,0c0,0,0,0,0,0
		c0,0,0,0,0,0c0,0,0,0,0,0c0,0,0,0,0,0c0,0,0,0,0,0c0,0,0,0,0,0c0,0,0,0,0,0c0,0,0,0,0,0c0,0,0,0,0,0c0,0,0,0,0,0c0,0,0,0,0,0
		c0,0,0,0,0,0c0,0,0,0,0,0c0,0,0,0,0,0c0,0,0,0,0,0c0,0,0,0,0,0c0,0,0,0,0,0c0,0,0,0,0,0c0,0,0,0,0,0c0,0,0,0,0,0c0,0,0,0,0,0
		c0,0,0,0,0,0c0,0,0,0,0,0c0,0,0,0,0,0c0,0,0,0,0,0l-2.5-2.5c0,0,0,0-0.1-0.1c0,0,0,0,0,0c0,0,0,0,0,0c0,0,0,0,0,0c0,0,0,0,0,0
		c0,0,0,0,0,0c0,0,0,0,0,0c0,0,0,0,0,0c0,0,0,0,0,0c0,0,0,0,0,0c0,0,0,0,0,0c0,0,0,0,0,0c0,0,0,0,0,0c0,0,0,0,0,0c0,0,0,0,0,0h0
		c0,0,0,0,0,0h-5.5c0,0,0,0,0,0h0c0,0,0,0,0,0c0,0,0,0,0,0c0,0,0,0,0,0c0,0,0,0,0,0c0,0,0,0,0,0c0,0,0,0,0,0c0,0,0,0,0,0
		c0,0,0,0,0,0c0,0,0,0,0,0c0,0,0,0,0,0c0,0,0,0,0,0c0,0,0,0,0,0c0,0,0,0,0,0c0,0,0,0,0,0c0,0-0.1,0-0.1,0.1l-2.5,2.5c0,0,0,0,0,0
		c0,0,0,0,0,0c0,0,0,0,0,0c0,0,0,0,0,0c0,0,0,0,0,0c0,0,0,0,0,0c0,0,0,0,0,0c0,0,0,0,0,0c0,0,0,0,0,0c0,0,0,0,0,0c0,0,0,0,0,0
		C15.1,29.4,15.1,29.4,15.1,29.5C15.1,29.5,15.1,29.5,15.1,29.5C15.1,29.5,15.1,29.5,15.1,29.5C15.1,29.5,15.1,29.5,15.1,29.5
		C15.1,29.5,15.1,29.5,15.1,29.5z M17.9,27.9l0.4,1.1h-1.6L17.9,27.9z M24.8,29h-1.6l0.4-1.1L24.8,29z M21.9,30l-1.1,3.4L19.7,30
		H21.9z M20,29l0.8-1.1l0.8,1.1H20z M22.9,30h2l-2.9,3.1L22.9,30z M22.4,28.5l-0.7-1h1.1L22.4,28.5z M19.2,28.5l-0.4-1h1.1
		L19.2,28.5z M18.7,30l1,3.1L16.7,30H18.7z"/>
</g>
</svg>
