<?xml version="1.0" encoding="utf-8"?>
<!-- Generator: Adobe Illustrator 22.1.0, SVG Export Plug-In . SVG Version: 6.00 Build 0)  -->
<svg version="1.1" id="Layer_1" xmlns="http://www.w3.org/2000/svg" xmlns:xlink="http://www.w3.org/1999/xlink" x="0px" y="0px"
	 viewBox="0 0 50 50" style="enable-background:new 0 0 50 50;" xml:space="preserve">
<style type="text/css">
	.st0{fill:none;stroke:#000000;stroke-width:0.75;stroke-linecap:round;stroke-linejoin:round;}
</style>
<g>
	<polygon class="st0" points="21.5,16.1 26,21 30.5,16.1 29.5,14 22.5,14 	"/>
	<polyline class="st0" points="26,21 23.5,16 25.5,14 	"/>
	<polyline class="st0" points="26,21 28.5,16 26.5,14 	"/>
	<path class="st0" d="M26.9,20c4.3,0.5,7.6,4.1,7.6,8.5c0,4.7-3.8,8.5-8.5,8.5s-8.5-3.8-8.5-8.5c0-4.4,3.3-8,7.6-8.5"/>
	<path class="st0" d="M26.9,20c4.3,0.5,7.6,4.1,7.6,8.5c0,4.7-3.8,8.5-8.5,8.5s-8.5-3.8-8.5-8.5c0-4.4,3.3-8,7.6-8.5"/>
	<circle class="st0" cx="26" cy="28.5" r="6.5"/>
</g>
</svg>
