<?xml version="1.0" encoding="utf-8"?>
<!-- Generator: Adobe Illustrator 22.1.0, SVG Export Plug-In . SVG Version: 6.00 Build 0)  -->
<svg version="1.1" id="Layer_1" xmlns="http://www.w3.org/2000/svg" xmlns:xlink="http://www.w3.org/1999/xlink" x="0px" y="0px"
	 viewBox="0 0 50 50" style="enable-background:new 0 0 50 50;" xml:space="preserve">
<style type="text/css">
	.st0{fill:none;stroke:#000000;stroke-width:0.75;stroke-linecap:round;stroke-linejoin:round;stroke-miterlimit:10;}
</style>
<g>
	<path class="st0" d="M22.5,33.5v2.7c0,0.6,0.4,1,1,1h3c0.6,0,1-0.4,1-1v-2.7c0-0.5,0.1-1.1,0.4-1.6c0.5-0.8,0.9-1.7,1.2-2.6
		c0.6-2.4,0.5-4.8-0.1-7.2c-0.3-1.2-0.7-2.3-1.3-3.4c-0.4-0.8-1.1-2.6-2.4-2.5h-0.6c-1.3,0-2,1.7-2.4,2.5c-0.6,1.1-1,2.2-1.3,3.4
		c-0.6,2.4-0.6,4.8-0.1,7.2c0.2,0.9,0.6,1.8,1.2,2.6C22.4,32.4,22.5,33,22.5,33.5z"/>
	<path class="st0" d="M22.9,22.7c0.3-1,0.7-2,1.1-3"/>
	<path class="st0" d="M26.5,37.2v1c0,0.5-0.5,1-1,1h-1c-0.5,0-1-0.5-1-1v-1"/>
	<line class="st0" x1="27.5" y1="35.2" x2="22.5" y2="35.2"/>
	<line class="st0" x1="27.5" y1="33.2" x2="22.5" y2="33.2"/>
</g>
</svg>
