<?xml version="1.0" encoding="utf-8"?>
<!-- Generator: Adobe Illustrator 22.1.0, SVG Export Plug-In . SVG Version: 6.00 Build 0)  -->
<svg version="1.1" id="Layer_1" xmlns="http://www.w3.org/2000/svg" xmlns:xlink="http://www.w3.org/1999/xlink" x="0px" y="0px"
	 viewBox="0 0 50 50" style="enable-background:new 0 0 50 50;" xml:space="preserve">
<style type="text/css">
	.st0{fill:none;stroke:#000000;stroke-width:0.75;stroke-linecap:round;stroke-linejoin:round;stroke-miterlimit:10;}
</style>
<g>
	<ellipse transform="matrix(0.7071 -0.7071 0.7071 0.7071 -5.416 27.9246)" class="st0" cx="31" cy="20.5" rx="3.2" ry="1.4"/>
	<path class="st0" d="M34.5,37h-7c-0.6,0-1-0.4-1-1v-6h9v6C35.5,36.6,35.1,37,34.5,37z"/>
	<rect x="27.5" y="25" class="st0" width="7" height="5"/>
	<polyline class="st0" points="33.5,18.8 33.5,25 28.5,25 28.5,22.2 	"/>
	<path class="st0" d="M15.5,24h7c0.6,0,1,0.4,1,1v12h-9V25C14.5,24.4,14.9,24,15.5,24z"/>
	<line class="st0" x1="16.5" y1="26" x2="16.5" y2="30"/>
</g>
</svg>
