<?xml version="1.0" encoding="utf-8"?>
<!-- Generator: Adobe Illustrator 22.1.0, SVG Export Plug-In . SVG Version: 6.00 Build 0)  -->
<svg version="1.1" id="Layer_1" xmlns="http://www.w3.org/2000/svg" xmlns:xlink="http://www.w3.org/1999/xlink" x="0px" y="0px"
	 viewBox="0 0 50 50" style="enable-background:new 0 0 50 50;" xml:space="preserve">
<style type="text/css">
	.st0{fill:none;stroke:#000000;stroke-width:0.75;stroke-linecap:round;stroke-linejoin:round;stroke-miterlimit:10;}
</style>
<g>
	<path class="st0" d="M34.2,19h-4l-0.6-2.5c-0.2-0.9-1-1.5-1.9-1.5h-3.9c-0.9,0-1.7,0.6-1.9,1.5L21.3,19h-4c-1.7,0-3,1.3-3,3v12
		c0,0.6,0.4,1,1,1h21c0.6,0,1-0.4,1-1V22C37.2,20.3,35.9,19,34.2,19z"/>
	<rect x="17.2" y="17" class="st0" width="2" height="2"/>
	<path class="st0" d="M27.2,19h-3c-0.6,0-1-0.4-1-1l0,0c0-0.6,0.4-1,1-1h3c0.6,0,1,0.4,1,1l0,0C28.2,18.6,27.8,19,27.2,19z"/>
	<circle class="st0" cx="25.7" cy="27.5" r="5.5"/>
	<circle class="st0" cx="25.7" cy="27.5" r="3.5"/>
	<circle class="st0" cx="34.2" cy="22" r="1"/>
	<path class="st0" d="M17.2,35V24c0-0.6-0.4-1-1-1h-2"/>
</g>
</svg>
