<?xml version="1.0" encoding="utf-8"?>
<!-- Generator: Adobe Illustrator 23.0.4, SVG Export Plug-In . SVG Version: 6.00 Build 0)  -->
<svg version="1.1" id="Layer_1" xmlns="http://www.w3.org/2000/svg" xmlns:xlink="http://www.w3.org/1999/xlink" x="0px" y="0px"
	 viewBox="0 0 50 50" style="enable-background:new 0 0 50 50;" xml:space="preserve">
<style type="text/css">
	.st0{fill:none;stroke:#010101;stroke-width:0.75;stroke-linecap:round;stroke-linejoin:round;stroke-miterlimit:10;}
</style>
<line class="st0" x1="17.9" y1="35.8" x2="17.9" y2="22.9"/>
<line class="st0" x1="35.9" y1="35.8" x2="13.9" y2="35.8"/>
<line class="st0" x1="31.9" y1="35.8" x2="31.9" y2="22.9"/>
<polyline class="st0" points="16.9,23.8 24.9,16.8 32.9,23.8 "/>
<polyline class="st0" points="13.9,35.6 13.9,30.6 17.9,27.8 "/>
<polyline class="st0" points="35.9,35.7 35.9,30.7 31.9,27.8 "/>
<path class="st0" d="M21.9,35.7v-4c0-1.6,1.3-2.9,2.9-2.9l0,0c1.6,0,2.9,1.3,2.9,2.9v4.1"/>
<circle class="st0" cx="24.9" cy="23.8" r="2"/>
<path d="M27.2,9.2l11.3,9.8L30.7,6.6c-0.1-0.1-0.1-0.2-0.1-0.4c0-0.1,0.1-0.2,0.2-0.3l2.1-1c0.2-0.1,0.5,0,0.7,0.2l8.9,14.1
	c0.1,0.1,0.1,0.2,0.1,0.4c0,0.1-0.1,0.2-0.2,0.3l-2.1,1c0,0-0.1,0-0.1,0l-5.8,6.7c-0.2,0.2-0.5,0.2-0.7,0L20.9,16.5
	c-0.2-0.2-0.3-0.5-0.1-0.7l4.3-5l1.5-1.7C26.7,9,27,9,27.2,9.2z M32.5,6.3l-0.7,0.3l0.3,0.4L32.5,6.3z M35.1,9.2L34,7.4l-0.8,1.4
	l1.1,1.8L35.1,9.2z M37.3,12.7l-1.1-1.8l-0.8,1.4l1.1,1.8L37.3,12.7z M39.5,16.2l-1.1-1.8l-0.8,1.4l1.1,1.8L39.5,16.2z M40.6,17.9
	l-0.8,1.4l0.4,0.6l1.3-0.6L40.6,17.9z M37.7,21.2l0.5,0.5l0.9-1l-1.3-1.1L37.7,21.2z M34.5,18.4l1.6,1.4l0.2-1.6l-1.6-1.4L34.5,18.4
	z M31.3,15.6l1.6,1.4l0.2-1.6L31.5,14L31.3,15.6z M28.1,12.9l1.6,1.4l0.2-1.6l-1.6-1.4L28.1,12.9z M26.2,11.2l0.4,0.3l0.1-0.9
	L26.2,11.2z"/>
</svg>
