<?xml version="1.0" encoding="utf-8"?>
<!-- Generator: Adobe Illustrator 22.1.0, SVG Export Plug-In . SVG Version: 6.00 Build 0)  -->
<svg version="1.1" id="Layer_1" xmlns="http://www.w3.org/2000/svg" xmlns:xlink="http://www.w3.org/1999/xlink" x="0px" y="0px"
	 viewBox="0 0 50 50" style="enable-background:new 0 0 50 50;" xml:space="preserve">
<style type="text/css">
	.st0{fill:none;stroke:#000000;stroke-width:0.75;stroke-linecap:round;stroke-linejoin:round;stroke-miterlimit:10;}
</style>
<g>
	<g>
		<polygon class="st0" points="15.9,36.5 13.5,35.3 16.9,27.8 19.3,29 		"/>
		<path class="st0" d="M18.9,29.7l3.7-1.9c0.9-0.5,2.1-0.3,2.9,0.5l0.4,0.4l-4.2,2.2l-1.2,0.6"/>
		<path class="st0" d="M21.7,30.9L25,33l3.7-1.7c1-0.4,1.9-0.5,2.7,0.1l1.2,0.8L26,35.6h-9.5"/>
	</g>
	<line class="st0" x1="13.5" y1="25" x2="36.5" y2="25"/>
	<path class="st0" d="M14.5,25c0.5-5.4,5-9.5,10.5-9.5s10,4.2,10.5,9.5"/>
	<path class="st0" d="M23.5,15.6V15c0-0.8,0.7-1.5,1.5-1.5s1.5,0.7,1.5,1.5v0.6"/>
</g>
</svg>
