<?xml version="1.0" encoding="utf-8"?>
<!-- Generator: Adobe Illustrator 22.1.0, SVG Export Plug-In . SVG Version: 6.00 Build 0)  -->
<svg version="1.1" id="Layer_1" xmlns="http://www.w3.org/2000/svg" xmlns:xlink="http://www.w3.org/1999/xlink" x="0px" y="0px"
	 viewBox="0 0 50 50" style="enable-background:new 0 0 50 50;" xml:space="preserve">
<style type="text/css">
	.st0{fill:none;stroke:#000000;stroke-width:0.75;stroke-linecap:round;stroke-linejoin:round;stroke-miterlimit:10;}
</style>
<g>
	<g>
		<path class="st0" d="M27.5,31.1v6.4c0,0.5-0.5,1-1,1h-11c-0.6,0-1-0.5-1-1v-21c0-0.6,0.4-1,1-1h11c0.5,0,1,0.4,1,1v3.1"/>
		<line class="st0" x1="20.5" y1="17.5" x2="21.5" y2="17.5"/>
		<circle class="st0" cx="21" cy="36" r="0.5"/>
	</g>
	<g>
		<path class="st0" d="M29.5,19.5c-4.4,0-8,2.7-8,5.9c0,1.9,1.2,3.6,3,4.6l0.2,3.4l2.4-2.4c0.8,0.2,1.6,0.3,2.4,0.3
			c4.4,0,8-2.7,8-5.9C37.5,22.2,33.9,19.5,29.5,19.5z"/>
		<circle class="st0" cx="25.5" cy="25.5" r="1"/>
		<circle class="st0" cx="29.5" cy="25.5" r="1"/>
		<circle class="st0" cx="33.5" cy="25.5" r="1"/>
	</g>
</g>
</svg>
