<?xml version="1.0" encoding="utf-8"?>
<!-- Generator: Adobe Illustrator 22.1.0, SVG Export Plug-In . SVG Version: 6.00 Build 0)  -->
<svg version="1.1" id="Layer_1" xmlns="http://www.w3.org/2000/svg" xmlns:xlink="http://www.w3.org/1999/xlink" x="0px" y="0px"
	 viewBox="0 0 50 50" style="enable-background:new 0 0 50 50;" xml:space="preserve">
<style type="text/css">
	.st0{fill:none;stroke:#000000;stroke-width:0.75;stroke-linecap:round;stroke-linejoin:round;stroke-miterlimit:10;}
</style>
<g>
	<line class="st0" x1="17" y1="33" x2="17" y2="31"/>
	<line class="st0" x1="17" y1="29" x2="17" y2="17"/>
	<circle class="st0" cx="17" cy="30" r="1"/>
	<line class="st0" x1="21" y1="33" x2="21" y2="28"/>
	<line class="st0" x1="21" y1="26" x2="21" y2="17"/>
	<circle class="st0" cx="21" cy="27" r="1"/>
	<line class="st0" x1="25" y1="33" x2="25" y2="24"/>
	<line class="st0" x1="25" y1="22" x2="25" y2="17"/>
	<circle class="st0" cx="25" cy="23" r="1"/>
	<line class="st0" x1="29" y1="33" x2="29" y2="30"/>
	<line class="st0" x1="29" y1="28" x2="29" y2="17"/>
	<circle class="st0" cx="29" cy="29" r="1"/>
	<line class="st0" x1="33" y1="33" x2="33" y2="26"/>
	<line class="st0" x1="33" y1="24" x2="33" y2="17"/>
	<circle class="st0" cx="33" cy="25" r="1"/>
	<path class="st0" d="M34,36H16c-1.1,0-2-0.9-2-2V16c0-1.1,0.9-2,2-2h18c1.1,0,2,0.9,2,2v18C36,35.1,35.1,36,34,36z"/>
</g>
</svg>
