<?xml version="1.0" encoding="utf-8"?>
<!-- Generator: Adobe Illustrator 22.1.0, SVG Export Plug-In . SVG Version: 6.00 Build 0)  -->
<svg version="1.1" id="Layer_1" xmlns="http://www.w3.org/2000/svg" xmlns:xlink="http://www.w3.org/1999/xlink" x="0px" y="0px"
	 viewBox="0 0 50 50" style="enable-background:new 0 0 50 50;" xml:space="preserve">
<style type="text/css">
	.st0{fill:none;stroke:#000000;stroke-width:0.75;stroke-linecap:round;stroke-linejoin:round;stroke-miterlimit:10;}
</style>
<path class="st0" d="M25,18.6c-2.1,1.2-3.5,3.7-3.5,6.5s1.4,5,3.5,6.2c2.1-1.2,3.5-3.4,3.5-6.2S27.1,19.8,25,18.6z"/>
<path class="st0" d="M32.1,28.8c1.7,0.4,3.1,1.4,3.9,2.8c-1,1.8-3.1,3-5.5,3S26,33.1,25,31.3c-1,1.8-3.1,3.3-5.5,3.3s-4.5-1.2-5.5-3
	c0.8-1.4,2.2-2.4,3.9-2.8"/>
<path class="st0" d="M21.6,24.2c-1.3-0.6-2.9-0.7-4.3-0.3c-0.5,1.6-0.3,3.4,0.7,4.9c0.2,0.4,0.5,0.7,0.8,1.1
	c1.6,1.6,4.2,2.1,6.2,1.5c2,0.6,4.6,0.1,6.2-1.5c0.3-0.3,0.6-0.7,0.8-1.1c0.9-1.5,1.2-3.3,0.7-4.9c-1.4-0.4-2.9-0.3-4.3,0.3"/>
</svg>
