<?xml version="1.0" encoding="utf-8"?>
<!-- Generator: Adobe Illustrator 22.1.0, SVG Export Plug-In . SVG Version: 6.00 Build 0)  -->
<svg version="1.1" id="Layer_1" xmlns="http://www.w3.org/2000/svg" xmlns:xlink="http://www.w3.org/1999/xlink" x="0px" y="0px"
	 viewBox="0 0 50 50" style="enable-background:new 0 0 50 50;" xml:space="preserve">
<style type="text/css">
	.st0{fill:none;stroke:#000000;stroke-width:0.75;stroke-linecap:round;stroke-linejoin:round;stroke-miterlimit:10;}
</style>
<g>
	<polyline class="st0" points="20,36.7 15.2,37.8 16.3,33 	"/>
	<path class="st0" d="M16.3,33L32.4,17c0.4-0.4,1-0.4,1.4,0l2.2,2.2c0.4,0.4,0.4,1,0,1.4L20,36.7"/>
	<path class="st0" d="M33.8,17l1.9-1.9c0.4-0.4,1-0.4,1.4,0l0.8,0.8c0.4,0.4,0.4,1,0,1.4L36,19.2"/>
	<path class="st0" d="M31.3,28.3l4.4-4.4c0.4-0.4,0.4-1.1,0-1.5l-4.4-4.4"/>
	<line class="st0" x1="16.3" y1="33" x2="20" y2="36.7"/>
</g>
</svg>
