<?xml version="1.0" encoding="utf-8"?>
<!-- Generator: Adobe Illustrator 22.1.0, SVG Export Plug-In . SVG Version: 6.00 Build 0)  -->
<svg version="1.1" id="Layer_1" xmlns="http://www.w3.org/2000/svg" xmlns:xlink="http://www.w3.org/1999/xlink" x="0px" y="0px"
	 viewBox="0 0 50 50" style="enable-background:new 0 0 50 50;" xml:space="preserve">
<style type="text/css">
	.st0{fill:none;stroke:#000000;stroke-width:0.75;stroke-linecap:round;stroke-linejoin:round;stroke-miterlimit:10;}
</style>
<g>
	<path class="st0" d="M30.6,20.3c-0.1-1.6-0.8-3-1.9-4.1c-1.2-1.2-2.8-1.9-4.6-1.9c-3.6,0-6.5,2.9-6.5,6.5v16.5"/>
	<path class="st0" d="M25.7,25.3c0-2.8,2.2-5,5-5c2.8,0,5,2.2,5,5H25.7z"/>
	<line class="st0" x1="25.7" y1="27.3" x2="35.7" y2="27.3"/>
	<polygon class="st0" points="34.7,29.3 34.7,29.3 34.7,29.3 34.7,29.3 	"/>
	<polygon class="st0" points="26.7,29.3 26.7,29.3 26.7,29.3 26.7,29.3 	"/>
	<polygon class="st0" points="28.7,29.3 28.7,29.3 28.7,29.3 28.7,29.3 	"/>
	<polygon class="st0" points="30.7,29.3 30.7,29.3 30.7,29.3 30.7,29.3 	"/>
	<polygon class="st0" points="32.7,29.3 32.7,29.3 32.7,29.3 32.7,29.3 	"/>
	<polygon class="st0" points="31.7,31.3 31.7,31.3 31.7,31.3 31.7,31.3 	"/>
	<polygon class="st0" points="33.7,31.3 33.7,31.3 33.7,31.3 33.7,31.3 	"/>
	<polygon class="st0" points="27.7,31.3 27.7,31.3 27.7,31.3 27.7,31.3 	"/>
	<polygon class="st0" points="28.7,33.3 28.7,33.3 28.7,33.3 28.7,33.3 	"/>
	<polygon class="st0" points="30.7,33.3 30.7,33.3 30.7,33.3 30.7,33.3 	"/>
	<polygon class="st0" points="32.7,33.3 32.7,33.3 32.7,33.3 32.7,33.3 	"/>
	<polygon class="st0" points="29.7,31.3 29.7,31.3 29.7,31.3 29.7,31.3 	"/>
</g>
</svg>
