<?xml version="1.0" encoding="utf-8"?>
<!-- Generator: Adobe Illustrator 23.0.4, SVG Export Plug-In . SVG Version: 6.00 Build 0)  -->
<svg version="1.1" id="Layer_1" xmlns="http://www.w3.org/2000/svg" xmlns:xlink="http://www.w3.org/1999/xlink" x="0px" y="0px"
	 viewBox="0 0 50 50" style="enable-background:new 0 0 50 50;" xml:space="preserve">
<g>
	<g>
		<path d="M34.4,30.1c-1.2,0-2.1,0.9-2.1,2.1c0,1.2,0.9,2.1,2.1,2.1c1.2,0,2.1-0.9,2.1-2.1C36.5,31,35.6,30.1,34.4,30.1z M34.4,33.6
			c-0.8,0-1.4-0.6-1.4-1.4c0-0.8,0.6-1.4,1.4-1.4c0.8,0,1.4,0.6,1.4,1.4C35.8,33,35.2,33.6,34.4,33.6z"/>
		<path d="M17.2,30.1c-1.2,0-2.1,0.9-2.1,2.1c0,1.2,0.9,2.1,2.1,2.1c1.2,0,2.1-0.9,2.1-2.1C19.3,31,18.3,30.1,17.2,30.1z M17.2,33.6
			c-0.8,0-1.4-0.6-1.4-1.4c0-0.8,0.6-1.4,1.4-1.4c0.8,0,1.4,0.6,1.4,1.4C18.6,33,17.9,33.6,17.2,33.6z"/>
		<path d="M21.4,17.3c-0.9,0-1.6,0-2.5-0.1l-0.1,0c-0.7,0-1.2,0-1.9-0.1c-0.1,0-0.2,0-0.3,0.1c-0.1,0.1-0.1,0.2-0.1,0.3v4.7
			c0,0.2,0.2,0.4,0.4,0.4h4.4c0.2,0,0.4-0.2,0.4-0.4v-4.5C21.7,17.5,21.6,17.3,21.4,17.3z M21,21.9h-3.7v-3.9c0.5,0,0.9,0,1.5,0.1
			l0.1,0c0.8,0,1.4,0.1,2.1,0.1L21,21.9L21,21.9z"/>
		<path d="M38,18.9c-1.3-1-3.2-1.3-4.6-1.4c-0.1,0-0.2,0-0.3,0.1C33,17.7,33,17.8,33,17.9v4.3c0,0.2,0.2,0.4,0.4,0.4h6.4
			c0.1,0,0.2-0.1,0.3-0.2c0.1-0.1,0.1-0.2,0.1-0.3c-0.1-0.4-0.3-0.9-0.5-1.3C39.2,20.1,38.7,19.5,38,18.9z M33.7,21.9v-3.5
			c1.3,0.1,2.8,0.4,3.9,1.2c0.6,0.4,1,1,1.3,1.6c0.1,0.2,0.2,0.5,0.3,0.7L33.7,21.9L33.7,21.9z"/>
		<path d="M40.6,20.3c-0.5-1-1.1-1.7-1.9-2.3c-2.1-1.6-4.8-1.6-7.4-1.7c-0.4,0-0.9,0-1.3,0c-2.4-0.1-4.9-0.1-7.4-0.1
			c-1.2,0-2.4,0-3.6-0.1c-1,0-2.1-0.1-3.1-0.1c-1.2,0-2.1,0.1-3,0.2c-4.6,0.6-5.6,10.3-5.6,13.9c0,0.9,0.8,1.7,1.7,1.7h4.6
			c0,0,0,0,0,0c0.1,0,0.2,0,0.3-0.1c0,0.2,0,0.3,0,0.5c0,2,1.6,3.6,3.6,3.6c2,0,3.6-1.6,3.6-3.6c0-0.2,0-0.3,0-0.5
			c0.1,0,0.1,0.1,0.2,0.1h9.6c0,0,0,0,0,0c0.1,0,0.2,0,0.3-0.1c0,0.2,0,0.4,0,0.5c0,2,1.6,3.6,3.6,3.6c2,0,3.6-1.6,3.6-3.6
			c0-0.2,0-0.3,0-0.5c0.1,0,0.1,0,0.2,0h3.6c0.9,0,1.7-0.8,1.7-1.7C43.4,26.4,41.5,22,40.6,20.3z M17.2,35.1c-1.6,0-2.9-1.3-2.9-2.9
			c0-1.6,1.3-2.9,2.9-2.9c1.6,0,2.9,1.3,2.9,2.9C20,33.8,18.8,35.1,17.2,35.1z M17.2,28.6c-1.6,0-3,1.1-3.4,2.6
			c0.1-1.8,1.6-3.3,3.4-3.3c1.8,0,3.2,1.4,3.4,3.1C20,29.6,18.7,28.6,17.2,28.6z M34.4,35.1c-1.6,0-2.9-1.3-2.9-2.9
			c0-1.6,1.3-2.9,2.9-2.9c1.6,0,2.9,1.3,2.9,2.9C37.3,33.8,36,35.1,34.4,35.1z M34.4,28.6c-1.7,0-3.1,1.1-3.5,2.7
			c0-1.9,1.5-3.4,3.4-3.4c1.7,0,3.2,1.3,3.4,3C37.2,29.6,35.9,28.6,34.4,28.6z M41.8,31.1h-3.3c-0.1-2.2-1.9-3.9-4.1-3.9
			c-2.2,0-4,1.7-4.1,3.9h-8.9c-0.1-2.2-1.9-3.9-4.1-3.9c-2.2,0-4,1.7-4.1,3.9H8.8c-0.5,0-0.9-0.4-0.9-1c0-4.1,1.2-12.7,5-13.2
			c0.9-0.1,1.8-0.2,2.9-0.2c1,0,2.1,0,3.1,0.1c1.2,0.1,2.5,0.1,3.7,0.1c2.5-0.1,5,0,7.4,0.1c0.4,0,0.9,0,1.3,0
			c2.5,0.1,5.2,0.2,7,1.6c0.7,0.5,1.2,1.2,1.7,2.1c0.8,1.6,2.8,5.9,2.8,9.4C42.7,30.6,42.3,31.1,41.8,31.1z"/>
		<path d="M15.8,17.3L15.8,17.3c-0.2,0-0.4,0-0.5,0l-0.5,0c-0.7,0-1.3,0-1.9,0.1c-1.4,0.2-2.1,1.8-2.2,4.9c0,0.1,0,0.2,0.1,0.3
			c0.1,0.1,0.2,0.1,0.3,0.1h4.7c0.2,0,0.4-0.2,0.4-0.4v-4.6C16.2,17.4,16,17.3,15.8,17.3z M15.5,21.9h-4c0.1-2.3,0.7-3.7,1.5-3.8
			c0.5-0.1,1.1-0.1,1.8-0.1l0.5,0c0.1,0,0.1,0,0.2,0L15.5,21.9L15.5,21.9z"/>
		<path d="M26.7,17.3c-0.2,0-0.5,0-0.7,0c-0.7,0-1.4,0-2.1,0c-0.4,0-0.8,0-1.3,0h-0.1c-0.2,0-0.4,0.2-0.4,0.4v4.6
			c0,0.2,0.2,0.4,0.4,0.4h4.2c0.2,0,0.4-0.2,0.4-0.4v-4.5C27.1,17.5,26.9,17.3,26.7,17.3z M26.3,21.9h-3.5V18c0.3,0,0.7,0,1,0
			c0.4,0,0.8,0,1.2,0c0.3,0,0.5,0,0.8,0c0.1,0,0.3,0,0.4,0L26.3,21.9L26.3,21.9L26.3,21.9z"/>
		<path d="M32.2,17.5c-0.4,0-0.7,0-1,0l-0.4,0c-0.3,0-0.7,0-1,0c-0.6,0-1.3-0.1-2.1-0.1c-0.1,0-0.2,0-0.3,0.1
			c-0.1,0.1-0.1,0.2-0.1,0.3v4.5c0,0.2,0.2,0.4,0.4,0.4h4.4c0.2,0,0.4-0.2,0.4-0.4v-4.4C32.6,17.7,32.4,17.5,32.2,17.5z M31.9,21.9
			h-3.7v-3.8c0.6,0,1.2,0,1.7,0.1c0.3,0,0.7,0,1,0l0.4,0c0.2,0,0.4,0,0.6,0L31.9,21.9L31.9,21.9z"/>
	</g>
</g>
</svg>
