<?xml version="1.0" encoding="utf-8"?>
<!-- Generator: Adobe Illustrator 22.1.0, SVG Export Plug-In . SVG Version: 6.00 Build 0)  -->
<svg version="1.1" id="Layer_1" xmlns="http://www.w3.org/2000/svg" xmlns:xlink="http://www.w3.org/1999/xlink" x="0px" y="0px"
	 viewBox="0 0 50 50" style="enable-background:new 0 0 50 50;" xml:space="preserve">
<style type="text/css">
	.st0{fill:none;stroke:#000000;stroke-width:0.75;stroke-linecap:round;stroke-linejoin:round;stroke-miterlimit:10;}
</style>
<g>
	<g>
		<g>
			<path class="st0" d="M24.5,22c0,0.4-0.2,0.8-0.4,1.1c-0.3,0.3-0.6,0.4-1.1,0.4s-0.8-0.2-1.1-0.4c-0.3-0.3-0.4-0.6-0.4-1.1
				s0.2-0.8,0.4-1.1c0.3-0.3,0.6-0.4,1.1-0.4s0.8,0.2,1.1,0.4C24.3,21.2,24.5,21.6,24.5,22z"/>
			<line class="st0" x1="21.9" y1="20.9" x2="16.5" y2="15.5"/>
		</g>
		<g>
			<path class="st0" d="M30.5,22c0,0.4-0.2,0.8-0.4,1.1c-0.3,0.3-0.6,0.4-1.1,0.4s-0.8-0.2-1.1-0.4c-0.3-0.3-0.4-0.6-0.4-1.1
				s0.2-0.8,0.4-1.1c0.3-0.3,0.6-0.4,1.1-0.4s0.8,0.2,1.1,0.4C30.3,21.2,30.5,21.6,30.5,22z"/>
			<line class="st0" x1="35.5" y1="15.5" x2="30.1" y2="20.9"/>
		</g>
		<g>
			<rect x="18.5" y="36.5" class="st0" width="15" height="2"/>
			<rect x="18.5" y="25.5" class="st0" width="15" height="2"/>
			<rect x="19.5" y="27.5" class="st0" width="13" height="9"/>
		</g>
	</g>
	<polyline class="st0" points="32.5,27.5 29.2,36.5 26,27.5 22.8,36.5 19.5,27.5 	"/>
</g>
</svg>
