<?xml version="1.0" encoding="utf-8"?>
<!-- Generator: Adobe Illustrator 22.1.0, SVG Export Plug-In . SVG Version: 6.00 Build 0)  -->
<svg version="1.1" id="Layer_1" xmlns="http://www.w3.org/2000/svg" xmlns:xlink="http://www.w3.org/1999/xlink" x="0px" y="0px"
	 viewBox="0 0 50 50" style="enable-background:new 0 0 50 50;" xml:space="preserve">
<style type="text/css">
	.st0{fill:none;stroke:#000000;stroke-width:0.75;stroke-linecap:round;stroke-linejoin:round;stroke-miterlimit:10;}
</style>
<path class="st0" d="M28.3,21.5c0.5-0.3,1-0.6,1.4-1c0.8-1,1.1-2.2,0.6-3.4c-0.4-1-1.3-1.6-2.4-1.6c-1,0.1-1.8,1-1.8,2
	c0-1-0.8-1.9-1.8-2c-1.1-0.1-2,0.6-2.4,1.6c-0.5,1.1-0.2,2.4,0.6,3.4c0.4,0.4,0.9,0.8,1.4,1"/>
<rect x="17.5" y="25.5" class="st0" width="17" height="13"/>
<rect x="15.5" y="21.5" class="st0" width="21" height="4"/>
<polygon class="st0" points="28.5,29.5 26,27.5 23.5,29.5 23.5,27.5 23.5,25.5 26,25.5 28.5,25.5 28.5,27.5 "/>
</svg>
