<?xml version="1.0" encoding="utf-8"?>
<!-- Generator: Adobe Illustrator 22.1.0, SVG Export Plug-In . SVG Version: 6.00 Build 0)  -->
<svg version="1.1" id="Layer_1" xmlns="http://www.w3.org/2000/svg" xmlns:xlink="http://www.w3.org/1999/xlink" x="0px" y="0px"
	 viewBox="0 0 50 50" style="enable-background:new 0 0 50 50;" xml:space="preserve">
<style type="text/css">
	.st0{fill:none;stroke:#010101;stroke-width:0.75;stroke-linecap:round;stroke-linejoin:round;stroke-miterlimit:10;}
</style>
<line class="st0" x1="36.5" y1="33.5" x2="13.5" y2="33.5"/>
<path class="st0" d="M14.5,33.5v-5c0-0.6,0.4-1,1-1h19c0.6,0,1,0.4,1,1v5"/>
<path class="st0" d="M16.5,27.5v-5c0-0.6,0.4-1,1-1h15c0.6,0,1,0.4,1,1v5"/>
<path class="st0" d="M19.5,21.5v-4c0-0.6,0.4-1,1-1h9c0.6,0,1,0.4,1,1v4"/>
<path class="st0" d="M14.6,29.5c1.2,0.1,1.2,1,2.5,1s1.3-1,2.6-1s1.3,1,2.6,1s1.3-1,2.6-1s1.3,1,2.6,1s1.3-1,2.6-1s1.3,1,2.6,1
	s1.3-0.9,2.5-1"/>
<path class="st0" d="M16.6,23.5c1,0.1,1,1,2,1c1.1,0,1.1-1,2.1-1c1.1,0,1.1,1,2.1,1c1.1,0,1.1-1,2.1-1c1.1,0,1.1,1,2.1,1
	c1.1,0,1.1-1,2.1-1c1.1,0,1.1,1,2.1,1s1.1-0.9,2.1-1"/>
<path class="st0" d="M19.6,18.5c0.8,0.1,0.8,1,1.7,1s0.9-1,1.8-1c0.9,0,0.9,1,1.8,1c0.9,0,0.9-1,1.8-1c0.9,0,0.9,1,1.8,1
	c0.9,0,0.9-0.9,1.7-1"/>
</svg>
