<?xml version="1.0" encoding="utf-8"?>
<!-- Generator: Adobe Illustrator 23.0.4, SVG Export Plug-In . SVG Version: 6.00 Build 0)  -->
<svg version="1.1" id="Layer_1" xmlns="http://www.w3.org/2000/svg" xmlns:xlink="http://www.w3.org/1999/xlink" x="0px" y="0px"
	 viewBox="0 0 50 50" style="enable-background:new 0 0 50 50;" xml:space="preserve">
<style type="text/css">
	.st0{fill:none;stroke:#010101;stroke-width:0.75;stroke-linecap:round;stroke-linejoin:round;stroke-miterlimit:10;}
	.st1{fill:#010002;}
</style>
<line class="st0" x1="17.8" y1="32.4" x2="17.8" y2="19.5"/>
<line class="st0" x1="35.8" y1="32.4" x2="13.8" y2="32.4"/>
<line class="st0" x1="31.8" y1="32.4" x2="31.8" y2="19.5"/>
<polyline class="st0" points="16.8,20.4 24.8,13.4 32.8,20.4 "/>
<polyline class="st0" points="13.8,32.2 13.8,27.2 17.8,24.4 "/>
<polyline class="st0" points="35.8,32.3 35.8,27.3 31.8,24.4 "/>
<path class="st0" d="M21.8,32.3v-4c0-1.6,1.3-2.9,2.9-2.9l0,0c1.6,0,2.9,1.3,2.9,2.9v4.1"/>
<circle class="st0" cx="24.8" cy="20.4" r="2"/>
<g>
	<g>
		<polygon class="st1" points="15.3,41 15.3,40 15.3,36.3 11.7,36.3 14.3,39.7 11.7,43.2 17.9,43.2 17.9,41 16.2,41 		"/>
		<polygon class="st1" points="37.9,36.3 34.3,36.3 34.3,40 34.3,41 33.4,41 31.3,41 31.3,43.2 37.9,43.2 35.3,39.7 		"/>
		<rect x="16.2" y="33.3" class="st1" width="17.2" height="6.9"/>
	</g>
</g>
</svg>
