<?xml version="1.0" encoding="utf-8"?>
<!-- Generator: Adobe Illustrator 25.2.0, SVG Export Plug-In . SVG Version: 6.00 Build 0)  -->
<svg version="1.1" id="Layer_1" xmlns="http://www.w3.org/2000/svg" xmlns:xlink="http://www.w3.org/1999/xlink" x="0px" y="0px"
	 viewBox="0 0 227 200" style="enable-background:new 0 0 227 200;" xml:space="preserve">
<style type="text/css">
	.st0{fill:#6A25FF;}
	.st1{fill:#763AFE;}
	.st2{fill:#824EFE;}
	.st3{fill:#8E62FD;}
	.st4{fill:#9A77FC;}
	.st5{fill:#FAF17A;}
	.st6{fill:#FFFFFF;}
	.st7{clip-path:url(#SVGID_2_);}
</style>
<g>
	<path class="st0" d="M-231.1-541.5c-0.6-0.5-1.3-0.5-1.9-0.1l-0.3,0.3c0.8,0.6,1.5,1.2,2.3,1.8l0,0
		C-230.4-540.2-230.4-540.9-231.1-541.5z"/>
	<path class="st0" d="M-239.3-547.5c-0.9-0.5-1.8-0.2-2.5,0.7c1.1,0.6,2.1,1.2,3.1,1.8C-238.3-546-238.4-546.9-239.3-547.5z"/>
	<path class="st0" d="M-301.4-549c-0.4-0.8-1.2-1.2-2.1-0.7c-0.8,0.4-1.1,1.2-0.9,2.2L-301.4-549z"/>
	<path class="st0" d="M-313.6-541.1l-3.9-5.6l6.4-4.5l1.2,1.7l-4.4,3.1l1.7,2.4l4.1-2.9l1.1,1.5c0.4-0.3,0.9-0.5,1.3-0.8
		c-0.9-2.2-0.2-4.4,1.8-5.4c2.2-1.1,4.2-0.2,5.3,1.9c0.7-0.3,1.4-0.6,2.1-0.8c0.4-0.6,1.1-1.1,1.9-1.4c0.7-0.2,1.6-0.3,2-0.2
		l-0.2-0.6c-0.2-0.7-0.8-1.1-1.7-0.8c-0.6,0.2-0.9,0.6-0.9,1.2l-2.1,0.7c-0.3-1.5,0.7-3.1,2.5-3.7c2.1-0.7,3.8,0,4.4,1.9l0.3,0.8
		c0.8-0.2,1.6-0.4,2.5-0.6l-0.4-2l-1.3,0.3l-0.4-1.9l1.3-0.3l-0.5-2.3l2.3-0.5l0.5,2.3l1.8-0.4l0.4,1.9l-1.8,0.4l0.4,2
		c1.2-0.2,2.5-0.4,3.7-0.6l-0.3-4l2.3-0.2l0.3,3.9c1-0.1,1.9-0.2,2.9-0.2l-0.3-4l2.4-0.2l0.3,4.1c0.5,0,0.9,0,1.4,0
		c0.3,0,0.6,0,0.9,0l0.2-4l2.4,0.1l0,0.8c0.4-0.6,1.1-1,1.9-0.9c0.4,0,0.8,0.1,0.9,0.2l-0.1,2.4c-0.3-0.2-0.7-0.3-1.2-0.3
		c-0.8,0-1.5,0.3-1.7,1.1l0,0.7c1.3,0.1,2.5,0.2,3.7,0.3c0.5-2.4,2.4-3.9,4.7-3.5c2.5,0.4,3.5,2.4,3.1,4.8c0.4,0.1,0.8,0.2,1.3,0.3
		c0.8-2.2,2.7-3.6,5-2.8c0.9,0.3,1.5,1,1.7,1.5l1.4-4.3l2.3,0.7l-2.4,7.4c1.8,0.7,3.7,1.5,5.4,2.4c1.4-2,3.6-2.6,5.6-1.4
		c2,1.2,2.5,3.4,1.5,5.5c0.5,0.3,1,0.7,1.5,1l2.3-2.8l1.8,1.5l-0.5,0.6c0.7-0.1,1.6,0.1,2.4,0.7c1.5,1.2,1.5,2.9,0.3,4.3l-0.4,0.5
		c8.7,7.7,15.3,17.5,19.1,28.7h14.6c-9.3-34.2-40.6-59.4-77.8-59.4s-68.5,25.2-77.8,59.4h14.6C-332.2-522-324.1-533.1-313.6-541.1z"
		/>
	<path class="st0" d="M-261.9-555.9c-0.9-0.2-1.6,0.3-2,1.3l3.2,0.6C-260.6-554.9-261-555.7-261.9-555.9z"/>
	<path class="st0" d="M-251.2-551.9c-0.1-0.6-0.6-1.2-1.2-1.4c-1.1-0.4-2.1,0.2-2.6,1.3c1.2,0.3,2.3,0.7,3.4,1.1L-251.2-551.9z"/>
	<path class="st0" d="M-273.3-421.3c-29.4,0-54.3-19-63.2-45.4h-14.6c9.3,34.2,40.6,59.4,77.8,59.4s68.5-25.2,77.8-59.4h-14.6
		C-219-440.3-243.9-421.3-273.3-421.3z"/>
	<path class="st1" d="M-229.2-537.9l-3.1,3.8l-1.8-1.5l3.2-3.9c-0.8-0.6-1.5-1.2-2.3-1.8l-3.1,3.8l-1.8-1.5l3-3.7
		c-0.5-0.4-1-0.7-1.5-1c-0.1,0.2-0.1,0.3-0.2,0.5c-1.3,2.2-3.7,2.9-5.8,1.7c-2.1-1.3-2.6-3.7-1.3-5.9c0.1-0.1,0.2-0.2,0.2-0.3
		c-1.8-0.9-3.6-1.7-5.4-2.4l-1.4,4.3l-2.3-0.7l0.2-0.7c-0.5,0.3-1.4,0.5-2.3,0.2c-2.3-0.8-3-3.1-2.3-5.4c0-0.1,0.1-0.1,0.1-0.2
		c-0.4-0.1-0.8-0.2-1.3-0.3v0l-0.1,0.7l-5.6-1c-0.1,1.3,0.4,2.1,1.5,2.3c0.8,0.1,1.4-0.1,1.7-0.8l2.2,0.4c-0.6,1.7-2.1,2.6-4.2,2.3
		c-2.4-0.4-3.8-2.5-3.3-5.1c0-0.1,0-0.1,0.1-0.2c-1.2-0.1-2.5-0.2-3.7-0.3l-0.2,4.5l-2.4-0.1l0.2-4.5c-0.3,0-0.6,0-0.9,0
		c-0.5,0-0.9,0-1.4,0l0.4,4.4l-2.3,0.2l-0.1-0.8c-0.4,0.6-1.2,1.1-2.2,1.1c-1.9,0.2-3.1-1-3.2-2.9l-0.1-1.5
		c-1.3,0.2-2.5,0.4-3.7,0.6l0.3,1.7c0.1,0.7,0.6,0.9,1.1,0.8c0.4-0.1,0.7-0.3,0.9-0.5l0.4,2c-0.3,0.2-0.8,0.4-1.4,0.6
		c-1.7,0.4-2.9-0.3-3.3-2.1l-0.4-2c-0.8,0.2-1.6,0.4-2.5,0.6l1.5,4.3l-2.1,0.7l-0.1-0.4c-0.2,0.4-0.9,0.9-1.8,1.2
		c-1.6,0.5-3.3,0.1-3.9-1.6c-0.3-0.8-0.1-1.6,0.3-2.2c-0.7,0.3-1.4,0.5-2.1,0.8c0,0,0,0.1,0.1,0.1l0.3,0.6l-5,2.6
		c0.6,1.1,1.6,1.5,2.6,1c0.7-0.4,1.1-0.9,0.9-1.7l1.9-1c0.5,1.7-0.1,3.4-2,4.3c-2.2,1.1-4.5,0.3-5.7-2.1c-0.1-0.1-0.1-0.3-0.2-0.4
		c-0.4,0.3-0.9,0.5-1.3,0.8l0.2,0.2l-4.1,2.9l2.6,3.7l-2,1.4l-2.8-4c-10.6,8-18.6,19.1-23,31.9h15c8.2-18.5,26.7-31.4,48.2-31.4
		c21.5,0,40,12.9,48.2,31.4h15C-213.9-520.4-220.5-530.3-229.2-537.9z"/>
	<path class="st1" d="M-294.1-550.3c-0.7,0.2-1.3,0.8-1.1,1.5c0.2,0.7,1.1,0.7,1.8,0.5c0.6-0.2,1.2-0.7,1.2-1.2l-0.2-0.6
		C-292.8-550.4-293.5-550.5-294.1-550.3z"/>
	<path class="st1" d="M-253.9-548.8c0.7,0.2,1.4,0,1.8-0.4l0.6-1.7c-1.1-0.4-2.3-0.8-3.4-1.1c0,0.1-0.1,0.2-0.1,0.3
		C-255.5-550.5-255.1-549.2-253.9-548.8z"/>
	<path class="st1" d="M-241.8-543.3c1,0.6,2.1,0,2.8-1.2c0.1-0.2,0.2-0.4,0.3-0.5c-1-0.6-2.1-1.2-3.1-1.8c-0.1,0.1-0.2,0.3-0.3,0.4
		C-242.8-545.1-242.8-543.9-241.8-543.3z"/>
	<path class="st1" d="M-273.3-421.3c29.4,0,54.3-19,63.2-45.4h-15c-3.8,8.7-9.9,16.1-17.6,21.6v12.4h-4.5v-9.5
		c-4.3,2.5-8.9,4.3-13.9,5.5h7.1v4h-15.3v-2.7c-1.3,0.1-2.7,0.2-4,0.2c-0.1,0-0.3,0-0.4,0c-1.5,1.8-3.6,2.9-6.1,2.9
		c-3.2,0-5.8-1.8-7.3-4.7c-3.1-0.8-6.2-2-9.1-3.4l-3.5,3.7h8.9v4H-306v-3l6.3-6.7c-9.6-5.6-17.3-14.1-21.8-24.3h-15
		C-327.6-440.3-302.7-421.3-273.3-421.3z"/>
	<path class="st1" d="M-278.4-551.8c0.7-0.1,1.3-0.5,1.4-1.3l-0.1-1.4c-1,0.1-1.9,0.1-2.9,0.2l0.1,1.1
		C-279.8-552.3-279.3-551.7-278.4-551.8z"/>
	<path class="st2" d="M-262.3-443.1c1.9-2.1,3.5-3.7,3.5-5.3c0-1.5-1.1-2.7-2.8-2.7c-0.6,0.2-1.1,0.3-1.7,0.5
		c-0.8,0.5-1.2,1.5-1.3,2.6h-4.8c0.1-0.5,0.1-1,0.3-1.5c-1,0.1-2,0.2-3,0.2c0.6,1.6,0.9,3.5,0.9,5.5c0,3.5-1,6.5-2.6,8.5
		c0.1,0,0.3,0,0.4,0c1.4,0,2.7-0.1,4-0.2v-0.3L-262.3-443.1z"/>
	<path class="st2" d="M-284-443.8c0,4.1,1.2,7.3,4.2,7.3c3,0,4.2-3.2,4.2-7.3c0-2.3-0.4-4.3-1.3-5.7c-1.8-0.2-3.5-0.4-5.1-0.8
		C-283.4-449.1-284-446.7-284-443.8z"/>
	<path class="st2" d="M-299.7-442.4l0.7-0.7c1.9-2.1,3.5-3.7,3.5-5.3c0-1.5-1.1-2.7-2.8-2.7c-1.9,0-2.8,1.3-3,3.1h-4.8
		c0.4-4.1,3.3-7.2,7.7-7.2c4.6,0,7.4,2.6,7.4,6.6c0,2.8-2.1,4.9-4.4,7.3l-0.8,0.8c2.9,1.4,5.9,2.5,9.1,3.4c-0.9-1.8-1.4-4.1-1.4-6.7
		c0-3.1,0.8-5.8,2.1-7.8c-7.9-2.9-14.6-8.2-19.2-15.1h-15.9C-317-456.5-309.3-448-299.7-442.4z"/>
	<path class="st2" d="M-273.3-540.6c-21.5,0-40,12.9-48.2,31.4h15.9c5.5-8.3,14.1-14.4,24.1-16.5l-1.8-1.8c-2.8-2.8-2.8-7.3,0-10
		c1.3-1.3,3.1-2.1,5-2.1c1.9,0,3.6,0.7,5,2c1.3-1.3,3.1-2,5-2c1.9,0,3.7,0.7,5,2.1c2.8,2.8,2.8,7.3,0,10l-1.8,1.8
		c10,2.2,18.6,8.2,24.1,16.5h15.9C-233.3-527.7-251.8-540.6-273.3-540.6z"/>
	<path class="st2" d="M-256.1-453.3c1.2,1.1,1.9,2.8,1.9,4.7c0,2.8-2.1,4.9-4.4,7.3l-4.2,4.6h1.8c4.9-1.2,9.6-3,13.9-5.5v-7.4
		l-5.1,2.6v-4.5l6.7-3.3h2.9v9.7c7.6-5.5,13.7-12.9,17.6-21.6H-241C-244.8-461-250-456.4-256.1-453.3z"/>
	<path class="st3" d="M-286.4-451.6c1.5-2.3,3.8-3.6,6.6-3.6c3.6,0,6.4,2.3,7.8,5.9c1,0,2-0.1,3-0.2c0.9-3.3,3.6-5.7,7.4-5.7
		c2.4,0,4.3,0.7,5.5,1.9c6.1-3.1,11.4-7.7,15.1-13.4h-19.8c-3.7,2.2-7.9,3.4-12.5,3.4s-8.8-1.2-12.5-3.4h-19.8
		C-301.1-459.8-294.3-454.4-286.4-451.6z"/>
	<path class="st3" d="M-279.8-451.1c-0.9,0-1.6,0.3-2.2,0.8c1.7,0.4,3.4,0.7,5.1,0.8C-277.6-450.5-278.5-451.1-279.8-451.1z"/>
	<path class="st3" d="M-261.6-451.1c-0.7,0-1.2,0.2-1.7,0.5C-262.8-450.8-262.2-450.9-261.6-451.1
		C-261.6-451.1-261.6-451.1-261.6-451.1z"/>
	<path class="st3" d="M-265.1-525.7l-0.4,0.4c0,0-5.5,5.5-6.6,6.6c-0.3,0.3-0.8,0.5-1.3,0.5c-0.5,0-0.9-0.2-1.3-0.5
		c-1.1-1.1-6.6-6.6-6.6-6.6l-0.4-0.4c-10,2.2-18.6,8.2-24.1,16.5h19.8c3.7-2.2,7.9-3.4,12.5-3.4s8.8,1.2,12.5,3.4h19.8
		C-246.5-517.5-255.1-523.6-265.1-525.7z"/>
	<path class="st4" d="M-285.8-509.2h25c-3.7-2.2-7.9-3.4-12.5-3.4S-282.2-511.4-285.8-509.2z"/>
	<path class="st4" d="M-260.8-466.7h-25c3.7,2.2,7.9,3.4,12.5,3.4S-264.5-464.6-260.8-466.7z"/>
	<path class="st5" d="M-163.6-509.2h-23.3c-9.5-38.9-44.6-67.8-86.5-67.8s-77,28.9-86.5,67.8h-6.5l-16.8,42.5h23.3
		c9.5,38.9,44.6,67.8,86.5,67.8s77-28.9,86.5-67.8h6.2L-163.6-509.2z M-273.3-568.6c37.2,0,68.5,25.2,77.8,59.4h-14.6h-15H-241
		h-19.8h-25h-19.8h-15.9h-15h-14.6C-341.8-543.4-310.5-568.6-273.3-568.6z M-224.5-478.4c-1-0.6-2-1.9-2.1-3.7c0.1,0,0.2,0,0.3,0
		c1,0,1.9,0,2.9,0c0.1,0,0.2,0,0.2,0h0.1c0,0,0,0,0,0.2c0,0,0,0.1,0,0.1c0.2,1.6,2.5,2.2,3.8,1.2c0.8-0.7,0.8-2-0.1-2.6
		c-0.8-0.6-1.7-0.8-2.6-1.1c-1-0.3-2-0.6-2.8-1.2c-1.1-0.8-1.7-1.8-1.6-3.2c0.1-1.9,1.1-3.3,2.8-4c2.1-0.9,4.1-0.8,6,0.4
		c1.2,0.7,1.8,1.9,2,3.2c0,0,0,0.1,0,0.1c0,0.2,0,0.3,0,0.3s-0.1,0-0.2,0c0,0-0.1,0-0.1,0c-0.1,0-0.1,0-0.2,0c-1,0-3,0-3,0
		c0-0.1,0-0.4,0-0.4c-0.1-0.7-0.7-1.2-1.3-1.3c-0.7-0.1-1.4-0.1-2,0.5c-0.6,0.6-0.6,1.5,0.1,2.1c0.6,0.5,1.4,0.7,2.2,1
		c1.1,0.3,2.2,0.6,3.2,1.2c1.1,0.7,1.7,1.7,1.8,2.9c0.2,2.5-1.1,4.5-3.5,5.3C-220.7-477-222.6-477.2-224.5-478.4z M-240.2-483.7
		c0.3,1.8,2,3.1,3.7,3.3c0.8,0.1,1.5,0,2.3-0.2c0.9-0.3,1.5-0.8,2-1.6l0.2-0.3h3.6l0,0c0,0,0,0,0,0c-1.4,3.4-5,5.8-9.1,4.9
		c-4.6-1-7.1-5.6-6.1-9.8c1.1-4.6,5.5-7,9.8-6c4.3,1.1,6.5,5.3,5.9,9h-0.4c-3.8,0-7.6,0-11.4,0
		C-240.3-484.3-240.3-484.2-240.2-483.7z M-260.1-478.1C-260.1-478.1-260.1-478.1-260.1-478.1c0-4.9,0-9.7,0-14.5v-0.4h3.4v0.4h0
		c0,0.3,0,0.6,0,1c0,0.1,0,0.2,0,0.4c0.1-0.1,0.2-0.2,0.3-0.3c0.8-1.3,2.1-1.8,3.6-1.9l0,0h0.3v3.6l-0.2,0c0,0-0.1,0-0.2,0
		c-0.5,0.1-1,0.1-1.5,0.2c-1.2,0.3-1.9,1.1-2.2,2.3c-0.1,0.5-0.1,1-0.1,1.5c0,2.5,0,5,0,7.5v0.1c0,0.1,0,0.2,0,0.4v0h-1.8
		c-0.5,0-1,0-1.5,0c0,0-0.1,0-0.1,0h-0.2V-478.1z M-250.2-481L-250.2-481c0-2.9,0-5.9,0-8.8h0h0v-3.2h3.6v3.2h0c0,1.5,0,3,0,4.4
		c0,1.5,0,2.9,0,4.4h0v3.2h-3.6V-481z M-250.2-495.2v-3.2h3.6v3.2H-250.2z M-294.9-481.6c0.8-0.7,1.1-1.7,0.8-2.7
		c-0.1-0.6-0.5-1-1.1-1.3c-1.1-0.5-2.1-1-3.2-1.4c-1.3-0.5-2.5-1-3.5-1.9c-1.4-1.3-1.9-2.9-1.5-4.8c0.5-2.6,2.2-4.1,4.7-4.7
		c2-0.5,4-0.3,5.8,0.8c1.3,0.8,2,2,2.4,3.4c0.1,0.3,0.1,0.7,0.2,1h0c0,0.1,0,0.3,0,0.3h-0.1c0,0,0,0,0,0c0,0-0.1,0-0.2,0
		c-0.6,0-1.1,0-1.7,0c-0.4,0-0.8,0-1.2,0c-0.1,0-0.3,0-0.4,0c-0.1,0-0.2,0-0.3,0c-0.1,0-0.2,0-0.2,0c0,0,0-0.2,0-0.3c0,0,0,0,0,0
		c-0.2-0.9-0.6-1.6-1.5-2c-1.4-0.6-3.1,0-3.6,1.4c-0.4,1-0.2,2,0.9,2.6c1.1,0.6,2.2,1,3.3,1.5c1.1,0.5,2.2,1,3.2,1.8
		c1.2,1,1.9,2.2,2,3.8c0.1,2-0.5,3.8-2.1,5.1c-0.9,0.8-2,1.2-3.2,1.4c-1.1,0.2-2.1,0.2-3.2,0c-2.2-0.4-4.2-1.6-5-4.2
		c-0.2-0.6-0.2-1.3-0.3-1.9c0-0.2,0.1-0.4,0.3-0.4c1.1,0,2.2,0,3.3,0c0.2,0,0.3,0.1,0.4,0.4c0.1,1.2,0.7,2.4,2.1,2.8
		C-296.7-480.6-295.7-480.8-294.9-481.6z M-287.6-481.4c-0.1-0.6-0.2-1.2-0.2-1.9c0-4.6,0-9.1,0-13.7h0v-0.8h3.7v0.8h0
		c0,1.2,0,2.3,0,3.5c0,0.3,0.1,0.4,0.4,0.4c0.9,0,1.7,0,2.6,0v0h0.8v2.6h0v0c-0.1,0-0.3,0-0.4,0c-1,0-2,0-3,0
		c-0.3,0-0.4,0.1-0.4,0.4c0,2.2,0,4.5,0,6.7c0,0.4,0.1,0.9,0.3,1.3c0.5,1,1.6,1.3,2.6,0.8c1.2-0.6,1.8-1.6,2.2-2.8
		c0.2-0.7,0.3-1.5,0.4-2.2c0.3-2.6,1.4-4.7,3.7-6.1c1.2-0.8,2.6-1.1,4-1.2c2.1-0.1,4,0.4,5.6,1.7c1.6,1.3,2.6,3,2.9,5.1
		c0.3,2-0.1,3.9-1.1,5.6c-1.2,1.9-2.9,3.1-5.1,3.5c-2.4,0.5-4.6,0.2-6.6-1.2c-0.8-0.5-1.4-1.2-1.9-1.9c-0.1-0.1-0.1-0.1-0.2-0.2
		c0,0-0.1,0-0.1-0.1c-0.1,0.1-0.2,0.2-0.2,0.4c-0.8,1.5-2,2.4-3.7,2.6c-1,0.2-2.1,0.2-3.1-0.1C-286.1-478.7-287.2-479.7-287.6-481.4
		z M-306.1-488.1c0.4,1.2,0.5,2.4,0.4,3.6c0,0.3-0.2,0.3-0.4,0.3c-3.9,0-7.7,0-11.6,0c-0.4,0-0.5,0.1-0.4,0.5c0.4,1.8,1.8,3,3.7,3.3
		c1.1,0.1,2.1,0,3-0.5c0.6-0.3,1-0.8,1.3-1.3c0.1-0.1,0.2-0.2,0.3-0.2c1.1,0,2.2,0,3.3,0c0,0,0.1,0,0.2,0.1c-0.3,0.6-0.6,1.1-1,1.6
		c-1.2,1.7-2.8,2.8-4.8,3.2c-2.2,0.5-4.3,0.1-6.2-1.2c-2.5-1.8-3.7-4.2-3.5-7.3c0.2-3.4,2.6-6.3,5.8-7.2
		C-311.8-494.4-307.5-492.2-306.1-488.1z M-352.1-480.1c-0.9-1.1-1.5-2.3-1.8-3.7c-0.3-1.7-0.2-3.3,0.4-4.8c1-2.4,2.8-4,5.4-4.6
		c2.2-0.5,4.4-0.3,6.4,0.8c2,1.1,3.3,2.9,3.8,5.2c0.6,2.6,0,4.9-1.6,7c-1.1,1.4-2.6,2.3-4.3,2.7c-0.7,0.1-1.4,0.2-2,0.3
		C-348.3-477.4-350.5-478.2-352.1-480.1z M-337-493.1c0,0,0.1,0,0.1,0H-337l3.7,0l0.3,0.9l0,0c0.8,2.2,1.5,4.4,2.3,6.6
		c0.4,1,0.7,2,1.1,3.2c0.1-0.2,0.2-0.3,0.2-0.4c1-2.9,2-5.9,3.1-8.8c0.1-0.3,0.2-0.7,0.3-1l0,0l0.2-0.5h1.7l-0.1,0
		c0.7,0,1.4,0,2.1,0c-0.2,0.7-0.5,1.3-0.7,1.9c-0.8,2.3-1.7,4.5-2.5,6.8c-0.8,2.1-1.6,4.2-2.3,6.3c-0.1,0.3-0.2,0.3-0.5,0.3
		c-0.9,0-1.9,0-2.8,0c-0.2,0-0.4,0-0.4-0.3c-0.9-2.4-1.8-4.7-2.6-7.1c-0.9-2.5-1.8-5-2.8-7.5C-336.9-492.8-337-492.9-337-493.1z
		 M-365-477.8c-0.3,0-0.4-0.2-0.4-0.4c0-3.3,0-6.6,0-9.8c0-3.3,0-6.5,0-9.8c0,0,0-0.1,0-0.1v-0.4h4.1v0.4h0c0,5.4,0,10.7,0,16.1
		c0,0.5,0,0.5,0.5,0.5c2,0,3.9,0,5.9,0h0v0h0.4v3.6h-0.1c0,0-0.1,0-0.2,0C-358.2-477.8-361.6-477.8-365-477.8z M-273.3-407.3
		c-37.2,0-68.5-25.2-77.8-59.4h14.6h15h15.9h19.8h25h19.8h15.9h15h14.6C-204.8-432.5-236.1-407.3-273.3-407.3z M-182.1-495.6
		c-0.8,2.2-1.6,4.4-2.4,6.7c-1,2.8-2,5.6-3,8.3c-0.4,1-0.7,2.1-1.1,3.1l-0.1,0.3h-4.1l-0.1-0.3c0,0,0,0,0,0
		c-0.6-1.6-1.2-3.3-1.7-4.9c-0.8-2.2-1.6-4.5-2.4-6.7c-0.5-1.5-1.1-3-1.6-4.6c-0.1-0.3-0.3-0.5-0.6-0.4c-1.8,0-3.7,0-5.5,0
		c-0.3,0-0.4,0.1-0.4,0.4c0,5.3,0,10.6,0,15.9h0v0.7h-3.6v-0.4c0,0,0,0,0,0c0-5.4,0-10.8,0-16.2c0-0.3-0.1-0.4-0.4-0.4
		c-1.4,0-2.8,0-4.2,0c0,0-0.1,0-0.1,0h-0.3v-3.6h0.8v0c5.6,0,11.2,0,16.8,0c0.3,0,0.4,0.1,0.5,0.4c0.6,1.9,1.3,3.8,1.9,5.7
		c0.8,2.5,1.7,5.1,2.5,7.6c0.1,0.4,0.3,0.9,0.4,1.3l0.3,0.5l0.3-0.6c0.5-1.5,1-2.9,1.5-4.4c0.5-1.5,1-2.9,1.5-4.4
		c0.6-1.9,1.3-3.7,1.9-5.6l0.2-0.5h0.5c1.1,0,2.2,0,3.3,0c0.1,0,0.2,0,0.4,0C-181.6-497-181.8-496.3-182.1-495.6z"/>
	<path class="st5" d="M-341.2-485.4c-0.1-0.5-0.2-1.1-0.3-1.6c-1-2.8-4.1-3.9-6.5-2.5c-2,1.1-2.8,3.5-2.1,5.7
		c0.8,2.4,3.3,3.7,5.8,2.9C-342.5-481.6-341.3-483.3-341.2-485.4z"/>
	<path class="st5" d="M-231.4-487c-0.1-0.3-0.1-0.5-0.2-0.7c-0.6-1.7-2.2-2.8-4.1-2.8c-1.5,0-2.8,0.5-3.7,1.7
		c-0.4,0.5-0.7,1.1-0.7,1.8H-231.4z"/>
	<path class="st5" d="M-317.5-488.5c-0.3,0.4-0.5,0.9-0.5,1.5h8.3c0.4,0,0.5,0,0.4-0.4c0-0.2-0.1-0.3-0.2-0.5
		c-0.8-1.7-2.2-2.5-4-2.6C-315.2-490.5-316.6-489.9-317.5-488.5z"/>
	<path class="st5" d="M-269.3-480.9c1.8-0.5,3.3-2.2,3.2-4.6c0-0.2,0-0.5,0-0.8c0-0.3-0.1-0.6-0.2-0.9c-0.9-2.8-4.7-4-7-2.1
		c-1.6,1.3-2.1,2.9-1.7,4.9C-274.5-481.7-271.8-480.2-269.3-480.9z"/>
	<path d="M-185-497.8h-0.5l-0.2,0.5c-0.6,1.9-1.2,3.7-1.9,5.6c-0.5,1.5-1,2.9-1.5,4.4c-0.5,1.5-1,2.9-1.5,4.4l-0.3,0.6l-0.3-0.5
		c-0.2-0.4-0.3-0.9-0.4-1.3c-0.8-2.5-1.7-5.1-2.5-7.6c-0.6-1.9-1.3-3.8-1.9-5.7c-0.1-0.2-0.2-0.4-0.5-0.4c-5.6,0-11.2,0-16.8,0v0
		h-0.8v3.6h0.3c0,0,0.1,0,0.1,0c1.4,0,2.8,0,4.2,0c0.3,0,0.4,0.1,0.4,0.4c0,5.4,0,10.8,0,16.2c0,0,0,0,0,0v0.4h3.6v-0.7h0
		c0-5.3,0-10.6,0-15.9c0-0.3,0.1-0.4,0.4-0.4c1.8,0,3.7,0,5.5,0c0.4,0,0.5,0.1,0.6,0.4c0.5,1.5,1.1,3,1.6,4.6
		c0.8,2.2,1.6,4.5,2.4,6.7c0.6,1.6,1.2,3.2,1.7,4.9c0,0,0,0,0,0l0.1,0.3h4.1l0.1-0.3c0.4-1,0.7-2.1,1.1-3.1c1-2.8,2-5.6,3-8.3
		c0.8-2.2,1.6-4.4,2.4-6.7c0.2-0.7,0.5-1.4,0.8-2.2c-0.2,0-0.3,0-0.4,0C-182.8-497.8-183.9-497.8-185-497.8z"/>
	<path d="M-281.5-478c1.7-0.3,2.9-1.1,3.7-2.6c0.1-0.1,0.1-0.2,0.2-0.4c0.1,0,0.1,0,0.1,0.1c0.1,0.1,0.1,0.1,0.2,0.2
		c0.5,0.8,1.2,1.4,1.9,1.9c2,1.3,4.2,1.7,6.6,1.2c2.2-0.4,3.9-1.6,5.1-3.5c1.1-1.7,1.5-3.6,1.1-5.6c-0.3-2.1-1.3-3.8-2.9-5.1
		c-1.6-1.3-3.5-1.8-5.6-1.7c-1.4,0.1-2.8,0.4-4,1.2c-2.2,1.4-3.4,3.5-3.7,6.1c-0.1,0.7-0.2,1.5-0.4,2.2c-0.4,1.2-1,2.2-2.2,2.8
		c-1,0.5-2.1,0.2-2.6-0.8c-0.2-0.4-0.3-0.8-0.3-1.3c0-2.2,0-4.5,0-6.7c0-0.3,0.1-0.4,0.4-0.4c1,0,2,0,3,0c0.1,0,0.2,0,0.4,0v0h0
		v-2.6h-0.8v0c-0.9,0-1.7,0-2.6,0c-0.3,0-0.4-0.1-0.4-0.4c0-1.2,0-2.3,0-3.5h0v-0.8h-3.7v0.8h0c0,4.6,0,9.1,0,13.7
		c0,0.6,0.1,1.3,0.2,1.9c0.4,1.7,1.5,2.7,3.1,3.3C-283.5-477.8-282.5-477.8-281.5-478z M-273.3-489.2c2.3-1.9,6.2-0.7,7,2.1
		c0.1,0.3,0.2,0.6,0.2,0.9c0,0.3,0,0.6,0,0.8c0,2.3-1.4,4-3.2,4.6c-2.6,0.8-5.3-0.8-5.8-3.4C-275.4-486.3-274.9-488-273.3-489.2z"/>
	<path d="M-299.8-483.8c0-0.3-0.1-0.4-0.4-0.4c-1.1,0-2.2,0-3.3,0c-0.3,0-0.3,0.1-0.3,0.4c0.1,0.6,0.2,1.3,0.3,1.9
		c0.7,2.6,2.7,3.8,5,4.2c1.1,0.2,2.1,0.2,3.2,0c1.2-0.2,2.3-0.6,3.2-1.4c1.6-1.3,2.1-3.1,2.1-5.1c-0.1-1.6-0.7-2.8-2-3.8
		c-1-0.8-2.1-1.3-3.2-1.8c-1.1-0.5-2.2-1-3.3-1.5c-1.1-0.6-1.2-1.6-0.9-2.6c0.5-1.4,2.2-2,3.6-1.4c0.9,0.4,1.3,1.1,1.5,2
		c0,0,0,0,0,0c0,0.1,0,0.3,0,0.3c0,0,0.1,0,0.2,0c0.1,0,0.1,0,0.3,0c0.1,0,0.3,0,0.4,0c0.4,0,0.8,0,1.2,0c0.6,0,1.1,0,1.7,0
		c0.1,0,0.1,0,0.2,0c0,0,0,0,0,0h0.1c0,0,0-0.1,0-0.3h0c-0.1-0.3-0.1-0.7-0.2-1c-0.3-1.5-1.1-2.6-2.4-3.4c-1.8-1.1-3.8-1.4-5.8-0.8
		c-2.5,0.7-4.2,2.1-4.7,4.7c-0.4,1.9,0.1,3.5,1.5,4.8c1,0.9,2.3,1.4,3.5,1.9c1.1,0.4,2.1,0.9,3.2,1.4c0.5,0.3,0.9,0.7,1.1,1.3
		c0.3,1.1,0,2-0.8,2.7c-0.8,0.8-1.8,0.9-2.8,0.6C-299.1-481.3-299.7-482.5-299.8-483.8z"/>
	<path d="M-315.9-493.2c-3.3,0.9-5.6,3.8-5.8,7.2c-0.2,3.1,1,5.5,3.5,7.3c1.9,1.3,4,1.6,6.2,1.2c2-0.4,3.6-1.6,4.8-3.2
		c0.4-0.5,0.6-1.1,1-1.6c-0.1,0-0.2-0.1-0.2-0.1c-1.1,0-2.2,0-3.3,0c-0.1,0-0.3,0.1-0.3,0.2c-0.4,0.5-0.8,1-1.3,1.3
		c-0.9,0.5-1.9,0.6-3,0.5c-1.9-0.3-3.3-1.5-3.7-3.3c-0.1-0.4,0-0.5,0.4-0.5c3.9,0,7.7,0,11.6,0c0.2,0,0.4,0,0.4-0.3
		c0.1-1.2,0-2.4-0.4-3.6C-307.5-492.2-311.8-494.4-315.9-493.2z M-309.5-487.9c0.1,0.2,0.1,0.3,0.2,0.5c0.1,0.4,0.1,0.4-0.4,0.4
		h-8.3c0-0.6,0.2-1.1,0.5-1.5c0.9-1.4,2.3-2,4-2C-311.7-490.4-310.4-489.6-309.5-487.9z"/>
	<path d="M-239.8-484.3c3.8,0,7.6,0,11.4,0h0.4c0.6-3.7-1.5-8-5.9-9c-4.4-1.1-8.7,1.3-9.8,6c-1,4.2,1.4,8.7,6.1,9.8
		c4.1,0.9,7.8-1.5,9.1-4.9c0,0,0,0,0,0l0,0h-3.6l-0.2,0.3c-0.5,0.7-1.2,1.3-2,1.6c-0.7,0.2-1.5,0.3-2.3,0.2
		c-1.7-0.2-3.3-1.4-3.7-3.3C-240.3-484.2-240.3-484.3-239.8-484.3z M-239.4-488.8c1-1.2,2.2-1.7,3.7-1.7c1.9,0,3.5,1.1,4.1,2.8
		c0.1,0.2,0.1,0.4,0.2,0.7h-8.7C-240.2-487.7-239.9-488.3-239.4-488.8z"/>
	<path d="M-343.8-477.6c1.8-0.4,3.2-1.3,4.3-2.7c1.6-2.1,2.2-4.4,1.6-7c-0.5-2.3-1.7-4-3.8-5.2c-2-1.1-4.2-1.3-6.4-0.8
		c-2.6,0.6-4.3,2.2-5.4,4.6c-0.7,1.5-0.8,3.2-0.4,4.8c0.3,1.4,0.9,2.6,1.8,3.7c1.6,1.9,3.8,2.7,6.2,2.8
		C-345.2-477.4-344.5-477.5-343.8-477.6z M-350.2-483.9c-0.7-2.2,0.1-4.6,2.1-5.7c2.4-1.4,5.6-0.3,6.5,2.5c0.2,0.5,0.2,1.1,0.3,1.6
		c-0.1,2.1-1.3,3.9-3.2,4.5C-346.9-480.2-349.4-481.4-350.2-483.9z"/>
	<path d="M-331.5-478.1c0.1,0.2,0.2,0.3,0.4,0.3c0.9,0,1.9,0,2.8,0c0.3,0,0.4-0.1,0.5-0.3c0.8-2.1,1.6-4.2,2.3-6.3
		c0.8-2.3,1.7-4.5,2.5-6.8c0.2-0.6,0.5-1.2,0.7-1.9c-0.7,0-1.4,0-2.1,0l0.1,0h-1.7l-0.2,0.5l0,0c-0.1,0.3-0.2,0.7-0.3,1
		c-1,2.9-2,5.9-3.1,8.8c0,0.1-0.1,0.2-0.2,0.4c-0.4-1.1-0.7-2.1-1.1-3.2c-0.8-2.2-1.5-4.4-2.3-6.6l0,0l-0.3-0.9h-3.7l0.1,0
		c0,0-0.1,0-0.1,0c0.1,0.2,0.1,0.3,0.1,0.4c0.9,2.5,1.8,5,2.8,7.5C-333.3-482.8-332.4-480.5-331.5-478.1z"/>
	<path d="M-354.6-477.9h0.1v-3.6h-0.4v0h0c-2,0-3.9,0-5.9,0c-0.5,0-0.5,0-0.5-0.5c0-5.4,0-10.7,0-16.1h0v-0.4h-4.1v0.4
		c0,0,0,0,0,0.1c0,3.3,0,6.5,0,9.8c0,3.3,0,6.6,0,9.8c0,0.3,0,0.4,0.4,0.4c3.4,0,6.8,0,10.2,0C-354.7-477.8-354.7-477.8-354.6-477.9
		z"/>
	<path d="M-259.8-477.8c0.5,0,1,0,1.5,0h1.8v0c0-0.1,0-0.3,0-0.4v-0.1c0-2.5,0-5,0-7.5c0-0.5,0-1,0.1-1.5c0.2-1.2,1-2,2.2-2.3
		c0.5-0.1,1-0.2,1.5-0.2c0.1,0,0.1,0,0.2,0l0.2,0v-3.6h-0.3l0,0c-1.5,0.1-2.7,0.6-3.6,1.9c-0.1,0.1-0.2,0.2-0.3,0.3
		c0-0.2,0-0.3,0-0.4c0-0.3,0-0.6,0-1h0v-0.4h-3.4v0.4c0,4.8,0,9.7,0,14.5c0,0,0,0,0,0v0.3h0.2C-259.9-477.8-259.8-477.8-259.8-477.8
		z"/>
	<rect x="-250.2" y="-498.4" width="3.6" height="3.2"/>
	<path d="M-246.6-481L-246.6-481c0-1.5,0-2.9,0-4.4c0-1.5,0-3,0-4.4h0v-3.2h-3.6v3.2h0h0c0,2.9,0,5.9,0,8.8h0v3.2h3.6V-481z"/>
	<path d="M-218.6-477.7c2.4-0.8,3.8-2.8,3.5-5.3c-0.1-1.2-0.7-2.2-1.8-2.9c-1-0.6-2.1-0.9-3.2-1.2c-0.8-0.2-1.5-0.4-2.2-1
		c-0.7-0.5-0.7-1.4-0.1-2.1c0.6-0.6,1.2-0.6,2-0.5c0.7,0.1,1.2,0.6,1.3,1.3c0,0,0,0.3,0,0.4c0,0,2,0,3,0c0.1,0,0.1,0,0.2,0
		c0,0,0.1,0,0.1,0c0.2,0,0.2,0,0.2,0s0,0,0-0.3c0,0,0-0.1,0-0.1c-0.2-1.4-0.8-2.5-2-3.2c-1.9-1.2-4-1.3-6-0.4
		c-1.7,0.8-2.7,2.1-2.8,4c-0.1,1.4,0.5,2.4,1.6,3.2c0.9,0.6,1.9,0.9,2.8,1.2c0.9,0.3,1.8,0.6,2.6,1.1c0.9,0.6,0.9,1.9,0.1,2.6
		c-1.2,1-3.6,0.5-3.8-1.2c0,0,0-0.1,0-0.1c0-0.2,0-0.2,0-0.2h-0.1c-0.1,0-0.1,0-0.2,0c-1,0-1.9,0-2.9,0c-0.1,0-0.2,0-0.3,0
		c0.1,1.8,1.1,3.1,2.1,3.7C-222.6-477.2-220.7-477-218.6-477.7z"/>
	<polygon class="st6" points="-308.8,-538.5 -311.4,-542.2 -307.3,-545 -307.5,-545.2 -308.5,-546.7 -312.6,-543.9 -314.3,-546.3 
		-309.9,-549.4 -311.1,-551.1 -317.5,-546.7 -313.6,-541.1 -310.8,-537.1 	"/>
	<path class="st6" d="M-300.3-543.5c1.9-1,2.6-2.6,2-4.3l-1.9,1c0.2,0.7-0.2,1.3-0.9,1.7c-0.9,0.5-1.9,0.1-2.6-1l5-2.6l-0.3-0.6
		c0,0,0-0.1-0.1-0.1c-1.1-2.1-3.1-3-5.3-1.9c-2,1-2.7,3.2-1.8,5.4c0.1,0.1,0.1,0.3,0.2,0.4C-304.8-543.2-302.5-542.4-300.3-543.5z
		 M-303.4-549.7c0.9-0.4,1.7-0.1,2.1,0.7l-2.9,1.5C-304.6-548.5-304.3-549.3-303.4-549.7z"/>
	<path class="st6" d="M-297.3-548.1c0.6,1.7,2.3,2.1,3.9,1.6c0.9-0.3,1.6-0.9,1.8-1.2l0.1,0.4l2.1-0.7l-1.5-4.3l-0.3-0.8
		c-0.7-1.9-2.3-2.7-4.4-1.9c-1.8,0.6-2.8,2.2-2.5,3.7l2.1-0.7c0-0.5,0.3-0.9,0.9-1.2c0.9-0.3,1.5,0.1,1.7,0.8l0.2,0.6
		c-0.4-0.1-1.3-0.1-2,0.2c-0.8,0.3-1.5,0.8-1.9,1.4C-297.4-549.7-297.5-548.9-297.3-548.1z M-293.4-548.3c-0.7,0.2-1.5,0.2-1.8-0.5
		c-0.2-0.7,0.4-1.2,1.1-1.5c0.6-0.2,1.4-0.2,1.7,0.2l0.2,0.6C-292.3-549-292.8-548.5-293.4-548.3z"/>
	<path class="st6" d="M-284.6-548.9c0.6-0.1,1.2-0.3,1.4-0.6l-0.4-2c-0.2,0.2-0.6,0.4-0.9,0.5c-0.6,0.1-1-0.1-1.1-0.8l-0.3-1.7
		l-0.4-2l1.8-0.4l-0.4-1.9l-1.8,0.4l-0.5-2.3l-2.3,0.5l0.5,2.3l-1.3,0.3l0.4,1.9l1.3-0.3l0.4,2l0.4,2
		C-287.5-549.1-286.3-548.5-284.6-548.9z"/>
	<path class="st6" d="M-278.9-549.6c1-0.1,1.8-0.6,2.2-1.1l0.1,0.8l2.3-0.2l-0.4-4.4l-0.3-4.1l-2.4,0.2l0.3,4l0.1,1.4
		c-0.1,0.8-0.7,1.2-1.4,1.3c-0.9,0.1-1.4-0.5-1.5-1.4l-0.1-1.1l-0.3-3.9l-2.3,0.2l0.3,4l0.1,1.5C-282-550.7-280.8-549.5-278.9-549.6
		z"/>
	<path class="st6" d="M-270.3-550l0.2-4.5l0-0.7c0.2-0.8,0.9-1.2,1.7-1.1c0.4,0,0.8,0.1,1.2,0.3l0.1-2.4c-0.1-0.1-0.5-0.2-0.9-0.2
		c-0.8,0-1.6,0.3-1.9,0.9l0-0.8l-2.4-0.1l-0.2,4l-0.2,4.5L-270.3-550z"/>
	<path class="st6" d="M-263.1-549c2.1,0.4,3.6-0.6,4.2-2.3l-2.2-0.4c-0.3,0.7-0.9,0.9-1.7,0.8c-1-0.2-1.6-1-1.5-2.3l5.6,1l0.1-0.7v0
		c0.4-2.5-0.6-4.4-3.1-4.8c-2.3-0.4-4.2,1.1-4.7,3.5c0,0.1,0,0.1-0.1,0.2C-266.8-551.5-265.5-549.4-263.1-549z M-261.9-555.9
		c1,0.2,1.4,0.9,1.2,1.8l-3.2-0.6C-263.6-555.6-262.8-556-261.9-555.9z"/>
	<path class="st6" d="M-255.1-547.1c0.9,0.3,1.8,0.1,2.3-0.2l-0.2,0.7l2.3,0.7l1.4-4.3l2.4-7.4l-2.3-0.7l-1.4,4.3
		c-0.2-0.6-0.9-1.2-1.7-1.5c-2.3-0.8-4.2,0.6-5,2.8c0,0.1-0.1,0.1-0.1,0.2C-258.1-550.2-257.4-547.8-255.1-547.1z M-252.4-553.4
		c0.6,0.2,1.1,0.8,1.2,1.4l-0.3,1l-0.6,1.7c-0.4,0.5-1.2,0.7-1.8,0.4c-1.2-0.4-1.6-1.6-1.2-2.9c0-0.1,0.1-0.2,0.1-0.3
		C-254.5-553.1-253.5-553.7-252.4-553.4z"/>
	<path class="st6" d="M-242.8-541.5c2.1,1.3,4.5,0.6,5.8-1.7c0.1-0.2,0.2-0.3,0.2-0.5c1-2.1,0.4-4.3-1.5-5.5c-2-1.2-4.3-0.6-5.6,1.4
		c-0.1,0.1-0.2,0.2-0.2,0.3C-245.4-545.2-244.9-542.8-242.8-541.5z M-239.3-547.5c0.9,0.5,1,1.5,0.6,2.5c-0.1,0.2-0.2,0.4-0.3,0.5
		c-0.7,1.2-1.8,1.8-2.8,1.2c-1-0.6-1-1.8-0.3-3c0.1-0.2,0.2-0.3,0.3-0.4C-241.1-547.6-240.2-548-239.3-547.5z"/>
	<path class="st6" d="M-236.4-537.4l3.1-3.8l0.3-0.3c0.6-0.5,1.4-0.4,1.9,0.1c0.7,0.6,0.7,1.3,0.1,2l0,0l-3.2,3.9l1.8,1.5l3.1-3.8
		l0.4-0.5c1.2-1.5,1.1-3.1-0.3-4.3c-0.8-0.6-1.7-0.8-2.4-0.7l0.5-0.6l-1.8-1.5l-2.3,2.8l-3,3.7L-236.4-537.4z"/>
	<path class="st4" d="M-267.6-527.5l2.1-2.1c1.6-1.6,1.6-4.2,0-5.8c-0.8-0.8-1.8-1.2-2.9-1.2c-1.1,0-2.1,0.4-2.9,1.2l-2.1,2.1
		l-2.1-2.1c-0.8-0.8-1.8-1.2-2.9-1.2c-1.1,0-2.1,0.4-2.9,1.2c-1.6,1.6-1.6,4.2,0,5.8l2.1,2.1c0,0,3.8,3.8,5.7,5.7
		C-271.4-523.7-267.6-527.5-267.6-527.5z"/>
	<path class="st6" d="M-274.6-518.8c0.3,0.3,0.8,0.5,1.3,0.5c0.5,0,0.9-0.2,1.3-0.5c1.1-1.1,6.6-6.6,6.6-6.6l0.4-0.4l1.8-1.8
		c2.8-2.8,2.8-7.3,0-10c-1.3-1.3-3.1-2.1-5-2.1c-1.9,0-3.6,0.7-5,2c-1.3-1.3-3.1-2-5-2c-1.9,0-3.7,0.7-5,2.1c-2.8,2.8-2.8,7.3,0,10
		l1.8,1.8l0.4,0.4C-281.2-525.4-275.7-519.9-274.6-518.8z M-279-527.5l-2.1-2.1c-1.6-1.6-1.6-4.2,0-5.8c0.8-0.8,1.8-1.2,2.9-1.2
		c1.1,0,2.1,0.4,2.9,1.2l2.1,2.1l2.1-2.1c0.8-0.8,1.8-1.2,2.9-1.2c1.1,0,2.1,0.4,2.9,1.2c1.6,1.6,1.6,4.2,0,5.8l-2.1,2.1
		c0,0-3.8,3.8-5.7,5.7C-275.2-523.7-279-527.5-279-527.5z"/>
	<path class="st6" d="M-291-448.6c0-4-2.8-6.6-7.4-6.6c-4.4,0-7.2,3.1-7.7,7.2h4.8c0.1-1.7,1.1-3.1,3-3.1c1.7,0,2.8,1.1,2.8,2.7
		c0,1.7-1.5,3.2-3.5,5.3l-0.7,0.7l-6.3,6.7v3h15.3v-4h-8.9l3.5-3.7l0.8-0.8C-293.1-443.7-291-445.9-291-448.6z"/>
	<path class="st6" d="M-272.1-449.3c-1.4-3.6-4.2-5.9-7.8-5.9c-2.8,0-5.1,1.3-6.6,3.6c-1.3,2-2.1,4.7-2.1,7.8c0,2.6,0.5,4.8,1.4,6.7
		c1.5,2.9,4.1,4.7,7.3,4.7c2.5,0,4.6-1.1,6.1-2.9c1.7-2,2.6-5,2.6-8.5C-271.1-445.9-271.4-447.7-272.1-449.3z M-279.8-451.1
		c1.3,0,2.2,0.6,2.9,1.6c0.9,1.3,1.3,3.4,1.3,5.7c0,4.1-1.3,7.3-4.2,7.3c-3,0-4.2-3.2-4.2-7.3c0-2.9,0.6-5.3,2-6.5
		C-281.4-450.8-280.7-451.1-279.8-451.1z"/>
	<path class="st6" d="M-258.7-441.3c2.3-2.4,4.4-4.5,4.4-7.3c0-2-0.7-3.6-1.9-4.7c-1.3-1.2-3.2-1.9-5.5-1.9c-3.8,0-6.5,2.3-7.4,5.7
		c-0.1,0.5-0.2,1-0.3,1.5h4.8c0.1-1.1,0.5-2,1.3-2.6c0.4-0.3,1-0.5,1.7-0.5c0,0,0,0,0,0c1.7,0,2.8,1.1,2.8,2.7
		c0,1.7-1.5,3.2-3.5,5.3l-7,7.4v0.3v2.7h15.3v-4h-7.1h-1.8L-258.7-441.3z"/>
	<polygon class="st6" points="-245.6,-454.9 -252.4,-451.5 -252.4,-447 -247.2,-449.6 -247.2,-442.3 -247.2,-432.8 -242.7,-432.8 
		-242.7,-445.1 -242.7,-454.9 	"/>
</g>
<g>
</g>
<g>
	<g>
		<g>
			<path d="M62.4,175.2c0,0,0.6-1.1,1.1-2.6c0.5-1.6,0.9-3.6,0.7-5.7c-0.1-0.9-0.3-1.7-0.6-2.4c-0.6-1.3-1.3-2.4-1.9-3.2
				c-0.3-0.4-0.6-0.7-0.8-0.9c-0.2-0.2-0.3-0.3-0.3-0.3s-0.7,1-1.4,2.4c-0.7,1.5-1.3,3.5-1.1,5.6c0.1,0.9,0.4,1.7,0.7,2.5
				C59.9,173.4,62.2,175,62.4,175.2c-0.2-0.2-2.5-1.7-5.5-2.3c-0.8-0.2-1.7-0.3-2.6-0.2c-2.2,0-4.2,0.9-5.7,1.7
				c-1.5,0.8-2.4,1.6-2.4,1.6s0.1,0.1,0.4,0.4c0.3,0.2,0.7,0.5,1.2,0.9c1,0.7,2.5,1.5,4.1,1.8c0.9,0.2,1.8,0.3,2.8,0.3
				c2.3-0.1,4.2-1.2,5.5-2.1C61.7,176.1,62.4,175.2,62.4,175.2z"/>
			<path d="M33.6,147.4c1.6-0.3,2.7-0.8,2.7-0.8s1-0.7,2.1-1.9c0.6-0.6,1.2-1.3,1.7-2.1c0.5-0.8,1-1.7,1.4-2.7
				c0.3-0.8,0.4-1.6,0.4-2.4c0.1-1.5-0.1-2.7-0.3-3.7c-0.1-0.5-0.2-0.9-0.3-1.1c-0.1-0.3-0.1-0.4-0.1-0.4s-1.1,0.5-2.4,1.6
				c-0.6,0.5-1.3,1.2-1.9,1.9c-0.6,0.8-1.1,1.6-1.5,2.6c-0.3,0.8-0.4,1.7-0.5,2.5c0,1.5,0.3,2.8,0.6,3.9c0.3,1,0.7,1.7,0.8,1.8
				c-0.1-0.1-0.5-0.8-1.1-1.6c-0.6-0.9-1.6-1.9-2.8-2.8c-0.7-0.5-1.4-1-2.2-1.4c-1-0.4-2-0.7-3.1-0.8c-1-0.1-1.9-0.2-2.8-0.1
				c-1.7,0.1-2.8,0.4-2.8,0.4s0.1,0.2,0.2,0.5c0.2,0.3,0.4,0.8,0.7,1.3c0.7,1,1.6,2.4,2.9,3.5c0.7,0.6,1.5,1.1,2.4,1.4
				c1,0.4,2.1,0.6,3.1,0.7C31.8,147.6,32.8,147.5,33.6,147.4z"/>
			<path d="M41,158.6c1.6-0.5,2.6-1.2,2.6-1.2s0.9-0.8,1.8-2.2c0.9-1.3,1.9-3.2,2.3-5.2c0.2-1,0.2-2,0-2.9c-0.1-0.9-0.3-1.7-0.5-2.4
				c-0.5-1.3-1-2.2-1-2.2s-1,0.7-2.1,1.9c-1.1,1.2-2.3,2.9-2.7,5c-0.4,2,0.1,4,0.7,5.4c0.3,0.7,0.6,1.3,0.9,1.8
				c0.3,0.4,0.5,0.7,0.5,0.8c-0.2-0.3-3-3.7-7-4.8c-2.1-0.6-4.3-0.4-5.9-0.1c-1.6,0.3-2.7,0.8-2.7,0.8s0.6,1.2,1.9,2.5
				c0.6,0.7,1.4,1.3,2.3,1.9c0.9,0.6,1.9,1.1,3,1.3C37.3,159.5,39.4,159.1,41,158.6z"/>
			<path d="M50,168.5c1.5-0.8,2.4-1.6,2.4-1.6s0.7-1,1.5-2.4c0.4-0.7,0.7-1.6,1-2.5c0.1-0.5,0.2-0.9,0.3-1.4c0.1-0.5,0.1-1,0.2-1.5
				c0-1-0.1-2-0.4-2.8c-0.3-0.9-0.5-1.6-0.9-2.3c-0.3-0.6-0.7-1.2-0.9-1.5c-0.2-0.4-0.4-0.6-0.4-0.6s-0.9,0.8-1.8,2.2
				c-0.9,1.3-1.8,3.2-1.9,5.3c0,0.5,0,1,0.1,1.5c0.1,0.5,0.2,0.9,0.3,1.4c0.3,0.9,0.7,1.7,1.1,2.4c0.8,1.4,1.7,2.2,1.8,2.3
				c-0.1-0.1-1-0.9-2.4-1.8c-0.7-0.4-1.5-0.9-2.4-1.2c-0.4-0.2-0.9-0.3-1.4-0.5c-0.5-0.1-1-0.2-1.5-0.3c-2.2-0.3-4.3,0.2-5.9,0.8
				c-1.5,0.6-2.6,1.2-2.6,1.2s0.2,0.3,0.6,0.7c0.4,0.4,1,0.9,1.7,1.5c0.7,0.5,1.5,1.1,2.5,1.6c1,0.4,2,0.8,3.2,0.9
				c0.6,0.1,1.1,0.1,1.6,0c0.5-0.1,1.1-0.2,1.5-0.3C48.4,169.3,49.2,168.9,50,168.5z"/>
			<path d="M17.4,106c1.5,1.7,3.5,2.5,5.1,3c1.6,0.4,2.8,0.5,2.8,0.5s1.2-0.2,2.7-0.8c1.5-0.6,3.4-1.5,4.9-3c0.6-0.6,1.1-1.3,1.4-2
				c0.7-1.3,1.1-2.5,1.3-3.5c0.1-0.5,0.2-0.9,0.2-1.1c0-0.3,0.1-0.4,0.1-0.4s-1.2,0-2.8,0.4c-1.6,0.4-3.6,1.1-5.1,2.6
				c-0.6,0.6-1.1,1.3-1.5,2.1c-0.6,1.3-1,2.7-1.1,3.8c-0.2,1.1-0.1,1.8-0.1,2c0-0.1-0.1-0.9-0.3-2c-0.2-1.1-0.6-2.4-1.3-3.8
				c-0.4-0.8-0.8-1.5-1.4-2.2c-1.4-1.7-3.3-2.7-4.8-3.4c-1.5-0.6-2.7-0.8-2.7-0.8s0,0.2,0,0.6c0,0.4,0,0.9,0.1,1.5
				c0.1,1.2,0.5,2.8,1.1,4.4C16.2,104.5,16.7,105.3,17.4,106z"/>
			<path d="M18.7,120.1c1.8,1.4,3.8,2,5.5,2.2c1.6,0.2,2.8,0,2.8,0s1.1-0.4,2.6-1.2c1.4-0.8,3.2-2,4.4-3.7c1.1-1.7,1.7-3.5,1.8-4.9
				c0-0.4,0.1-0.7,0.1-1c0-0.3,0-0.6,0-0.8c0-0.4,0-0.7,0-0.7s-1.2,0.2-2.7,0.8c-0.8,0.3-1.6,0.7-2.4,1.3c-0.8,0.5-1.6,1.2-2.2,2.1
				c-0.6,0.8-1,1.7-1.3,2.6c-0.2,0.9-0.4,1.8-0.4,2.6c0,0.8,0,1.5,0,2c0.1,0.5,0.1,0.8,0.2,0.9c0-0.1-0.1-0.4-0.3-0.9
				c-0.2-0.5-0.4-1.2-0.7-1.9c-0.3-0.7-0.7-1.5-1.3-2.3c-0.5-0.8-1.1-1.6-1.9-2.3c-0.8-0.7-1.8-1.3-2.7-1.7
				c-0.9-0.4-1.8-0.7-2.6-0.9c-1.6-0.4-2.8-0.4-2.8-0.4s0,0.3,0.1,0.9c0,0.3,0.1,0.6,0.2,1c0.1,0.4,0.2,0.8,0.4,1.2
				C16,116.6,17,118.7,18.7,120.1z"/>
			<path d="M28,135.2c1.7-0.1,2.8-0.4,2.8-0.4s1.1-0.5,2.4-1.5c1.3-1,2.8-2.5,3.7-4.3c0.5-0.9,0.7-1.8,0.9-2.7
				c0.2-0.9,0.2-1.7,0.2-2.4c0-0.4,0-0.7-0.1-1c0-0.3,0-0.6-0.1-0.8c-0.1-0.4-0.1-0.7-0.1-0.7s-1.1,0.4-2.6,1.2
				c-0.7,0.4-1.5,0.9-2.2,1.6c-0.7,0.7-1.4,1.4-1.9,2.4c-0.5,0.9-0.8,1.9-0.9,2.8c-0.1,0.9-0.1,1.8,0,2.6c0.1,1.6,0.6,2.7,0.6,2.9
				c-0.1-0.2-0.5-1.3-1.4-2.6c-0.4-0.7-1-1.4-1.6-2.1c-0.6-0.7-1.4-1.4-2.3-2c-0.9-0.6-1.9-1-2.9-1.3c-1-0.3-1.9-0.4-2.7-0.5
				c-1.6-0.2-2.8,0-2.8,0s0.1,0.3,0.2,0.9c0.1,0.3,0.2,0.6,0.3,0.9c0.1,0.3,0.3,0.7,0.5,1.1c0.4,0.8,0.9,1.7,1.6,2.5
				c0.6,0.8,1.5,1.6,2.5,2.2C24.2,135,26.3,135.3,28,135.2z"/>
			<path d="M27.1,67.6c0.6,0.8,1.3,1.5,1.9,2c1.3,1.1,2.3,1.6,2.3,1.6s1.2,0.3,2.8,0.5c0.8,0.1,1.7,0.1,2.7,0c1-0.1,2-0.3,3-0.6
				c0.8-0.3,1.5-0.7,2.1-1.1c1.2-0.8,2.1-1.8,2.7-2.5c0.3-0.4,0.5-0.7,0.7-0.9c0.2-0.2,0.2-0.4,0.2-0.4s-1.1-0.5-2.7-0.9
				c-0.8-0.2-1.7-0.3-2.7-0.3c-1,0-2,0.1-3,0.5c-0.8,0.3-1.6,0.7-2.3,1.2c-1.2,0.9-2,2-2.6,2.9c-0.6,0.9-0.9,1.6-0.9,1.7
				c0.1-0.1,0.3-0.9,0.6-1.9c0.3-1,0.5-2.4,0.5-4c0-0.8-0.1-1.7-0.3-2.6c-0.3-1.1-0.7-2-1.3-2.9c-0.5-0.9-1.1-1.6-1.6-2.2
				c-1.1-1.2-2.1-1.9-2.1-1.9s-0.1,0.2-0.3,0.5c-0.2,0.3-0.4,0.8-0.6,1.4c-0.4,1.2-0.8,2.8-0.9,4.5c0,0.9,0.1,1.9,0.4,2.8
				C26,65.8,26.5,66.7,27.1,67.6z"/>
			<path d="M20.9,78c0.5,1,1.1,1.9,1.8,2.6c0.7,0.7,1.5,1.3,2.2,1.7c1.4,0.9,2.5,1.3,2.5,1.3s1.2,0.2,2.8,0.1
				c0.8-0.1,1.7-0.2,2.7-0.4c1-0.2,1.9-0.6,2.8-1.1c0.9-0.5,1.6-1.1,2.3-1.7c0.6-0.6,1.2-1.3,1.5-1.9c0.4-0.6,0.6-1.1,0.9-1.5
				c0.2-0.4,0.3-0.6,0.3-0.6s-1.2-0.3-2.8-0.5c-1.7-0.1-3.7,0-5.6,1c-0.9,0.5-1.7,1.1-2.3,1.8c-0.6,0.7-1.1,1.4-1.5,2.1
				c-0.8,1.4-1,2.6-1.1,2.7c0.1-0.2,0.3-1.3,0.3-2.9c0-0.8,0-1.7-0.1-2.6c-0.2-1-0.4-1.9-0.8-2.9c-0.9-2-2.4-3.6-3.6-4.7
				c-1.3-1.1-2.3-1.6-2.3-1.6s-0.1,0.3-0.3,0.8c-0.2,0.5-0.3,1.3-0.4,2.2c-0.1,0.9-0.2,1.9-0.1,3C20.1,75.9,20.4,77,20.9,78z"/>
			<path d="M16.8,88.9c0.3,1,0.7,2.1,1.3,3c0.6,0.9,1.4,1.7,2.2,2.3c0.8,0.6,1.7,1,2.4,1.4c1.5,0.7,2.7,0.9,2.7,0.9s1.2,0,2.8-0.4
				c0.8-0.2,1.7-0.4,2.6-0.8c0.9-0.4,1.8-0.9,2.7-1.5c0.8-0.6,1.5-1.3,2-2.1c0.5-0.7,0.9-1.4,1.2-2.1c0.6-1.3,0.8-2.3,0.8-2.3
				s-1.2-0.2-2.8-0.1c-1.7,0.1-3.7,0.6-5.4,1.8c-0.8,0.6-1.5,1.3-2,2.1c-0.5,0.8-0.9,1.6-1.2,2.3c-0.6,1.5-0.6,2.7-0.7,2.9
				c0-0.2,0-1.4-0.1-2.9c-0.1-0.8-0.2-1.7-0.5-2.6c-0.3-0.9-0.6-1.9-1.2-2.8c-1.1-1.9-2.9-3.2-4.3-4.1c-1.4-0.9-2.6-1.2-2.6-1.2
				s-0.3,1.3-0.3,3.1C16.4,86.8,16.5,87.8,16.8,88.9z"/>
			<path d="M53.4,39.4c0,0,0.9,0.8,2.3,1.6c1.4,0.8,3.3,1.7,5.4,1.9c0.8,0.1,1.7,0,2.4-0.1c1.4-0.2,2.6-0.7,3.5-1.1
				c0.9-0.4,1.4-0.8,1.4-0.8s-0.8-0.9-2-2c-1.3-1-3.1-2.1-5.2-2.4c-0.9-0.1-1.7,0-2.6,0.1C57.2,37,56,37.7,55,38.2
				C54.1,38.8,53.5,39.3,53.4,39.4c0.1-0.1,0.7-0.6,1.4-1.4c0.7-0.8,1.5-2,2.1-3.4c0.4-0.8,0.7-1.6,0.8-2.5c0.4-2.2,0.1-4.3-0.4-5.9
				c-0.5-1.6-1-2.6-1-2.6s-0.7,0.5-1.6,1.3c-0.9,0.8-2,2.1-2.7,3.6c-0.4,0.8-0.7,1.7-0.9,2.6c-0.4,2.3,0.2,4.3,0.9,5.8
				C52.7,38.4,53.4,39.4,53.4,39.4z"/>
			<path d="M44.5,48.9c0,0,1,0.7,2.5,1.3c1.5,0.6,3.6,1.2,5.6,1.1c0.5,0,1-0.1,1.5-0.2c0.5-0.1,0.9-0.2,1.3-0.4
				c0.8-0.3,1.6-0.7,2.2-1.1c0.6-0.4,1.1-0.7,1.5-1c0.3-0.3,0.5-0.4,0.5-0.4s-0.9-0.8-2.3-1.6c-0.7-0.4-1.6-0.8-2.5-1.1
				c-0.5-0.2-1-0.3-1.5-0.4c-0.5-0.1-1-0.1-1.5-0.1c-1,0-2,0.3-2.9,0.6c-0.9,0.3-1.6,0.8-2.3,1.3C45.4,47.8,44.6,48.7,44.5,48.9
				c0.1-0.2,0.9-1.1,1.6-2.5c0.4-0.7,0.7-1.6,1-2.5c0.3-0.9,0.5-1.9,0.6-3c0-0.5,0-1.1-0.1-1.6c-0.1-0.5-0.1-1-0.3-1.5
				c-0.2-1-0.6-1.9-0.9-2.6c-0.7-1.5-1.4-2.5-1.4-2.5s-0.2,0.2-0.6,0.6c-0.4,0.4-0.9,1-1.4,1.8c-0.5,0.8-1,1.7-1.4,2.7
				c-0.2,0.5-0.4,1-0.5,1.6c-0.1,0.5-0.2,1.1-0.2,1.7c0,2.3,0.8,4.2,1.7,5.6C43.6,48,44.5,48.9,44.5,48.9z"/>
			<path d="M35,57.6c1.1,1.3,2.1,2,2.1,2s1.1,0.5,2.7,0.9c1.6,0.4,3.7,0.7,5.7,0.2c2-0.4,3.6-1.4,4.7-2.4c0.5-0.5,1-0.9,1.3-1.2
				c0.3-0.3,0.5-0.5,0.5-0.5s-1-0.7-2.5-1.3c-1.5-0.6-3.6-1.1-5.7-0.7c-1,0.2-1.9,0.6-2.7,1c-0.8,0.5-1.5,1.1-2,1.6
				c-0.6,0.6-1,1.1-1.3,1.5c-0.3,0.4-0.5,0.7-0.5,0.8c0-0.1,0.2-0.4,0.4-0.8c0.2-0.5,0.5-1.1,0.8-1.8c0.3-0.7,0.5-1.6,0.6-2.6
				c0.2-0.9,0.2-2,0.1-3c-0.3-2.2-1.2-4.1-2.1-5.5c-0.9-1.4-1.8-2.2-1.8-2.2s-0.2,0.3-0.5,0.7c-0.3,0.5-0.7,1.1-1.1,1.9
				c-0.7,1.6-1.5,3.8-1.1,6.1C32.8,54.5,33.9,56.3,35,57.6z"/>
			<path d="M63.7,31.4c0,0,0.8,0.9,2,2c1.3,1,3.1,2.2,5,2.7c1,0.2,2,0.3,2.9,0.3c0.9,0,1.7-0.2,2.4-0.4c1.4-0.3,2.3-0.8,2.3-0.8
				s-0.6-1-1.7-2.2c-1.1-1.2-2.7-2.5-4.8-3.1c-1-0.3-2-0.3-2.9-0.2c-0.9,0.1-1.8,0.3-2.6,0.5C64.8,30.6,63.8,31.3,63.7,31.4
				c0.2-0.1,1.2-0.8,2.3-1.9c0.5-0.6,1.2-1.2,1.7-2c0.5-0.8,1-1.7,1.4-2.7c0.7-2.1,0.7-4.2,0.5-5.9c-0.2-1.7-0.6-2.8-0.6-2.8
				s-1.2,0.6-2.6,1.7c-0.7,0.5-1.4,1.3-2.1,2.1c-0.7,0.9-1.2,1.8-1.6,2.9c-0.7,2.2-0.4,4.3,0,5.9C63.1,30.3,63.7,31.4,63.7,31.4z"/>
		</g>
		<g>
			<path d="M164.6,175.2c0,0-0.6-1.1-1.1-2.6c-0.5-1.6-0.9-3.6-0.7-5.7c0.1-0.9,0.3-1.7,0.6-2.4c0.6-1.3,1.3-2.4,1.9-3.2
				c0.3-0.4,0.6-0.7,0.8-0.9c0.2-0.2,0.3-0.3,0.3-0.3s0.7,1,1.4,2.4c0.7,1.5,1.3,3.5,1.1,5.6c-0.1,0.9-0.4,1.7-0.7,2.5
				C167.1,173.4,164.8,175,164.6,175.2c0.2-0.2,2.5-1.7,5.5-2.3c0.8-0.2,1.7-0.3,2.6-0.2c2.2,0,4.2,0.9,5.7,1.7
				c1.5,0.8,2.4,1.6,2.4,1.6s-0.1,0.1-0.4,0.4c-0.3,0.2-0.7,0.5-1.2,0.9c-1,0.7-2.5,1.5-4.1,1.8c-0.9,0.2-1.8,0.3-2.8,0.3
				c-2.3-0.1-4.2-1.2-5.5-2.1C165.3,176.1,164.6,175.2,164.6,175.2z"/>
			<path d="M193.4,147.4c-1.6-0.3-2.7-0.8-2.7-0.8s-1-0.7-2.1-1.9c-0.6-0.6-1.2-1.3-1.7-2.1c-0.5-0.8-1-1.7-1.4-2.7
				c-0.3-0.8-0.4-1.6-0.4-2.4c-0.1-1.5,0.1-2.7,0.3-3.7c0.1-0.5,0.2-0.9,0.3-1.1c0.1-0.3,0.1-0.4,0.1-0.4s1.1,0.5,2.4,1.6
				c0.6,0.5,1.3,1.2,1.9,1.9c0.6,0.8,1.1,1.6,1.5,2.6c0.3,0.8,0.4,1.7,0.5,2.5c0,1.5-0.3,2.8-0.6,3.9c-0.3,1-0.7,1.7-0.8,1.8
				c0.1-0.1,0.5-0.8,1.1-1.6c0.6-0.9,1.6-1.9,2.8-2.8c0.7-0.5,1.4-1,2.2-1.4c1-0.4,2-0.7,3.1-0.8c1-0.1,1.9-0.2,2.8-0.1
				c1.7,0.1,2.8,0.4,2.8,0.4s-0.1,0.2-0.2,0.5c-0.2,0.3-0.4,0.8-0.7,1.3c-0.7,1-1.6,2.4-2.9,3.5c-0.7,0.6-1.5,1.1-2.4,1.4
				c-1,0.4-2.1,0.6-3.1,0.7C195.1,147.6,194.2,147.5,193.4,147.4z"/>
			<path d="M186,158.6c-1.6-0.5-2.6-1.2-2.6-1.2s-0.9-0.8-1.8-2.2c-0.9-1.3-1.9-3.2-2.3-5.2c-0.2-1-0.2-2,0-2.9
				c0.1-0.9,0.3-1.7,0.5-2.4c0.5-1.3,1-2.2,1-2.2s1,0.7,2.1,1.9c1.1,1.2,2.3,2.9,2.7,5c0.4,2-0.1,4-0.7,5.4
				c-0.3,0.7-0.6,1.3-0.9,1.8c-0.3,0.4-0.5,0.7-0.5,0.8c0.2-0.3,3-3.7,7-4.8c2.1-0.6,4.3-0.4,5.9-0.1c1.6,0.3,2.7,0.8,2.7,0.8
				s-0.6,1.2-1.9,2.5c-0.6,0.7-1.4,1.3-2.3,1.9c-0.9,0.6-1.9,1.1-3,1.3C189.7,159.5,187.5,159.1,186,158.6z"/>
			<path d="M177,168.5c-1.5-0.8-2.4-1.6-2.4-1.6s-0.7-1-1.5-2.4c-0.4-0.7-0.7-1.6-1-2.5c-0.1-0.5-0.2-0.9-0.3-1.4
				c-0.1-0.5-0.1-1-0.2-1.5c0-1,0.1-2,0.4-2.8c0.3-0.9,0.5-1.6,0.9-2.3c0.3-0.6,0.7-1.2,0.9-1.5c0.2-0.4,0.4-0.6,0.4-0.6
				s0.9,0.8,1.8,2.2c0.9,1.3,1.8,3.2,1.9,5.3c0,0.5,0,1-0.1,1.5c-0.1,0.5-0.2,0.9-0.3,1.4c-0.3,0.9-0.7,1.7-1.1,2.4
				c-0.8,1.4-1.7,2.2-1.8,2.3c0.1-0.1,1-0.9,2.4-1.8c0.7-0.4,1.5-0.9,2.4-1.2c0.4-0.2,0.9-0.3,1.4-0.5c0.5-0.1,1-0.2,1.5-0.3
				c2.2-0.3,4.3,0.2,5.9,0.8c1.5,0.6,2.6,1.2,2.6,1.2s-0.2,0.3-0.6,0.7c-0.4,0.4-1,0.9-1.7,1.5c-0.7,0.5-1.5,1.1-2.5,1.6
				c-1,0.4-2,0.8-3.2,0.9c-0.6,0.1-1.1,0.1-1.6,0c-0.5-0.1-1.1-0.2-1.5-0.3C178.6,169.3,177.7,168.9,177,168.5z"/>
			<path d="M209.6,106c-1.5,1.7-3.5,2.5-5.1,3c-1.6,0.4-2.8,0.5-2.8,0.5s-1.2-0.2-2.7-0.8c-1.5-0.6-3.4-1.5-4.9-3
				c-0.6-0.6-1.1-1.3-1.4-2c-0.7-1.3-1.1-2.5-1.3-3.5c-0.1-0.5-0.2-0.9-0.2-1.1c0-0.3-0.1-0.4-0.1-0.4s1.2,0,2.8,0.4
				c1.6,0.4,3.6,1.1,5.1,2.6c0.6,0.6,1.1,1.3,1.5,2.1c0.6,1.3,1,2.7,1.1,3.8c0.2,1.1,0.1,1.8,0.1,2c0-0.1,0.1-0.9,0.3-2
				c0.2-1.1,0.6-2.4,1.3-3.8c0.4-0.8,0.8-1.5,1.4-2.2c1.4-1.7,3.3-2.7,4.8-3.4c1.5-0.6,2.7-0.8,2.7-0.8s0,0.2,0,0.6
				c0,0.4,0,0.9-0.1,1.5c-0.1,1.2-0.5,2.8-1.1,4.4C210.8,104.5,210.3,105.3,209.6,106z"/>
			<path d="M208.2,120.1c-1.8,1.4-3.8,2-5.5,2.2c-1.6,0.2-2.8,0-2.8,0s-1.1-0.4-2.6-1.2c-1.4-0.8-3.2-2-4.4-3.7
				c-1.1-1.7-1.7-3.5-1.8-4.9c0-0.4-0.1-0.7-0.1-1c0-0.3,0-0.6,0-0.8c0-0.4,0-0.7,0-0.7s1.2,0.2,2.7,0.8c0.8,0.3,1.6,0.7,2.4,1.3
				c0.8,0.5,1.6,1.2,2.2,2.1c0.6,0.8,1,1.7,1.3,2.6c0.2,0.9,0.4,1.8,0.4,2.6c0,0.8,0,1.5,0,2c-0.1,0.5-0.1,0.8-0.2,0.9
				c0-0.1,0.1-0.4,0.3-0.9c0.2-0.5,0.4-1.2,0.7-1.9c0.3-0.7,0.7-1.5,1.3-2.3c0.5-0.8,1.1-1.6,1.9-2.3c0.8-0.7,1.8-1.3,2.7-1.7
				c0.9-0.4,1.8-0.7,2.6-0.9c1.6-0.4,2.8-0.4,2.8-0.4s0,0.3-0.1,0.9c0,0.3-0.1,0.6-0.2,1c-0.1,0.4-0.2,0.8-0.4,1.2
				C211,116.6,210,118.7,208.2,120.1z"/>
			<path d="M199,135.2c-1.7-0.1-2.8-0.4-2.8-0.4s-1.1-0.5-2.4-1.5c-1.3-1-2.8-2.5-3.7-4.3c-0.5-0.9-0.7-1.8-0.9-2.7
				c-0.2-0.9-0.2-1.7-0.2-2.4c0-0.4,0-0.7,0.1-1c0-0.3,0-0.6,0.1-0.8c0.1-0.4,0.1-0.7,0.1-0.7s1.1,0.4,2.6,1.2
				c0.7,0.4,1.5,0.9,2.2,1.6c0.7,0.7,1.4,1.4,1.9,2.4c0.5,0.9,0.8,1.9,0.9,2.8c0.1,0.9,0.1,1.8,0,2.6c-0.1,1.6-0.6,2.7-0.6,2.9
				c0.1-0.2,0.5-1.3,1.4-2.6c0.4-0.7,1-1.4,1.6-2.1c0.6-0.7,1.4-1.4,2.3-2c0.9-0.6,1.9-1,2.9-1.3c1-0.3,1.9-0.4,2.7-0.5
				c1.6-0.2,2.8,0,2.8,0s-0.1,0.3-0.2,0.9c-0.1,0.3-0.2,0.6-0.3,0.9c-0.1,0.3-0.3,0.7-0.5,1.1c-0.4,0.8-0.9,1.7-1.6,2.5
				c-0.6,0.8-1.5,1.6-2.5,2.2C202.8,135,200.7,135.3,199,135.2z"/>
			<path d="M199.9,67.6c-0.6,0.8-1.3,1.5-1.9,2c-1.3,1.1-2.3,1.6-2.3,1.6s-1.2,0.3-2.8,0.5c-0.8,0.1-1.7,0.1-2.7,0
				c-1-0.1-2-0.3-3-0.6c-0.8-0.3-1.5-0.7-2.1-1.1c-1.2-0.8-2.1-1.8-2.7-2.5c-0.3-0.4-0.5-0.7-0.7-0.9c-0.2-0.2-0.2-0.4-0.2-0.4
				s1.1-0.5,2.7-0.9c0.8-0.2,1.7-0.3,2.7-0.3c1,0,2,0.1,3,0.5c0.8,0.3,1.6,0.7,2.3,1.2c1.2,0.9,2,2,2.6,2.9c0.6,0.9,0.9,1.6,0.9,1.7
				c-0.1-0.1-0.3-0.9-0.6-1.9c-0.3-1-0.5-2.4-0.5-4c0-0.8,0.1-1.7,0.3-2.6c0.3-1.1,0.7-2,1.3-2.9c0.5-0.9,1.1-1.6,1.6-2.2
				c1.1-1.2,2.1-1.9,2.1-1.9s0.1,0.2,0.3,0.5c0.2,0.3,0.4,0.8,0.6,1.4c0.4,1.2,0.8,2.8,0.9,4.5c0,0.9-0.1,1.9-0.4,2.8
				C201,65.8,200.5,66.7,199.9,67.6z"/>
			<path d="M206.1,78c-0.5,1-1.1,1.9-1.8,2.6c-0.7,0.7-1.5,1.3-2.2,1.7c-1.4,0.9-2.5,1.3-2.5,1.3s-1.2,0.2-2.8,0.1
				c-0.8-0.1-1.7-0.2-2.7-0.4c-1-0.2-1.9-0.6-2.8-1.1c-0.9-0.5-1.6-1.1-2.3-1.7c-0.6-0.6-1.2-1.3-1.5-1.9c-0.4-0.6-0.6-1.1-0.9-1.5
				c-0.2-0.4-0.3-0.6-0.3-0.6s1.2-0.3,2.8-0.5c1.7-0.1,3.7,0,5.6,1c0.9,0.5,1.7,1.1,2.3,1.8c0.6,0.7,1.1,1.4,1.5,2.1
				c0.8,1.4,1,2.6,1.1,2.7c-0.1-0.2-0.3-1.3-0.3-2.9c0-0.8,0-1.7,0.1-2.6c0.2-1,0.4-1.9,0.8-2.9c0.9-2,2.4-3.6,3.6-4.7
				c1.3-1.1,2.3-1.6,2.3-1.6s0.1,0.3,0.3,0.8c0.2,0.5,0.3,1.3,0.4,2.2c0.1,0.9,0.2,1.9,0.1,3C206.9,75.9,206.6,77,206.1,78z"/>
			<path d="M210.2,88.9c-0.3,1-0.7,2.1-1.3,3c-0.6,0.9-1.4,1.7-2.2,2.3c-0.8,0.6-1.7,1-2.4,1.4c-1.5,0.7-2.7,0.9-2.7,0.9
				s-1.2,0-2.8-0.4c-0.8-0.2-1.7-0.4-2.6-0.8c-0.9-0.4-1.8-0.9-2.7-1.5c-0.8-0.6-1.5-1.3-2-2.1c-0.5-0.7-0.9-1.4-1.2-2.1
				c-0.6-1.3-0.8-2.3-0.8-2.3s1.2-0.2,2.8-0.1c1.7,0.1,3.7,0.6,5.4,1.8c0.8,0.6,1.5,1.3,2,2.1c0.5,0.8,0.9,1.6,1.2,2.3
				c0.6,1.5,0.6,2.7,0.7,2.9c0-0.2,0-1.4,0.1-2.9c0.1-0.8,0.2-1.7,0.5-2.6c0.3-0.9,0.6-1.9,1.2-2.8c1.1-1.9,2.9-3.2,4.3-4.1
				c1.4-0.9,2.6-1.2,2.6-1.2s0.3,1.3,0.3,3.1C210.5,86.8,210.5,87.8,210.2,88.9z"/>
			<path d="M173.6,39.4c0,0-0.9,0.8-2.3,1.6c-1.4,0.8-3.3,1.7-5.4,1.9c-0.8,0.1-1.7,0-2.4-0.1c-1.4-0.2-2.6-0.7-3.5-1.1
				c-0.9-0.4-1.4-0.8-1.4-0.8s0.8-0.9,2-2c1.3-1,3.1-2.1,5.2-2.4c0.9-0.1,1.7,0,2.6,0.1c1.5,0.3,2.7,0.9,3.6,1.5
				C172.9,38.8,173.5,39.3,173.6,39.4c-0.1-0.1-0.7-0.6-1.4-1.4c-0.7-0.8-1.5-2-2.1-3.4c-0.4-0.8-0.7-1.6-0.8-2.5
				c-0.4-2.2-0.1-4.3,0.4-5.9c0.5-1.6,1-2.6,1-2.6s0.7,0.5,1.6,1.3c0.9,0.8,2,2.1,2.7,3.6c0.4,0.8,0.7,1.7,0.9,2.6
				c0.4,2.3-0.2,4.3-0.9,5.8C174.3,38.4,173.6,39.4,173.6,39.4z"/>
			<path d="M182.5,48.9c0,0-1,0.7-2.5,1.3c-1.5,0.6-3.6,1.2-5.6,1.1c-0.5,0-1-0.1-1.5-0.2c-0.5-0.1-0.9-0.2-1.3-0.4
				c-0.8-0.3-1.6-0.7-2.2-1.1c-0.6-0.4-1.1-0.7-1.5-1c-0.3-0.3-0.5-0.4-0.5-0.4s0.9-0.8,2.3-1.6c0.7-0.4,1.6-0.8,2.5-1.1
				c0.5-0.2,1-0.3,1.5-0.4c0.5-0.1,1-0.1,1.5-0.1c1,0,2,0.3,2.9,0.6c0.9,0.3,1.6,0.8,2.3,1.3C181.6,47.8,182.4,48.7,182.5,48.9
				c-0.1-0.2-0.9-1.1-1.6-2.5c-0.4-0.7-0.7-1.6-1-2.5c-0.3-0.9-0.5-1.9-0.6-3c0-0.5,0-1.1,0.1-1.6c0.1-0.5,0.1-1,0.3-1.5
				c0.2-1,0.6-1.9,0.9-2.6c0.7-1.5,1.4-2.5,1.4-2.5s0.2,0.2,0.6,0.6c0.4,0.4,0.9,1,1.4,1.8c0.5,0.8,1,1.7,1.4,2.7
				c0.2,0.5,0.4,1,0.5,1.6c0.1,0.5,0.2,1.1,0.2,1.7c0,2.3-0.8,4.2-1.7,5.6C183.4,48,182.5,48.9,182.5,48.9z"/>
			<path d="M192,57.6c-1.1,1.3-2.1,2-2.1,2s-1.1,0.5-2.7,0.9c-1.6,0.4-3.7,0.7-5.7,0.2c-2-0.4-3.6-1.4-4.7-2.4
				c-0.5-0.5-1-0.9-1.3-1.2c-0.3-0.3-0.5-0.5-0.5-0.5s1-0.7,2.5-1.3c1.5-0.6,3.6-1.1,5.7-0.7c1,0.2,1.9,0.6,2.7,1
				c0.8,0.5,1.5,1.1,2,1.6c0.6,0.6,1,1.1,1.3,1.5c0.3,0.4,0.5,0.7,0.5,0.8c0-0.1-0.2-0.4-0.4-0.8c-0.2-0.5-0.5-1.1-0.8-1.8
				c-0.3-0.7-0.5-1.6-0.6-2.6c-0.2-0.9-0.2-2-0.1-3c0.3-2.2,1.2-4.1,2.1-5.5c0.9-1.4,1.8-2.2,1.8-2.2s0.2,0.3,0.5,0.7
				c0.3,0.5,0.7,1.1,1.1,1.9c0.7,1.6,1.5,3.8,1.1,6.1C194.2,54.5,193.1,56.3,192,57.6z"/>
			<path d="M163.3,31.4c0,0-0.8,0.9-2,2c-1.3,1-3.1,2.2-5,2.7c-1,0.2-2,0.3-2.9,0.3c-0.9,0-1.7-0.2-2.4-0.4
				c-1.4-0.3-2.3-0.8-2.3-0.8s0.6-1,1.7-2.2c1.1-1.2,2.7-2.5,4.8-3.1c1-0.3,2-0.3,2.9-0.2c0.9,0.1,1.8,0.3,2.6,0.5
				C162.1,30.6,163.2,31.3,163.3,31.4c-0.2-0.1-1.2-0.8-2.3-1.9c-0.5-0.6-1.2-1.2-1.7-2c-0.5-0.8-1-1.7-1.4-2.7
				c-0.7-2.1-0.7-4.2-0.5-5.9c0.2-1.7,0.6-2.8,0.6-2.8s1.2,0.6,2.6,1.7c0.7,0.5,1.4,1.3,2.1,2.1c0.7,0.9,1.2,1.8,1.6,2.9
				c0.7,2.2,0.4,4.3,0,5.9C163.9,30.3,163.3,31.4,163.3,31.4z"/>
		</g>
		<g>
			<defs>
				<rect id="SVGID_1_" x="68.5" y="169.7" width="90" height="17.4"/>
			</defs>
			<clipPath id="SVGID_2_">
				<use xlink:href="#SVGID_1_"  style="overflow:visible;"/>
			</clipPath>
			<g class="st7">
				<path class="st5" d="M75.4,169.7l-6.9,17.4h83l7-17.4H75.4z"/>
				<path d="M149.7,174.4h-0.2l-0.1,0.2c-0.2,0.8-0.5,1.5-0.8,2.3c-0.2,0.6-0.4,1.2-0.6,1.8c-0.2,0.6-0.4,1.2-0.6,1.8l-0.1,0.3
					l-0.1-0.2c-0.1-0.2-0.1-0.4-0.2-0.5c-0.3-1-0.7-2.1-1-3.1c-0.3-0.8-0.5-1.6-0.8-2.3c0-0.1-0.1-0.1-0.2-0.1c-2.3,0-4.6,0-6.9,0v0
					h-0.3v1.5h0.1c0,0,0,0,0,0c0.6,0,1.1,0,1.7,0c0.1,0,0.2,0,0.2,0.2c0,2.2,0,4.4,0,6.6c0,0,0,0,0,0v0.2h1.5v-0.3h0
					c0-2.2,0-4.3,0-6.5c0-0.1,0-0.2,0.2-0.2c0.8,0,1.5,0,2.3,0c0.2,0,0.2,0.1,0.3,0.2c0.2,0.6,0.4,1.2,0.7,1.9
					c0.3,0.9,0.7,1.8,1,2.8c0.2,0.7,0.5,1.3,0.7,2c0,0,0,0,0,0l0.1,0.1h1.7l0-0.1c0.1-0.4,0.3-0.8,0.5-1.3c0.4-1.1,0.8-2.3,1.2-3.4
					c0.3-0.9,0.7-1.8,1-2.7c0.1-0.3,0.2-0.6,0.3-0.9c-0.1,0-0.1,0-0.2,0C150.6,174.4,150.1,174.4,149.7,174.4z"/>
				<path d="M117.9,178.9c-0.1-0.8-0.5-1.6-1.2-2.1c-0.7-0.5-1.5-0.7-2.3-0.7c-0.6,0-1.1,0.2-1.6,0.5c-0.9,0.6-1.4,1.4-1.5,2.5
					c0,0.3-0.1,0.6-0.2,0.9c-0.1,0.5-0.4,0.9-0.9,1.2c-0.4,0.2-0.9,0.1-1.1-0.3c-0.1-0.2-0.1-0.3-0.1-0.5c0-0.9,0-1.8,0-2.7
					c0-0.1,0-0.2,0.2-0.2c0.4,0,0.8,0,1.2,0c0,0,0.1,0,0.2,0v0h0v-1.1h-0.3v0c-0.3,0-0.7,0-1,0c-0.1,0-0.2,0-0.2-0.2
					c0-0.5,0-1,0-1.4h0v-0.3h-1.5v0.3h0c0,1.9,0,3.7,0,5.6c0,0.3,0,0.5,0.1,0.8c0.2,0.7,0.6,1.1,1.3,1.3c0.4,0.1,0.8,0.1,1.3,0.1
					c0.7-0.1,1.2-0.5,1.5-1.1c0-0.1,0.1-0.1,0.1-0.2c0,0,0,0,0.1,0c0,0,0,0.1,0.1,0.1c0.2,0.3,0.5,0.6,0.8,0.8
					c0.8,0.5,1.7,0.7,2.7,0.5c0.9-0.2,1.6-0.7,2.1-1.4C117.9,180.5,118.1,179.7,117.9,178.9z M115.2,181.3c-1.1,0.3-2.2-0.3-2.4-1.4
					c-0.2-0.8,0.1-1.5,0.7-2c0.9-0.8,2.5-0.3,2.9,0.9c0,0.1,0.1,0.2,0.1,0.3c0,0.1,0,0.2,0,0.3C116.5,180.4,115.9,181.1,115.2,181.3
					z"/>
				<path d="M105.8,178.4c-0.4-0.3-0.9-0.5-1.3-0.7c-0.5-0.2-0.9-0.4-1.3-0.6c-0.4-0.2-0.5-0.6-0.4-1.1c0.2-0.6,0.9-0.8,1.5-0.6
					c0.4,0.1,0.5,0.5,0.6,0.8c0,0,0,0,0,0c0,0,0,0.1,0,0.1c0,0,0,0,0.1,0c0,0,0.1,0,0.1,0c0.1,0,0.1,0,0.2,0c0.2,0,0.3,0,0.5,0
					c0.2,0,0.5,0,0.7,0c0,0,0.1,0,0.1,0c0,0,0,0,0,0h0c0,0,0-0.1,0-0.1h0c0-0.1,0-0.3-0.1-0.4c-0.1-0.6-0.5-1.1-1-1.4
					c-0.7-0.5-1.5-0.6-2.4-0.3c-1,0.3-1.7,0.9-1.9,1.9c-0.1,0.8,0.1,1.4,0.6,2c0.4,0.4,0.9,0.6,1.4,0.8c0.4,0.2,0.9,0.4,1.3,0.6
					c0.2,0.1,0.4,0.3,0.4,0.5c0.1,0.4,0,0.8-0.3,1.1c-0.3,0.3-0.7,0.4-1.2,0.3c-0.6-0.2-0.8-0.7-0.9-1.2c0-0.1-0.1-0.1-0.2-0.1
					c-0.5,0-0.9,0-1.4,0c-0.1,0-0.1,0-0.1,0.1c0,0.3,0.1,0.5,0.1,0.8c0.3,1,1.1,1.6,2,1.7c0.4,0.1,0.9,0.1,1.3,0
					c0.5-0.1,0.9-0.2,1.3-0.6c0.6-0.6,0.9-1.3,0.8-2.1C106.6,179.3,106.3,178.8,105.8,178.4z"/>
				<path d="M100,178.3c-0.6-1.6-2.3-2.6-4-2.1c-1.3,0.4-2.3,1.6-2.4,2.9c-0.1,1.3,0.4,2.3,1.4,3c0.8,0.5,1.6,0.7,2.5,0.5
					c0.8-0.2,1.5-0.6,2-1.3c0.1-0.2,0.3-0.4,0.4-0.7c-0.1,0-0.1,0-0.1,0c-0.5,0-0.9,0-1.4,0c0,0-0.1,0-0.1,0.1
					c-0.1,0.2-0.3,0.4-0.5,0.5c-0.4,0.2-0.8,0.3-1.2,0.2c-0.8-0.1-1.3-0.6-1.5-1.4c0-0.2,0-0.2,0.2-0.2c1.6,0,3.2,0,4.7,0
					c0.1,0,0.2,0,0.2-0.1C100.2,179.3,100.2,178.8,100,178.3z M98.6,178.8h-3.4c0-0.2,0.1-0.4,0.2-0.6c0.4-0.6,0.9-0.8,1.6-0.8
					c0.8,0,1.3,0.4,1.6,1c0,0.1,0.1,0.1,0.1,0.2C98.8,178.8,98.7,178.8,98.6,178.8z"/>
				<path d="M129.7,176.2c-1.8-0.4-3.6,0.6-4,2.4c-0.4,1.7,0.6,3.6,2.5,4c1.7,0.4,3.2-0.6,3.7-2c0,0,0,0,0,0l0,0h-1.5l-0.1,0.1
					c-0.2,0.3-0.5,0.5-0.8,0.6c-0.3,0.1-0.6,0.1-0.9,0.1c-0.7-0.1-1.4-0.6-1.5-1.3c0-0.2,0-0.2,0.2-0.2c1.6,0,3.1,0,4.7,0h0.2
					C132.3,178.4,131.5,176.6,129.7,176.2z M127.1,178.8c0-0.3,0.1-0.5,0.3-0.8c0.4-0.5,0.9-0.7,1.5-0.7c0.8,0,1.4,0.4,1.7,1.1
					c0,0.1,0,0.2,0.1,0.3H127.1z"/>
				<path d="M87,178.7c-0.2-0.9-0.7-1.6-1.5-2.1c-0.8-0.5-1.7-0.5-2.6-0.3c-1.1,0.3-1.8,0.9-2.2,1.9c-0.3,0.6-0.3,1.3-0.2,2
					c0.1,0.6,0.3,1.1,0.7,1.5c0.7,0.8,1.5,1.1,2.6,1.2c0.3,0,0.6-0.1,0.8-0.1c0.7-0.2,1.3-0.5,1.8-1.1C87,180.7,87.3,179.7,87,178.7
					z M84.3,181.3c-1,0.3-2-0.2-2.4-1.2c-0.3-0.9,0-1.9,0.9-2.3c1-0.6,2.3-0.1,2.7,1c0.1,0.2,0.1,0.5,0.1,0.7
					C85.6,180.3,85.1,181,84.3,181.3z"/>
				<path d="M92.6,176.3L92.6,176.3l-0.7,0l-0.1,0.2l0,0c0,0.1-0.1,0.3-0.1,0.4c-0.4,1.2-0.8,2.4-1.3,3.6c0,0-0.1,0.1-0.1,0.2
					c-0.2-0.5-0.3-0.9-0.4-1.3c-0.3-0.9-0.6-1.8-0.9-2.7l0,0l-0.1-0.4h-1.5l0.1,0c0,0,0,0-0.1,0c0,0.1,0,0.1,0.1,0.2
					c0.4,1,0.8,2,1.1,3.1c0.4,1,0.7,1.9,1.1,2.9c0,0.1,0.1,0.1,0.2,0.1c0.4,0,0.8,0,1.2,0c0.1,0,0.2,0,0.2-0.1
					c0.3-0.9,0.6-1.7,1-2.6c0.3-0.9,0.7-1.8,1-2.8c0.1-0.3,0.2-0.5,0.3-0.8C93.2,176.3,92.9,176.3,92.6,176.3z"/>
				<path d="M80.1,181.1c-0.8,0-1.6,0-2.4,0c-0.2,0-0.2,0-0.2-0.2c0-2.2,0-4.4,0-6.6h0v-0.2h-1.7v0.2c0,0,0,0,0,0c0,1.3,0,2.7,0,4
					c0,1.3,0,2.7,0,4c0,0.1,0,0.2,0.1,0.2c1.4,0,2.8,0,4.2,0c0,0,0.1,0,0.1,0h0.1v-1.5L80.1,181.1L80.1,181.1L80.1,181.1z"/>
				<path d="M121.9,176.1c-0.6,0-1.1,0.3-1.5,0.8c0,0-0.1,0.1-0.1,0.1c0-0.1,0-0.1,0-0.2c0-0.1,0-0.3,0-0.4h0v-0.2h-1.4v0.2
					c0,2,0,4,0,6c0,0,0,0,0,0v0.1h0.1c0,0,0,0,0,0c0.2,0,0.4,0,0.6,0h0.7v0c0-0.1,0-0.1,0-0.2v0c0-1,0-2.1,0-3.1
					c0-0.2,0-0.4,0.1-0.6c0.1-0.5,0.4-0.8,0.9-1c0.2-0.1,0.4-0.1,0.6-0.1c0,0,0,0,0.1,0l0.1,0v-1.5L121.9,176.1L121.9,176.1z"/>
				<path d="M124.5,174.1H123v1.3h1.5V174.1z"/>
				<path d="M123,177.6L123,177.6c0,1.2,0,2.4,0,3.6h0v1.3h1.5v-1.3h0c0-0.6,0-1.2,0-1.8c0-0.6,0-1.2,0-1.8h0v-1.3H123L123,177.6
					L123,177.6z"/>
				<path d="M137.4,180.4c0-0.5-0.3-0.9-0.7-1.2c-0.4-0.3-0.9-0.4-1.3-0.5c-0.3-0.1-0.6-0.2-0.9-0.4c-0.3-0.2-0.3-0.6,0-0.8
					c0.2-0.2,0.5-0.2,0.8-0.2c0.3,0,0.5,0.2,0.5,0.5c0,0,0,0.1,0,0.1c0,0,0.8,0,1.2,0c0,0,0.1,0,0.1,0c0,0,0,0,0,0
					c0.1,0,0.1,0,0.1,0s0,0,0-0.1c0,0,0,0,0,0c-0.1-0.6-0.3-1-0.8-1.3c-0.8-0.5-1.6-0.5-2.5-0.2c-0.7,0.3-1.1,0.9-1.1,1.7
					c0,0.6,0.2,1,0.7,1.3c0.4,0.2,0.8,0.4,1.2,0.5c0.4,0.1,0.7,0.2,1.1,0.5c0.4,0.3,0.4,0.8,0,1.1c-0.5,0.4-1.5,0.2-1.6-0.5
					c0,0,0,0,0,0c0-0.1,0-0.1,0-0.1h-0.1c0,0-0.1,0-0.1,0c-0.4,0-0.8,0-1.2,0c0,0-0.1,0-0.1,0c0,0.8,0.5,1.3,0.9,1.5
					c0.8,0.5,1.6,0.6,2.4,0.3C136.9,182.3,137.5,181.5,137.4,180.4z"/>
			</g>
		</g>
	</g>
	<g>
		<path d="M84.7,96.7L76.4,117H76L64.9,90.7c-1.9-4.1-2.1-5-5.2-5v-0.9c1.7,0,4.6,0.1,7.8,0.1c3.1,0,6.3,0,8.6-0.1v0.9
			c-2.9,0-3.6,0.8-3.6,1.9c0,0.7,0.2,1.6,0.7,2.7l6.2,15.5l4.5-11.5l-1.4-3.6c-1.6-4.3-2.1-5-4.3-5v-0.9c1.7,0,4.5,0.1,7.3,0.1
			c2.9,0,5.9,0,8.3-0.1v0.9c-3.2,0.1-4,0.7-4,2.1c0,0.6,0.2,1.5,0.6,2.5l5.4,15.4l5-14.3c0.6-1.6,0.9-2.8,0.9-3.7
			c0-1.6-0.9-2-4.6-2.1v-0.9c2.4,0,4.4,0.1,6.1,0.1c1.8,0,3.9,0,5.5-0.1v0.9c-3.1,0-3.8,0.9-5.6,5L92.8,117h-0.4L84.7,96.7z"/>
		<path d="M126.7,116.6c-2.9,0-6.3-0.1-9.3-0.1c-3,0-5.9,0-8.1,0.1v-0.8c2.7,0,3.5-0.7,3.8-1.8c0.4-1.2,0.5-4.3,0.5-12.5V100
			c0-8.3,0-11.3-0.5-12.5c-0.4-1.1-1.2-1.8-4-1.8v-0.8h13.5c10.4,0,12.5-0.3,12.5-0.3c0.1,3.7,0.3,6.9,0.7,9.8l-0.5,0.1
			c-1.5-4.9-3.1-8.1-9.9-8.1c-1.8,0-2.5,0.1-4.2,0.5c-0.1,3.4-0.2,6.5-0.2,13.1v0.3h2c4.9,0,6-1.1,6.2-4.8h0.8
			c-0.1,1.7-0.1,3.4-0.1,5.5c0,2.1,0,3.8,0.1,5.5h-0.8c-0.1-3.7-1.2-4.8-6.2-4.8l-2,0c0,6.4,0.1,11.1,0.4,12.1
			c0.4,1.4,1.2,2.1,5.3,2.2V116.6z"/>
		<path d="M167.1,116.6c-1.4,0-4.3-0.1-7.4-0.1c-3.1,0-6.4,0-8.5,0.1v-0.8c2.8-0.1,3.7-0.4,3.7-1.8c0-0.9-0.4-2.3-1.1-4.1l-2-5.8
			H143l-1.9,5.5c-0.7,1.8-1.1,3.2-1.1,4.2c0,1.7,1.1,2,4.3,2v0.8c-2.1,0-4-0.1-5.8-0.1s-3.8,0-5.3,0.1v-0.8c3.1-0.1,3.9-1,5.3-4.8
			l8.1-21.7l-0.9-2.4c2.5-0.5,5.7-2,7.2-3.1c0,0,1.6,5.7,3.9,12l5.5,15.1c1.4,3.7,1.8,4.9,4.7,4.9V116.6z M151.3,102.6l-4-11.2
			l-3.8,11.2H151.3z"/>
	</g>
	<g>
		<path d="M95.5,27.2c2,0,2.7-0.5,3.7-1.3h0.1l-2,5.3H84.7V31c5.6-5.8,8.7-8.3,8.7-12c0-2.2-1.4-3.2-3.5-3.2c-1.7,0-3.3,1.2-4.2,2.1
			l-0.2-0.2c2-2.9,4.5-5.4,7.4-5.4c3,0,5.1,1.9,5.1,4.8c0,3.2-4.9,6.9-9.2,10.1H95.5z"/>
		<path d="M100.2,21.9c0-5.1,3.7-9.5,8.3-9.5c4.7,0,8.3,4.4,8.3,9.5c0,5.1-3.7,9.5-8.3,9.5C103.9,31.4,100.2,27,100.2,21.9z
			 M105.3,21.9c0,5,0.9,8.9,3.2,8.9c2.3,0,3.2-3.9,3.2-8.9c0-5-0.9-8.9-3.2-8.9C106.2,12.9,105.3,16.9,105.3,21.9z"/>
		<path d="M127.7,27.2c2,0,2.7-0.5,3.7-1.3h0.1l-2,5.3h-12.7V31c5.6-5.8,8.7-8.3,8.7-12c0-2.2-1.4-3.2-3.5-3.2
			c-1.7,0-3.3,1.2-4.2,2.1l-0.2-0.2c2-2.9,4.5-5.4,7.4-5.4c3,0,5.1,1.9,5.1,4.8c0,3.2-4.9,6.9-9.2,10.1H127.7z"/>
		<path d="M135.1,17c0-0.4-0.1-0.8-0.6-0.8c-0.3,0-0.9,0.2-2.5,0.6l-0.1-0.4c2.9-1.2,6.3-3.4,7.4-4.3h0.2c-0.1,0.7-0.1,2.4-0.1,5.3
			v10c0,2.5,0.4,3,1.6,3.1l1.4,0.1v0.4c-1.8,0-3.5-0.1-5.2-0.1s-3.5,0-5.3,0.1v-0.4l1.6-0.1c1.2-0.1,1.6-0.6,1.6-3.1V17z"/>
	</g>
</g>
</svg>
