<?xml version="1.0" encoding="utf-8"?>
<!-- Generator: Adobe Illustrator 25.2.0, SVG Export Plug-In . SVG Version: 6.00 Build 0)  -->
<svg version="1.1" id="Layer_1" xmlns="http://www.w3.org/2000/svg" xmlns:xlink="http://www.w3.org/1999/xlink" x="0px" y="0px"
	 viewBox="0 0 227 200" style="enable-background:new 0 0 227 200;" xml:space="preserve">
<style type="text/css">
	.st0{fill:#6A25FF;}
	.st1{fill:#763AFE;}
	.st2{fill:#824EFE;}
	.st3{fill:#8E62FD;}
	.st4{fill:#9A77FC;}
	.st5{fill:#FAF17A;}
	.st6{fill:#FFFFFF;}
	.st7{clip-path:url(#SVGID_2_);}
	.st8{fill:#F8F07D;}
</style>
<g>
	<path class="st0" d="M-231.1-541.5c-0.6-0.5-1.3-0.5-1.9-0.1l-0.3,0.3c0.8,0.6,1.5,1.2,2.3,1.8l0,0
		C-230.4-540.2-230.4-540.9-231.1-541.5z"/>
	<path class="st0" d="M-239.3-547.5c-0.9-0.5-1.8-0.2-2.5,0.7c1.1,0.6,2.1,1.2,3.1,1.8C-238.3-546-238.4-546.9-239.3-547.5z"/>
	<path class="st0" d="M-301.4-549c-0.4-0.8-1.2-1.2-2.1-0.7c-0.8,0.4-1.1,1.2-0.9,2.2L-301.4-549z"/>
	<path class="st0" d="M-313.6-541.1l-3.9-5.6l6.4-4.5l1.2,1.7l-4.4,3.1l1.7,2.4l4.1-2.9l1.1,1.5c0.4-0.3,0.9-0.5,1.3-0.8
		c-0.9-2.2-0.2-4.4,1.8-5.4c2.2-1.1,4.2-0.2,5.3,1.9c0.7-0.3,1.4-0.6,2.1-0.8c0.4-0.6,1.1-1.1,1.9-1.4c0.7-0.2,1.6-0.3,2-0.2
		l-0.2-0.6c-0.2-0.7-0.8-1.1-1.7-0.8c-0.6,0.2-0.9,0.6-0.9,1.2l-2.1,0.7c-0.3-1.5,0.7-3.1,2.5-3.7c2.1-0.7,3.8,0,4.4,1.9l0.3,0.8
		c0.8-0.2,1.6-0.4,2.5-0.6l-0.4-2l-1.3,0.3l-0.4-1.9l1.3-0.3l-0.5-2.3l2.3-0.5l0.5,2.3l1.8-0.4l0.4,1.9l-1.8,0.4l0.4,2
		c1.2-0.2,2.5-0.4,3.7-0.6l-0.3-4l2.3-0.2l0.3,3.9c1-0.1,1.9-0.2,2.9-0.2l-0.3-4l2.4-0.2l0.3,4.1c0.5,0,0.9,0,1.4,0
		c0.3,0,0.6,0,0.9,0l0.2-4l2.4,0.1l0,0.8c0.4-0.6,1.1-1,1.9-0.9c0.4,0,0.8,0.1,0.9,0.2l-0.1,2.4c-0.3-0.2-0.7-0.3-1.2-0.3
		c-0.8,0-1.5,0.3-1.7,1.1l0,0.7c1.3,0.1,2.5,0.2,3.7,0.3c0.5-2.4,2.4-3.9,4.7-3.5c2.5,0.4,3.5,2.4,3.1,4.8c0.4,0.1,0.8,0.2,1.3,0.3
		c0.8-2.2,2.7-3.6,5-2.8c0.9,0.3,1.5,1,1.7,1.5l1.4-4.3l2.3,0.7l-2.4,7.4c1.8,0.7,3.7,1.5,5.4,2.4c1.4-2,3.6-2.6,5.6-1.4
		c2,1.2,2.5,3.4,1.5,5.5c0.5,0.3,1,0.7,1.5,1l2.3-2.8l1.8,1.5l-0.5,0.6c0.7-0.1,1.6,0.1,2.4,0.7c1.5,1.2,1.5,2.9,0.3,4.3l-0.4,0.5
		c8.7,7.7,15.3,17.5,19.1,28.7h14.6c-9.3-34.2-40.6-59.4-77.8-59.4s-68.5,25.2-77.8,59.4h14.6C-332.2-522-324.1-533.1-313.6-541.1z"
		/>
	<path class="st0" d="M-261.9-555.9c-0.9-0.2-1.6,0.3-2,1.3l3.2,0.6C-260.6-554.9-261-555.7-261.9-555.9z"/>
	<path class="st0" d="M-251.2-551.9c-0.1-0.6-0.6-1.2-1.2-1.4c-1.1-0.4-2.1,0.2-2.6,1.3c1.2,0.3,2.3,0.7,3.4,1.1L-251.2-551.9z"/>
	<path class="st0" d="M-273.3-421.3c-29.4,0-54.3-19-63.2-45.4h-14.6c9.3,34.2,40.6,59.4,77.8,59.4s68.5-25.2,77.8-59.4h-14.6
		C-219-440.3-243.9-421.3-273.3-421.3z"/>
	<path class="st1" d="M-229.2-537.9l-3.1,3.8l-1.8-1.5l3.2-3.9c-0.8-0.6-1.5-1.2-2.3-1.8l-3.1,3.8l-1.8-1.5l3-3.7
		c-0.5-0.4-1-0.7-1.5-1c-0.1,0.2-0.1,0.3-0.2,0.5c-1.3,2.2-3.7,2.9-5.8,1.7c-2.1-1.3-2.6-3.7-1.3-5.9c0.1-0.1,0.2-0.2,0.2-0.3
		c-1.8-0.9-3.6-1.7-5.4-2.4l-1.4,4.3l-2.3-0.7l0.2-0.7c-0.5,0.3-1.4,0.5-2.3,0.2c-2.3-0.8-3-3.1-2.3-5.4c0-0.1,0.1-0.1,0.1-0.2
		c-0.4-0.1-0.8-0.2-1.3-0.3v0l-0.1,0.7l-5.6-1c-0.1,1.3,0.4,2.1,1.5,2.3c0.8,0.1,1.4-0.1,1.7-0.8l2.2,0.4c-0.6,1.7-2.1,2.6-4.2,2.3
		c-2.4-0.4-3.8-2.5-3.3-5.1c0-0.1,0-0.1,0.1-0.2c-1.2-0.1-2.5-0.2-3.7-0.3l-0.2,4.5l-2.4-0.1l0.2-4.5c-0.3,0-0.6,0-0.9,0
		c-0.5,0-0.9,0-1.4,0l0.4,4.4l-2.3,0.2l-0.1-0.8c-0.4,0.6-1.2,1.1-2.2,1.1c-1.9,0.2-3.1-1-3.2-2.9l-0.1-1.5
		c-1.3,0.2-2.5,0.4-3.7,0.6l0.3,1.7c0.1,0.7,0.6,0.9,1.1,0.8c0.4-0.1,0.7-0.3,0.9-0.5l0.4,2c-0.3,0.2-0.8,0.4-1.4,0.6
		c-1.7,0.4-2.9-0.3-3.3-2.1l-0.4-2c-0.8,0.2-1.6,0.4-2.5,0.6l1.5,4.3l-2.1,0.7l-0.1-0.4c-0.2,0.4-0.9,0.9-1.8,1.2
		c-1.6,0.5-3.3,0.1-3.9-1.6c-0.3-0.8-0.1-1.6,0.3-2.2c-0.7,0.3-1.4,0.5-2.1,0.8c0,0,0,0.1,0.1,0.1l0.3,0.6l-5,2.6
		c0.6,1.1,1.6,1.5,2.6,1c0.7-0.4,1.1-0.9,0.9-1.7l1.9-1c0.5,1.7-0.1,3.4-2,4.3c-2.2,1.1-4.5,0.3-5.7-2.1c-0.1-0.1-0.1-0.3-0.2-0.4
		c-0.4,0.3-0.9,0.5-1.3,0.8l0.2,0.2l-4.1,2.9l2.6,3.7l-2,1.4l-2.8-4c-10.6,8-18.6,19.1-23,31.9h15c8.2-18.5,26.7-31.4,48.2-31.4
		c21.5,0,40,12.9,48.2,31.4h15C-213.9-520.4-220.5-530.3-229.2-537.9z"/>
	<path class="st1" d="M-294.1-550.3c-0.7,0.2-1.3,0.8-1.1,1.5c0.2,0.7,1.1,0.7,1.8,0.5c0.6-0.2,1.2-0.7,1.2-1.2l-0.2-0.6
		C-292.8-550.4-293.5-550.5-294.1-550.3z"/>
	<path class="st1" d="M-253.9-548.8c0.7,0.2,1.4,0,1.8-0.4l0.6-1.7c-1.1-0.4-2.3-0.8-3.4-1.1c0,0.1-0.1,0.2-0.1,0.3
		C-255.5-550.5-255.1-549.2-253.9-548.8z"/>
	<path class="st1" d="M-241.8-543.3c1,0.6,2.1,0,2.8-1.2c0.1-0.2,0.2-0.4,0.3-0.5c-1-0.6-2.1-1.2-3.1-1.8c-0.1,0.1-0.2,0.3-0.3,0.4
		C-242.8-545.1-242.8-543.9-241.8-543.3z"/>
	<path class="st1" d="M-273.3-421.3c29.4,0,54.3-19,63.2-45.4h-15c-3.8,8.7-9.9,16.1-17.6,21.6v12.4h-4.5v-9.5
		c-4.3,2.5-8.9,4.3-13.9,5.5h7.1v4h-15.3v-2.7c-1.3,0.1-2.7,0.2-4,0.2c-0.1,0-0.3,0-0.4,0c-1.5,1.8-3.6,2.9-6.1,2.9
		c-3.2,0-5.8-1.8-7.3-4.7c-3.1-0.8-6.2-2-9.1-3.4l-3.5,3.7h8.9v4H-306v-3l6.3-6.7c-9.6-5.6-17.3-14.1-21.8-24.3h-15
		C-327.6-440.3-302.7-421.3-273.3-421.3z"/>
	<path class="st1" d="M-278.4-551.8c0.7-0.1,1.3-0.5,1.4-1.3l-0.1-1.4c-1,0.1-1.9,0.1-2.9,0.2l0.1,1.1
		C-279.8-552.3-279.3-551.7-278.4-551.8z"/>
	<path class="st2" d="M-262.3-443.1c1.9-2.1,3.5-3.7,3.5-5.3c0-1.5-1.1-2.7-2.8-2.7c-0.6,0.2-1.1,0.3-1.7,0.5
		c-0.8,0.5-1.2,1.5-1.3,2.6h-4.8c0.1-0.5,0.1-1,0.3-1.5c-1,0.1-2,0.2-3,0.2c0.6,1.6,0.9,3.5,0.9,5.5c0,3.5-1,6.5-2.6,8.5
		c0.1,0,0.3,0,0.4,0c1.4,0,2.7-0.1,4-0.2v-0.3L-262.3-443.1z"/>
	<path class="st2" d="M-284-443.8c0,4.1,1.2,7.3,4.2,7.3c3,0,4.2-3.2,4.2-7.3c0-2.3-0.4-4.3-1.3-5.7c-1.8-0.2-3.5-0.4-5.1-0.8
		C-283.4-449.1-284-446.7-284-443.8z"/>
	<path class="st2" d="M-299.7-442.4l0.7-0.7c1.9-2.1,3.5-3.7,3.5-5.3c0-1.5-1.1-2.7-2.8-2.7c-1.9,0-2.8,1.3-3,3.1h-4.8
		c0.4-4.1,3.3-7.2,7.7-7.2c4.6,0,7.4,2.6,7.4,6.6c0,2.8-2.1,4.9-4.4,7.3l-0.8,0.8c2.9,1.4,5.9,2.5,9.1,3.4c-0.9-1.8-1.4-4.1-1.4-6.7
		c0-3.1,0.8-5.8,2.1-7.8c-7.9-2.9-14.6-8.2-19.2-15.1h-15.9C-317-456.5-309.3-448-299.7-442.4z"/>
	<path class="st2" d="M-273.3-540.6c-21.5,0-40,12.9-48.2,31.4h15.9c5.5-8.3,14.1-14.4,24.1-16.5l-1.8-1.8c-2.8-2.8-2.8-7.3,0-10
		c1.3-1.3,3.1-2.1,5-2.1c1.9,0,3.6,0.7,5,2c1.3-1.3,3.1-2,5-2c1.9,0,3.7,0.7,5,2.1c2.8,2.8,2.8,7.3,0,10l-1.8,1.8
		c10,2.2,18.6,8.2,24.1,16.5h15.9C-233.3-527.7-251.8-540.6-273.3-540.6z"/>
	<path class="st2" d="M-256.1-453.3c1.2,1.1,1.9,2.8,1.9,4.7c0,2.8-2.1,4.9-4.4,7.3l-4.2,4.6h1.8c4.9-1.2,9.6-3,13.9-5.5v-7.4
		l-5.1,2.6v-4.5l6.7-3.3h2.9v9.7c7.6-5.5,13.7-12.9,17.6-21.6H-241C-244.8-461-250-456.4-256.1-453.3z"/>
	<path class="st3" d="M-286.4-451.6c1.5-2.3,3.8-3.6,6.6-3.6c3.6,0,6.4,2.3,7.8,5.9c1,0,2-0.1,3-0.2c0.9-3.3,3.6-5.7,7.4-5.7
		c2.4,0,4.3,0.7,5.5,1.9c6.1-3.1,11.4-7.7,15.1-13.4h-19.8c-3.7,2.2-7.9,3.4-12.5,3.4s-8.8-1.2-12.5-3.4h-19.8
		C-301.1-459.8-294.3-454.4-286.4-451.6z"/>
	<path class="st3" d="M-279.8-451.1c-0.9,0-1.6,0.3-2.2,0.8c1.7,0.4,3.4,0.7,5.1,0.8C-277.6-450.5-278.5-451.1-279.8-451.1z"/>
	<path class="st3" d="M-261.6-451.1c-0.7,0-1.2,0.2-1.7,0.5C-262.8-450.8-262.2-450.9-261.6-451.1
		C-261.6-451.1-261.6-451.1-261.6-451.1z"/>
	<path class="st3" d="M-265.1-525.7l-0.4,0.4c0,0-5.5,5.5-6.6,6.6c-0.3,0.3-0.8,0.5-1.3,0.5c-0.5,0-0.9-0.2-1.3-0.5
		c-1.1-1.1-6.6-6.6-6.6-6.6l-0.4-0.4c-10,2.2-18.6,8.2-24.1,16.5h19.8c3.7-2.2,7.9-3.4,12.5-3.4s8.8,1.2,12.5,3.4h19.8
		C-246.5-517.5-255.1-523.6-265.1-525.7z"/>
	<path class="st4" d="M-285.8-509.2h25c-3.7-2.2-7.9-3.4-12.5-3.4S-282.2-511.4-285.8-509.2z"/>
	<path class="st4" d="M-260.8-466.7h-25c3.7,2.2,7.9,3.4,12.5,3.4S-264.5-464.6-260.8-466.7z"/>
	<path class="st5" d="M-163.6-509.2h-23.3c-9.5-38.9-44.6-67.8-86.5-67.8s-77,28.9-86.5,67.8h-6.5l-16.8,42.5h23.3
		c9.5,38.9,44.6,67.8,86.5,67.8s77-28.9,86.5-67.8h6.2L-163.6-509.2z M-273.3-568.6c37.2,0,68.5,25.2,77.8,59.4h-14.6h-15H-241
		h-19.8h-25h-19.8h-15.9h-15h-14.6C-341.8-543.4-310.5-568.6-273.3-568.6z M-224.5-478.4c-1-0.6-2-1.9-2.1-3.7c0.1,0,0.2,0,0.3,0
		c1,0,1.9,0,2.9,0c0.1,0,0.2,0,0.2,0h0.1c0,0,0,0,0,0.2c0,0,0,0.1,0,0.1c0.2,1.6,2.5,2.2,3.8,1.2c0.8-0.7,0.8-2-0.1-2.6
		c-0.8-0.6-1.7-0.8-2.6-1.1c-1-0.3-2-0.6-2.8-1.2c-1.1-0.8-1.7-1.8-1.6-3.2c0.1-1.9,1.1-3.3,2.8-4c2.1-0.9,4.1-0.8,6,0.4
		c1.2,0.7,1.8,1.9,2,3.2c0,0,0,0.1,0,0.1c0,0.2,0,0.3,0,0.3s-0.1,0-0.2,0c0,0-0.1,0-0.1,0c-0.1,0-0.1,0-0.2,0c-1,0-3,0-3,0
		c0-0.1,0-0.4,0-0.4c-0.1-0.7-0.7-1.2-1.3-1.3c-0.7-0.1-1.4-0.1-2,0.5c-0.6,0.6-0.6,1.5,0.1,2.1c0.6,0.5,1.4,0.7,2.2,1
		c1.1,0.3,2.2,0.6,3.2,1.2c1.1,0.7,1.7,1.7,1.8,2.9c0.2,2.5-1.1,4.5-3.5,5.3C-220.7-477-222.6-477.2-224.5-478.4z M-240.2-483.7
		c0.3,1.8,2,3.1,3.7,3.3c0.8,0.1,1.5,0,2.3-0.2c0.9-0.3,1.5-0.8,2-1.6l0.2-0.3h3.6l0,0c0,0,0,0,0,0c-1.4,3.4-5,5.8-9.1,4.9
		c-4.6-1-7.1-5.6-6.1-9.8c1.1-4.6,5.5-7,9.8-6c4.3,1.1,6.5,5.3,5.9,9h-0.4c-3.8,0-7.6,0-11.4,0
		C-240.3-484.3-240.3-484.2-240.2-483.7z M-260.1-478.1C-260.1-478.1-260.1-478.1-260.1-478.1c0-4.9,0-9.7,0-14.5v-0.4h3.4v0.4h0
		c0,0.3,0,0.6,0,1c0,0.1,0,0.2,0,0.4c0.1-0.1,0.2-0.2,0.3-0.3c0.8-1.3,2.1-1.8,3.6-1.9l0,0h0.3v3.6l-0.2,0c0,0-0.1,0-0.2,0
		c-0.5,0.1-1,0.1-1.5,0.2c-1.2,0.3-1.9,1.1-2.2,2.3c-0.1,0.5-0.1,1-0.1,1.5c0,2.5,0,5,0,7.5v0.1c0,0.1,0,0.2,0,0.4v0h-1.8
		c-0.5,0-1,0-1.5,0c0,0-0.1,0-0.1,0h-0.2V-478.1z M-250.2-481L-250.2-481c0-2.9,0-5.9,0-8.8h0h0v-3.2h3.6v3.2h0c0,1.5,0,3,0,4.4
		c0,1.5,0,2.9,0,4.4h0v3.2h-3.6V-481z M-250.2-495.2v-3.2h3.6v3.2H-250.2z M-294.9-481.6c0.8-0.7,1.1-1.7,0.8-2.7
		c-0.1-0.6-0.5-1-1.1-1.3c-1.1-0.5-2.1-1-3.2-1.4c-1.3-0.5-2.5-1-3.5-1.9c-1.4-1.3-1.9-2.9-1.5-4.8c0.5-2.6,2.2-4.1,4.7-4.7
		c2-0.5,4-0.3,5.8,0.8c1.3,0.8,2,2,2.4,3.4c0.1,0.3,0.1,0.7,0.2,1h0c0,0.1,0,0.3,0,0.3h-0.1c0,0,0,0,0,0c0,0-0.1,0-0.2,0
		c-0.6,0-1.1,0-1.7,0c-0.4,0-0.8,0-1.2,0c-0.1,0-0.3,0-0.4,0c-0.1,0-0.2,0-0.3,0c-0.1,0-0.2,0-0.2,0c0,0,0-0.2,0-0.3c0,0,0,0,0,0
		c-0.2-0.9-0.6-1.6-1.5-2c-1.4-0.6-3.1,0-3.6,1.4c-0.4,1-0.2,2,0.9,2.6c1.1,0.6,2.2,1,3.3,1.5c1.1,0.5,2.2,1,3.2,1.8
		c1.2,1,1.9,2.2,2,3.8c0.1,2-0.5,3.8-2.1,5.1c-0.9,0.8-2,1.2-3.2,1.4c-1.1,0.2-2.1,0.2-3.2,0c-2.2-0.4-4.2-1.6-5-4.2
		c-0.2-0.6-0.2-1.3-0.3-1.9c0-0.2,0.1-0.4,0.3-0.4c1.1,0,2.2,0,3.3,0c0.2,0,0.3,0.1,0.4,0.4c0.1,1.2,0.7,2.4,2.1,2.8
		C-296.7-480.6-295.7-480.8-294.9-481.6z M-287.6-481.4c-0.1-0.6-0.2-1.2-0.2-1.9c0-4.6,0-9.1,0-13.7h0v-0.8h3.7v0.8h0
		c0,1.2,0,2.3,0,3.5c0,0.3,0.1,0.4,0.4,0.4c0.9,0,1.7,0,2.6,0v0h0.8v2.6h0v0c-0.1,0-0.3,0-0.4,0c-1,0-2,0-3,0
		c-0.3,0-0.4,0.1-0.4,0.4c0,2.2,0,4.5,0,6.7c0,0.4,0.1,0.9,0.3,1.3c0.5,1,1.6,1.3,2.6,0.8c1.2-0.6,1.8-1.6,2.2-2.8
		c0.2-0.7,0.3-1.5,0.4-2.2c0.3-2.6,1.4-4.7,3.7-6.1c1.2-0.8,2.6-1.1,4-1.2c2.1-0.1,4,0.4,5.6,1.7c1.6,1.3,2.6,3,2.9,5.1
		c0.3,2-0.1,3.9-1.1,5.6c-1.2,1.9-2.9,3.1-5.1,3.5c-2.4,0.5-4.6,0.2-6.6-1.2c-0.8-0.5-1.4-1.2-1.9-1.9c-0.1-0.1-0.1-0.1-0.2-0.2
		c0,0-0.1,0-0.1-0.1c-0.1,0.1-0.2,0.2-0.2,0.4c-0.8,1.5-2,2.4-3.7,2.6c-1,0.2-2.1,0.2-3.1-0.1C-286.1-478.7-287.2-479.7-287.6-481.4
		z M-306.1-488.1c0.4,1.2,0.5,2.4,0.4,3.6c0,0.3-0.2,0.3-0.4,0.3c-3.9,0-7.7,0-11.6,0c-0.4,0-0.5,0.1-0.4,0.5c0.4,1.8,1.8,3,3.7,3.3
		c1.1,0.1,2.1,0,3-0.5c0.6-0.3,1-0.8,1.3-1.3c0.1-0.1,0.2-0.2,0.3-0.2c1.1,0,2.2,0,3.3,0c0,0,0.1,0,0.2,0.1c-0.3,0.6-0.6,1.1-1,1.6
		c-1.2,1.7-2.8,2.8-4.8,3.2c-2.2,0.5-4.3,0.1-6.2-1.2c-2.5-1.8-3.7-4.2-3.5-7.3c0.2-3.4,2.6-6.3,5.8-7.2
		C-311.8-494.4-307.5-492.2-306.1-488.1z M-352.1-480.1c-0.9-1.1-1.5-2.3-1.8-3.7c-0.3-1.7-0.2-3.3,0.4-4.8c1-2.4,2.8-4,5.4-4.6
		c2.2-0.5,4.4-0.3,6.4,0.8c2,1.1,3.3,2.9,3.8,5.2c0.6,2.6,0,4.9-1.6,7c-1.1,1.4-2.6,2.3-4.3,2.7c-0.7,0.1-1.4,0.2-2,0.3
		C-348.3-477.4-350.5-478.2-352.1-480.1z M-337-493.1c0,0,0.1,0,0.1,0H-337l3.7,0l0.3,0.9l0,0c0.8,2.2,1.5,4.4,2.3,6.6
		c0.4,1,0.7,2,1.1,3.2c0.1-0.2,0.2-0.3,0.2-0.4c1-2.9,2-5.9,3.1-8.8c0.1-0.3,0.2-0.7,0.3-1l0,0l0.2-0.5h1.7l-0.1,0
		c0.7,0,1.4,0,2.1,0c-0.2,0.7-0.5,1.3-0.7,1.9c-0.8,2.3-1.7,4.5-2.5,6.8c-0.8,2.1-1.6,4.2-2.3,6.3c-0.1,0.3-0.2,0.3-0.5,0.3
		c-0.9,0-1.9,0-2.8,0c-0.2,0-0.4,0-0.4-0.3c-0.9-2.4-1.8-4.7-2.6-7.1c-0.9-2.5-1.8-5-2.8-7.5C-336.9-492.8-337-492.9-337-493.1z
		 M-365-477.8c-0.3,0-0.4-0.2-0.4-0.4c0-3.3,0-6.6,0-9.8c0-3.3,0-6.5,0-9.8c0,0,0-0.1,0-0.1v-0.4h4.1v0.4h0c0,5.4,0,10.7,0,16.1
		c0,0.5,0,0.5,0.5,0.5c2,0,3.9,0,5.9,0h0v0h0.4v3.6h-0.1c0,0-0.1,0-0.2,0C-358.2-477.8-361.6-477.8-365-477.8z M-273.3-407.3
		c-37.2,0-68.5-25.2-77.8-59.4h14.6h15h15.9h19.8h25h19.8h15.9h15h14.6C-204.8-432.5-236.1-407.3-273.3-407.3z M-182.1-495.6
		c-0.8,2.2-1.6,4.4-2.4,6.7c-1,2.8-2,5.6-3,8.3c-0.4,1-0.7,2.1-1.1,3.1l-0.1,0.3h-4.1l-0.1-0.3c0,0,0,0,0,0
		c-0.6-1.6-1.2-3.3-1.7-4.9c-0.8-2.2-1.6-4.5-2.4-6.7c-0.5-1.5-1.1-3-1.6-4.6c-0.1-0.3-0.3-0.5-0.6-0.4c-1.8,0-3.7,0-5.5,0
		c-0.3,0-0.4,0.1-0.4,0.4c0,5.3,0,10.6,0,15.9h0v0.7h-3.6v-0.4c0,0,0,0,0,0c0-5.4,0-10.8,0-16.2c0-0.3-0.1-0.4-0.4-0.4
		c-1.4,0-2.8,0-4.2,0c0,0-0.1,0-0.1,0h-0.3v-3.6h0.8v0c5.6,0,11.2,0,16.8,0c0.3,0,0.4,0.1,0.5,0.4c0.6,1.9,1.3,3.8,1.9,5.7
		c0.8,2.5,1.7,5.1,2.5,7.6c0.1,0.4,0.3,0.9,0.4,1.3l0.3,0.5l0.3-0.6c0.5-1.5,1-2.9,1.5-4.4c0.5-1.5,1-2.9,1.5-4.4
		c0.6-1.9,1.3-3.7,1.9-5.6l0.2-0.5h0.5c1.1,0,2.2,0,3.3,0c0.1,0,0.2,0,0.4,0C-181.6-497-181.8-496.3-182.1-495.6z"/>
	<path class="st5" d="M-341.2-485.4c-0.1-0.5-0.2-1.1-0.3-1.6c-1-2.8-4.1-3.9-6.5-2.5c-2,1.1-2.8,3.5-2.1,5.7
		c0.8,2.4,3.3,3.7,5.8,2.9C-342.5-481.6-341.3-483.3-341.2-485.4z"/>
	<path class="st5" d="M-231.4-487c-0.1-0.3-0.1-0.5-0.2-0.7c-0.6-1.7-2.2-2.8-4.1-2.8c-1.5,0-2.8,0.5-3.7,1.7
		c-0.4,0.5-0.7,1.1-0.7,1.8H-231.4z"/>
	<path class="st5" d="M-317.5-488.5c-0.3,0.4-0.5,0.9-0.5,1.5h8.3c0.4,0,0.5,0,0.4-0.4c0-0.2-0.1-0.3-0.2-0.5
		c-0.8-1.7-2.2-2.5-4-2.6C-315.2-490.5-316.6-489.9-317.5-488.5z"/>
	<path class="st5" d="M-269.3-480.9c1.8-0.5,3.3-2.2,3.2-4.6c0-0.2,0-0.5,0-0.8c0-0.3-0.1-0.6-0.2-0.9c-0.9-2.8-4.7-4-7-2.1
		c-1.6,1.3-2.1,2.9-1.7,4.9C-274.5-481.7-271.8-480.2-269.3-480.9z"/>
	<path d="M-185-497.8h-0.5l-0.2,0.5c-0.6,1.9-1.2,3.7-1.9,5.6c-0.5,1.5-1,2.9-1.5,4.4c-0.5,1.5-1,2.9-1.5,4.4l-0.3,0.6l-0.3-0.5
		c-0.2-0.4-0.3-0.9-0.4-1.3c-0.8-2.5-1.7-5.1-2.5-7.6c-0.6-1.9-1.3-3.8-1.9-5.7c-0.1-0.2-0.2-0.4-0.5-0.4c-5.6,0-11.2,0-16.8,0v0
		h-0.8v3.6h0.3c0,0,0.1,0,0.1,0c1.4,0,2.8,0,4.2,0c0.3,0,0.4,0.1,0.4,0.4c0,5.4,0,10.8,0,16.2c0,0,0,0,0,0v0.4h3.6v-0.7h0
		c0-5.3,0-10.6,0-15.9c0-0.3,0.1-0.4,0.4-0.4c1.8,0,3.7,0,5.5,0c0.4,0,0.5,0.1,0.6,0.4c0.5,1.5,1.1,3,1.6,4.6
		c0.8,2.2,1.6,4.5,2.4,6.7c0.6,1.6,1.2,3.2,1.7,4.9c0,0,0,0,0,0l0.1,0.3h4.1l0.1-0.3c0.4-1,0.7-2.1,1.1-3.1c1-2.8,2-5.6,3-8.3
		c0.8-2.2,1.6-4.4,2.4-6.7c0.2-0.7,0.5-1.4,0.8-2.2c-0.2,0-0.3,0-0.4,0C-182.8-497.8-183.9-497.8-185-497.8z"/>
	<path d="M-281.5-478c1.7-0.3,2.9-1.1,3.7-2.6c0.1-0.1,0.1-0.2,0.2-0.4c0.1,0,0.1,0,0.1,0.1c0.1,0.1,0.1,0.1,0.2,0.2
		c0.5,0.8,1.2,1.4,1.9,1.9c2,1.3,4.2,1.7,6.6,1.2c2.2-0.4,3.9-1.6,5.1-3.5c1.1-1.7,1.5-3.6,1.1-5.6c-0.3-2.1-1.3-3.8-2.9-5.1
		c-1.6-1.3-3.5-1.8-5.6-1.7c-1.4,0.1-2.8,0.4-4,1.2c-2.2,1.4-3.4,3.5-3.7,6.1c-0.1,0.7-0.2,1.5-0.4,2.2c-0.4,1.2-1,2.2-2.2,2.8
		c-1,0.5-2.1,0.2-2.6-0.8c-0.2-0.4-0.3-0.8-0.3-1.3c0-2.2,0-4.5,0-6.7c0-0.3,0.1-0.4,0.4-0.4c1,0,2,0,3,0c0.1,0,0.2,0,0.4,0v0h0
		v-2.6h-0.8v0c-0.9,0-1.7,0-2.6,0c-0.3,0-0.4-0.1-0.4-0.4c0-1.2,0-2.3,0-3.5h0v-0.8h-3.7v0.8h0c0,4.6,0,9.1,0,13.7
		c0,0.6,0.1,1.3,0.2,1.9c0.4,1.7,1.5,2.7,3.1,3.3C-283.5-477.8-282.5-477.8-281.5-478z M-273.3-489.2c2.3-1.9,6.2-0.7,7,2.1
		c0.1,0.3,0.2,0.6,0.2,0.9c0,0.3,0,0.6,0,0.8c0,2.3-1.4,4-3.2,4.6c-2.6,0.8-5.3-0.8-5.8-3.4C-275.4-486.3-274.9-488-273.3-489.2z"/>
	<path d="M-299.8-483.8c0-0.3-0.1-0.4-0.4-0.4c-1.1,0-2.2,0-3.3,0c-0.3,0-0.3,0.1-0.3,0.4c0.1,0.6,0.2,1.3,0.3,1.9
		c0.7,2.6,2.7,3.8,5,4.2c1.1,0.2,2.1,0.2,3.2,0c1.2-0.2,2.3-0.6,3.2-1.4c1.6-1.3,2.1-3.1,2.1-5.1c-0.1-1.6-0.7-2.8-2-3.8
		c-1-0.8-2.1-1.3-3.2-1.8c-1.1-0.5-2.2-1-3.3-1.5c-1.1-0.6-1.2-1.6-0.9-2.6c0.5-1.4,2.2-2,3.6-1.4c0.9,0.4,1.3,1.1,1.5,2
		c0,0,0,0,0,0c0,0.1,0,0.3,0,0.3c0,0,0.1,0,0.2,0c0.1,0,0.1,0,0.3,0c0.1,0,0.3,0,0.4,0c0.4,0,0.8,0,1.2,0c0.6,0,1.1,0,1.7,0
		c0.1,0,0.1,0,0.2,0c0,0,0,0,0,0h0.1c0,0,0-0.1,0-0.3h0c-0.1-0.3-0.1-0.7-0.2-1c-0.3-1.5-1.1-2.6-2.4-3.4c-1.8-1.1-3.8-1.4-5.8-0.8
		c-2.5,0.7-4.2,2.1-4.7,4.7c-0.4,1.9,0.1,3.5,1.5,4.8c1,0.9,2.3,1.4,3.5,1.9c1.1,0.4,2.1,0.9,3.2,1.4c0.5,0.3,0.9,0.7,1.1,1.3
		c0.3,1.1,0,2-0.8,2.7c-0.8,0.8-1.8,0.9-2.8,0.6C-299.1-481.3-299.7-482.5-299.8-483.8z"/>
	<path d="M-315.9-493.2c-3.3,0.9-5.6,3.8-5.8,7.2c-0.2,3.1,1,5.5,3.5,7.3c1.9,1.3,4,1.6,6.2,1.2c2-0.4,3.6-1.6,4.8-3.2
		c0.4-0.5,0.6-1.1,1-1.6c-0.1,0-0.2-0.1-0.2-0.1c-1.1,0-2.2,0-3.3,0c-0.1,0-0.3,0.1-0.3,0.2c-0.4,0.5-0.8,1-1.3,1.3
		c-0.9,0.5-1.9,0.6-3,0.5c-1.9-0.3-3.3-1.5-3.7-3.3c-0.1-0.4,0-0.5,0.4-0.5c3.9,0,7.7,0,11.6,0c0.2,0,0.4,0,0.4-0.3
		c0.1-1.2,0-2.4-0.4-3.6C-307.5-492.2-311.8-494.4-315.9-493.2z M-309.5-487.9c0.1,0.2,0.1,0.3,0.2,0.5c0.1,0.4,0.1,0.4-0.4,0.4
		h-8.3c0-0.6,0.2-1.1,0.5-1.5c0.9-1.4,2.3-2,4-2C-311.7-490.4-310.4-489.6-309.5-487.9z"/>
	<path d="M-239.8-484.3c3.8,0,7.6,0,11.4,0h0.4c0.6-3.7-1.5-8-5.9-9c-4.4-1.1-8.7,1.3-9.8,6c-1,4.2,1.4,8.7,6.1,9.8
		c4.1,0.9,7.8-1.5,9.1-4.9c0,0,0,0,0,0l0,0h-3.6l-0.2,0.3c-0.5,0.7-1.2,1.3-2,1.6c-0.7,0.2-1.5,0.3-2.3,0.2
		c-1.7-0.2-3.3-1.4-3.7-3.3C-240.3-484.2-240.3-484.3-239.8-484.3z M-239.4-488.8c1-1.2,2.2-1.7,3.7-1.7c1.9,0,3.5,1.1,4.1,2.8
		c0.1,0.2,0.1,0.4,0.2,0.7h-8.7C-240.2-487.7-239.9-488.3-239.4-488.8z"/>
	<path d="M-343.8-477.6c1.8-0.4,3.2-1.3,4.3-2.7c1.6-2.1,2.2-4.4,1.6-7c-0.5-2.3-1.7-4-3.8-5.2c-2-1.1-4.2-1.3-6.4-0.8
		c-2.6,0.6-4.3,2.2-5.4,4.6c-0.7,1.5-0.8,3.2-0.4,4.8c0.3,1.4,0.9,2.6,1.8,3.7c1.6,1.9,3.8,2.7,6.2,2.8
		C-345.2-477.4-344.5-477.5-343.8-477.6z M-350.2-483.9c-0.7-2.2,0.1-4.6,2.1-5.7c2.4-1.4,5.6-0.3,6.5,2.5c0.2,0.5,0.2,1.1,0.3,1.6
		c-0.1,2.1-1.3,3.9-3.2,4.5C-346.9-480.2-349.4-481.4-350.2-483.9z"/>
	<path d="M-331.5-478.1c0.1,0.2,0.2,0.3,0.4,0.3c0.9,0,1.9,0,2.8,0c0.3,0,0.4-0.1,0.5-0.3c0.8-2.1,1.6-4.2,2.3-6.3
		c0.8-2.3,1.7-4.5,2.5-6.8c0.2-0.6,0.5-1.2,0.7-1.9c-0.7,0-1.4,0-2.1,0l0.1,0h-1.7l-0.2,0.5l0,0c-0.1,0.3-0.2,0.7-0.3,1
		c-1,2.9-2,5.9-3.1,8.8c0,0.1-0.1,0.2-0.2,0.4c-0.4-1.1-0.7-2.1-1.1-3.2c-0.8-2.2-1.5-4.4-2.3-6.6l0,0l-0.3-0.9h-3.7l0.1,0
		c0,0-0.1,0-0.1,0c0.1,0.2,0.1,0.3,0.1,0.4c0.9,2.5,1.8,5,2.8,7.5C-333.3-482.8-332.4-480.5-331.5-478.1z"/>
	<path d="M-354.6-477.9h0.1v-3.6h-0.4v0h0c-2,0-3.9,0-5.9,0c-0.5,0-0.5,0-0.5-0.5c0-5.4,0-10.7,0-16.1h0v-0.4h-4.1v0.4
		c0,0,0,0,0,0.1c0,3.3,0,6.5,0,9.8c0,3.3,0,6.6,0,9.8c0,0.3,0,0.4,0.4,0.4c3.4,0,6.8,0,10.2,0C-354.7-477.8-354.7-477.8-354.6-477.9
		z"/>
	<path d="M-259.8-477.8c0.5,0,1,0,1.5,0h1.8v0c0-0.1,0-0.3,0-0.4v-0.1c0-2.5,0-5,0-7.5c0-0.5,0-1,0.1-1.5c0.2-1.2,1-2,2.2-2.3
		c0.5-0.1,1-0.2,1.5-0.2c0.1,0,0.1,0,0.2,0l0.2,0v-3.6h-0.3l0,0c-1.5,0.1-2.7,0.6-3.6,1.9c-0.1,0.1-0.2,0.2-0.3,0.3
		c0-0.2,0-0.3,0-0.4c0-0.3,0-0.6,0-1h0v-0.4h-3.4v0.4c0,4.8,0,9.7,0,14.5c0,0,0,0,0,0v0.3h0.2C-259.9-477.8-259.8-477.8-259.8-477.8
		z"/>
	<rect x="-250.2" y="-498.4" width="3.6" height="3.2"/>
	<path d="M-246.6-481L-246.6-481c0-1.5,0-2.9,0-4.4c0-1.5,0-3,0-4.4h0v-3.2h-3.6v3.2h0h0c0,2.9,0,5.9,0,8.8h0v3.2h3.6V-481z"/>
	<path d="M-218.6-477.7c2.4-0.8,3.8-2.8,3.5-5.3c-0.1-1.2-0.7-2.2-1.8-2.9c-1-0.6-2.1-0.9-3.2-1.2c-0.8-0.2-1.5-0.4-2.2-1
		c-0.7-0.5-0.7-1.4-0.1-2.1c0.6-0.6,1.2-0.6,2-0.5c0.7,0.1,1.2,0.6,1.3,1.3c0,0,0,0.3,0,0.4c0,0,2,0,3,0c0.1,0,0.1,0,0.2,0
		c0,0,0.1,0,0.1,0c0.2,0,0.2,0,0.2,0s0,0,0-0.3c0,0,0-0.1,0-0.1c-0.2-1.4-0.8-2.5-2-3.2c-1.9-1.2-4-1.3-6-0.4
		c-1.7,0.8-2.7,2.1-2.8,4c-0.1,1.4,0.5,2.4,1.6,3.2c0.9,0.6,1.9,0.9,2.8,1.2c0.9,0.3,1.8,0.6,2.6,1.1c0.9,0.6,0.9,1.9,0.1,2.6
		c-1.2,1-3.6,0.5-3.8-1.2c0,0,0-0.1,0-0.1c0-0.2,0-0.2,0-0.2h-0.1c-0.1,0-0.1,0-0.2,0c-1,0-1.9,0-2.9,0c-0.1,0-0.2,0-0.3,0
		c0.1,1.8,1.1,3.1,2.1,3.7C-222.6-477.2-220.7-477-218.6-477.7z"/>
	<polygon class="st6" points="-308.8,-538.5 -311.4,-542.2 -307.3,-545 -307.5,-545.2 -308.5,-546.7 -312.6,-543.9 -314.3,-546.3 
		-309.9,-549.4 -311.1,-551.1 -317.5,-546.7 -313.6,-541.1 -310.8,-537.1 	"/>
	<path class="st6" d="M-300.3-543.5c1.9-1,2.6-2.6,2-4.3l-1.9,1c0.2,0.7-0.2,1.3-0.9,1.7c-0.9,0.5-1.9,0.1-2.6-1l5-2.6l-0.3-0.6
		c0,0,0-0.1-0.1-0.1c-1.1-2.1-3.1-3-5.3-1.9c-2,1-2.7,3.2-1.8,5.4c0.1,0.1,0.1,0.3,0.2,0.4C-304.8-543.2-302.5-542.4-300.3-543.5z
		 M-303.4-549.7c0.9-0.4,1.7-0.1,2.1,0.7l-2.9,1.5C-304.6-548.5-304.3-549.3-303.4-549.7z"/>
	<path class="st6" d="M-297.3-548.1c0.6,1.7,2.3,2.1,3.9,1.6c0.9-0.3,1.6-0.9,1.8-1.2l0.1,0.4l2.1-0.7l-1.5-4.3l-0.3-0.8
		c-0.7-1.9-2.3-2.7-4.4-1.9c-1.8,0.6-2.8,2.2-2.5,3.7l2.1-0.7c0-0.5,0.3-0.9,0.9-1.2c0.9-0.3,1.5,0.1,1.7,0.8l0.2,0.6
		c-0.4-0.1-1.3-0.1-2,0.2c-0.8,0.3-1.5,0.8-1.9,1.4C-297.4-549.7-297.5-548.9-297.3-548.1z M-293.4-548.3c-0.7,0.2-1.5,0.2-1.8-0.5
		c-0.2-0.7,0.4-1.2,1.1-1.5c0.6-0.2,1.4-0.2,1.7,0.2l0.2,0.6C-292.3-549-292.8-548.5-293.4-548.3z"/>
	<path class="st6" d="M-284.6-548.9c0.6-0.1,1.2-0.3,1.4-0.6l-0.4-2c-0.2,0.2-0.6,0.4-0.9,0.5c-0.6,0.1-1-0.1-1.1-0.8l-0.3-1.7
		l-0.4-2l1.8-0.4l-0.4-1.9l-1.8,0.4l-0.5-2.3l-2.3,0.5l0.5,2.3l-1.3,0.3l0.4,1.9l1.3-0.3l0.4,2l0.4,2
		C-287.5-549.1-286.3-548.5-284.6-548.9z"/>
	<path class="st6" d="M-278.9-549.6c1-0.1,1.8-0.6,2.2-1.1l0.1,0.8l2.3-0.2l-0.4-4.4l-0.3-4.1l-2.4,0.2l0.3,4l0.1,1.4
		c-0.1,0.8-0.7,1.2-1.4,1.3c-0.9,0.1-1.4-0.5-1.5-1.4l-0.1-1.1l-0.3-3.9l-2.3,0.2l0.3,4l0.1,1.5C-282-550.7-280.8-549.5-278.9-549.6
		z"/>
	<path class="st6" d="M-270.3-550l0.2-4.5l0-0.7c0.2-0.8,0.9-1.2,1.7-1.1c0.4,0,0.8,0.1,1.2,0.3l0.1-2.4c-0.1-0.1-0.5-0.2-0.9-0.2
		c-0.8,0-1.6,0.3-1.9,0.9l0-0.8l-2.4-0.1l-0.2,4l-0.2,4.5L-270.3-550z"/>
	<path class="st6" d="M-263.1-549c2.1,0.4,3.6-0.6,4.2-2.3l-2.2-0.4c-0.3,0.7-0.9,0.9-1.7,0.8c-1-0.2-1.6-1-1.5-2.3l5.6,1l0.1-0.7v0
		c0.4-2.5-0.6-4.4-3.1-4.8c-2.3-0.4-4.2,1.1-4.7,3.5c0,0.1,0,0.1-0.1,0.2C-266.8-551.5-265.5-549.4-263.1-549z M-261.9-555.9
		c1,0.2,1.4,0.9,1.2,1.8l-3.2-0.6C-263.6-555.6-262.8-556-261.9-555.9z"/>
	<path class="st6" d="M-255.1-547.1c0.9,0.3,1.8,0.1,2.3-0.2l-0.2,0.7l2.3,0.7l1.4-4.3l2.4-7.4l-2.3-0.7l-1.4,4.3
		c-0.2-0.6-0.9-1.2-1.7-1.5c-2.3-0.8-4.2,0.6-5,2.8c0,0.1-0.1,0.1-0.1,0.2C-258.1-550.2-257.4-547.8-255.1-547.1z M-252.4-553.4
		c0.6,0.2,1.1,0.8,1.2,1.4l-0.3,1l-0.6,1.7c-0.4,0.5-1.2,0.7-1.8,0.4c-1.2-0.4-1.6-1.6-1.2-2.9c0-0.1,0.1-0.2,0.1-0.3
		C-254.5-553.1-253.5-553.7-252.4-553.4z"/>
	<path class="st6" d="M-242.8-541.5c2.1,1.3,4.5,0.6,5.8-1.7c0.1-0.2,0.2-0.3,0.2-0.5c1-2.1,0.4-4.3-1.5-5.5c-2-1.2-4.3-0.6-5.6,1.4
		c-0.1,0.1-0.2,0.2-0.2,0.3C-245.4-545.2-244.9-542.8-242.8-541.5z M-239.3-547.5c0.9,0.5,1,1.5,0.6,2.5c-0.1,0.2-0.2,0.4-0.3,0.5
		c-0.7,1.2-1.8,1.8-2.8,1.2c-1-0.6-1-1.8-0.3-3c0.1-0.2,0.2-0.3,0.3-0.4C-241.1-547.6-240.2-548-239.3-547.5z"/>
	<path class="st6" d="M-236.4-537.4l3.1-3.8l0.3-0.3c0.6-0.5,1.4-0.4,1.9,0.1c0.7,0.6,0.7,1.3,0.1,2l0,0l-3.2,3.9l1.8,1.5l3.1-3.8
		l0.4-0.5c1.2-1.5,1.1-3.1-0.3-4.3c-0.8-0.6-1.7-0.8-2.4-0.7l0.5-0.6l-1.8-1.5l-2.3,2.8l-3,3.7L-236.4-537.4z"/>
	<path class="st4" d="M-267.6-527.5l2.1-2.1c1.6-1.6,1.6-4.2,0-5.8c-0.8-0.8-1.8-1.2-2.9-1.2c-1.1,0-2.1,0.4-2.9,1.2l-2.1,2.1
		l-2.1-2.1c-0.8-0.8-1.8-1.2-2.9-1.2c-1.1,0-2.1,0.4-2.9,1.2c-1.6,1.6-1.6,4.2,0,5.8l2.1,2.1c0,0,3.8,3.8,5.7,5.7
		C-271.4-523.7-267.6-527.5-267.6-527.5z"/>
	<path class="st6" d="M-274.6-518.8c0.3,0.3,0.8,0.5,1.3,0.5c0.5,0,0.9-0.2,1.3-0.5c1.1-1.1,6.6-6.6,6.6-6.6l0.4-0.4l1.8-1.8
		c2.8-2.8,2.8-7.3,0-10c-1.3-1.3-3.1-2.1-5-2.1c-1.9,0-3.6,0.7-5,2c-1.3-1.3-3.1-2-5-2c-1.9,0-3.7,0.7-5,2.1c-2.8,2.8-2.8,7.3,0,10
		l1.8,1.8l0.4,0.4C-281.2-525.4-275.7-519.9-274.6-518.8z M-279-527.5l-2.1-2.1c-1.6-1.6-1.6-4.2,0-5.8c0.8-0.8,1.8-1.2,2.9-1.2
		c1.1,0,2.1,0.4,2.9,1.2l2.1,2.1l2.1-2.1c0.8-0.8,1.8-1.2,2.9-1.2c1.1,0,2.1,0.4,2.9,1.2c1.6,1.6,1.6,4.2,0,5.8l-2.1,2.1
		c0,0-3.8,3.8-5.7,5.7C-275.2-523.7-279-527.5-279-527.5z"/>
	<path class="st6" d="M-291-448.6c0-4-2.8-6.6-7.4-6.6c-4.4,0-7.2,3.1-7.7,7.2h4.8c0.1-1.7,1.1-3.1,3-3.1c1.7,0,2.8,1.1,2.8,2.7
		c0,1.7-1.5,3.2-3.5,5.3l-0.7,0.7l-6.3,6.7v3h15.3v-4h-8.9l3.5-3.7l0.8-0.8C-293.1-443.7-291-445.9-291-448.6z"/>
	<path class="st6" d="M-272.1-449.3c-1.4-3.6-4.2-5.9-7.8-5.9c-2.8,0-5.1,1.3-6.6,3.6c-1.3,2-2.1,4.7-2.1,7.8c0,2.6,0.5,4.8,1.4,6.7
		c1.5,2.9,4.1,4.7,7.3,4.7c2.5,0,4.6-1.1,6.1-2.9c1.7-2,2.6-5,2.6-8.5C-271.1-445.9-271.4-447.7-272.1-449.3z M-279.8-451.1
		c1.3,0,2.2,0.6,2.9,1.6c0.9,1.3,1.3,3.4,1.3,5.7c0,4.1-1.3,7.3-4.2,7.3c-3,0-4.2-3.2-4.2-7.3c0-2.9,0.6-5.3,2-6.5
		C-281.4-450.8-280.7-451.1-279.8-451.1z"/>
	<path class="st6" d="M-258.7-441.3c2.3-2.4,4.4-4.5,4.4-7.3c0-2-0.7-3.6-1.9-4.7c-1.3-1.2-3.2-1.9-5.5-1.9c-3.8,0-6.5,2.3-7.4,5.7
		c-0.1,0.5-0.2,1-0.3,1.5h4.8c0.1-1.1,0.5-2,1.3-2.6c0.4-0.3,1-0.5,1.7-0.5c0,0,0,0,0,0c1.7,0,2.8,1.1,2.8,2.7
		c0,1.7-1.5,3.2-3.5,5.3l-7,7.4v0.3v2.7h15.3v-4h-7.1h-1.8L-258.7-441.3z"/>
	<polygon class="st6" points="-245.6,-454.9 -252.4,-451.5 -252.4,-447 -247.2,-449.6 -247.2,-442.3 -247.2,-432.8 -242.7,-432.8 
		-242.7,-445.1 -242.7,-454.9 	"/>
</g>
<g>
</g>
<g>
	<g>
		<circle cx="114.9" cy="98.5" r="96.5"/>
	</g>
	<g>
		<g>
			<g>
				<g>
					<path class="st6" d="M68.4,163.9c0,0,0.5-1,1-2.4c0.5-1.4,0.8-3.3,0.6-5.2c-0.1-0.8-0.3-1.5-0.6-2.2c-0.5-1.2-1.1-2.2-1.7-2.9
						c-0.3-0.3-0.5-0.6-0.7-0.8c-0.2-0.2-0.3-0.3-0.3-0.3s-0.7,0.9-1.3,2.2c-0.6,1.3-1.2,3.2-1,5.1c0.1,0.8,0.3,1.6,0.6,2.2
						C66.1,162.3,68.2,163.7,68.4,163.9c-0.2-0.2-2.3-1.5-5-2.1c-0.8-0.2-1.6-0.2-2.4-0.2c-2,0-3.8,0.8-5.1,1.5
						c-1.3,0.7-2.1,1.5-2.1,1.5s0.1,0.1,0.4,0.3c0.3,0.2,0.6,0.5,1.1,0.8c0.9,0.6,2.2,1.3,3.8,1.7c0.8,0.2,1.7,0.3,2.5,0.3
						c2.1-0.1,3.8-1.1,5-1.9C67.7,164.7,68.4,163.9,68.4,163.9z"/>
				</g>
				<g>
					<path class="st6" d="M42.2,138.6c1.5-0.3,2.5-0.7,2.5-0.7s0.9-0.6,1.9-1.7c0.5-0.5,1-1.2,1.5-1.9c0.5-0.7,0.9-1.6,1.2-2.5
						c0.2-0.7,0.4-1.5,0.4-2.2c0.1-1.3-0.1-2.5-0.3-3.4c-0.1-0.4-0.2-0.8-0.3-1c-0.1-0.3-0.1-0.4-0.1-0.4s-1,0.5-2.1,1.4
						c-0.6,0.5-1.2,1.1-1.8,1.7c-0.6,0.7-1,1.5-1.4,2.4c-0.3,0.8-0.4,1.5-0.4,2.3c0,1.3,0.3,2.6,0.6,3.5c0.3,0.9,0.7,1.5,0.7,1.6
						c-0.1-0.1-0.4-0.7-1-1.5c-0.6-0.8-1.4-1.8-2.6-2.6c-0.6-0.5-1.3-0.9-2-1.3c-0.9-0.4-1.9-0.6-2.8-0.8c-0.9-0.1-1.8-0.1-2.5-0.1
						c-1.5,0.1-2.6,0.4-2.6,0.4s0.1,0.2,0.2,0.5c0.1,0.3,0.3,0.7,0.6,1.2c0.6,1,1.5,2.2,2.7,3.2c0.7,0.5,1.4,1,2.2,1.3
						c1,0.4,1.9,0.6,2.8,0.6C40.6,138.8,41.5,138.7,42.2,138.6z"/>
				</g>
				<g>
					<path class="st6" d="M48.9,148.8c1.4-0.5,2.3-1.1,2.3-1.1s0.8-0.8,1.6-2c0.9-1.2,1.8-2.9,2.1-4.8c0.2-0.9,0.1-1.8,0-2.6
						c-0.1-0.8-0.3-1.6-0.5-2.2c-0.4-1.2-0.9-2-0.9-2s-0.9,0.6-1.9,1.7c-1,1.1-2.1,2.6-2.5,4.5c-0.4,1.9,0.1,3.6,0.6,4.9
						c0.3,0.7,0.6,1.2,0.8,1.6c0.3,0.4,0.4,0.6,0.5,0.7c-0.2-0.2-2.7-3.4-6.4-4.4c-1.9-0.5-3.9-0.4-5.4-0.1
						c-1.5,0.3-2.5,0.8-2.5,0.8s0.6,1.1,1.7,2.2c0.6,0.6,1.3,1.2,2.1,1.8c0.8,0.5,1.8,1,2.7,1.2C45.6,149.7,47.5,149.3,48.9,148.8z"
						/>
				</g>
				<g>
					<path class="st6" d="M57.1,157.9c1.3-0.7,2.1-1.4,2.1-1.4s0.7-0.9,1.3-2.2c0.3-0.7,0.7-1.4,0.9-2.3c0.1-0.4,0.2-0.9,0.3-1.3
						c0.1-0.5,0.1-0.9,0.1-1.4c0-0.9-0.1-1.8-0.3-2.6c-0.2-0.8-0.5-1.5-0.8-2.1c-0.3-0.6-0.6-1-0.8-1.4c-0.2-0.3-0.4-0.5-0.4-0.5
						s-0.8,0.7-1.6,2c-0.8,1.2-1.7,2.9-1.8,4.9c0,0.5,0,0.9,0.1,1.4c0.1,0.4,0.2,0.9,0.3,1.3c0.3,0.8,0.6,1.5,1,2.2
						c0.8,1.2,1.6,2,1.7,2.1c-0.1-0.1-0.9-0.8-2.2-1.6c-0.6-0.4-1.3-0.8-2.1-1.1c-0.4-0.2-0.8-0.3-1.3-0.4c-0.4-0.1-0.9-0.2-1.4-0.3
						c-2-0.2-3.9,0.2-5.3,0.7c-1.4,0.5-2.3,1.1-2.3,1.1s0.2,0.2,0.5,0.6c0.4,0.4,0.9,0.8,1.5,1.3c0.7,0.5,1.4,1,2.3,1.4
						c0.9,0.4,1.9,0.7,2.9,0.8c0.5,0.1,1,0,1.5,0c0.5,0,1-0.1,1.4-0.3C55.6,158.5,56.4,158.2,57.1,157.9z"/>
				</g>
				<g>
					<path class="st6" d="M27.4,101c1.4,1.5,3.1,2.3,4.6,2.7c1.5,0.4,2.6,0.4,2.6,0.4s1.1-0.2,2.5-0.7c1.4-0.5,3.1-1.4,4.4-2.7
						c0.5-0.6,1-1.2,1.3-1.8c0.7-1.1,1-2.3,1.2-3.2c0.1-0.4,0.2-0.8,0.2-1c0-0.3,0-0.4,0-0.4s-1.1,0-2.5,0.3c-1.5,0.3-3.2,1-4.6,2.4
						c-0.6,0.6-1,1.2-1.4,1.9c-0.6,1.2-0.9,2.4-1,3.4c-0.2,1-0.1,1.7-0.1,1.8c0-0.1-0.1-0.8-0.3-1.8c-0.2-1-0.5-2.2-1.2-3.4
						c-0.3-0.7-0.8-1.4-1.3-2c-1.3-1.5-3-2.5-4.4-3.1C26,93.2,25,93,25,93s0,0.2,0,0.5c0,0.3,0,0.8,0.1,1.3c0.1,1.1,0.4,2.6,1,4
						C26.4,99.6,26.9,100.3,27.4,101z"/>
				</g>
				<g>
					<path class="st6" d="M28.7,113.8c1.6,1.3,3.5,1.8,5,2c1.5,0.2,2.6,0,2.6,0s1-0.3,2.3-1.1c1.3-0.7,2.9-1.8,4-3.4
						c1-1.5,1.5-3.2,1.7-4.5c0-0.3,0.1-0.6,0.1-0.9c0-0.3,0-0.5,0-0.7c0-0.4,0-0.6,0-0.6s-1.1,0.2-2.5,0.7c-0.7,0.3-1.5,0.6-2.2,1.1
						c-0.7,0.5-1.4,1.1-2,1.9c-0.6,0.8-0.9,1.6-1.2,2.4c-0.2,0.8-0.3,1.6-0.4,2.3c0,0.7,0,1.4,0,1.8c0.1,0.5,0.1,0.8,0.1,0.8
						c0-0.1-0.1-0.4-0.2-0.8c-0.1-0.5-0.3-1.1-0.6-1.7c-0.3-0.7-0.7-1.4-1.2-2.1c-0.5-0.7-1-1.5-1.8-2.1c-0.8-0.7-1.6-1.2-2.4-1.6
						c-0.8-0.4-1.6-0.7-2.4-0.8c-1.5-0.4-2.6-0.4-2.6-0.4s0,0.3,0.1,0.8c0,0.3,0.1,0.5,0.2,0.9c0.1,0.3,0.2,0.7,0.3,1.1
						C26.2,110.6,27.1,112.5,28.7,113.8z"/>
				</g>
				<g>
					<path class="st6" d="M37.1,127.5c1.5-0.1,2.6-0.4,2.6-0.4s1-0.5,2.2-1.4c1.2-0.9,2.6-2.3,3.4-3.9c0.4-0.8,0.6-1.7,0.8-2.5
						c0.2-0.8,0.2-1.6,0.2-2.2c0-0.3,0-0.6-0.1-0.9c0-0.3,0-0.5-0.1-0.7c0-0.4-0.1-0.6-0.1-0.6s-1,0.3-2.3,1.1
						c-0.6,0.4-1.4,0.8-2,1.4c-0.6,0.6-1.2,1.3-1.7,2.2c-0.4,0.8-0.7,1.7-0.8,2.5c-0.1,0.8-0.1,1.7,0,2.4c0.1,1.4,0.5,2.5,0.6,2.6
						c-0.1-0.1-0.5-1.1-1.2-2.4c-0.4-0.6-0.9-1.3-1.5-1.9c-0.6-0.7-1.2-1.3-2.1-1.8c-0.8-0.5-1.8-0.9-2.6-1.2
						c-0.9-0.3-1.7-0.4-2.5-0.5c-1.5-0.1-2.6,0-2.6,0s0.1,0.3,0.2,0.8c0.1,0.2,0.2,0.5,0.3,0.8c0.1,0.3,0.3,0.7,0.5,1
						c0.4,0.7,0.9,1.5,1.5,2.3c0.6,0.8,1.4,1.4,2.3,2C33.6,127.4,35.5,127.6,37.1,127.5z"/>
				</g>
				<g>
					<path class="st6" d="M36.3,66c0.5,0.7,1.2,1.4,1.7,1.8c1.1,1,2.1,1.5,2.1,1.5s1.1,0.3,2.5,0.4c0.7,0.1,1.6,0.1,2.5,0
						c0.9-0.1,1.8-0.2,2.7-0.6c0.7-0.3,1.4-0.6,1.9-1c1.1-0.7,1.9-1.6,2.4-2.3c0.3-0.4,0.5-0.6,0.6-0.9c0.1-0.2,0.2-0.3,0.2-0.3
						s-1-0.5-2.4-0.8c-0.7-0.2-1.6-0.3-2.5-0.3c-0.9,0-1.8,0.1-2.7,0.4c-0.8,0.3-1.5,0.7-2.1,1.1c-1.1,0.8-1.9,1.8-2.4,2.6
						c-0.5,0.8-0.8,1.5-0.8,1.6c0.1-0.1,0.3-0.8,0.5-1.7c0.3-1,0.5-2.2,0.4-3.6c0-0.8-0.1-1.6-0.3-2.4c-0.2-1-0.7-1.9-1.1-2.7
						c-0.5-0.8-1-1.5-1.5-2c-1-1.1-1.9-1.8-1.9-1.8s-0.1,0.2-0.2,0.5c-0.1,0.3-0.4,0.7-0.5,1.2c-0.4,1.1-0.8,2.5-0.8,4.1
						c0,0.8,0.1,1.7,0.3,2.5C35.3,64.4,35.8,65.2,36.3,66z"/>
				</g>
				<g>
					<path class="st6" d="M30.6,75.5c0.4,0.9,1,1.7,1.6,2.4c0.7,0.7,1.4,1.2,2,1.6c1.3,0.8,2.3,1.1,2.3,1.1s1.1,0.1,2.6,0
						c0.7,0,1.6-0.2,2.4-0.4c0.9-0.2,1.8-0.5,2.6-1c0.8-0.4,1.5-1,2.1-1.6c0.6-0.6,1-1.2,1.4-1.7c0.4-0.5,0.6-1,0.8-1.4
						c0.2-0.4,0.3-0.6,0.3-0.6s-1-0.3-2.5-0.4c-1.5-0.1-3.4,0-5.1,0.9c-0.8,0.4-1.6,1-2.1,1.6c-0.6,0.6-1,1.3-1.4,1.9
						c-0.7,1.3-0.9,2.3-1,2.5c0.1-0.1,0.2-1.2,0.3-2.7c0-0.7,0-1.5-0.1-2.4c-0.1-0.9-0.3-1.8-0.7-2.7c-0.8-1.8-2.2-3.3-3.3-4.2
						c-1.2-1-2.1-1.5-2.1-1.5s-0.1,0.3-0.3,0.8c-0.2,0.5-0.3,1.2-0.4,2c-0.1,0.8-0.2,1.8-0.1,2.7C29.9,73.6,30.2,74.6,30.6,75.5z"/>
				</g>
				<g>
					<path class="st6" d="M26.9,85.4c0.2,0.9,0.6,1.9,1.2,2.8c0.6,0.9,1.3,1.6,2,2.1c0.7,0.5,1.5,1,2.2,1.3c1.4,0.6,2.5,0.8,2.5,0.8
						s1.1,0,2.5-0.3c0.7-0.2,1.5-0.4,2.4-0.7c0.8-0.3,1.7-0.8,2.4-1.3c0.7-0.6,1.3-1.2,1.8-1.9c0.5-0.7,0.9-1.3,1.1-1.9
						c0.5-1.2,0.7-2.1,0.7-2.1s-1.1-0.2-2.6,0c-1.5,0.1-3.3,0.5-4.9,1.7c-0.7,0.6-1.4,1.2-1.8,1.9c-0.5,0.7-0.8,1.5-1.1,2.1
						c-0.5,1.3-0.6,2.5-0.6,2.6c0-0.2,0-1.2-0.1-2.7c-0.1-0.7-0.2-1.5-0.5-2.4c-0.3-0.8-0.6-1.7-1.1-2.5c-1-1.7-2.6-2.9-3.9-3.7
						c-1.3-0.8-2.3-1.1-2.3-1.1s-0.3,1.2-0.2,2.8C26.6,83.5,26.7,84.4,26.9,85.4z"/>
				</g>
				<g>
					<path class="st6" d="M60.2,40.3c0,0,0.8,0.7,2.1,1.5c1.3,0.8,3,1.6,4.9,1.7c0.8,0,1.5,0,2.2-0.1c1.3-0.2,2.4-0.7,3.2-1
						c0.8-0.4,1.3-0.7,1.3-0.7s-0.7-0.9-1.9-1.8c-1.2-0.9-2.8-1.9-4.7-2.1c-0.8-0.1-1.6,0-2.3,0.1c-1.3,0.2-2.5,0.8-3.3,1.3
						C60.9,39.8,60.3,40.2,60.2,40.3c0.1-0.1,0.6-0.6,1.2-1.3c0.6-0.8,1.4-1.8,1.9-3.1c0.3-0.7,0.6-1.5,0.7-2.3
						c0.4-2,0.1-3.9-0.3-5.4c-0.4-1.5-0.9-2.4-0.9-2.4s-0.6,0.4-1.4,1.2c-0.8,0.7-1.8,1.9-2.5,3.3c-0.4,0.7-0.7,1.5-0.8,2.4
						c-0.3,2.1,0.2,3.9,0.8,5.3C59.6,39.5,60.2,40.3,60.2,40.3z"/>
				</g>
				<g>
					<path class="st6" d="M52.1,49c0,0,0.9,0.6,2.3,1.2c1.4,0.6,3.2,1.1,5.1,1c0.5,0,0.9-0.1,1.3-0.2c0.4-0.1,0.8-0.2,1.2-0.3
						c0.8-0.3,1.4-0.6,2-1c0.6-0.3,1-0.7,1.3-0.9c0.3-0.2,0.5-0.4,0.5-0.4s-0.8-0.7-2.1-1.5c-0.6-0.4-1.4-0.7-2.3-1
						c-0.4-0.1-0.9-0.3-1.3-0.3c-0.5-0.1-0.9-0.1-1.4-0.1c-0.9,0-1.8,0.3-2.6,0.6c-0.8,0.3-1.5,0.7-2.1,1.2
						C52.9,48,52.2,48.8,52.1,49c0.1-0.1,0.8-1,1.5-2.3c0.3-0.6,0.7-1.4,0.9-2.2c0.3-0.8,0.5-1.7,0.5-2.7c0-0.5,0-1-0.1-1.5
						c-0.1-0.5-0.1-0.9-0.2-1.4c-0.2-0.9-0.5-1.7-0.8-2.4c-0.6-1.4-1.3-2.2-1.3-2.2s-0.2,0.2-0.6,0.6c-0.3,0.4-0.8,0.9-1.2,1.6
						c-0.4,0.7-0.9,1.5-1.2,2.4c-0.2,0.5-0.3,0.9-0.4,1.4c-0.1,0.5-0.2,1-0.2,1.5c0,2.1,0.8,3.8,1.5,5.1C51.3,48.2,52.1,49,52.1,49z
						"/>
				</g>
				<g>
					<path class="st6" d="M43.5,56.9c1,1.1,1.9,1.8,1.9,1.8s1,0.5,2.4,0.8c1.4,0.3,3.4,0.6,5.2,0.2c1.8-0.4,3.3-1.3,4.3-2.1
						c0.5-0.4,0.9-0.8,1.2-1.1c0.3-0.3,0.4-0.5,0.4-0.5s-0.9-0.6-2.3-1.2c-1.4-0.5-3.3-1-5.1-0.7c-0.9,0.2-1.7,0.5-2.5,0.9
						c-0.7,0.4-1.3,1-1.9,1.5c-0.5,0.5-0.9,1-1.2,1.4c-0.3,0.4-0.4,0.7-0.5,0.7c0-0.1,0.2-0.3,0.4-0.8c0.2-0.4,0.5-1,0.7-1.7
						c0.2-0.7,0.5-1.5,0.6-2.3c0.2-0.9,0.2-1.8,0.1-2.7c-0.2-2-1.1-3.8-1.9-5c-0.8-1.3-1.6-2-1.6-2s-0.2,0.2-0.5,0.7
						c-0.3,0.4-0.7,1-1,1.8c-0.7,1.5-1.3,3.5-1,5.6C41.5,54.1,42.5,55.7,43.5,56.9z"/>
				</g>
				<g>
					<path class="st6" d="M69.6,33c0,0,0.7,0.8,1.9,1.8c1.2,0.9,2.8,2,4.6,2.4c0.9,0.2,1.8,0.3,2.6,0.3c0.8,0,1.5-0.2,2.2-0.3
						c1.3-0.3,2.1-0.7,2.1-0.7s-0.6-0.9-1.6-2c-1-1.1-2.5-2.3-4.4-2.8c-0.9-0.2-1.8-0.3-2.6-0.2c-0.9,0.1-1.7,0.2-2.3,0.5
						C70.6,32.4,69.7,33,69.6,33c0.1-0.1,1.1-0.7,2.1-1.7c0.5-0.5,1.1-1.1,1.6-1.8c0.5-0.7,0.9-1.5,1.3-2.4c0.7-1.9,0.7-3.8,0.5-5.3
						c-0.2-1.5-0.6-2.5-0.6-2.5s-1.1,0.5-2.4,1.6c-0.6,0.5-1.3,1.2-1.9,1.9c-0.6,0.8-1.1,1.6-1.4,2.6c-0.6,2-0.4,3.9,0,5.4
						C69,32.1,69.6,33,69.6,33z"/>
				</g>
			</g>
			<g>
				<g>
					<path class="st6" d="M161.4,163.9c0,0-0.5-1-1-2.4c-0.5-1.4-0.8-3.3-0.6-5.2c0.1-0.8,0.3-1.5,0.6-2.2c0.5-1.2,1.1-2.2,1.7-2.9
						c0.3-0.3,0.5-0.6,0.7-0.8c0.2-0.2,0.3-0.3,0.3-0.3s0.7,0.9,1.3,2.2c0.6,1.3,1.2,3.2,1,5.1c-0.1,0.8-0.3,1.6-0.6,2.2
						C163.7,162.3,161.6,163.7,161.4,163.9c0.2-0.2,2.3-1.5,5-2.1c0.8-0.2,1.6-0.2,2.4-0.2c2,0,3.8,0.8,5.1,1.5
						c1.3,0.7,2.1,1.5,2.1,1.5s-0.1,0.1-0.4,0.3c-0.3,0.2-0.6,0.5-1.1,0.8c-0.9,0.6-2.2,1.3-3.8,1.7c-0.8,0.2-1.7,0.3-2.5,0.3
						c-2.1-0.1-3.8-1.1-5-1.9C162.1,164.7,161.4,163.9,161.4,163.9z"/>
				</g>
				<g>
					<path class="st6" d="M187.6,138.6c-1.5-0.3-2.5-0.7-2.5-0.7s-0.9-0.6-1.9-1.7c-0.5-0.5-1-1.2-1.5-1.9c-0.5-0.7-0.9-1.6-1.2-2.5
						c-0.2-0.7-0.4-1.5-0.4-2.2c-0.1-1.3,0.1-2.5,0.3-3.4c0.1-0.4,0.2-0.8,0.3-1c0.1-0.3,0.1-0.4,0.1-0.4s1,0.5,2.1,1.4
						c0.6,0.5,1.2,1.1,1.8,1.7c0.6,0.7,1,1.5,1.4,2.4c0.3,0.8,0.4,1.5,0.4,2.3c0,1.3-0.3,2.6-0.6,3.5c-0.3,0.9-0.7,1.5-0.7,1.6
						c0.1-0.1,0.4-0.7,1-1.5c0.6-0.8,1.4-1.8,2.6-2.6c0.6-0.5,1.3-0.9,2-1.3c0.9-0.4,1.9-0.6,2.8-0.8c0.9-0.1,1.8-0.1,2.5-0.1
						c1.5,0.1,2.6,0.4,2.6,0.4s-0.1,0.2-0.2,0.5c-0.1,0.3-0.3,0.7-0.6,1.2c-0.6,1-1.5,2.2-2.7,3.2c-0.7,0.5-1.4,1-2.2,1.3
						c-1,0.4-1.9,0.6-2.8,0.6C189.2,138.8,188.3,138.7,187.6,138.6z"/>
				</g>
				<g>
					<path class="st6" d="M180.9,148.8c-1.4-0.5-2.3-1.1-2.3-1.1s-0.8-0.8-1.6-2c-0.9-1.2-1.8-2.9-2.1-4.8c-0.2-0.9-0.1-1.8,0-2.6
						c0.1-0.8,0.3-1.6,0.5-2.2c0.4-1.2,0.9-2,0.9-2s0.9,0.6,1.9,1.7c1,1.1,2.1,2.6,2.5,4.5c0.4,1.9-0.1,3.6-0.6,4.9
						c-0.3,0.7-0.6,1.2-0.8,1.6c-0.3,0.4-0.4,0.6-0.5,0.7c0.2-0.2,2.7-3.4,6.4-4.4c1.9-0.5,3.9-0.4,5.4-0.1c1.5,0.3,2.5,0.8,2.5,0.8
						s-0.6,1.1-1.7,2.2c-0.6,0.6-1.3,1.2-2.1,1.8c-0.8,0.5-1.8,1-2.7,1.2C184.2,149.7,182.3,149.3,180.9,148.8z"/>
				</g>
				<g>
					<path class="st6" d="M172.7,157.9c-1.3-0.7-2.1-1.4-2.1-1.4s-0.7-0.9-1.3-2.2c-0.3-0.7-0.7-1.4-0.9-2.3
						c-0.1-0.4-0.2-0.9-0.3-1.3c-0.1-0.5-0.1-0.9-0.1-1.4c0-0.9,0.1-1.8,0.3-2.6c0.2-0.8,0.5-1.5,0.8-2.1c0.3-0.6,0.6-1,0.8-1.4
						c0.2-0.3,0.4-0.5,0.4-0.5s0.8,0.7,1.6,2c0.8,1.2,1.7,2.9,1.8,4.9c0,0.5,0,0.9-0.1,1.4c-0.1,0.4-0.2,0.9-0.3,1.3
						c-0.3,0.8-0.6,1.5-1,2.2c-0.8,1.2-1.6,2-1.7,2.1c0.1-0.1,0.9-0.8,2.2-1.6c0.6-0.4,1.3-0.8,2.1-1.1c0.4-0.2,0.8-0.3,1.3-0.4
						c0.4-0.1,0.9-0.2,1.4-0.3c2-0.2,3.9,0.2,5.3,0.7c1.4,0.5,2.3,1.1,2.3,1.1s-0.2,0.2-0.5,0.6c-0.4,0.4-0.9,0.8-1.5,1.3
						c-0.7,0.5-1.4,1-2.3,1.4c-0.9,0.4-1.9,0.7-2.9,0.8c-0.5,0.1-1,0-1.5,0c-0.5,0-1-0.1-1.4-0.3
						C174.2,158.5,173.4,158.2,172.7,157.9z"/>
				</g>
				<g>
					<path class="st6" d="M202.4,101c-1.4,1.5-3.1,2.3-4.6,2.7c-1.5,0.4-2.6,0.4-2.6,0.4s-1.1-0.2-2.5-0.7c-1.4-0.5-3.1-1.4-4.4-2.7
						c-0.5-0.6-1-1.2-1.3-1.8c-0.7-1.1-1-2.3-1.2-3.2c-0.1-0.4-0.2-0.8-0.2-1c0-0.3,0-0.4,0-0.4s1.1,0,2.5,0.3
						c1.5,0.3,3.2,1,4.6,2.4c0.6,0.6,1,1.2,1.4,1.9c0.6,1.2,0.9,2.4,1,3.4c0.2,1,0.1,1.7,0.1,1.8c0-0.1,0.1-0.8,0.3-1.8
						c0.2-1,0.5-2.2,1.2-3.4c0.3-0.7,0.8-1.4,1.3-2c1.3-1.5,3-2.5,4.4-3.1c1.4-0.6,2.5-0.8,2.5-0.8s0,0.2,0,0.5c0,0.3,0,0.8-0.1,1.3
						c-0.1,1.1-0.4,2.6-1,4C203.4,99.6,203,100.3,202.4,101z"/>
				</g>
				<g>
					<path class="st6" d="M201.1,113.8c-1.6,1.3-3.5,1.8-5,2c-1.5,0.2-2.6,0-2.6,0s-1-0.3-2.3-1.1c-1.3-0.7-2.9-1.8-4-3.4
						c-1-1.5-1.5-3.2-1.7-4.5c0-0.3-0.1-0.6-0.1-0.9c0-0.3,0-0.5,0-0.7c0-0.4,0-0.6,0-0.6s1.1,0.2,2.5,0.7c0.7,0.3,1.5,0.6,2.2,1.1
						c0.7,0.5,1.4,1.1,2,1.9c0.6,0.8,0.9,1.6,1.2,2.4c0.2,0.8,0.3,1.6,0.4,2.3c0,0.7,0,1.4,0,1.8c-0.1,0.5-0.1,0.8-0.1,0.8
						c0-0.1,0.1-0.4,0.2-0.8c0.1-0.5,0.3-1.1,0.6-1.7c0.3-0.7,0.7-1.4,1.2-2.1c0.5-0.7,1-1.5,1.8-2.1c0.8-0.7,1.6-1.2,2.4-1.6
						c0.8-0.4,1.6-0.7,2.4-0.8c1.5-0.4,2.6-0.4,2.6-0.4s0,0.3-0.1,0.8c0,0.3-0.1,0.5-0.2,0.9c-0.1,0.3-0.2,0.7-0.3,1.1
						C203.6,110.6,202.7,112.5,201.1,113.8z"/>
				</g>
				<g>
					<path class="st6" d="M192.7,127.5c-1.5-0.1-2.6-0.4-2.6-0.4s-1-0.5-2.2-1.4c-1.2-0.9-2.6-2.3-3.4-3.9c-0.4-0.8-0.6-1.7-0.8-2.5
						c-0.2-0.8-0.2-1.6-0.2-2.2c0-0.3,0-0.6,0.1-0.9c0-0.3,0-0.5,0.1-0.7c0-0.4,0.1-0.6,0.1-0.6s1,0.3,2.3,1.1
						c0.6,0.4,1.4,0.8,2,1.4c0.6,0.6,1.2,1.3,1.7,2.2c0.4,0.8,0.7,1.7,0.8,2.5c0.1,0.8,0.1,1.7,0,2.4c-0.1,1.4-0.5,2.5-0.6,2.6
						c0.1-0.1,0.5-1.1,1.2-2.4c0.4-0.6,0.9-1.3,1.5-1.9c0.6-0.7,1.2-1.3,2.1-1.8c0.8-0.5,1.8-0.9,2.6-1.2c0.9-0.3,1.7-0.4,2.5-0.5
						c1.5-0.1,2.6,0,2.6,0s-0.1,0.3-0.2,0.8c-0.1,0.2-0.2,0.5-0.3,0.8c-0.1,0.3-0.3,0.7-0.5,1c-0.4,0.7-0.9,1.5-1.5,2.3
						c-0.6,0.8-1.4,1.4-2.3,2C196.2,127.4,194.3,127.6,192.7,127.5z"/>
				</g>
				<g>
					<path class="st6" d="M193.5,66c-0.5,0.7-1.2,1.4-1.7,1.8c-1.1,1-2.1,1.5-2.1,1.5s-1.1,0.3-2.5,0.4c-0.7,0.1-1.6,0.1-2.5,0
						c-0.9-0.1-1.8-0.2-2.7-0.6c-0.7-0.3-1.4-0.6-1.9-1c-1.1-0.7-1.9-1.6-2.4-2.3c-0.3-0.4-0.5-0.6-0.6-0.9
						c-0.1-0.2-0.2-0.3-0.2-0.3s1-0.5,2.4-0.8c0.7-0.2,1.6-0.3,2.5-0.3c0.9,0,1.8,0.1,2.7,0.4c0.8,0.3,1.5,0.7,2.1,1.1
						c1.1,0.8,1.9,1.8,2.4,2.6c0.5,0.8,0.8,1.5,0.8,1.6c-0.1-0.1-0.3-0.8-0.5-1.7c-0.3-1-0.5-2.2-0.4-3.6c0-0.8,0.1-1.6,0.3-2.4
						c0.2-1,0.7-1.9,1.1-2.7c0.5-0.8,1-1.5,1.5-2c1-1.1,1.9-1.8,1.9-1.8s0.1,0.2,0.2,0.5c0.1,0.3,0.4,0.7,0.5,1.2
						c0.4,1.1,0.8,2.5,0.8,4.1c0,0.8-0.1,1.7-0.3,2.5C194.5,64.4,194.1,65.2,193.5,66z"/>
				</g>
				<g>
					<path class="st6" d="M199.2,75.5c-0.4,0.9-1,1.7-1.6,2.4c-0.7,0.7-1.4,1.2-2,1.6c-1.3,0.8-2.3,1.1-2.3,1.1s-1.1,0.1-2.6,0
						c-0.7,0-1.6-0.2-2.4-0.4c-0.9-0.2-1.8-0.5-2.6-1c-0.8-0.4-1.5-1-2.1-1.6c-0.6-0.6-1-1.2-1.4-1.7c-0.4-0.5-0.6-1-0.8-1.4
						c-0.2-0.4-0.3-0.6-0.3-0.6s1-0.3,2.5-0.4c1.5-0.1,3.4,0,5.1,0.9c0.8,0.4,1.6,1,2.1,1.6c0.6,0.6,1,1.3,1.4,1.9
						c0.7,1.3,0.9,2.3,1,2.5c-0.1-0.1-0.2-1.2-0.3-2.7c0-0.7,0-1.5,0.1-2.4c0.1-0.9,0.3-1.8,0.7-2.7c0.8-1.8,2.2-3.3,3.3-4.2
						c1.2-1,2.1-1.5,2.1-1.5s0.1,0.3,0.3,0.8c0.2,0.5,0.3,1.2,0.4,2c0.1,0.8,0.2,1.8,0.1,2.7C199.9,73.6,199.6,74.6,199.2,75.5z"/>
				</g>
				<g>
					<path class="st6" d="M202.9,85.4c-0.2,0.9-0.6,1.9-1.2,2.8c-0.6,0.9-1.3,1.6-2,2.1c-0.7,0.5-1.5,1-2.2,1.3
						c-1.4,0.6-2.5,0.8-2.5,0.8s-1.1,0-2.5-0.3c-0.7-0.2-1.5-0.4-2.4-0.7c-0.8-0.3-1.7-0.8-2.4-1.3c-0.7-0.6-1.3-1.2-1.8-1.9
						c-0.5-0.7-0.9-1.3-1.1-1.9c-0.5-1.2-0.7-2.1-0.7-2.1s1.1-0.2,2.6,0c1.5,0.1,3.3,0.5,4.9,1.7c0.7,0.6,1.4,1.2,1.8,1.9
						c0.5,0.7,0.8,1.5,1.1,2.1c0.5,1.3,0.6,2.5,0.6,2.6c0-0.2,0-1.2,0.1-2.7c0.1-0.7,0.2-1.5,0.5-2.4c0.3-0.8,0.6-1.7,1.1-2.5
						c1-1.7,2.6-2.9,3.9-3.7c1.3-0.8,2.3-1.1,2.3-1.1s0.3,1.2,0.2,2.8C203.2,83.5,203.1,84.4,202.9,85.4z"/>
				</g>
				<g>
					<path class="st6" d="M169.6,40.3c0,0-0.8,0.7-2.1,1.5c-1.3,0.8-3,1.6-4.9,1.7c-0.8,0-1.5,0-2.2-0.1c-1.3-0.2-2.4-0.7-3.2-1
						c-0.8-0.4-1.3-0.7-1.3-0.7s0.7-0.9,1.9-1.8c1.2-0.9,2.8-1.9,4.7-2.1c0.8-0.1,1.6,0,2.3,0.1c1.3,0.2,2.5,0.8,3.3,1.3
						C168.9,39.8,169.5,40.2,169.6,40.3c-0.1-0.1-0.6-0.6-1.2-1.3c-0.6-0.8-1.4-1.8-1.9-3.1c-0.3-0.7-0.6-1.5-0.7-2.3
						c-0.4-2-0.1-3.9,0.3-5.4c0.4-1.5,0.9-2.4,0.9-2.4s0.6,0.4,1.4,1.2c0.8,0.7,1.8,1.9,2.5,3.3c0.4,0.7,0.7,1.5,0.8,2.4
						c0.3,2.1-0.2,3.9-0.8,5.3C170.2,39.5,169.6,40.3,169.6,40.3z"/>
				</g>
				<g>
					<path class="st6" d="M177.7,49c0,0-0.9,0.6-2.3,1.2c-1.4,0.6-3.2,1.1-5.1,1c-0.5,0-0.9-0.1-1.3-0.2c-0.4-0.1-0.8-0.2-1.2-0.3
						c-0.8-0.3-1.4-0.6-2-1c-0.6-0.3-1-0.7-1.3-0.9c-0.3-0.2-0.5-0.4-0.5-0.4s0.8-0.7,2.1-1.5c0.6-0.4,1.4-0.7,2.3-1
						c0.4-0.1,0.9-0.3,1.3-0.3c0.5-0.1,0.9-0.1,1.4-0.1c0.9,0,1.8,0.3,2.6,0.6c0.8,0.3,1.5,0.7,2.1,1.2
						C176.9,48,177.6,48.8,177.7,49c-0.1-0.1-0.8-1-1.5-2.3c-0.3-0.6-0.7-1.4-0.9-2.2c-0.3-0.8-0.5-1.7-0.5-2.7c0-0.5,0-1,0.1-1.5
						c0.1-0.5,0.1-0.9,0.2-1.4c0.2-0.9,0.5-1.7,0.8-2.4c0.6-1.4,1.3-2.2,1.3-2.2s0.2,0.2,0.6,0.6c0.3,0.4,0.8,0.9,1.2,1.6
						c0.4,0.7,0.9,1.5,1.2,2.4c0.2,0.5,0.3,0.9,0.4,1.4c0.1,0.5,0.2,1,0.2,1.5c0,2.1-0.8,3.8-1.5,5.1C178.5,48.2,177.7,49,177.7,49z
						"/>
				</g>
				<g>
					<path class="st6" d="M186.3,56.9c-1,1.1-1.9,1.8-1.9,1.8s-1,0.5-2.4,0.8c-1.4,0.3-3.4,0.6-5.2,0.2c-1.8-0.4-3.3-1.3-4.3-2.1
						c-0.5-0.4-0.9-0.8-1.2-1.1c-0.3-0.3-0.4-0.5-0.4-0.5s0.9-0.6,2.3-1.2c1.4-0.5,3.3-1,5.1-0.7c0.9,0.2,1.7,0.5,2.5,0.9
						c0.7,0.4,1.3,1,1.9,1.5c0.5,0.5,0.9,1,1.2,1.4c0.3,0.4,0.4,0.7,0.5,0.7c0-0.1-0.2-0.3-0.4-0.8c-0.2-0.4-0.5-1-0.7-1.7
						c-0.2-0.7-0.5-1.5-0.6-2.3c-0.2-0.9-0.2-1.8-0.1-2.7c0.2-2,1.1-3.8,1.9-5c0.8-1.3,1.6-2,1.6-2s0.2,0.2,0.5,0.7
						c0.3,0.4,0.7,1,1,1.8c0.7,1.5,1.3,3.5,1,5.6C188.3,54.1,187.3,55.7,186.3,56.9z"/>
				</g>
				<g>
					<path class="st6" d="M160.3,33c0,0-0.7,0.8-1.9,1.8c-1.2,0.9-2.8,2-4.6,2.4c-0.9,0.2-1.8,0.3-2.6,0.3c-0.8,0-1.5-0.2-2.2-0.3
						c-1.3-0.3-2.1-0.7-2.1-0.7s0.6-0.9,1.6-2c1-1.1,2.5-2.3,4.4-2.8c0.9-0.2,1.8-0.3,2.6-0.2c0.9,0.1,1.7,0.2,2.3,0.5
						C159.2,32.4,160.1,33,160.3,33c-0.1-0.1-1.1-0.7-2.1-1.7c-0.5-0.5-1.1-1.1-1.6-1.8c-0.5-0.7-0.9-1.5-1.3-2.4
						c-0.7-1.9-0.7-3.8-0.5-5.3c0.2-1.5,0.6-2.5,0.6-2.5s1.1,0.5,2.4,1.6c0.6,0.5,1.3,1.2,1.9,1.9c0.6,0.8,1.1,1.6,1.4,2.6
						c0.6,2,0.4,3.9,0,5.4C160.8,32.1,160.3,33,160.3,33z"/>
				</g>
			</g>
			<g>
				<defs>
					<rect id="SVGID_1_" x="73.9" y="158.9" width="81.9" height="15.8"/>
				</defs>
				<clipPath id="SVGID_2_">
					<use xlink:href="#SVGID_1_"  style="overflow:visible;"/>
				</clipPath>
				<g class="st7">
					<g>
						<path class="st8" d="M80.2,158.9l-6.3,15.8h75.6l6.3-15.8H80.2z"/>
					</g>
					<g>
						<path d="M147.8,163.2h-0.2l-0.1,0.2c-0.2,0.7-0.5,1.4-0.7,2.1c-0.2,0.5-0.4,1.1-0.5,1.6c-0.2,0.5-0.4,1.1-0.6,1.6l-0.1,0.2
							l-0.1-0.2c-0.1-0.2-0.1-0.3-0.2-0.5c-0.3-0.9-0.6-1.9-0.9-2.8c-0.2-0.7-0.5-1.4-0.7-2.1c0-0.1-0.1-0.1-0.2-0.1
							c-2.1,0-4.2,0-6.3,0v0h-0.3v1.3h0.1c0,0,0,0,0,0c0.5,0,1,0,1.6,0c0.1,0,0.2,0,0.2,0.2c0,2,0,4,0,6c0,0,0,0,0,0v0.1h1.4v-0.3h0
							c0-2,0-4,0-5.9c0-0.1,0-0.2,0.2-0.2c0.7,0,1.4,0,2.1,0c0.1,0,0.2,0,0.2,0.2c0.2,0.6,0.4,1.1,0.6,1.7c0.3,0.8,0.6,1.7,0.9,2.5
							c0.2,0.6,0.4,1.2,0.7,1.8c0,0,0,0,0,0l0,0.1h1.5l0-0.1c0.1-0.4,0.3-0.8,0.4-1.2c0.4-1,0.7-2.1,1.1-3.1
							c0.3-0.8,0.6-1.7,0.9-2.5c0.1-0.3,0.2-0.5,0.3-0.8c-0.1,0-0.1,0-0.2,0C148.7,163.2,148.3,163.2,147.8,163.2z"/>
					</g>
					<g>
						<path d="M118.9,167.3c-0.1-0.8-0.5-1.4-1.1-1.9c-0.6-0.5-1.3-0.7-2.1-0.6c-0.5,0-1,0.2-1.5,0.5c-0.8,0.5-1.3,1.3-1.4,2.3
							c0,0.3-0.1,0.6-0.1,0.8c-0.1,0.4-0.4,0.8-0.8,1c-0.4,0.2-0.8,0.1-1-0.3c-0.1-0.1-0.1-0.3-0.1-0.5c0-0.8,0-1.7,0-2.5
							c0-0.1,0-0.1,0.1-0.1c0.4,0,0.8,0,1.1,0c0,0,0.1,0,0.1,0v0h0v-1H112v0c-0.3,0-0.6,0-1,0c-0.1,0-0.2,0-0.2-0.2
							c0-0.4,0-0.9,0-1.3h0v-0.3h-1.4v0.3h0c0,1.7,0,3.4,0,5.1c0,0.2,0,0.5,0.1,0.7c0.2,0.6,0.6,1,1.2,1.2c0.4,0.1,0.8,0.1,1.1,0.1
							c0.6-0.1,1.1-0.4,1.4-1c0,0,0.1-0.1,0.1-0.1c0,0,0,0,0,0c0,0,0,0.1,0.1,0.1c0.2,0.3,0.4,0.5,0.7,0.7c0.8,0.5,1.6,0.6,2.5,0.4
							c0.8-0.2,1.5-0.6,1.9-1.3C118.9,168.8,119.1,168.1,118.9,167.3z M116.4,169.5c-1,0.3-2-0.3-2.2-1.3c-0.1-0.7,0-1.3,0.6-1.8
							c0.9-0.7,2.3-0.3,2.6,0.8c0,0.1,0.1,0.2,0.1,0.3c0,0.1,0,0.2,0,0.3C117.6,168.6,117.1,169.3,116.4,169.5z"/>
					</g>
					<g>
						<path d="M107.9,166.9c-0.4-0.3-0.8-0.5-1.2-0.7c-0.4-0.2-0.8-0.4-1.2-0.6c-0.4-0.2-0.5-0.6-0.3-1c0.2-0.5,0.8-0.7,1.3-0.5
							c0.3,0.1,0.5,0.4,0.5,0.7c0,0,0,0,0,0c0,0,0,0.1,0,0.1c0,0,0,0,0.1,0c0,0,0.1,0,0.1,0c0,0,0.1,0,0.1,0c0.1,0,0.3,0,0.4,0
							c0.2,0,0.4,0,0.6,0c0,0,0.1,0,0.1,0c0,0,0,0,0,0h0c0,0,0-0.1,0-0.1h0c0-0.1,0-0.3-0.1-0.4c-0.1-0.5-0.4-1-0.9-1.3
							c-0.7-0.4-1.4-0.5-2.2-0.3c-0.9,0.2-1.6,0.8-1.8,1.8c-0.1,0.7,0,1.3,0.6,1.8c0.4,0.4,0.8,0.5,1.3,0.7c0.4,0.2,0.8,0.3,1.2,0.5
							c0.2,0.1,0.3,0.3,0.4,0.5c0.1,0.4,0,0.7-0.3,1c-0.3,0.3-0.7,0.4-1.1,0.2c-0.5-0.2-0.7-0.6-0.8-1.1c0-0.1-0.1-0.1-0.1-0.1
							c-0.4,0-0.8,0-1.2,0c-0.1,0-0.1,0-0.1,0.1c0,0.2,0.1,0.5,0.1,0.7c0.3,1,1,1.4,1.8,1.6c0.4,0.1,0.8,0.1,1.2,0
							c0.4-0.1,0.9-0.2,1.2-0.5c0.6-0.5,0.8-1.2,0.8-1.9C108.7,167.7,108.4,167.2,107.9,166.9z"/>
					</g>
					<g>
						<path d="M102.7,166.8c-0.5-1.5-2.1-2.3-3.6-1.9c-1.2,0.3-2.1,1.4-2.2,2.7c-0.1,1.1,0.4,2.1,1.3,2.7c0.7,0.5,1.5,0.6,2.3,0.4
							c0.8-0.2,1.3-0.6,1.8-1.2c0.1-0.2,0.2-0.4,0.4-0.6c0,0-0.1,0-0.1,0c-0.4,0-0.8,0-1.2,0c0,0-0.1,0-0.1,0.1
							c-0.1,0.2-0.3,0.4-0.5,0.5c-0.3,0.2-0.7,0.2-1.1,0.2c-0.7-0.1-1.2-0.5-1.4-1.2c0-0.2,0-0.2,0.1-0.2c1.4,0,2.9,0,4.3,0
							c0.1,0,0.1,0,0.1-0.1C102.8,167.7,102.8,167.2,102.7,166.8z M101.3,167.2h-3.1c0-0.2,0.1-0.4,0.2-0.6c0.3-0.5,0.9-0.8,1.5-0.7
							c0.7,0,1.2,0.3,1.5,1c0,0.1,0.1,0.1,0.1,0.2C101.5,167.2,101.5,167.2,101.3,167.2z"/>
					</g>
					<g>
						<path d="M129.6,164.8c-1.6-0.4-3.2,0.5-3.7,2.2c-0.4,1.6,0.5,3.3,2.3,3.6c1.5,0.3,2.9-0.5,3.4-1.8c0,0,0,0,0,0l0,0h-1.3
							l-0.1,0.1c-0.2,0.3-0.4,0.5-0.8,0.6c-0.3,0.1-0.6,0.1-0.9,0.1c-0.6-0.1-1.2-0.5-1.4-1.2c0-0.2,0-0.2,0.2-0.2
							c1.4,0,2.8,0,4.3,0h0.2C132.1,166.8,131.3,165.2,129.6,164.8z M127.3,167.2c0-0.3,0.1-0.5,0.3-0.7c0.4-0.4,0.8-0.6,1.4-0.6
							c0.7,0,1.3,0.4,1.5,1c0,0.1,0,0.2,0.1,0.3H127.3z"/>
					</g>
					<g>
						<path d="M90.8,167.1c-0.2-0.8-0.7-1.5-1.4-1.9c-0.7-0.4-1.6-0.5-2.4-0.3c-1,0.2-1.6,0.8-2,1.7c-0.2,0.6-0.3,1.2-0.2,1.8
							c0.1,0.5,0.3,1,0.7,1.4c0.6,0.7,1.4,1,2.3,1c0.3,0,0.5-0.1,0.8-0.1c0.7-0.1,1.2-0.5,1.6-1C90.8,168.9,91,168,90.8,167.1z
							 M88.4,169.4c-0.9,0.3-1.9-0.2-2.2-1.1c-0.3-0.8,0-1.7,0.8-2.1c0.9-0.5,2.1-0.1,2.4,0.9c0.1,0.2,0.1,0.4,0.1,0.6
							C89.5,168.6,89.1,169.2,88.4,169.4z"/>
					</g>
					<g>
						<path d="M95.9,164.9L95.9,164.9l-0.6,0l-0.1,0.2l0,0c0,0.1-0.1,0.3-0.1,0.4c-0.4,1.1-0.8,2.2-1.1,3.3c0,0,0,0.1-0.1,0.1
							c-0.1-0.4-0.3-0.8-0.4-1.2c-0.3-0.8-0.6-1.7-0.9-2.5l0,0l-0.1-0.3h-1.4l0.1,0c0,0,0,0-0.1,0c0,0.1,0,0.1,0.1,0.2
							c0.3,0.9,0.7,1.9,1,2.8c0.3,0.9,0.7,1.8,1,2.6c0,0.1,0.1,0.1,0.2,0.1c0.4,0,0.7,0,1.1,0c0.1,0,0.2,0,0.2-0.1
							c0.3-0.8,0.6-1.6,0.9-2.3c0.3-0.8,0.6-1.7,0.9-2.5c0.1-0.2,0.2-0.5,0.3-0.7C96.4,164.9,96.1,164.9,95.9,164.9z"/>
					</g>
					<g>
						<path d="M84.5,169.3c-0.7,0-1.5,0-2.2,0c-0.2,0-0.2,0-0.2-0.2c0-2,0-4,0-6h0v-0.2h-1.5v0.2c0,0,0,0,0,0c0,1.2,0,2.4,0,3.7
							c0,1.2,0,2.5,0,3.7c0,0.1,0,0.2,0.1,0.2c1.3,0,2.5,0,3.8,0c0,0,0.1,0,0.1,0h0v-1.3L84.5,169.3L84.5,169.3L84.5,169.3z"/>
					</g>
					<g>
						<path d="M122.6,164.8c-0.5,0-1,0.2-1.3,0.7c0,0-0.1,0.1-0.1,0.1c0-0.1,0-0.1,0-0.2c0-0.1,0-0.2,0-0.4h0v-0.2h-1.3v0.2
							c0,1.8,0,3.6,0,5.4c0,0,0,0,0,0v0.1h0.1c0,0,0,0,0,0c0.2,0,0.4,0,0.6,0h0.7v0c0-0.1,0-0.1,0-0.1v0c0-0.9,0-1.9,0-2.8
							c0-0.2,0-0.4,0.1-0.6c0.1-0.4,0.4-0.7,0.8-0.9c0.2,0,0.4-0.1,0.5-0.1c0,0,0,0,0.1,0l0.1,0v-1.3L122.6,164.8L122.6,164.8z"/>
					</g>
					<g>
						<path d="M124.9,162.9h-1.3v1.2h1.3V162.9z"/>
					</g>
					<g>
						<path d="M123.5,166.1L123.5,166.1c0,1.1,0,2.2,0,3.3h0v1.2h1.3v-1.2h0c0-0.5,0-1.1,0-1.6c0-0.6,0-1.1,0-1.7h0v-1.2h-1.3
							L123.5,166.1L123.5,166.1z"/>
					</g>
					<g>
						<path d="M136.7,168.7c0-0.5-0.3-0.8-0.7-1.1c-0.4-0.2-0.8-0.3-1.2-0.5c-0.3-0.1-0.6-0.2-0.8-0.4c-0.2-0.2-0.3-0.5,0-0.8
							c0.2-0.2,0.5-0.2,0.7-0.2c0.3,0,0.5,0.2,0.5,0.5c0,0,0,0.1,0,0.1c0,0,0.7,0,1.1,0c0,0,0,0,0.1,0c0,0,0,0,0,0
							c0.1,0,0.1,0,0.1,0s0,0,0-0.1c0,0,0,0,0,0c-0.1-0.5-0.3-0.9-0.7-1.2c-0.7-0.4-1.5-0.5-2.3-0.1c-0.6,0.3-1,0.8-1,1.5
							c0,0.5,0.2,0.9,0.6,1.2c0.3,0.2,0.7,0.3,1.1,0.5c0.3,0.1,0.7,0.2,1,0.4c0.3,0.2,0.3,0.7,0,1c-0.5,0.4-1.3,0.2-1.4-0.4
							c0,0,0,0,0,0c0-0.1,0-0.1,0-0.1h-0.1c0,0,0,0-0.1,0c-0.4,0-0.7,0-1.1,0c0,0-0.1,0-0.1,0c0,0.7,0.4,1.2,0.8,1.4
							c0.7,0.4,1.4,0.5,2.2,0.3C136.2,170.4,136.7,169.6,136.7,168.7z"/>
					</g>
				</g>
			</g>
		</g>
		<g>
			<path class="st6" d="M64.9,95.6V82.7h8.6v2.4h-5.9v3.3h5.5v2.3h-5.5v4.9H64.9z"/>
			<path class="st6" d="M78.1,95.6h-2.7V82.7h2.7V95.6z"/>
			<path class="st6" d="M80.6,82.7h2.7v10.5h6v2.4h-8.7V82.7z"/>
			<path class="st6" d="M96.9,95.6l-3.2-8.4v8.4h-2.5V82.7h3.2l3.4,9.1l3.4-9.1h3.1v12.9h-2.5v-8.4l-3.1,8.4H96.9z"/>
			<path class="st6" d="M112.6,95.6l-3.2-8.4v8.4h-2.5V82.7h3.2l3.4,9.1l3.4-9.1h3.1v12.9h-2.5v-8.4l-3.1,8.4H112.6z"/>
			<path class="st6" d="M129.3,82.7l4.9,12.9h-2.7l-1.2-3.1h-4.8l-1.1,3.1h-2.7l4.9-12.9H129.3z M126.3,90.3h3.1l-1.6-4.3
				L126.3,90.3z"/>
			<path class="st6" d="M138.5,88.5l4.8-5.8h3.3l-4.9,5.8l5.1,7.1h-3.3l-3.8-5.3l-1.2,1.4v3.8h-2.7V82.7h2.7V88.5z"/>
			<path class="st6" d="M157,82.7v2.4h-6.1v2.8h5.5v2.3h-5.5v3.1h6.1v2.4h-8.8V82.7H157z"/>
			<path class="st6" d="M161.7,90.8v4.8h-2.7V82.7h5.3c2.7,0,4.5,1.4,4.5,4.1c0,2.1-1.1,3.4-2.9,3.8l3.4,5h-3l-3.2-4.8H161.7z
				 M161.7,88.6h2.5c1.3,0,2-0.7,2-1.8c0-1.1-0.7-1.8-2-1.8h-2.5V88.6z"/>
			<path class="st6" d="M64.5,116.8c-3.6,0-6.1-2.8-6.1-6.7c0-3.9,2.5-6.7,6.1-6.7c3.6,0,6.1,2.8,6.1,6.7
				C70.6,114,68.1,116.8,64.5,116.8z M64.5,105.9c-2,0-3.4,1.7-3.4,4.3s1.3,4.3,3.4,4.3c2.1,0,3.4-1.7,3.4-4.3
				S66.5,105.9,64.5,105.9z"/>
			<path class="st6" d="M72.5,116.6v-12.9h8.6v2.4h-5.9v3.3h5.5v2.3h-5.5v4.9H72.5z"/>
			<path class="st6" d="M86.7,103.7h11v2.4h-4.2v10.5h-2.7v-10.5h-4.1V103.7z"/>
			<path class="st6" d="M110.7,103.7v12.9H108v-5.4h-5.8v5.4h-2.7v-12.9h2.7v5.1h5.8v-5.1H110.7z"/>
			<path class="st6" d="M122,103.7v2.4h-6.1v2.8h5.5v2.3h-5.5v3.1h6.1v2.4h-8.8v-12.9H122z"/>
			<path class="st6" d="M136.6,103.7h2.8l-4.7,8v4.9h-2.7v-4.9l-4.6-8h2.9l3.1,5.5L136.6,103.7z"/>
			<path class="st6" d="M149.7,103.7v2.4h-6.1v2.8h5.5v2.3h-5.5v3.1h6.1v2.4h-8.8v-12.9H149.7z"/>
			<path class="st6" d="M158.5,103.7l4.9,12.9h-2.7l-1.2-3.1h-4.8l-1.1,3.1h-2.7l4.9-12.9H158.5z M155.5,111.3h3.1l-1.6-4.3
				L155.5,111.3z"/>
			<path class="st6" d="M167.6,111.8v4.8H165v-12.9h5.3c2.7,0,4.5,1.4,4.5,4.1c0,2.1-1.1,3.4-2.9,3.8l3.4,5h-3l-3.2-4.8H167.6z
				 M167.6,109.6h2.5c1.3,0,2-0.7,2-1.8c0-1.1-0.7-1.8-2-1.8h-2.5V109.6z"/>
		</g>
		<g>
			<g>
				<path class="st6" d="M98.6,29.2c1.9,0,2.5-0.4,3.3-1.2h0.1l-1.8,4.8H88.7v-0.1c5.1-5.3,7.9-7.6,7.9-10.9c0-2-1.3-2.9-3.1-2.9
					c-1.6,0-3,1.1-3.8,1.9l-0.2-0.2c1.8-2.7,4.1-4.9,6.7-4.9c2.7,0,4.7,1.8,4.7,4.3c0,2.9-4.5,6.3-8.3,9.2H98.6z"/>
			</g>
			<g>
				<path class="st6" d="M102.8,24.4c0-4.7,3.3-8.7,7.6-8.7c4.2,0,7.6,4,7.6,8.7c0,4.7-3.3,8.7-7.6,8.7
					C106.1,33.1,102.8,29.1,102.8,24.4z M107.4,24.4c0,4.6,0.8,8.1,2.9,8.1c2.1,0,2.9-3.6,2.9-8.1c0-4.6-0.8-8.1-2.9-8.1
					C108.3,16.3,107.4,19.8,107.4,24.4z"/>
			</g>
			<g>
				<path class="st6" d="M127.9,29.2c1.9,0,2.5-0.4,3.3-1.2h0.1l-1.8,4.8H118v-0.1c5.1-5.3,7.9-7.6,7.9-10.9c0-2-1.3-2.9-3.1-2.9
					c-1.6,0-3,1.1-3.8,1.9l-0.2-0.2c1.8-2.7,4.1-4.9,6.7-4.9c2.7,0,4.7,1.8,4.7,4.3c0,2.9-4.5,6.3-8.3,9.2H127.9z"/>
			</g>
			<g>
				<path class="st6" d="M134.6,20c0-0.4-0.1-0.7-0.6-0.7c-0.3,0-0.8,0.2-2.3,0.6l-0.1-0.3c2.6-1.1,5.7-3.1,6.7-3.9h0.2
					c-0.1,0.7-0.1,2.1-0.1,4.8v9.1c0,2.3,0.4,2.7,1.5,2.8l1.3,0.1v0.4c-1.6,0-3.2-0.1-4.7-0.1s-3.1,0-4.8,0.1v-0.4l1.4-0.1
					c1.1-0.1,1.5-0.5,1.5-2.8V20z"/>
			</g>
		</g>
	</g>
</g>
</svg>
